<?xml version="1.0" encoding="utf-8"?>
<!-- Generator: Adobe Illustrator 25.3.1, SVG Export Plug-In . SVG Version: 6.00 Build 0)  -->
<svg version="1.1" id="Layer_1" xmlns="http://www.w3.org/2000/svg" xmlns:xlink="http://www.w3.org/1999/xlink" x="0px" y="0px"
	 viewBox="0 0 600 551" style="enable-background:new 0 0 600 551;" xml:space="preserve">
<style type="text/css">
	.st0{display:none;}
	.st1{display:inline;fill:#FFFFFF;}
	.st2{display:inline;fill:#FDFDFD;}
	.st3{display:inline;fill:#FAFAFA;}
	.st4{display:inline;fill:#F8F8F8;}
	.st5{display:inline;fill:#F5F5F5;}
	.st6{display:inline;fill:#F3F3F3;}
	.st7{display:inline;fill:#F0F0F0;}
	.st8{display:inline;fill:#EEEEEE;}
	.st9{display:inline;fill:#ECECEC;}
	.st10{display:inline;fill:#E9E9E9;}
	.st11{display:inline;fill:#E7E7E7;}
	.st12{display:inline;fill:#E4E4E4;}
	.st13{display:inline;fill:#E2E2E2;}
	.st14{display:inline;fill:#DFDFDF;}
	.st15{display:inline;fill:#DDDDDD;}
	.st16{display:inline;fill:#DBDBDB;}
	.st17{display:inline;fill:#D8D8D8;}
	.st18{display:inline;fill:#D6D6D6;}
	.st19{display:inline;fill:#D3D3D3;}
	.st20{display:inline;fill:#D1D1D1;}
	.st21{display:inline;fill:#CECECE;}
	.st22{display:inline;fill:#CCCCCC;}
	.st23{fill:#4D4D4D;}
	.st24{fill:#FFFFFF;}
	.st25{fill:#065381;}
	.st26{fill:#064981;}
	.st27{fill:#FE5722;}
	.st28{fill:#FA471F;}
	.st29{fill:#E23A59;}
	.st30{fill:#CC3253;}
</style>
<g>
	
		<image style="display:none;overflow:visible;" width="542" height="50" xlink:href="AC1E5C41.png"  transform="matrix(1 0 0 1 24 520)">
	</image>
	<g>
		<g class="st0">
			<path class="st1" d="M121.6,217.5c18.9,0,36.7-5.1,52-14l85.9,148.7c-31.1,17.8-52.1,51.3-52.1,89.8
				c0,57.1,46.3,103.4,103.4,103.4S414.2,499.1,414.2,442c0-38.4-21-71.9-52.1-89.8l85.8-148.6c15.2,8.8,32.9,13.8,51.7,13.8
				c57.1,0,103.4-46.3,103.4-103.4S556.7,10.7,499.6,10.7S396.2,57,396.2,114.1H225C225,57,178.7,10.7,121.6,10.7
				S18.2,57,18.2,114.1S64.5,217.5,121.6,217.5z"/>
			<path class="st2" d="M121,217.4c18.9,0,36.7-5.1,52-14l85.9,148.7c-31.1,17.8-52.1,51.3-52.1,89.8c0,57.1,46.3,103.4,103.4,103.4
				S413.6,499,413.6,441.9c0-38.4-21-71.9-52.1-89.8l85.8-148.6c15.2,8.8,32.9,13.8,51.7,13.8c57.1,0,103.4-46.3,103.4-103.4
				S556.1,10.7,499,10.7S395.6,56.9,395.6,114H224.4c0-57.1-46.3-103.4-103.4-103.4S17.6,56.9,17.6,114S63.9,217.4,121,217.4z"/>
			<path class="st3" d="M120.4,217.4c18.9,0,36.7-5.1,52-14l85.9,148.7c-31.1,17.8-52.1,51.3-52.1,89.8
				c0,57.1,46.3,103.4,103.4,103.4S412.9,499,412.9,441.9c0-38.4-21-71.9-52.1-89.8l85.8-148.6c15.2,8.8,32.9,13.8,51.7,13.8
				c57.1,0,103.4-46.3,103.4-103.4S555.5,10.6,498.4,10.6S395,56.9,395,114H223.8c0-57.1-46.3-103.4-103.4-103.4S17,56.9,17,114
				S63.3,217.4,120.4,217.4z"/>
			<path class="st4" d="M119.7,217.4c18.9,0,36.7-5.1,52-14l85.9,148.7c-31.1,17.8-52.1,51.3-52.1,89.8
				c0,57.1,46.3,103.4,103.4,103.4S412.3,499,412.3,441.9c0-38.4-21-71.9-52.1-89.8L446,203.5c15.2,8.8,32.9,13.8,51.7,13.8
				c57.1,0,103.4-46.3,103.4-103.4S554.8,10.6,497.7,10.6S394.3,56.9,394.3,114H223.1c0-57.1-46.3-103.4-103.4-103.4
				S16.4,56.9,16.4,114S62.6,217.4,119.7,217.4z"/>
			<path class="st5" d="M119.1,217.3c18.9,0,36.7-5.1,52-14L257,352.1c-31.1,17.8-52.1,51.3-52.1,89.8
				c0,57.1,46.3,103.4,103.4,103.4s103.4-46.3,103.4-103.4c0-38.4-21-71.9-52.1-89.8l85.8-148.6c15.2,8.8,32.9,13.8,51.7,13.8
				c57.1,0,103.4-46.3,103.4-103.4S554.2,10.6,497.1,10.6c-57.1,0-103.4,46.3-103.4,103.4H222.5c0-57.1-46.3-103.4-103.4-103.4
				S15.7,56.8,15.7,113.9S62,217.3,119.1,217.3z"/>
			<path class="st6" d="M118.5,217.3c18.9,0,36.7-5.1,52-14L256.3,352c-31.1,17.8-52.1,51.3-52.1,89.8
				c0,57.1,46.3,103.4,103.4,103.4S411,498.9,411,441.8c0-38.4-21-71.9-52.1-89.8l85.8-148.6c15.2,8.8,32.9,13.8,51.7,13.8
				c57.1,0,103.4-46.3,103.4-103.4S553.6,10.5,496.5,10.5S393.1,56.8,393.1,113.9H221.9c0-57.1-46.3-103.4-103.4-103.4
				S15.1,56.8,15.1,113.9S61.4,217.3,118.5,217.3z"/>
			<path class="st7" d="M117.8,217.3c18.9,0,36.7-5.1,52-14L255.7,352c-31.1,17.8-52.1,51.3-52.1,89.8
				c0,57.1,46.3,103.4,103.4,103.4s103.4-46.3,103.4-103.4c0-38.4-21-71.9-52.1-89.8l85.8-148.6c15.2,8.8,32.9,13.8,51.7,13.8
				c57.1,0,103.4-46.3,103.4-103.4S552.9,10.5,495.8,10.5S392.4,56.8,392.4,113.9H221.2c0-57.1-46.3-103.4-103.4-103.4
				S14.5,56.8,14.5,113.9S60.7,217.3,117.8,217.3z"/>
			<path class="st8" d="M117.2,217.2c18.9,0,36.7-5.1,52-14L255.1,352C224,369.8,203,403.3,203,441.7c0,57.1,46.3,103.4,103.4,103.4
				s103.4-46.3,103.4-103.4c0-38.4-21-71.9-52.1-89.8l85.8-148.6c15.2,8.8,32.9,13.8,51.7,13.8c57.1,0,103.4-46.3,103.4-103.4
				S552.3,10.5,495.2,10.5S391.8,56.7,391.8,113.8H220.6c0-57.1-46.3-103.4-103.4-103.4S13.8,56.7,13.8,113.8
				S60.1,217.2,117.2,217.2z"/>
			<path class="st9" d="M116.6,217.2c18.9,0,36.7-5.1,52-14l85.9,148.7c-31.1,17.8-52.1,51.3-52.1,89.8
				c0,57.1,46.3,103.4,103.4,103.4s103.4-46.3,103.4-103.4c0-38.4-21-71.9-52.1-89.8l85.8-148.6c15.2,8.8,32.9,13.8,51.7,13.8
				c57.1,0,103.4-46.3,103.4-103.4S551.7,10.4,494.6,10.4S391.2,56.7,391.2,113.8H220c0-57.1-46.3-103.4-103.4-103.4
				S13.2,56.7,13.2,113.8S59.5,217.2,116.6,217.2z"/>
			<path class="st10" d="M116,217.2c18.9,0,36.7-5.1,52-14l85.9,148.7c-31.1,17.8-52.1,51.3-52.1,89.8
				c0,57.1,46.3,103.4,103.4,103.4s103.4-46.3,103.4-103.4c0-38.4-21-71.9-52.1-89.8l85.8-148.6c15.2,8.8,32.9,13.8,51.7,13.8
				c57.1,0,103.4-46.3,103.4-103.4S551,10.4,493.9,10.4S390.6,56.7,390.6,113.8H219.3c0-57.1-46.3-103.4-103.4-103.4
				S12.6,56.7,12.6,113.8S58.9,217.2,116,217.2z"/>
			<path class="st11" d="M115.3,217.1c18.9,0,36.7-5.1,52-14l85.9,148.7c-31.1,17.8-52.1,51.3-52.1,89.8
				c0,57.1,46.3,103.4,103.4,103.4s103.4-46.3,103.4-103.4c0-38.4-21-71.9-52.1-89.8l85.8-148.6c15.2,8.8,32.9,13.8,51.7,13.8
				c57.1,0,103.4-46.3,103.4-103.4S550.4,10.4,493.3,10.4S389.9,56.7,389.9,113.7H218.7c0-57.1-46.3-103.4-103.4-103.4
				S11.9,56.7,11.9,113.7S58.2,217.1,115.3,217.1z"/>
			<path class="st12" d="M114.7,217.1c18.9,0,36.7-5.1,52-14l85.9,148.7c-31.1,17.8-52.1,51.3-52.1,89.8
				c0,57.1,46.3,103.4,103.4,103.4s103.4-46.3,103.4-103.4c0-38.4-21-71.9-52.1-89.8L441,203.3c15.2,8.8,32.9,13.8,51.7,13.8
				c57.1,0,103.4-46.3,103.4-103.4S549.8,10.3,492.7,10.3S389.3,56.6,389.3,113.7H218.1c0-57.1-46.3-103.4-103.4-103.4
				S11.3,56.6,11.3,113.7S57.6,217.1,114.7,217.1z"/>
			<path class="st13" d="M114.1,217.1c18.9,0,36.7-5.1,52-14l85.9,148.7c-31.1,17.8-52.1,51.3-52.1,89.8
				c0,57.1,46.3,103.4,103.4,103.4s103.4-46.3,103.4-103.4c0-38.4-21-71.9-52.1-89.8l85.8-148.6c15.2,8.8,32.9,13.8,51.7,13.8
				c57.1,0,103.4-46.3,103.4-103.4S549.1,10.3,492,10.3c-57.1,0-103.4,46.3-103.4,103.4H217.4c0-57.1-46.3-103.4-103.4-103.4
				S10.7,56.6,10.7,113.7S57,217.1,114.1,217.1z"/>
			<path class="st14" d="M113.4,217c18.9,0,36.7-5.1,52-14l85.9,148.7c-31.1,17.8-52.1,51.3-52.1,89.8
				c0,57.1,46.3,103.4,103.4,103.4S406,498.6,406,441.5c0-38.4-21-71.9-52.1-89.8l85.8-148.6c15.2,8.8,32.9,13.8,51.7,13.8
				c57.1,0,103.4-46.3,103.4-103.4S548.5,10.3,491.4,10.3S388,56.6,388,113.6H216.8c0-57.1-46.3-103.4-103.4-103.4S10,56.6,10,113.6
				S56.3,217,113.4,217z"/>
			<path class="st15" d="M112.8,217c18.9,0,36.7-5.1,52-14l85.9,148.7c-31.1,17.8-52.1,51.3-52.1,89.8
				c0,57.1,46.3,103.4,103.4,103.4s103.4-46.3,103.4-103.4c0-38.4-21-71.9-52.1-89.8l85.8-148.6C454.3,212,472,217,490.8,217
				c57.1,0,103.4-46.3,103.4-103.4S547.9,10.2,490.8,10.2S387.4,56.5,387.4,113.6H216.2c0-57.1-46.3-103.4-103.4-103.4
				S9.4,56.5,9.4,113.6S55.7,217,112.8,217z"/>
			<path class="st16" d="M112.2,217c18.9,0,36.7-5.1,52-14L250,351.7C218.9,369.5,198,403,198,441.5c0,57.1,46.3,103.4,103.4,103.4
				s103.4-46.3,103.4-103.4c0-38.4-21-71.9-52.1-89.8l85.8-148.6c15.2,8.8,32.9,13.8,51.7,13.8c57.1,0,103.4-46.3,103.4-103.4
				S547.3,10.2,490.2,10.2S386.8,56.5,386.8,113.6H215.6c0-57.1-46.3-103.4-103.4-103.4S8.8,56.5,8.8,113.6S55.1,217,112.2,217z"/>
			<path class="st17" d="M111.5,216.9c18.9,0,36.7-5.1,52-14l85.9,148.7c-31.1,17.8-52.1,51.3-52.1,89.8
				c0,57.1,46.3,103.4,103.4,103.4s103.4-46.3,103.4-103.4c0-38.4-21-71.9-52.1-89.8l85.8-148.6c15.2,8.8,32.9,13.8,51.7,13.8
				c57.1,0,103.4-46.3,103.4-103.4S546.6,10.2,489.5,10.2S386.1,56.5,386.1,113.6H214.9c0-57.1-46.3-103.4-103.4-103.4
				S8.2,56.5,8.2,113.6S54.4,216.9,111.5,216.9z"/>
			<path class="st18" d="M110.9,216.9c18.9,0,36.7-5.1,52-14l85.9,148.7c-31.1,17.8-52.1,51.3-52.1,89.8
				c0,57.1,46.3,103.4,103.4,103.4s103.4-46.3,103.4-103.4c0-38.4-21-71.9-52.1-89.8l85.8-148.6c15.2,8.8,32.9,13.8,51.7,13.8
				c57.1,0,103.4-46.3,103.4-103.4S546,10.1,488.9,10.1S385.5,56.4,385.5,113.5H214.3c0-57.1-46.3-103.4-103.4-103.4
				S7.5,56.4,7.5,113.5S53.8,216.9,110.9,216.9z"/>
			<path class="st19" d="M110.3,216.9c18.9,0,36.7-5.1,52-14l85.9,148.7c-31.1,17.8-52.1,51.3-52.1,89.8
				c0,57.1,46.3,103.4,103.4,103.4s103.4-46.3,103.4-103.4c0-38.4-21-71.9-52.1-89.8L436.6,203c15.2,8.8,32.9,13.8,51.7,13.8
				c57.1,0,103.4-46.3,103.4-103.4S545.4,10.1,488.3,10.1S384.9,56.4,384.9,113.5H213.7c0-57.1-46.3-103.4-103.4-103.4
				S6.9,56.4,6.9,113.5S53.2,216.9,110.3,216.9z"/>
			<path class="st20" d="M109.6,216.8c18.9,0,36.7-5.1,52-14l85.9,148.7c-31.1,17.8-52.1,51.3-52.1,89.8
				c0,57.1,46.3,103.4,103.4,103.4s103.4-46.3,103.4-103.4c0-38.4-21-71.9-52.1-89.8L435.9,203c15.2,8.8,32.9,13.8,51.7,13.8
				c57.1,0,103.4-46.3,103.4-103.4S544.7,10.1,487.6,10.1S384.2,56.4,384.2,113.5H213c0-57.1-46.3-103.4-103.4-103.4
				S6.3,56.4,6.3,113.5S52.5,216.8,109.6,216.8z"/>
			<path class="st21" d="M109,216.8c18.9,0,36.7-5.1,52-14l85.9,148.7c-31.1,17.8-52.1,51.3-52.1,89.8
				c0,57.1,46.3,103.4,103.4,103.4s103.4-46.3,103.4-103.4c0-38.4-21-71.9-52.1-89.8L435.3,203c15.2,8.8,32.9,13.8,51.7,13.8
				c57.1,0,103.4-46.3,103.4-103.4S544.1,10,487,10c-57.1,0-103.4,46.3-103.4,103.4H212.4C212.4,56.3,166.1,10,109,10
				S5.6,56.3,5.6,113.4S51.9,216.8,109,216.8z"/>
			<path class="st22" d="M108.4,216.8c18.9,0,36.7-5.1,52-14l85.9,148.7c-31.1,17.8-52.1,51.3-52.1,89.8
				c0,57.1,46.3,103.4,103.4,103.4s103.4-46.3,103.4-103.4c0-38.4-21-71.9-52.1-89.8l85.8-148.6c15.2,8.8,32.9,13.8,51.7,13.8
				c57.1,0,103.4-46.3,103.4-103.4S543.5,10,486.4,10S383,56.3,383,113.4H211.8C211.8,56.3,165.5,10,108.4,10S5,56.3,5,113.4
				S51.3,216.8,108.4,216.8z"/>
		</g>
		<g>
			<polygon class="st23" points="297.6,440.4 108.8,113.4 486.4,113.4 			"/>
			<g>
				<circle class="st24" cx="297.6" cy="441.3" r="103.4"/>
				
					<ellipse transform="matrix(0.7071 -0.7071 0.7071 0.7071 -224.8672 339.653)" class="st25" cx="297.6" cy="441.3" rx="95.2" ry="95.2"/>
				<path class="st26" d="M392.7,441.3c0-52.6-42.6-95.2-95.2-95.2v190.3C350.1,536.4,392.7,493.8,392.7,441.3z"/>
			</g>
			<g>
				<circle class="st24" cx="486.4" cy="113.4" r="103.4"/>
				<circle class="st27" cx="486.4" cy="113.4" r="95.2"/>
				<path class="st28" d="M581.5,113.4c0-52.6-42.6-95.2-95.2-95.2v190.3C538.9,208.6,581.5,165.9,581.5,113.4z"/>
			</g>
			<g>
				<circle class="st24" cx="108.4" cy="113.4" r="103.4"/>
				<circle class="st29" cx="108.4" cy="113.4" r="95.2"/>
				<path class="st30" d="M203.6,113.4c0-52.6-42.6-95.2-95.2-95.2v190.3C160.9,208.6,203.6,165.9,203.6,113.4z"/>
			</g>
		</g>
	</g>
</g>
<g>
	<path class="st24" d="M231.8,262.5c-0.1,1.8-0.8,3.3-2,4.3s-2.8,1.6-4.8,1.6c-2.2,0-3.9-0.7-5.2-2.2s-1.9-3.5-1.9-6.1v-1
		c0-1.6,0.3-3.1,0.9-4.3s1.4-2.2,2.5-2.9s2.3-1,3.7-1c2,0,3.6,0.5,4.8,1.6s1.9,2.5,2.1,4.4h-3.5c-0.1-1.1-0.4-1.9-0.9-2.4
		s-1.3-0.7-2.4-0.7c-1.2,0-2,0.4-2.6,1.3s-0.9,2.1-0.9,3.9v1.3c0,1.8,0.3,3.2,0.8,4s1.4,1.3,2.6,1.3c1.1,0,1.9-0.2,2.4-0.7
		s0.8-1.3,0.9-2.3H231.8z"/>
	<path class="st24" d="M241.2,268.2c-0.2-0.3-0.3-0.7-0.3-1.1c-0.8,0.9-1.9,1.4-3.2,1.4c-1.2,0-2.3-0.4-3.1-1.1s-1.2-1.6-1.2-2.7
		c0-1.3,0.5-2.4,1.5-3.1s2.4-1.1,4.3-1.1h1.6v-0.7c0-0.6-0.2-1.1-0.5-1.4s-0.8-0.5-1.4-0.5c-0.6,0-1,0.1-1.3,0.4s-0.5,0.6-0.5,1.1
		h-3.4c0-0.7,0.2-1.4,0.7-2s1.1-1.1,1.9-1.5s1.8-0.5,2.8-0.5c1.6,0,2.8,0.4,3.7,1.2s1.4,1.9,1.4,3.3v5.5c0,1.2,0.2,2.1,0.5,2.7v0.2
		H241.2z M238.4,265.9c0.5,0,1-0.1,1.4-0.3s0.7-0.5,0.9-0.9v-2.2h-1.3c-1.7,0-2.6,0.6-2.7,1.8l0,0.2c0,0.4,0.1,0.8,0.4,1
		S237.9,265.9,238.4,265.9z"/>
	<path class="st24" d="M253.9,258.7c-0.5-0.1-0.9-0.1-1.2-0.1c-1.3,0-2.1,0.4-2.5,1.3v8.3h-3.4v-12.7h3.2l0.1,1.5
		c0.7-1.2,1.6-1.7,2.8-1.7c0.4,0,0.7,0.1,1.1,0.2L253.9,258.7z"/>
	<path class="st24" d="M261.1,268.5c-1.9,0-3.4-0.6-4.5-1.7s-1.8-2.7-1.8-4.6v-0.3c0-1.3,0.2-2.4,0.7-3.4s1.2-1.8,2.1-2.3
		s1.9-0.8,3.1-0.8c1.7,0,3.1,0.5,4.1,1.6s1.5,2.6,1.5,4.7v1.4h-8.1c0.1,0.8,0.4,1.5,1,2s1.2,0.8,2.1,0.8c1.3,0,2.3-0.5,3.1-1.4
		l1.7,1.9c-0.5,0.7-1.2,1.3-2.1,1.7S262.2,268.5,261.1,268.5z M260.7,258c-0.7,0-1.2,0.2-1.6,0.7c-0.4,0.5-0.7,1.1-0.8,2h4.7v-0.3
		c0-0.8-0.2-1.3-0.6-1.7C262,258.2,261.5,258,260.7,258z"/>
	<path class="st24" d="M274.1,268.5c-1.9,0-3.4-0.6-4.5-1.7s-1.8-2.7-1.8-4.6v-0.3c0-1.3,0.2-2.4,0.7-3.4s1.2-1.8,2.1-2.3
		s1.9-0.8,3.1-0.8c1.7,0,3.1,0.5,4.1,1.6s1.5,2.6,1.5,4.7v1.4h-8.1c0.1,0.8,0.4,1.5,1,2s1.2,0.8,2.1,0.8c1.3,0,2.3-0.5,3.1-1.4
		l1.7,1.9c-0.5,0.7-1.2,1.3-2.1,1.7S275.2,268.5,274.1,268.5z M273.7,258c-0.7,0-1.2,0.2-1.6,0.7c-0.4,0.5-0.7,1.1-0.8,2h4.7v-0.3
		c0-0.8-0.2-1.3-0.6-1.7C275,258.2,274.4,258,273.7,258z"/>
	<path class="st24" d="M288.4,258.7c-0.5-0.1-0.9-0.1-1.2-0.1c-1.3,0-2.1,0.4-2.5,1.3v8.3h-3.4v-12.7h3.2l0.1,1.5
		c0.7-1.2,1.6-1.7,2.8-1.7c0.4,0,0.7,0.1,1.1,0.2L288.4,258.7z"/>
	<path class="st24" d="M309.1,251.2v11.2c0,1.9-0.6,3.3-1.8,4.4s-2.8,1.6-4.8,1.6c-2,0-3.6-0.5-4.7-1.6s-1.8-2.5-1.8-4.3v-11.4h3.5
		v11.3c0,1.1,0.3,1.9,0.8,2.4s1.3,0.8,2.2,0.8c2,0,3-1,3-3.1v-11.4H309.1z"/>
	<path class="st24" d="M323.2,262c0,2-0.4,3.5-1.3,4.7s-2.1,1.8-3.6,1.8c-1.3,0-2.3-0.4-3.1-1.3v6h-3.4v-17.6h3.1l0.1,1.2
		c0.8-1,1.9-1.5,3.2-1.5c1.6,0,2.8,0.6,3.6,1.7s1.3,2.8,1.3,4.8V262z M319.8,261.8c0-1.2-0.2-2.1-0.6-2.7s-1-1-1.8-1
		c-1.1,0-1.8,0.4-2.2,1.2v5.2c0.4,0.8,1.2,1.3,2.2,1.3C319,265.7,319.8,264.4,319.8,261.8z"/>
	<path class="st24" d="M324.8,261.8c0-1.9,0.5-3.5,1.4-4.7s2.2-1.8,3.7-1.8c1.4,0,2.5,0.5,3.2,1.4l0.1-1.2h3.1v12.3
		c0,1.1-0.3,2.1-0.8,2.9s-1.2,1.4-2.1,1.9s-2,0.6-3.2,0.6c-0.9,0-1.8-0.2-2.7-0.6s-1.6-0.8-2-1.4l1.5-2.1c0.8,0.9,1.9,1.4,3.1,1.4
		c0.9,0,1.6-0.2,2.1-0.7s0.8-1.2,0.8-2v-0.7c-0.8,0.9-1.8,1.3-3.1,1.3c-1.5,0-2.8-0.6-3.7-1.8s-1.4-2.8-1.4-4.7V261.8z M328.2,262
		c0,1.2,0.2,2.1,0.7,2.7s1.1,1,1.9,1c1,0,1.8-0.4,2.2-1.2v-5.3c-0.5-0.8-1.2-1.2-2.2-1.2c-0.8,0-1.5,0.3-1.9,1
		S328.2,260.7,328.2,262z"/>
	<path class="st24" d="M346.1,258.7c-0.5-0.1-0.9-0.1-1.2-0.1c-1.3,0-2.1,0.4-2.5,1.3v8.3H339v-12.7h3.2l0.1,1.5
		c0.7-1.2,1.6-1.7,2.8-1.7c0.4,0,0.7,0.1,1.1,0.2L346.1,258.7z"/>
	<path class="st24" d="M354.7,268.2c-0.2-0.3-0.3-0.7-0.3-1.1c-0.8,0.9-1.9,1.4-3.2,1.4c-1.2,0-2.3-0.4-3.1-1.1s-1.2-1.6-1.2-2.7
		c0-1.3,0.5-2.4,1.5-3.1s2.4-1.1,4.3-1.1h1.6v-0.7c0-0.6-0.2-1.1-0.5-1.4s-0.8-0.5-1.4-0.5c-0.6,0-1,0.1-1.3,0.4s-0.5,0.6-0.5,1.1
		h-3.4c0-0.7,0.2-1.4,0.7-2s1.1-1.1,1.9-1.5s1.8-0.5,2.8-0.5c1.6,0,2.8,0.4,3.7,1.2s1.4,1.9,1.4,3.3v5.5c0,1.2,0.2,2.1,0.5,2.7v0.2
		H354.7z M351.9,265.9c0.5,0,1-0.1,1.4-0.3s0.7-0.5,0.9-0.9v-2.2H353c-1.7,0-2.6,0.6-2.7,1.8l0,0.2c0,0.4,0.1,0.8,0.4,1
		S351.4,265.9,351.9,265.9z"/>
	<path class="st24" d="M359.7,261.8c0-2,0.4-3.6,1.3-4.7s2.1-1.8,3.6-1.8c1.2,0,2.3,0.5,3.1,1.4v-6.5h3.4v18h-3.1l-0.2-1.3
		c-0.8,1.1-1.9,1.6-3.3,1.6c-1.5,0-2.7-0.6-3.6-1.8S359.7,263.9,359.7,261.8z M363.1,262c0,1.2,0.2,2.1,0.6,2.7s1,1,1.8,1
		c1,0,1.8-0.4,2.2-1.3v-5c-0.4-0.9-1.2-1.3-2.2-1.3C363.9,258.1,363.1,259.4,363.1,262z"/>
	<path class="st24" d="M379.6,268.5c-1.9,0-3.4-0.6-4.5-1.7s-1.8-2.7-1.8-4.6v-0.3c0-1.3,0.2-2.4,0.7-3.4s1.2-1.8,2.1-2.3
		s1.9-0.8,3.1-0.8c1.7,0,3.1,0.5,4.1,1.6s1.5,2.6,1.5,4.7v1.4h-8.1c0.1,0.8,0.4,1.5,1,2s1.2,0.8,2.1,0.8c1.3,0,2.3-0.5,3.1-1.4
		l1.7,1.9c-0.5,0.7-1.2,1.3-2.1,1.7S380.7,268.5,379.6,268.5z M379.2,258c-0.7,0-1.2,0.2-1.6,0.7c-0.4,0.5-0.7,1.1-0.8,2h4.7v-0.3
		c0-0.8-0.2-1.3-0.6-1.7C380.5,258.2,379.9,258,379.2,258z"/>
</g>
<g>
	<path class="st24" d="M72.1,109.5h-4.2v11.6h-2.3v-11.6h-4.2v-1.9h10.7V109.5z"/>
	<path class="st24" d="M77.3,121.3c-1.4,0-2.6-0.5-3.5-1.3c-0.9-0.9-1.3-2.1-1.3-3.6V116c0-1,0.2-1.9,0.6-2.7
		c0.4-0.8,0.9-1.4,1.6-1.8c0.7-0.4,1.5-0.7,2.3-0.7c1.4,0,2.4,0.4,3.2,1.3c0.7,0.9,1.1,2.1,1.1,3.7v0.9h-6.6c0.1,0.8,0.3,1.5,0.8,2
		c0.5,0.5,1.1,0.7,1.8,0.7c1,0,1.9-0.4,2.5-1.3l1.2,1.2c-0.4,0.6-0.9,1.1-1.6,1.4C78.8,121.1,78.1,121.3,77.3,121.3z M77,112.7
		c-0.6,0-1.1,0.2-1.5,0.6c-0.4,0.4-0.6,1-0.7,1.8h4.3V115c0-0.8-0.3-1.3-0.6-1.7C78.1,112.9,77.6,112.7,77,112.7z"/>
	<path class="st24" d="M87.2,119.5c0.6,0,1-0.2,1.4-0.5c0.4-0.3,0.6-0.7,0.6-1.2h2.1c0,0.6-0.2,1.2-0.6,1.7c-0.4,0.5-0.9,1-1.5,1.3
		c-0.6,0.3-1.3,0.5-2,0.5c-1.4,0-2.5-0.5-3.3-1.4c-0.8-0.9-1.2-2.2-1.2-3.8v-0.2c0-1.5,0.4-2.8,1.2-3.7c0.8-0.9,1.9-1.4,3.3-1.4
		c1.2,0,2.2,0.3,2.9,1c0.8,0.7,1.1,1.6,1.2,2.7h-2.1c0-0.6-0.2-1-0.6-1.4c-0.4-0.4-0.8-0.6-1.4-0.6c-0.7,0-1.3,0.3-1.7,0.8
		c-0.4,0.5-0.6,1.3-0.6,2.4v0.4c0,1.1,0.2,1.9,0.6,2.4C85.8,119.2,86.4,119.5,87.2,119.5z"/>
	<path class="st24" d="M95.2,112.1c0.7-0.9,1.7-1.3,2.8-1.3c2.1,0,3.2,1.2,3.3,3.7v6.6H99v-6.5c0-0.7-0.1-1.2-0.4-1.5
		c-0.3-0.3-0.7-0.4-1.3-0.4c-0.9,0-1.6,0.4-2,1.2v7.2h-2.3v-14.2h2.3V112.1z"/>
	<path class="st24" d="M105.6,111l0.1,1.2c0.7-0.9,1.7-1.3,2.9-1.3c2.1,0,3.2,1.2,3.2,3.6v6.6h-2.3v-6.5c0-0.6-0.1-1.1-0.4-1.4
		c-0.3-0.3-0.7-0.5-1.4-0.5c-0.9,0-1.6,0.4-2,1.2v7.1h-2.3v-10H105.6z"/>
	<path class="st24" d="M114.1,108.4c0-0.3,0.1-0.6,0.3-0.9c0.2-0.2,0.5-0.3,0.9-0.3s0.7,0.1,0.9,0.3s0.3,0.5,0.3,0.9
		c0,0.3-0.1,0.6-0.3,0.8s-0.5,0.3-0.9,0.3s-0.7-0.1-0.9-0.3C114.2,109.1,114.1,108.8,114.1,108.4z M116.5,121.1h-2.3v-10h2.3V121.1z
		"/>
	<path class="st24" d="M123.1,119.5c0.6,0,1-0.2,1.4-0.5c0.4-0.3,0.6-0.7,0.6-1.2h2.1c0,0.6-0.2,1.2-0.6,1.7c-0.4,0.5-0.9,1-1.5,1.3
		c-0.6,0.3-1.3,0.5-2,0.5c-1.4,0-2.5-0.5-3.3-1.4c-0.8-0.9-1.2-2.2-1.2-3.8v-0.2c0-1.5,0.4-2.8,1.2-3.7c0.8-0.9,1.9-1.4,3.3-1.4
		c1.2,0,2.2,0.3,2.9,1c0.8,0.7,1.1,1.6,1.2,2.7h-2.1c0-0.6-0.2-1-0.6-1.4c-0.4-0.4-0.8-0.6-1.4-0.6c-0.7,0-1.3,0.3-1.7,0.8
		c-0.4,0.5-0.6,1.3-0.6,2.4v0.4c0,1.1,0.2,1.9,0.6,2.4C121.8,119.2,122.3,119.5,123.1,119.5z"/>
	<path class="st24" d="M134.9,121.1c-0.1-0.2-0.2-0.5-0.3-0.9c-0.7,0.7-1.6,1.1-2.6,1.1c-1,0-1.8-0.3-2.5-0.9c-0.6-0.6-1-1.3-1-2.1
		c0-1.1,0.4-1.9,1.2-2.5c0.8-0.6,1.9-0.9,3.4-0.9h1.4v-0.7c0-0.5-0.1-0.9-0.4-1.2c-0.3-0.3-0.7-0.5-1.3-0.5c-0.5,0-0.9,0.1-1.3,0.4
		c-0.3,0.3-0.5,0.6-0.5,1h-2.3c0-0.6,0.2-1.1,0.5-1.5c0.4-0.5,0.9-0.9,1.5-1.1c0.6-0.3,1.3-0.4,2.1-0.4c1.2,0,2.1,0.3,2.8,0.9
		c0.7,0.6,1.1,1.4,1.1,2.5v4.5c0,0.9,0.1,1.6,0.4,2.2v0.2H134.9z M132.4,119.5c0.4,0,0.9-0.1,1.3-0.3c0.4-0.2,0.7-0.5,0.9-0.9v-1.9
		h-1.2c-0.8,0-1.5,0.1-1.9,0.4c-0.4,0.3-0.6,0.7-0.6,1.2c0,0.4,0.1,0.8,0.4,1C131.5,119.3,131.9,119.5,132.4,119.5z"/>
	<path class="st24" d="M141.6,121.1h-2.3v-14.2h2.3V121.1z"/>
	<path class="st24" d="M149.4,122.2h-1.8l5.3-14.7h1.8L149.4,122.2z"/>
	<path class="st24" d="M61.9,138.2h-5.4v5.7h-2.3v-13.5h8.6v1.9h-6.2v4h5.4V138.2z"/>
	<path class="st24" d="M70.2,142.9c-0.7,0.8-1.6,1.2-2.8,1.2c-1.1,0-1.9-0.3-2.5-1c-0.6-0.6-0.8-1.6-0.8-2.8v-6.5h2.3v6.5
		c0,1.3,0.5,1.9,1.6,1.9c1.1,0,1.8-0.4,2.2-1.2v-7.2h2.3v10h-2.1L70.2,142.9z"/>
	<path class="st24" d="M76.8,133.8l0.1,1.2c0.7-0.9,1.7-1.3,2.9-1.3c2.1,0,3.2,1.2,3.2,3.6v6.6h-2.3v-6.5c0-0.6-0.1-1.1-0.4-1.4
		c-0.3-0.3-0.7-0.5-1.4-0.5c-0.9,0-1.6,0.4-2,1.2v7.1h-2.3v-10H76.8z"/>
	<path class="st24" d="M89.4,142.3c0.6,0,1-0.2,1.4-0.5c0.4-0.3,0.6-0.7,0.6-1.2h2.1c0,0.6-0.2,1.2-0.6,1.7c-0.4,0.5-0.9,1-1.5,1.3
		c-0.6,0.3-1.3,0.5-2,0.5c-1.4,0-2.5-0.5-3.3-1.4c-0.8-0.9-1.2-2.2-1.2-3.8v-0.2c0-1.5,0.4-2.8,1.2-3.7c0.8-0.9,1.9-1.4,3.3-1.4
		c1.2,0,2.2,0.3,2.9,1c0.8,0.7,1.1,1.6,1.2,2.7h-2.1c0-0.6-0.2-1-0.6-1.4c-0.4-0.4-0.8-0.6-1.4-0.6c-0.7,0-1.3,0.3-1.7,0.8
		c-0.4,0.5-0.6,1.3-0.6,2.4v0.4c0,1.1,0.2,1.9,0.6,2.4C88.1,142,88.6,142.3,89.4,142.3z"/>
	<path class="st24" d="M98,131.4v2.4h1.8v1.7H98v5.6c0,0.4,0.1,0.7,0.2,0.8c0.2,0.2,0.4,0.3,0.8,0.3c0.3,0,0.5,0,0.8-0.1v1.7
		c-0.5,0.1-1,0.2-1.5,0.2c-1.7,0-2.6-1-2.6-2.9v-5.7h-1.7v-1.7h1.7v-2.4H98z"/>
	<path class="st24" d="M101.5,131.2c0-0.3,0.1-0.6,0.3-0.9c0.2-0.2,0.5-0.3,0.9-0.3s0.7,0.1,0.9,0.3s0.3,0.5,0.3,0.9
		c0,0.3-0.1,0.6-0.3,0.8s-0.5,0.3-0.9,0.3s-0.7-0.1-0.9-0.3C101.6,131.9,101.5,131.6,101.5,131.2z M103.9,143.9h-2.3v-10h2.3V143.9z
		"/>
	<path class="st24" d="M106,138.8c0-1,0.2-1.9,0.6-2.7c0.4-0.8,0.9-1.4,1.6-1.8s1.5-0.6,2.4-0.6c1.4,0,2.5,0.4,3.3,1.3
		c0.8,0.9,1.3,2,1.4,3.5l0,0.5c0,1-0.2,1.9-0.6,2.7c-0.4,0.8-0.9,1.4-1.6,1.8c-0.7,0.4-1.5,0.6-2.5,0.6c-1.4,0-2.5-0.5-3.4-1.4
		c-0.9-0.9-1.3-2.2-1.3-3.8V138.8z M108.2,139c0,1,0.2,1.8,0.6,2.4c0.4,0.6,1,0.9,1.8,0.9s1.4-0.3,1.8-0.9c0.4-0.6,0.6-1.5,0.6-2.6
		c0-1-0.2-1.8-0.7-2.4c-0.4-0.6-1-0.9-1.8-0.9c-0.7,0-1.3,0.3-1.8,0.9C108.4,136.9,108.2,137.8,108.2,139z"/>
	<path class="st24" d="M119.3,133.8l0.1,1.2c0.7-0.9,1.7-1.3,2.9-1.3c2.1,0,3.2,1.2,3.2,3.6v6.6h-2.3v-6.5c0-0.6-0.1-1.1-0.4-1.4
		c-0.3-0.3-0.7-0.5-1.4-0.5c-0.9,0-1.6,0.4-2,1.2v7.1h-2.3v-10H119.3z"/>
	<path class="st24" d="M133.8,143.9c-0.1-0.2-0.2-0.5-0.3-0.9c-0.7,0.7-1.6,1.1-2.6,1.1c-1,0-1.8-0.3-2.5-0.9c-0.6-0.6-1-1.3-1-2.1
		c0-1.1,0.4-1.9,1.2-2.5c0.8-0.6,1.9-0.9,3.4-0.9h1.4v-0.7c0-0.5-0.1-0.9-0.4-1.2c-0.3-0.3-0.7-0.5-1.3-0.5c-0.5,0-0.9,0.1-1.3,0.4
		c-0.3,0.3-0.5,0.6-0.5,1h-2.3c0-0.6,0.2-1.1,0.5-1.5c0.4-0.5,0.9-0.9,1.5-1.1c0.6-0.3,1.3-0.4,2.1-0.4c1.2,0,2.1,0.3,2.8,0.9
		c0.7,0.6,1.1,1.4,1.1,2.5v4.5c0,0.9,0.1,1.6,0.4,2.2v0.2H133.8z M131.3,142.3c0.4,0,0.9-0.1,1.3-0.3c0.4-0.2,0.7-0.5,0.9-0.9v-1.9
		h-1.2c-0.8,0-1.5,0.1-1.9,0.4c-0.4,0.3-0.6,0.7-0.6,1.2c0,0.4,0.1,0.8,0.4,1C130.4,142.1,130.8,142.3,131.3,142.3z"/>
	<path class="st24" d="M140.4,143.9h-2.3v-14.2h2.3V143.9z"/>
	<path class="st24" d="M150.5,131.4v2.4h1.8v1.7h-1.8v5.6c0,0.4,0.1,0.7,0.2,0.8c0.2,0.2,0.4,0.3,0.8,0.3c0.3,0,0.5,0,0.8-0.1v1.7
		c-0.5,0.1-1,0.2-1.5,0.2c-1.7,0-2.6-1-2.6-2.9v-5.7h-1.7v-1.7h1.7v-2.4H150.5z"/>
	<path class="st24" d="M153.2,138.8c0-1,0.2-1.9,0.6-2.7c0.4-0.8,0.9-1.4,1.6-1.8s1.5-0.6,2.4-0.6c1.4,0,2.5,0.4,3.3,1.3
		c0.8,0.9,1.3,2,1.4,3.5l0,0.5c0,1-0.2,1.9-0.6,2.7c-0.4,0.8-0.9,1.4-1.6,1.8c-0.7,0.4-1.5,0.6-2.5,0.6c-1.4,0-2.5-0.5-3.4-1.4
		c-0.9-0.9-1.3-2.2-1.3-3.8V138.8z M155.5,139c0,1,0.2,1.8,0.6,2.4c0.4,0.6,1,0.9,1.8,0.9s1.4-0.3,1.8-0.9c0.4-0.6,0.6-1.5,0.6-2.6
		c0-1-0.2-1.8-0.7-2.4c-0.4-0.6-1-0.9-1.8-0.9c-0.7,0-1.3,0.3-1.8,0.9C155.7,136.9,155.5,137.8,155.5,139z"/>
	<path class="st24" d="M64.8,153.2l3.9,10.4l3.9-10.4h3v13.5h-2.3v-4.5l0.2-6l-4,10.4h-1.7l-4-10.4l0.2,5.9v4.5h-2.3v-13.5H64.8z"/>
	<path class="st24" d="M84.1,166.7c-0.1-0.2-0.2-0.5-0.3-0.9c-0.7,0.7-1.6,1.1-2.6,1.1c-1,0-1.8-0.3-2.5-0.9c-0.6-0.6-1-1.3-1-2.1
		c0-1.1,0.4-1.9,1.2-2.5c0.8-0.6,1.9-0.9,3.4-0.9h1.4v-0.7c0-0.5-0.1-0.9-0.4-1.2c-0.3-0.3-0.7-0.5-1.3-0.5c-0.5,0-0.9,0.1-1.3,0.4
		c-0.3,0.3-0.5,0.6-0.5,1H78c0-0.6,0.2-1.1,0.5-1.5c0.4-0.5,0.9-0.9,1.5-1.1c0.6-0.3,1.3-0.4,2.1-0.4c1.2,0,2.1,0.3,2.8,0.9
		c0.7,0.6,1.1,1.4,1.1,2.5v4.5c0,0.9,0.1,1.6,0.4,2.2v0.2H84.1z M81.7,165.1c0.4,0,0.9-0.1,1.3-0.3c0.4-0.2,0.7-0.5,0.9-0.9V162
		h-1.2c-0.8,0-1.5,0.1-1.9,0.4c-0.4,0.3-0.6,0.7-0.6,1.2c0,0.4,0.1,0.8,0.4,1C80.8,164.9,81.2,165.1,81.7,165.1z"/>
	<path class="st24" d="M90.5,156.6l0.1,1.2c0.7-0.9,1.7-1.3,2.9-1.3c2.1,0,3.2,1.2,3.2,3.6v6.6h-2.3v-6.5c0-0.6-0.1-1.1-0.4-1.4
		c-0.3-0.3-0.7-0.5-1.4-0.5c-0.9,0-1.6,0.4-2,1.2v7.1h-2.3v-10H90.5z"/>
	<path class="st24" d="M105,166.7c-0.1-0.2-0.2-0.5-0.3-0.9c-0.7,0.7-1.6,1.1-2.6,1.1c-1,0-1.8-0.3-2.5-0.9c-0.6-0.6-1-1.3-1-2.1
		c0-1.1,0.4-1.9,1.2-2.5c0.8-0.6,1.9-0.9,3.4-0.9h1.4v-0.7c0-0.5-0.1-0.9-0.4-1.2c-0.3-0.3-0.7-0.5-1.3-0.5c-0.5,0-0.9,0.1-1.3,0.4
		c-0.3,0.3-0.5,0.6-0.5,1h-2.3c0-0.6,0.2-1.1,0.5-1.5c0.4-0.5,0.9-0.9,1.5-1.1c0.6-0.3,1.3-0.4,2.1-0.4c1.2,0,2.1,0.3,2.8,0.9
		c0.7,0.6,1.1,1.4,1.1,2.5v4.5c0,0.9,0.1,1.6,0.4,2.2v0.2H105z M102.5,165.1c0.4,0,0.9-0.1,1.3-0.3c0.4-0.2,0.7-0.5,0.9-0.9V162
		h-1.2c-0.8,0-1.5,0.1-1.9,0.4c-0.4,0.3-0.6,0.7-0.6,1.2c0,0.4,0.1,0.8,0.4,1C101.6,164.9,102,165.1,102.5,165.1z"/>
	<path class="st24" d="M108.9,161.6c0-1.6,0.4-2.8,1.1-3.7c0.7-0.9,1.7-1.4,2.9-1.4c1.1,0,2,0.4,2.7,1.2l0.1-1h2v9.7
		c0,1.3-0.4,2.4-1.2,3.1c-0.8,0.8-1.9,1.1-3.3,1.1c-0.7,0-1.5-0.2-2.2-0.5c-0.7-0.3-1.2-0.7-1.6-1.2l1.1-1.4
		c0.7,0.8,1.5,1.2,2.6,1.2c0.7,0,1.3-0.2,1.8-0.6c0.4-0.4,0.6-1,0.6-1.8v-0.7c-0.6,0.7-1.5,1.1-2.6,1.1c-1.2,0-2.1-0.5-2.9-1.4
		C109.2,164.5,108.9,163.2,108.9,161.6z M111.1,161.8c0,1,0.2,1.8,0.6,2.4c0.4,0.6,1,0.9,1.7,0.9c0.9,0,1.6-0.4,2-1.2v-4.4
		c-0.4-0.8-1.1-1.1-2-1.1c-0.7,0-1.3,0.3-1.7,0.9C111.3,159.8,111.1,160.6,111.1,161.8z"/>
	<path class="st24" d="M124.5,166.9c-1.4,0-2.6-0.5-3.5-1.3c-0.9-0.9-1.3-2.1-1.3-3.6v-0.3c0-1,0.2-1.9,0.6-2.7
		c0.4-0.8,0.9-1.4,1.6-1.8c0.7-0.4,1.5-0.7,2.3-0.7c1.4,0,2.4,0.4,3.2,1.3c0.7,0.9,1.1,2.1,1.1,3.7v0.9h-6.6c0.1,0.8,0.3,1.5,0.8,2
		c0.5,0.5,1.1,0.7,1.8,0.7c1,0,1.9-0.4,2.5-1.3l1.2,1.2c-0.4,0.6-0.9,1.1-1.6,1.4C126,166.7,125.3,166.9,124.5,166.9z M124.2,158.3
		c-0.6,0-1.1,0.2-1.5,0.6c-0.4,0.4-0.6,1-0.7,1.8h4.3v-0.2c0-0.8-0.3-1.3-0.6-1.7C125.3,158.5,124.8,158.3,124.2,158.3z"/>
	<path class="st24" d="M135.5,158.7c-0.3,0-0.6-0.1-0.9-0.1c-1,0-1.7,0.4-2.1,1.2v6.9h-2.3v-10h2.2l0.1,1.1c0.5-0.9,1.3-1.3,2.3-1.3
		c0.3,0,0.6,0,0.8,0.1L135.5,158.7z"/>
	<path class="st24" d="M136.9,154c0-0.3,0.1-0.6,0.3-0.9c0.2-0.2,0.5-0.3,0.9-0.3s0.7,0.1,0.9,0.3s0.3,0.5,0.3,0.9
		c0,0.3-0.1,0.6-0.3,0.8s-0.5,0.3-0.9,0.3s-0.7-0.1-0.9-0.3C137,154.7,136.9,154.4,136.9,154z M139.3,166.7H137v-10h2.3V166.7z"/>
	<path class="st24" d="M147.8,166.7c-0.1-0.2-0.2-0.5-0.3-0.9c-0.7,0.7-1.6,1.1-2.6,1.1c-1,0-1.8-0.3-2.5-0.9c-0.6-0.6-1-1.3-1-2.1
		c0-1.1,0.4-1.9,1.2-2.5c0.8-0.6,1.9-0.9,3.4-0.9h1.4v-0.7c0-0.5-0.1-0.9-0.4-1.2c-0.3-0.3-0.7-0.5-1.3-0.5c-0.5,0-0.9,0.1-1.3,0.4
		c-0.3,0.3-0.5,0.6-0.5,1h-2.3c0-0.6,0.2-1.1,0.5-1.5c0.4-0.5,0.9-0.9,1.5-1.1c0.6-0.3,1.3-0.4,2.1-0.4c1.2,0,2.1,0.3,2.8,0.9
		c0.7,0.6,1.1,1.4,1.1,2.5v4.5c0,0.9,0.1,1.6,0.4,2.2v0.2H147.8z M145.3,165.1c0.4,0,0.9-0.1,1.3-0.3c0.4-0.2,0.7-0.5,0.9-0.9V162
		h-1.2c-0.8,0-1.5,0.1-1.9,0.4c-0.4,0.3-0.6,0.7-0.6,1.2c0,0.4,0.1,0.8,0.4,1C144.4,164.9,144.8,165.1,145.3,165.1z"/>
	<path class="st24" d="M154.4,166.7h-2.3v-14.2h2.3V166.7z"/>
</g>
<g>
	<path class="st24" d="M235.8,456.6c0-0.6-0.2-1.1-0.6-1.4c-0.4-0.3-1.2-0.6-2.3-1c-1.1-0.3-2-0.7-2.6-1.1c-1.2-0.8-1.8-1.8-1.8-3
		c0-1.1,0.4-2,1.3-2.7c0.9-0.7,2-1.1,3.5-1.1c0.9,0,1.8,0.2,2.5,0.5c0.7,0.3,1.3,0.8,1.7,1.5c0.4,0.6,0.6,1.4,0.6,2.1h-2.3
		c0-0.7-0.2-1.3-0.7-1.7c-0.4-0.4-1.1-0.6-1.9-0.6c-0.8,0-1.4,0.2-1.8,0.5c-0.4,0.3-0.6,0.8-0.6,1.4c0,0.5,0.2,0.9,0.7,1.2
		c0.5,0.3,1.2,0.7,2.3,1c1.1,0.3,1.9,0.7,2.5,1.1c0.6,0.4,1.1,0.9,1.4,1.4c0.3,0.5,0.4,1.1,0.4,1.8c0,1.1-0.4,2-1.3,2.7
		c-0.9,0.7-2,1-3.5,1c-1,0-1.9-0.2-2.7-0.5c-0.8-0.4-1.5-0.9-1.9-1.5c-0.5-0.6-0.7-1.4-0.7-2.2h2.3c0,0.8,0.3,1.4,0.8,1.8
		c0.5,0.4,1.2,0.6,2.2,0.6c0.8,0,1.4-0.2,1.8-0.5C235.6,457.6,235.8,457.1,235.8,456.6z"/>
	<path class="st24" d="M244.4,460.3c-1.4,0-2.6-0.5-3.5-1.3c-0.9-0.9-1.3-2.1-1.3-3.6V455c0-1,0.2-1.9,0.6-2.7
		c0.4-0.8,0.9-1.4,1.6-1.8c0.7-0.4,1.5-0.7,2.3-0.7c1.4,0,2.4,0.4,3.2,1.3c0.7,0.9,1.1,2.1,1.1,3.7v0.9h-6.6c0.1,0.8,0.3,1.5,0.8,2
		c0.5,0.5,1.1,0.7,1.8,0.7c1,0,1.9-0.4,2.5-1.3l1.2,1.2c-0.4,0.6-0.9,1.1-1.6,1.4C246,460.1,245.2,460.3,244.4,460.3z M244.1,451.7
		c-0.6,0-1.1,0.2-1.5,0.6c-0.4,0.4-0.6,1-0.7,1.8h4.3V454c0-0.8-0.3-1.3-0.6-1.7C245.2,451.9,244.7,451.7,244.1,451.7z"/>
	<path class="st24" d="M252.2,450l0.1,1.2c0.7-0.9,1.7-1.3,2.9-1.3c2.1,0,3.2,1.2,3.2,3.6v6.6h-2.3v-6.5c0-0.6-0.1-1.1-0.4-1.4
		c-0.3-0.3-0.7-0.5-1.4-0.5c-0.9,0-1.6,0.4-2,1.2v7.1h-2.3v-10H252.2z"/>
	<path class="st24" d="M260.7,447.4c0-0.3,0.1-0.6,0.3-0.9c0.2-0.2,0.5-0.3,0.9-0.3s0.7,0.1,0.9,0.3s0.3,0.5,0.3,0.9
		c0,0.3-0.1,0.6-0.3,0.8s-0.5,0.3-0.9,0.3s-0.7-0.1-0.9-0.3C260.8,448.1,260.7,447.8,260.7,447.4z M263.1,460.1h-2.3v-10h2.3V460.1z
		"/>
	<path class="st24" d="M265.1,455c0-1,0.2-1.9,0.6-2.7c0.4-0.8,0.9-1.4,1.6-1.8s1.5-0.6,2.4-0.6c1.4,0,2.5,0.4,3.3,1.3
		c0.8,0.9,1.3,2,1.4,3.5l0,0.5c0,1-0.2,1.9-0.6,2.7c-0.4,0.8-0.9,1.4-1.6,1.8c-0.7,0.4-1.5,0.6-2.5,0.6c-1.4,0-2.5-0.5-3.4-1.4
		c-0.9-0.9-1.3-2.2-1.3-3.8V455z M267.4,455.2c0,1,0.2,1.8,0.6,2.4c0.4,0.6,1,0.9,1.8,0.9s1.4-0.3,1.8-0.9c0.4-0.6,0.6-1.5,0.6-2.6
		c0-1-0.2-1.8-0.7-2.4c-0.4-0.6-1-0.9-1.8-0.9c-0.7,0-1.3,0.3-1.8,0.9C267.6,453.1,267.4,454,267.4,455.2z"/>
	<path class="st24" d="M281.6,452.1c-0.3,0-0.6-0.1-0.9-0.1c-1,0-1.7,0.4-2.1,1.2v6.9h-2.3v-10h2.2l0.1,1.1c0.5-0.9,1.3-1.3,2.3-1.3
		c0.3,0,0.6,0,0.8,0.1L281.6,452.1z"/>
	<path class="st24" d="M290.4,458.2h6.1v1.9H288v-13.5h2.3V458.2z"/>
	<path class="st24" d="M302.5,460.3c-1.4,0-2.6-0.5-3.5-1.3c-0.9-0.9-1.3-2.1-1.3-3.6V455c0-1,0.2-1.9,0.6-2.7
		c0.4-0.8,0.9-1.4,1.6-1.8c0.7-0.4,1.5-0.7,2.3-0.7c1.4,0,2.4,0.4,3.2,1.3c0.7,0.9,1.1,2.1,1.1,3.7v0.9H300c0.1,0.8,0.3,1.5,0.8,2
		c0.5,0.5,1.1,0.7,1.8,0.7c1,0,1.9-0.4,2.5-1.3l1.2,1.2c-0.4,0.6-0.9,1.1-1.6,1.4C304.1,460.1,303.3,460.3,302.5,460.3z
		 M302.2,451.7c-0.6,0-1.1,0.2-1.5,0.6c-0.4,0.4-0.6,1-0.7,1.8h4.3V454c0-0.8-0.2-1.3-0.6-1.7C303.3,451.9,302.8,451.7,302.2,451.7z
		"/>
	<path class="st24" d="M314.3,460.1c-0.1-0.2-0.2-0.5-0.3-0.9c-0.7,0.7-1.6,1.1-2.6,1.1c-1,0-1.8-0.3-2.5-0.9c-0.6-0.6-1-1.3-1-2.1
		c0-1.1,0.4-1.9,1.2-2.5c0.8-0.6,1.9-0.9,3.4-0.9h1.4v-0.7c0-0.5-0.1-0.9-0.4-1.2c-0.3-0.3-0.7-0.5-1.3-0.5c-0.5,0-0.9,0.1-1.3,0.4
		c-0.3,0.3-0.5,0.6-0.5,1h-2.3c0-0.6,0.2-1.1,0.5-1.5c0.4-0.5,0.9-0.9,1.5-1.1s1.3-0.4,2.1-0.4c1.2,0,2.1,0.3,2.8,0.9
		c0.7,0.6,1.1,1.4,1.1,2.5v4.5c0,0.9,0.1,1.6,0.4,2.2v0.2H314.3z M311.8,458.5c0.4,0,0.9-0.1,1.3-0.3c0.4-0.2,0.7-0.5,0.9-0.9v-1.9
		h-1.2c-0.8,0-1.5,0.1-1.9,0.4c-0.4,0.3-0.6,0.7-0.6,1.2c0,0.4,0.1,0.8,0.4,1C310.9,458.3,311.3,458.5,311.8,458.5z"/>
	<path class="st24" d="M318.1,455c0-1.5,0.4-2.8,1.1-3.7c0.7-0.9,1.7-1.4,2.9-1.4c1.1,0,1.9,0.4,2.6,1.1v-5.1h2.3v14.2h-2l-0.1-1
		c-0.7,0.8-1.6,1.2-2.7,1.2c-1.2,0-2.1-0.5-2.9-1.4C318.5,457.9,318.1,456.6,318.1,455z M320.4,455.2c0,1,0.2,1.8,0.6,2.4
		c0.4,0.6,1,0.9,1.7,0.9c0.9,0,1.6-0.4,2-1.2v-4.3c-0.4-0.8-1.1-1.2-2-1.2c-0.7,0-1.3,0.3-1.7,0.9S320.4,454,320.4,455.2z"/>
	<path class="st24" d="M333.7,460.3c-1.4,0-2.6-0.5-3.5-1.3c-0.9-0.9-1.3-2.1-1.3-3.6V455c0-1,0.2-1.9,0.6-2.7
		c0.4-0.8,0.9-1.4,1.6-1.8c0.7-0.4,1.5-0.7,2.3-0.7c1.4,0,2.4,0.4,3.2,1.3c0.7,0.9,1.1,2.1,1.1,3.7v0.9h-6.6c0.1,0.8,0.3,1.5,0.8,2
		c0.5,0.5,1.1,0.7,1.8,0.7c1,0,1.9-0.4,2.5-1.3l1.2,1.2c-0.4,0.6-0.9,1.1-1.6,1.4C335.3,460.1,334.5,460.3,333.7,460.3z
		 M333.4,451.7c-0.6,0-1.1,0.2-1.5,0.6c-0.4,0.4-0.6,1-0.7,1.8h4.3V454c0-0.8-0.3-1.3-0.6-1.7C334.5,451.9,334,451.7,333.4,451.7z"
		/>
	<path class="st24" d="M344.7,452.1c-0.3,0-0.6-0.1-0.9-0.1c-1,0-1.7,0.4-2.1,1.2v6.9h-2.3v-10h2.2l0.1,1.1c0.5-0.9,1.3-1.3,2.3-1.3
		c0.3,0,0.6,0,0.8,0.1L344.7,452.1z"/>
	<path class="st24" d="M353.7,447.6v2.4h1.8v1.7h-1.8v5.6c0,0.4,0.1,0.7,0.2,0.8c0.2,0.2,0.4,0.3,0.8,0.3c0.3,0,0.5,0,0.8-0.1v1.7
		c-0.5,0.1-1,0.2-1.5,0.2c-1.7,0-2.6-1-2.6-2.9v-5.7h-1.7V450h1.7v-2.4H353.7z"/>
	<path class="st24" d="M356.5,455c0-1,0.2-1.9,0.6-2.7c0.4-0.8,0.9-1.4,1.6-1.8s1.5-0.6,2.4-0.6c1.4,0,2.5,0.4,3.3,1.3
		c0.8,0.9,1.3,2,1.4,3.5l0,0.5c0,1-0.2,1.9-0.6,2.7c-0.4,0.8-0.9,1.4-1.6,1.8c-0.7,0.4-1.5,0.6-2.5,0.6c-1.4,0-2.5-0.5-3.4-1.4
		c-0.9-0.9-1.3-2.2-1.3-3.8V455z M358.7,455.2c0,1,0.2,1.8,0.6,2.4c0.4,0.6,1,0.9,1.8,0.9s1.4-0.3,1.8-0.9s0.6-1.5,0.6-2.6
		c0-1-0.2-1.8-0.7-2.4c-0.4-0.6-1-0.9-1.8-0.9c-0.7,0-1.3,0.3-1.8,0.9C359,453.1,358.7,454,358.7,455.2z"/>
	<path class="st24" d="M241,471.3h-4.2v11.6h-2.3v-11.6h-4.2v-1.9H241V471.3z"/>
	<path class="st24" d="M244.8,473.9c0.7-0.9,1.7-1.3,2.8-1.3c2.1,0,3.2,1.2,3.3,3.7v6.6h-2.3v-6.5c0-0.7-0.1-1.2-0.4-1.5
		c-0.3-0.3-0.7-0.4-1.3-0.4c-0.9,0-1.6,0.4-2,1.2v7.2h-2.3v-14.2h2.3V473.9z"/>
	<path class="st24" d="M252.7,477.8c0-1,0.2-1.9,0.6-2.7c0.4-0.8,0.9-1.4,1.6-1.8s1.5-0.6,2.4-0.6c1.4,0,2.5,0.4,3.3,1.3
		c0.8,0.9,1.3,2,1.4,3.5l0,0.5c0,1-0.2,1.9-0.6,2.7c-0.4,0.8-0.9,1.4-1.6,1.8c-0.7,0.4-1.5,0.6-2.5,0.6c-1.4,0-2.5-0.5-3.4-1.4
		c-0.9-0.9-1.3-2.2-1.3-3.8V477.8z M254.9,478c0,1,0.2,1.8,0.6,2.4c0.4,0.6,1,0.9,1.8,0.9s1.4-0.3,1.8-0.9c0.4-0.6,0.6-1.5,0.6-2.6
		c0-1-0.2-1.8-0.7-2.4c-0.4-0.6-1-0.9-1.8-0.9c-0.7,0-1.3,0.3-1.8,0.9C255.1,475.9,254.9,476.8,254.9,478z"/>
	<path class="st24" d="M270,481.9c-0.7,0.8-1.6,1.2-2.8,1.2c-1.1,0-1.9-0.3-2.5-1c-0.6-0.6-0.8-1.6-0.8-2.8v-6.5h2.3v6.5
		c0,1.3,0.5,1.9,1.6,1.9c1.1,0,1.8-0.4,2.2-1.2v-7.2h2.3v10h-2.1L270,481.9z"/>
	<path class="st24" d="M274.1,477.8c0-1.6,0.4-2.8,1.1-3.7c0.7-0.9,1.7-1.4,2.9-1.4c1.1,0,2,0.4,2.7,1.2l0.1-1h2v9.7
		c0,1.3-0.4,2.4-1.2,3.1c-0.8,0.8-1.9,1.1-3.3,1.1c-0.7,0-1.5-0.2-2.2-0.5c-0.7-0.3-1.2-0.7-1.6-1.2l1.1-1.4
		c0.7,0.8,1.5,1.2,2.6,1.2c0.7,0,1.3-0.2,1.8-0.6c0.4-0.4,0.6-1,0.6-1.8V482c-0.6,0.7-1.5,1.1-2.6,1.1c-1.2,0-2.1-0.5-2.9-1.4
		C274.5,480.7,274.1,479.4,274.1,477.8z M276.3,478c0,1,0.2,1.8,0.6,2.4c0.4,0.6,1,0.9,1.7,0.9c0.9,0,1.6-0.4,2-1.2v-4.4
		c-0.4-0.8-1.1-1.1-2-1.1c-0.7,0-1.3,0.3-1.7,0.9C276.5,476,276.3,476.8,276.3,478z"/>
	<path class="st24" d="M287.5,473.9c0.7-0.9,1.7-1.3,2.8-1.3c2.1,0,3.2,1.2,3.3,3.7v6.6h-2.3v-6.5c0-0.7-0.1-1.2-0.4-1.5
		c-0.3-0.3-0.7-0.4-1.3-0.4c-0.9,0-1.6,0.4-2,1.2v7.2h-2.3v-14.2h2.3V473.9z"/>
	<path class="st24" d="M298.6,470.4v2.4h1.8v1.7h-1.8v5.6c0,0.4,0.1,0.7,0.2,0.8c0.2,0.2,0.4,0.3,0.8,0.3c0.3,0,0.5,0,0.8-0.1v1.7
		c-0.5,0.1-1,0.2-1.5,0.2c-1.7,0-2.6-1-2.6-2.9v-5.7h-1.7v-1.7h1.7v-2.4H298.6z"/>
	<path class="st24" d="M309.4,481h6.1v1.9h-8.5v-13.5h2.3V481z"/>
	<path class="st24" d="M321.5,483.1c-1.4,0-2.6-0.5-3.5-1.3c-0.9-0.9-1.3-2.1-1.3-3.6v-0.3c0-1,0.2-1.9,0.6-2.7
		c0.4-0.8,0.9-1.4,1.6-1.8c0.7-0.4,1.5-0.7,2.3-0.7c1.4,0,2.4,0.4,3.2,1.3c0.7,0.9,1.1,2.1,1.1,3.7v0.9H319c0.1,0.8,0.3,1.5,0.8,2
		s1.1,0.7,1.8,0.7c1,0,1.9-0.4,2.5-1.3l1.2,1.2c-0.4,0.6-0.9,1.1-1.6,1.4C323.1,482.9,322.4,483.1,321.5,483.1z M321.3,474.5
		c-0.6,0-1.1,0.2-1.5,0.6c-0.4,0.4-0.6,1-0.7,1.8h4.3v-0.2c0-0.8-0.2-1.3-0.6-1.7C322.4,474.7,321.9,474.5,321.3,474.5z"/>
	<path class="st24" d="M333.3,482.9c-0.1-0.2-0.2-0.5-0.3-0.9c-0.7,0.7-1.6,1.1-2.6,1.1c-1,0-1.8-0.3-2.5-0.9c-0.6-0.6-1-1.3-1-2.1
		c0-1.1,0.4-1.9,1.2-2.5c0.8-0.6,1.9-0.9,3.4-0.9h1.4v-0.7c0-0.5-0.1-0.9-0.4-1.2c-0.3-0.3-0.7-0.5-1.3-0.5c-0.5,0-0.9,0.1-1.3,0.4
		c-0.3,0.3-0.5,0.6-0.5,1h-2.3c0-0.6,0.2-1.1,0.5-1.5c0.4-0.5,0.9-0.9,1.5-1.1s1.3-0.4,2.1-0.4c1.2,0,2.1,0.3,2.8,0.9
		c0.7,0.6,1.1,1.4,1.1,2.5v4.5c0,0.9,0.1,1.6,0.4,2.2v0.2H333.3z M330.8,481.3c0.4,0,0.9-0.1,1.3-0.3c0.4-0.2,0.7-0.5,0.9-0.9v-1.9
		h-1.2c-0.8,0-1.5,0.1-1.9,0.4c-0.4,0.3-0.6,0.7-0.6,1.2c0,0.4,0.1,0.8,0.4,1C330,481.1,330.4,481.3,330.8,481.3z"/>
	<path class="st24" d="M337.2,477.8c0-1.5,0.4-2.8,1.1-3.7c0.7-0.9,1.7-1.4,2.9-1.4c1.1,0,1.9,0.4,2.6,1.1v-5.1h2.3v14.2h-2l-0.1-1
		c-0.7,0.8-1.6,1.2-2.7,1.2c-1.2,0-2.1-0.5-2.9-1.4C337.5,480.7,337.2,479.4,337.2,477.8z M339.4,478c0,1,0.2,1.8,0.6,2.4
		c0.4,0.6,1,0.9,1.7,0.9c0.9,0,1.6-0.4,2-1.2v-4.3c-0.4-0.8-1.1-1.2-2-1.2c-0.7,0-1.3,0.3-1.7,0.9S339.4,476.8,339.4,478z"/>
	<path class="st24" d="M352.7,483.1c-1.4,0-2.6-0.5-3.5-1.3c-0.9-0.9-1.3-2.1-1.3-3.6v-0.3c0-1,0.2-1.9,0.6-2.7
		c0.4-0.8,0.9-1.4,1.6-1.8c0.7-0.4,1.5-0.7,2.3-0.7c1.4,0,2.4,0.4,3.2,1.3c0.7,0.9,1.1,2.1,1.1,3.7v0.9h-6.6c0.1,0.8,0.3,1.5,0.8,2
		c0.5,0.5,1.1,0.7,1.8,0.7c1,0,1.9-0.4,2.5-1.3l1.2,1.2c-0.4,0.6-0.9,1.1-1.6,1.4C354.3,482.9,353.6,483.1,352.7,483.1z
		 M352.5,474.5c-0.6,0-1.1,0.2-1.5,0.6c-0.4,0.4-0.6,1-0.7,1.8h4.3v-0.2c0-0.8-0.3-1.3-0.6-1.7C353.6,474.7,353.1,474.5,352.5,474.5
		z"/>
	<path class="st24" d="M363.8,474.9c-0.3,0-0.6-0.1-0.9-0.1c-1,0-1.7,0.4-2.1,1.2v6.9h-2.3v-10h2.2l0.1,1.1c0.5-0.9,1.3-1.3,2.3-1.3
		c0.3,0,0.6,0,0.8,0.1L363.8,474.9z"/>
</g>
<path class="st24" d="M509.2,90.4h-39.6c-0.4,0-0.7-0.3-0.7-0.7v-7.6c0-2.9,1.8-5.5,4.5-6.6l9.4-3.7c0.2-0.1,0.3-0.1,0.5,0
	c0.2,0.1,0.3,0.2,0.3,0.4l2.8,7.6l0.9-2.6l-0.8-2c-0.1-0.2-0.1-0.4,0.1-0.6c0.1-0.2,0.3-0.3,0.5-0.3h4.6c0.2,0,0.4,0.1,0.5,0.3
	c0.1,0.2,0.1,0.4,0.1,0.6l-0.8,2l0.9,2.6l2.8-7.6c0.1-0.2,0.2-0.3,0.3-0.4c0.2-0.1,0.3-0.1,0.5,0l9.4,3.7c2.7,1.1,4.5,3.7,4.5,6.6
	v7.6C509.9,90.1,509.6,90.4,509.2,90.4z M470.3,89.1h38.3v-6.9c0-2.4-1.4-4.5-3.6-5.4l-8.7-3.5L493,82c-0.1,0.3-0.3,0.4-0.6,0.4
	c-0.3,0-0.5-0.2-0.6-0.4l-1.6-4.6c-0.1-0.1,0-0.3,0-0.5l0.5-1.3h-2.6l0.5,1.3c0.1,0.1,0.1,0.3,0,0.5l-1.6,4.6
	c-0.1,0.3-0.3,0.4-0.6,0.4c-0.3,0-0.5-0.2-0.6-0.4l-3.2-8.7l-8.7,3.5c-2.2,0.9-3.6,3-3.6,5.4V89.1z M504.2,87.6h-7.3
	c-0.4,0-0.7-0.3-0.7-0.7v-4.5c0-0.4,0.3-0.7,0.7-0.7h7.3c0.4,0,0.7,0.3,0.7,0.7v4.5C504.9,87.3,504.6,87.6,504.2,87.6z M497.6,86.3
	h6v-3.2h-6V86.3z M489.5,71.7c-1,0-2-0.2-2.9-0.6c-0.7-0.3-1.3-0.6-1.8-1.1c-1.3-1.2-2.5-3.7-3-4.6c-0.8,0-2.5-0.5-3.2-3.2
	c-0.4-1.4-0.3-2.5,0.2-3.3c0.3-0.4,0.6-0.7,0.9-0.8c0-0.3,0-0.8,0.1-1.4c-0.5-0.7-1.5-2.8,0.3-5.8c0,0,0,0,0,0c0,0,0,0,0,0
	c0,0,0,0,0,0c0,0,0,0,0,0l0,0c0,0,0,0,0,0c0,0,0,0,0,0c0,0,0,0,0,0c1.1-2,2.6-2.4,3.6-2.4c0,0,0,0,0,0l0,0c0,0,0,0,0,0h0
	c0,0,0,0,0,0s0,0,0,0l0,0l0,0h0c0.3,0,0.5,0,0.7,0.1c0.5-0.8,1.8-2,5.4-2c0,0,0,0,0,0l0,0l0,0h0c0,0,0,0,0,0l0.2,0c0,0,0,0,0,0h0
	c0,0,0,0,0,0c2.4,0,4.3,0.9,5.5,1.7c2.3,1.1,3.7,3.4,4,4.6c0.1,0.5,0.2,1.1,0.2,1.8c0,0,0,0,0,0l0,0l0,0c0,0,0,0,0,0c0,0,0,0,0,0
	l0,0l0,0c0,0,0,0,0,0c0,0,0,0,0,0l0,0l0,0c0,0,0,0,0,0c0,0,0,0,0,0l0,0l0,0c0,0,0,0,0,0c0,0,0,0,0,0c0,1.6-0.4,3.1-0.5,3.5
	c0,0,0,0,0,0.1c0.3,0.1,0.7,0.4,0.9,0.8c0.5,0.8,0.6,1.9,0.2,3.3c-0.7,2.8-2.4,3.2-3.2,3.2c-0.5,1-1.8,3.5-3,4.6
	c-0.5,0.4-1,0.8-1.8,1.1C491.4,71.5,490.5,71.7,489.5,71.7z M482.1,64.1c0.3,0,0.5,0.1,0.6,0.4c0,0,1.6,3.4,2.9,4.6
	c0.3,0.3,0.8,0.6,1.4,0.8c0.8,0.3,1.6,0.5,2.4,0.5c0.8,0,1.7-0.2,2.4-0.5c0.6-0.2,1-0.5,1.4-0.8c1.4-1.3,2.9-4.6,2.9-4.6
	c0.1-0.3,0.4-0.4,0.7-0.4c0,0,0,0,0,0c0,0,0.1,0,0.1,0c0.6,0,1.6-0.3,2.1-2.3c0.3-1,0.2-1.7-0.1-2.2c-0.2-0.4-0.6-0.5-0.6-0.5
	c-0.3-0.1-0.6-0.4-0.5-0.7c0,0,0-0.2,0-0.5c0-0.2-0.1-0.7-0.4-1c-0.3-0.3-2.4-0.7-4.3-1c-0.8-0.2-1.8-0.3-2.7-0.5c0,0,0,0,0,0
	c-0.6-0.1-1.2-0.3-1.7-0.5c-1.7-0.6-2.8-1.5-3.5-2.2c-0.2,0.7-0.6,1.5-1.2,2.2c-1.1,1.2-2.4,1.8-3,2c-0.1,0.9,0,1.5,0,1.5
	c0,0.3-0.2,0.6-0.5,0.7c0,0-0.4,0.1-0.6,0.5c-0.3,0.5-0.3,1.2-0.1,2.2c0.5,2,1.5,2.3,2.1,2.3c0.1,0,0.1,0,0.1,0
	C482.1,64.2,482.1,64.1,482.1,64.1z M485,50.8c0.2,0,0.4,0.1,0.5,0.3c0,0,1.2,1.7,3.7,2.6c0,0,0,0,0,0c0.4,0.2,0.8,0.3,1.4,0.4
	c0,0,0,0,0,0c1,0.2,1.9,0.4,2.7,0.5c3,0.6,4.3,0.8,4.9,1.3c0.1-0.4,0.1-0.9,0.1-1.4h0h0l0,0h0h0c0,0,0,0,0,0l0,0l0,0l0,0l0,0l0,0
	l0,0l0,0l0,0l0,0c0,0,0,0,0,0l0,0l0,0l0,0c0,0,0,0,0,0l0,0l0,0l0,0l0,0l0,0c0,0,0,0,0,0c0,0,0,0,0,0l0,0l0,0l0,0c0,0,0,0,0,0l0,0
	l0,0l0,0l0,0l0,0c0,0,0,0,0,0l0,0l0,0l0,0l0,0l0,0l0,0l0,0c0,0,0,0,0,0l0,0l0,0l0,0l0,0l0,0l0,0l0,0l0,0l0,0c0,0,0,0,0,0
	c0,0,0,0,0,0l0,0c0,0,0,0,0,0c0-0.5,0-1-0.2-1.4c0,0,0-0.1,0-0.1c0-0.1,0-0.1-0.1-0.2c-0.4-1.1-1.6-2.8-3.3-3.7c0,0-0.1,0-0.1,0
	c-1.1-0.7-2.8-1.5-4.9-1.5c0,0,0,0,0,0l-0.2,0l0,0l0,0c-0.1,0-0.2,0-0.3,0l0,0c0,0,0,0,0,0c-3.7,0.1-4.1,1.5-4.1,1.6c0,0,0,0,0,0
	c0,0.1-0.1,0.2-0.1,0.3c0,0.1-0.1,0.1-0.2,0.1c-0.1,0.1-0.2,0.1-0.3,0.1c-0.1,0-0.1,0-0.2,0c0,0-0.1,0-0.1,0c0,0-0.4-0.1-0.8-0.1
	l0,0h0l0,0c0,0,0,0,0,0c-1,0-1.8,0.6-2.5,1.7c0,0,0,0,0,0c0,0,0,0,0,0c0,0,0,0,0,0c0,0,0,0,0,0c0,0,0,0,0,0c0,0,0,0,0,0l0,0
	c-1.2,2.1-0.8,3.6-0.5,4.2c0.6-0.2,1.6-0.7,2.4-1.6c0.8-0.8,1.2-2.3,1.3-2.8c0.1-0.3,0.3-0.5,0.5-0.5C484.9,50.8,485,50.8,485,50.8z
	"/>
<g>
	<path class="st24" d="M444.8,101.6h2.3v9.5c0,1.3-0.4,2.3-1.2,3.1c-0.8,0.8-1.9,1.1-3.2,1.1c-1.4,0-2.5-0.4-3.3-1.1
		c-0.8-0.7-1.2-1.7-1.2-3h2.3c0,0.7,0.2,1.3,0.5,1.6c0.4,0.4,0.9,0.5,1.5,0.5c0.6,0,1.1-0.2,1.5-0.6c0.4-0.4,0.6-1,0.6-1.7V101.6z"
		/>
	<path class="st24" d="M455.6,114.1c-0.7,0.8-1.6,1.2-2.8,1.2c-1.1,0-1.9-0.3-2.5-1c-0.6-0.6-0.8-1.6-0.8-2.8V105h2.3v6.5
		c0,1.3,0.5,1.9,1.6,1.9c1.1,0,1.8-0.4,2.2-1.2V105h2.3v10h-2.1L455.6,114.1z"/>
	<path class="st24" d="M462.2,105l0.1,1.2c0.7-0.9,1.7-1.3,2.9-1.3c2.1,0,3.2,1.2,3.2,3.6v6.6h-2.3v-6.5c0-0.6-0.1-1.1-0.4-1.4
		c-0.3-0.3-0.7-0.5-1.3-0.5c-0.9,0-1.6,0.4-2,1.2v7.1h-2.3v-10H462.2z"/>
	<path class="st24" d="M470.7,102.4c0-0.3,0.1-0.6,0.3-0.9c0.2-0.2,0.5-0.3,0.9-0.3s0.7,0.1,0.9,0.3s0.3,0.5,0.3,0.9
		c0,0.3-0.1,0.6-0.3,0.8s-0.5,0.3-0.9,0.3s-0.7-0.1-0.9-0.3C470.8,103.1,470.7,102.8,470.7,102.4z M473.1,115.1h-2.3v-10h2.3V115.1z
		"/>
	<path class="st24" d="M475.1,110c0-1,0.2-1.9,0.6-2.7c0.4-0.8,0.9-1.4,1.6-1.8s1.5-0.6,2.4-0.6c1.4,0,2.5,0.4,3.3,1.3
		c0.8,0.9,1.3,2,1.4,3.5l0,0.5c0,1-0.2,1.9-0.6,2.7c-0.4,0.8-0.9,1.4-1.6,1.8c-0.7,0.4-1.5,0.6-2.5,0.6c-1.4,0-2.5-0.5-3.4-1.4
		c-0.9-0.9-1.3-2.2-1.3-3.8V110z M477.4,110.2c0,1,0.2,1.8,0.6,2.4c0.4,0.6,1,0.9,1.8,0.9s1.4-0.3,1.8-0.9s0.6-1.5,0.6-2.6
		c0-1-0.2-1.8-0.7-2.4c-0.4-0.6-1-0.9-1.8-0.9c-0.7,0-1.3,0.3-1.8,0.9C477.6,108.1,477.4,109,477.4,110.2z"/>
	<path class="st24" d="M491.6,107.1c-0.3,0-0.6-0.1-0.9-0.1c-1,0-1.7,0.4-2.1,1.2v6.9h-2.3v-10h2.2l0.1,1.1c0.5-0.9,1.3-1.3,2.3-1.3
		c0.3,0,0.6,0,0.8,0.1L491.6,107.1z"/>
	<path class="st24" d="M498.4,116.2h-1.8l5.3-14.7h1.8L498.4,116.2z"/>
	<path class="st24" d="M513.3,101.6l3.9,10.4l3.9-10.4h3v13.5h-2.3v-4.5l0.2-6l-4,10.4h-1.7l-4-10.4l0.2,5.9v4.5h-2.3v-13.5H513.3z"
		/>
	<path class="st24" d="M526.6,102.4c0-0.3,0.1-0.6,0.3-0.9c0.2-0.2,0.5-0.3,0.9-0.3s0.7,0.1,0.9,0.3s0.3,0.5,0.3,0.9
		c0,0.3-0.1,0.6-0.3,0.8s-0.5,0.3-0.9,0.3s-0.7-0.1-0.9-0.3C526.8,103.1,526.6,102.8,526.6,102.4z M529,115.1h-2.3v-10h2.3V115.1z"
		/>
	<path class="st24" d="M531.1,110c0-1.5,0.4-2.8,1.1-3.7c0.7-0.9,1.7-1.4,2.9-1.4c1.1,0,1.9,0.4,2.6,1.1v-5.1h2.3v14.2h-2l-0.1-1
		c-0.7,0.8-1.6,1.2-2.7,1.2c-1.2,0-2.1-0.5-2.9-1.4C531.4,112.9,531.1,111.6,531.1,110z M533.3,110.2c0,1,0.2,1.8,0.6,2.4
		c0.4,0.6,1,0.9,1.7,0.9c0.9,0,1.6-0.4,2-1.2v-4.3c-0.4-0.8-1.1-1.2-2-1.2c-0.7,0-1.3,0.3-1.7,0.9S533.3,109,533.3,110.2z"/>
	<path class="st24" d="M420,136h6.1v1.9h-8.5v-13.5h2.3V136z"/>
	<path class="st24" d="M432.1,138.1c-1.4,0-2.6-0.5-3.5-1.3c-0.9-0.9-1.3-2.1-1.3-3.6v-0.3c0-1,0.2-1.9,0.6-2.7
		c0.4-0.8,0.9-1.4,1.6-1.8c0.7-0.4,1.5-0.7,2.3-0.7c1.4,0,2.4,0.4,3.2,1.3c0.7,0.9,1.1,2.1,1.1,3.7v0.9h-6.6c0.1,0.8,0.3,1.5,0.8,2
		s1.1,0.7,1.8,0.7c1,0,1.9-0.4,2.5-1.3l1.2,1.2c-0.4,0.6-0.9,1.1-1.6,1.4C433.7,137.9,432.9,138.1,432.1,138.1z M431.8,129.5
		c-0.6,0-1.1,0.2-1.5,0.6c-0.4,0.4-0.6,1-0.7,1.8h4.3v-0.2c0-0.8-0.2-1.3-0.6-1.7C432.9,129.7,432.5,129.5,431.8,129.5z"/>
	<path class="st24" d="M441.3,135l2.1-7.2h2.3l-3.5,10h-2l-3.5-10h2.3L441.3,135z"/>
	<path class="st24" d="M451.5,138.1c-1.4,0-2.6-0.5-3.5-1.3c-0.9-0.9-1.3-2.1-1.3-3.6v-0.3c0-1,0.2-1.9,0.6-2.7
		c0.4-0.8,0.9-1.4,1.6-1.8c0.7-0.4,1.5-0.7,2.3-0.7c1.4,0,2.4,0.4,3.2,1.3c0.7,0.9,1.1,2.1,1.1,3.7v0.9h-6.6c0.1,0.8,0.3,1.5,0.8,2
		s1.1,0.7,1.8,0.7c1,0,1.9-0.4,2.5-1.3l1.2,1.2c-0.4,0.6-0.9,1.1-1.6,1.4C453,137.9,452.3,138.1,451.5,138.1z M451.2,129.5
		c-0.6,0-1.1,0.2-1.5,0.6c-0.4,0.4-0.6,1-0.7,1.8h4.3v-0.2c0-0.8-0.2-1.3-0.6-1.7C452.3,129.7,451.8,129.5,451.2,129.5z"/>
	<path class="st24" d="M459.6,137.9h-2.3v-14.2h2.3V137.9z"/>
	<path class="st24" d="M470.1,124.4l3.9,10.4l3.9-10.4h3v13.5h-2.3v-4.5l0.2-6l-4,10.4h-1.7l-4-10.4l0.2,5.9v4.5H467v-13.5H470.1z"
		/>
	<path class="st24" d="M489.4,137.9c-0.1-0.2-0.2-0.5-0.3-0.9c-0.7,0.7-1.6,1.1-2.6,1.1c-1,0-1.8-0.3-2.5-0.9c-0.6-0.6-1-1.3-1-2.1
		c0-1.1,0.4-1.9,1.2-2.5c0.8-0.6,1.9-0.9,3.4-0.9h1.4v-0.7c0-0.5-0.1-0.9-0.4-1.2c-0.3-0.3-0.7-0.5-1.3-0.5c-0.5,0-0.9,0.1-1.3,0.4
		c-0.3,0.3-0.5,0.6-0.5,1h-2.3c0-0.6,0.2-1.1,0.5-1.5c0.4-0.5,0.9-0.9,1.5-1.1s1.3-0.4,2.1-0.4c1.2,0,2.1,0.3,2.8,0.9
		c0.7,0.6,1.1,1.4,1.1,2.5v4.5c0,0.9,0.1,1.6,0.4,2.2v0.2H489.4z M487,136.3c0.4,0,0.9-0.1,1.3-0.3c0.4-0.2,0.7-0.5,0.9-0.9v-1.9
		h-1.2c-0.8,0-1.5,0.1-1.9,0.4c-0.4,0.3-0.6,0.7-0.6,1.2c0,0.4,0.1,0.8,0.4,1C486.1,136.1,486.5,136.3,487,136.3z"/>
	<path class="st24" d="M495.8,127.8l0.1,1.2c0.7-0.9,1.7-1.3,2.9-1.3c2.1,0,3.2,1.2,3.2,3.6v6.6h-2.3v-6.5c0-0.6-0.1-1.1-0.4-1.4
		c-0.3-0.3-0.7-0.5-1.3-0.5c-0.9,0-1.6,0.4-2,1.2v7.1h-2.3v-10H495.8z"/>
	<path class="st24" d="M510.3,137.9c-0.1-0.2-0.2-0.5-0.3-0.9c-0.7,0.7-1.6,1.1-2.6,1.1c-1,0-1.8-0.3-2.5-0.9c-0.6-0.6-1-1.3-1-2.1
		c0-1.1,0.4-1.9,1.2-2.5c0.8-0.6,1.9-0.9,3.4-0.9h1.4v-0.7c0-0.5-0.1-0.9-0.4-1.2c-0.3-0.3-0.7-0.5-1.3-0.5c-0.5,0-0.9,0.1-1.3,0.4
		s-0.5,0.6-0.5,1h-2.3c0-0.6,0.2-1.1,0.5-1.5c0.4-0.5,0.9-0.9,1.5-1.1c0.6-0.3,1.3-0.4,2.1-0.4c1.2,0,2.1,0.3,2.8,0.9
		c0.7,0.6,1.1,1.4,1.1,2.5v4.5c0,0.9,0.1,1.6,0.4,2.2v0.2H510.3z M507.8,136.3c0.4,0,0.9-0.1,1.3-0.3s0.7-0.5,0.9-0.9v-1.9h-1.2
		c-0.8,0-1.5,0.1-1.9,0.4c-0.4,0.3-0.6,0.7-0.6,1.2c0,0.4,0.1,0.8,0.4,1C507,136.1,507.3,136.3,507.8,136.3z"/>
	<path class="st24" d="M514.2,132.8c0-1.6,0.4-2.8,1.1-3.7c0.7-0.9,1.7-1.4,2.9-1.4c1.1,0,2,0.4,2.7,1.2l0.1-1h2v9.7
		c0,1.3-0.4,2.4-1.2,3.1c-0.8,0.8-1.9,1.1-3.3,1.1c-0.7,0-1.5-0.2-2.2-0.5c-0.7-0.3-1.2-0.7-1.6-1.2l1.1-1.4
		c0.7,0.8,1.5,1.2,2.6,1.2c0.7,0,1.3-0.2,1.8-0.6c0.4-0.4,0.6-1,0.6-1.8V137c-0.6,0.7-1.5,1.1-2.6,1.1c-1.2,0-2.1-0.5-2.9-1.4
		C514.6,135.7,514.2,134.4,514.2,132.8z M516.4,133c0,1,0.2,1.8,0.6,2.4c0.4,0.6,1,0.9,1.7,0.9c0.9,0,1.6-0.4,2-1.2v-4.4
		c-0.4-0.8-1.1-1.1-2-1.1c-0.7,0-1.3,0.3-1.7,0.9C516.6,131,516.4,131.8,516.4,133z"/>
	<path class="st24" d="M529.8,138.1c-1.4,0-2.6-0.5-3.5-1.3c-0.9-0.9-1.3-2.1-1.3-3.6v-0.3c0-1,0.2-1.9,0.6-2.7
		c0.4-0.8,0.9-1.4,1.6-1.8c0.7-0.4,1.5-0.7,2.3-0.7c1.4,0,2.4,0.4,3.2,1.3c0.7,0.9,1.1,2.1,1.1,3.7v0.9h-6.6c0.1,0.8,0.3,1.5,0.8,2
		c0.5,0.5,1.1,0.7,1.8,0.7c1,0,1.9-0.4,2.5-1.3l1.2,1.2c-0.4,0.6-0.9,1.1-1.6,1.4C531.4,137.9,530.6,138.1,529.8,138.1z
		 M529.5,129.5c-0.6,0-1.1,0.2-1.5,0.6c-0.4,0.4-0.6,1-0.7,1.8h4.3v-0.2c0-0.8-0.3-1.3-0.6-1.7C530.6,129.7,530.1,129.5,529.5,129.5
		z"/>
	<path class="st24" d="M540.8,129.9c-0.3,0-0.6-0.1-0.9-0.1c-1,0-1.7,0.4-2.1,1.2v6.9h-2.3v-10h2.2l0.1,1.1c0.5-0.9,1.3-1.3,2.3-1.3
		c0.3,0,0.6,0,0.8,0.1L540.8,129.9z"/>
	<path class="st24" d="M549.8,125.4v2.4h1.8v1.7h-1.8v5.6c0,0.4,0.1,0.7,0.2,0.8c0.2,0.2,0.4,0.3,0.8,0.3c0.3,0,0.5,0,0.8-0.1v1.7
		c-0.5,0.1-1,0.2-1.5,0.2c-1.7,0-2.6-1-2.6-2.9v-5.7h-1.7v-1.7h1.7v-2.4H549.8z"/>
	<path class="st24" d="M552.6,132.8c0-1,0.2-1.9,0.6-2.7c0.4-0.8,0.9-1.4,1.6-1.8s1.5-0.6,2.4-0.6c1.4,0,2.5,0.4,3.3,1.3
		c0.8,0.9,1.3,2,1.4,3.5l0,0.5c0,1-0.2,1.9-0.6,2.7c-0.4,0.8-0.9,1.4-1.6,1.8c-0.7,0.4-1.5,0.6-2.5,0.6c-1.4,0-2.5-0.5-3.4-1.4
		c-0.9-0.9-1.3-2.2-1.3-3.8V132.8z M554.8,133c0,1,0.2,1.8,0.6,2.4c0.4,0.6,1,0.9,1.8,0.9s1.4-0.3,1.8-0.9s0.6-1.5,0.6-2.6
		c0-1-0.2-1.8-0.7-2.4c-0.4-0.6-1-0.9-1.8-0.9c-0.7,0-1.3,0.3-1.8,0.9C555,130.9,554.8,131.8,554.8,133z"/>
	<path class="st24" d="M439.1,157.2c0-0.6-0.2-1.1-0.6-1.4c-0.4-0.3-1.2-0.6-2.3-1c-1.1-0.3-2-0.7-2.6-1.1c-1.2-0.8-1.8-1.8-1.8-3
		c0-1.1,0.4-2,1.3-2.7c0.9-0.7,2-1.1,3.5-1.1c0.9,0,1.8,0.2,2.5,0.5c0.7,0.3,1.3,0.8,1.7,1.5c0.4,0.6,0.6,1.4,0.6,2.1h-2.3
		c0-0.7-0.2-1.3-0.7-1.7c-0.4-0.4-1.1-0.6-1.9-0.6c-0.8,0-1.4,0.2-1.8,0.5c-0.4,0.3-0.6,0.8-0.6,1.4c0,0.5,0.2,0.9,0.7,1.2
		c0.5,0.3,1.2,0.7,2.3,1c1.1,0.3,1.9,0.7,2.5,1.1c0.6,0.4,1.1,0.9,1.4,1.4c0.3,0.5,0.4,1.1,0.4,1.8c0,1.1-0.4,2-1.3,2.7
		c-0.9,0.7-2,1-3.5,1c-1,0-1.9-0.2-2.7-0.5c-0.8-0.4-1.5-0.9-1.9-1.5c-0.5-0.6-0.7-1.4-0.7-2.2h2.3c0,0.8,0.3,1.4,0.8,1.8
		s1.2,0.6,2.2,0.6c0.8,0,1.4-0.2,1.8-0.5C438.8,158.2,439.1,157.7,439.1,157.2z"/>
	<path class="st24" d="M447.7,160.9c-1.4,0-2.6-0.5-3.5-1.3c-0.9-0.9-1.3-2.1-1.3-3.6v-0.3c0-1,0.2-1.9,0.6-2.7
		c0.4-0.8,0.9-1.4,1.6-1.8c0.7-0.4,1.5-0.7,2.3-0.7c1.4,0,2.4,0.4,3.2,1.3c0.7,0.9,1.1,2.1,1.1,3.7v0.9h-6.6c0.1,0.8,0.3,1.5,0.8,2
		s1.1,0.7,1.8,0.7c1,0,1.9-0.4,2.5-1.3l1.2,1.2c-0.4,0.6-0.9,1.1-1.6,1.4C449.2,160.7,448.5,160.9,447.7,160.9z M447.4,152.3
		c-0.6,0-1.1,0.2-1.5,0.6c-0.4,0.4-0.6,1-0.7,1.8h4.3v-0.2c0-0.8-0.2-1.3-0.6-1.7C448.5,152.5,448,152.3,447.4,152.3z"/>
	<path class="st24" d="M455.5,150.6l0.1,1.2c0.7-0.9,1.7-1.3,2.9-1.3c2.1,0,3.2,1.2,3.2,3.6v6.6h-2.3v-6.5c0-0.6-0.1-1.1-0.4-1.4
		c-0.3-0.3-0.7-0.5-1.3-0.5c-0.9,0-1.6,0.4-2,1.2v7.1h-2.3v-10H455.5z"/>
	<path class="st24" d="M464,148c0-0.3,0.1-0.6,0.3-0.9c0.2-0.2,0.5-0.3,0.9-0.3s0.7,0.1,0.9,0.3s0.3,0.5,0.3,0.9
		c0,0.3-0.1,0.6-0.3,0.8s-0.5,0.3-0.9,0.3s-0.7-0.1-0.9-0.3C464.1,148.7,464,148.4,464,148z M466.4,160.7h-2.3v-10h2.3V160.7z"/>
	<path class="st24" d="M468.4,155.6c0-1,0.2-1.9,0.6-2.7c0.4-0.8,0.9-1.4,1.6-1.8s1.5-0.6,2.4-0.6c1.4,0,2.5,0.4,3.3,1.3
		c0.8,0.9,1.3,2,1.4,3.5l0,0.5c0,1-0.2,1.9-0.6,2.7c-0.4,0.8-0.9,1.4-1.6,1.8c-0.7,0.4-1.5,0.6-2.5,0.6c-1.4,0-2.5-0.5-3.4-1.4
		c-0.9-0.9-1.3-2.2-1.3-3.8V155.6z M470.7,155.8c0,1,0.2,1.8,0.6,2.4c0.4,0.6,1,0.9,1.8,0.9s1.4-0.3,1.8-0.9s0.6-1.5,0.6-2.6
		c0-1-0.2-1.8-0.7-2.4c-0.4-0.6-1-0.9-1.8-0.9c-0.7,0-1.3,0.3-1.8,0.9C470.9,153.7,470.7,154.6,470.7,155.8z"/>
	<path class="st24" d="M484.9,152.7c-0.3,0-0.6-0.1-0.9-0.1c-1,0-1.7,0.4-2.1,1.2v6.9h-2.3v-10h2.2l0.1,1.1c0.5-0.9,1.3-1.3,2.3-1.3
		c0.3,0,0.6,0,0.8,0.1L484.9,152.7z"/>
	<path class="st24" d="M493.7,158.8h6.1v1.9h-8.5v-13.5h2.3V158.8z"/>
	<path class="st24" d="M505.8,160.9c-1.4,0-2.6-0.5-3.5-1.3c-0.9-0.9-1.3-2.1-1.3-3.6v-0.3c0-1,0.2-1.9,0.6-2.7
		c0.4-0.8,0.9-1.4,1.6-1.8c0.7-0.4,1.5-0.7,2.3-0.7c1.4,0,2.4,0.4,3.2,1.3c0.7,0.9,1.1,2.1,1.1,3.7v0.9h-6.6c0.1,0.8,0.3,1.5,0.8,2
		c0.5,0.5,1.1,0.7,1.8,0.7c1,0,1.9-0.4,2.5-1.3l1.2,1.2c-0.4,0.6-0.9,1.1-1.6,1.4C507.4,160.7,506.6,160.9,505.8,160.9z
		 M505.5,152.3c-0.6,0-1.1,0.2-1.5,0.6c-0.4,0.4-0.6,1-0.7,1.8h4.3v-0.2c0-0.8-0.3-1.3-0.6-1.7C506.6,152.5,506.1,152.3,505.5,152.3
		z"/>
	<path class="st24" d="M517.6,160.7c-0.1-0.2-0.2-0.5-0.3-0.9c-0.7,0.7-1.6,1.1-2.6,1.1c-1,0-1.8-0.3-2.5-0.9c-0.6-0.6-1-1.3-1-2.1
		c0-1.1,0.4-1.9,1.2-2.5c0.8-0.6,1.9-0.9,3.4-0.9h1.4v-0.7c0-0.5-0.1-0.9-0.4-1.2c-0.3-0.3-0.7-0.5-1.3-0.5c-0.5,0-0.9,0.1-1.3,0.4
		s-0.5,0.6-0.5,1h-2.3c0-0.6,0.2-1.1,0.5-1.5c0.4-0.5,0.9-0.9,1.5-1.1c0.6-0.3,1.3-0.4,2.1-0.4c1.2,0,2.1,0.3,2.8,0.9
		c0.7,0.6,1.1,1.4,1.1,2.5v4.5c0,0.9,0.1,1.6,0.4,2.2v0.2H517.6z M515.1,159.1c0.4,0,0.9-0.1,1.3-0.3s0.7-0.5,0.9-0.9V156H516
		c-0.8,0-1.5,0.1-1.9,0.4c-0.4,0.3-0.6,0.7-0.6,1.2c0,0.4,0.1,0.8,0.4,1C514.2,158.9,514.6,159.1,515.1,159.1z"/>
	<path class="st24" d="M521.4,155.6c0-1.5,0.4-2.8,1.1-3.7c0.7-0.9,1.7-1.4,2.9-1.4c1.1,0,1.9,0.4,2.6,1.1v-5.1h2.3v14.2h-2l-0.1-1
		c-0.7,0.8-1.6,1.2-2.7,1.2c-1.2,0-2.1-0.5-2.9-1.4C521.8,158.5,521.4,157.2,521.4,155.6z M523.7,155.8c0,1,0.2,1.8,0.6,2.4
		c0.4,0.6,1,0.9,1.7,0.9c0.9,0,1.6-0.4,2-1.2v-4.3c-0.4-0.8-1.1-1.2-2-1.2c-0.7,0-1.3,0.3-1.7,0.9
		C523.9,153.8,523.7,154.6,523.7,155.8z"/>
	<path class="st24" d="M537,160.9c-1.4,0-2.6-0.5-3.5-1.3c-0.9-0.9-1.3-2.1-1.3-3.6v-0.3c0-1,0.2-1.9,0.6-2.7
		c0.4-0.8,0.9-1.4,1.6-1.8c0.7-0.4,1.5-0.7,2.3-0.7c1.4,0,2.4,0.4,3.2,1.3c0.7,0.9,1.1,2.1,1.1,3.7v0.9h-6.6c0.1,0.8,0.3,1.5,0.8,2
		s1.1,0.7,1.8,0.7c1,0,1.9-0.4,2.5-1.3l1.2,1.2c-0.4,0.6-0.9,1.1-1.6,1.4C538.6,160.7,537.8,160.9,537,160.9z M536.7,152.3
		c-0.6,0-1.1,0.2-1.5,0.6c-0.4,0.4-0.6,1-0.7,1.8h4.3v-0.2c0-0.8-0.2-1.3-0.6-1.7C537.8,152.5,537.3,152.3,536.7,152.3z"/>
	<path class="st24" d="M548,152.7c-0.3,0-0.6-0.1-0.9-0.1c-1,0-1.7,0.4-2.1,1.2v6.9h-2.3v-10h2.2l0.1,1.1c0.5-0.9,1.3-1.3,2.3-1.3
		c0.3,0,0.6,0,0.8,0.1L548,152.7z"/>
</g>
<g>
	<g>
		<g>
			<path class="st24" d="M309.1,159.8c-1.4-1.5-3.3-2.3-5.4-2.3h-5.3c-2,0-4,0.8-5.4,2.3c-1.4,1.5-2.1,3.5-2,5.5l0.2,3.6l0.5,8.4
				c0.2,3.2,2,5.9,4.8,7.5c1.4,0.8,2.9,1.1,4.4,1.1c1.5,0,3-0.4,4.4-1.1c2.8-1.5,4.5-4.3,4.8-7.5l0.6-9.6l0.2-2.4
				C311.2,163.2,310.5,161.2,309.1,159.8z M294.5,167l-0.1-2c-0.1-1.2,0.3-2.3,1.1-3.1c0.8-0.8,1.9-1.3,3-1.3h4.7l-1,2.8
				C301.8,163.8,300,166.3,294.5,167z M307.1,177.1c-0.1,2.1-1.3,3.9-3.1,4.9c-1.8,1-4,1-5.8,0c-1.8-1-3-2.8-3.1-4.9l-0.4-6.9
				c4.3-0.5,7-2.1,8.5-3.4c0.4,0.3,0.8,0.6,1.3,0.8c0.7,0.4,1.8,0.7,3.2,1.1L307.1,177.1z M307.9,165l0,0.5c-1.2-0.3-1.7-0.6-2-0.7
				c-0.4-0.2-0.7-0.4-0.8-0.5l1.1-2.9c0.2,0.1,0.4,0.3,0.6,0.5C307.6,162.8,308,163.9,307.9,165z"/>
		</g>
	</g>
	<g>
		<g>
			<path class="st24" d="M324.5,203.2l-0.9-4.8c-1-5.7-5.6-10.3-11.3-11.4c-0.9-0.2-1.7-0.2-2.6-0.2h-3.6c-0.4,0-0.8,0.2-1.1,0.5
				l-3.9,3.9l-4-4c-0.3-0.3-0.7-0.5-1.1-0.5h-3.5c-0.9,0-1.8,0.1-2.6,0.2c0,0,0,0,0,0c-5.7,1.1-10.3,5.6-11.3,11.4l-0.9,4.8
				c-0.1,0.5,0,0.9,0.3,1.3c0.3,0.4,0.8,0.6,1.2,0.6H323c0.5,0,0.9-0.2,1.2-0.6C324.5,204.1,324.6,203.6,324.5,203.2z M295.3,189.9
				l4.7,4.6c0.6,0.6,1.6,0.6,2.2,0l4.6-4.6h1.6l-7.3,7.3l-7.3-7.3L295.3,189.9L295.3,189.9z M281.2,201.9l0.5-3
				c0.8-4.2,3.9-7.5,7.9-8.6l10.3,10.3c0.3,0.3,0.7,0.5,1.1,0.5c0.4,0,0.8-0.2,1.1-0.5l10.3-10.3c4,1.1,7.2,4.5,7.9,8.6c0,0,0,0,0,0
				l0.5,3H281.2z"/>
		</g>
	</g>
	<g>
		<g>
			<path class="st24" d="M307.6,212.1h-1c-0.9,0-1.6,0.7-1.6,1.6c0,0.9,0.7,1.6,1.6,1.6h1c0.9,0,1.6-0.7,1.6-1.6
				C309.2,212.8,308.5,212.1,307.6,212.1z"/>
		</g>
	</g>
	<g>
		<g>
			<path class="st24" d="M302.7,225.7v-16.1c0-0.9-0.7-1.6-1.6-1.6c-0.9,0-1.6,0.7-1.6,1.6v2.5h-23.7c-4,0-7.3,3.3-7.3,7.3v6.4
				c-2.5,0.7-4.4,3-4.4,5.7c0,3.3,2.7,6,6,6c3.3,0,6-2.7,6-6c0-2.7-1.9-5-4.4-5.7v-6.4c0-2.3,1.8-4.1,4.1-4.1h23.7v10.5
				c-2.5,0.7-4.4,3-4.4,5.7c0,3.3,2.7,6,6,6c3.3,0,6-2.7,6-6C307.1,228.7,305.2,226.4,302.7,225.7z M272.9,231.5
				c0,1.5-1.2,2.8-2.8,2.8c-1.5,0-2.8-1.2-2.8-2.8c0-1.5,1.2-2.8,2.8-2.8C271.6,228.7,272.9,229.9,272.9,231.5z M301.1,234.2
				c-1.5,0-2.8-1.2-2.8-2.8c0-1.5,1.2-2.8,2.8-2.8c1.5,0,2.8,1.2,2.8,2.8C303.9,233,302.7,234.2,301.1,234.2z"/>
		</g>
	</g>
	<g>
		<g>
			<path class="st24" d="M333.7,225.7v-6.3c0-4-3.3-7.3-7.3-7.3h-13.2c-0.9,0-1.6,0.7-1.6,1.6c0,0.9,0.7,1.6,1.6,1.6h13.2
				c2.3,0,4.1,1.8,4.1,4.1v6.4c-2.5,0.7-4.3,3-4.3,5.7c0,3.3,2.7,6,6,6s6-2.7,6-6C338.2,228.7,336.3,226.4,333.7,225.7z
				 M332.2,234.2c-1.5,0-2.8-1.2-2.8-2.8c0-1.5,1.2-2.8,2.8-2.8s2.8,1.2,2.8,2.8C335,233,333.7,234.2,332.2,234.2z"/>
		</g>
	</g>
</g>
<g>
	<g>
		<g>
			<path class="st24" d="M311.9,399.5c-0.3-0.3-0.9-0.3-1.2,0l-0.3,0.3c-0.3,0.3-0.3,0.9,0,1.2c0.2,0.2,0.4,0.3,0.6,0.3
				c0.2,0,0.4-0.1,0.6-0.3l0.3-0.3C312.2,400.4,312.2,399.8,311.9,399.5z"/>
		</g>
	</g>
	<g>
		<g>
			<path class="st24" d="M317.9,392.4h-5.6c-0.5,0-0.9,0.4-0.9,0.9s0.4,0.9,0.9,0.9h3.6l-3,3c-0.3,0.3-0.3,0.9,0,1.2
				c0.2,0.2,0.4,0.3,0.6,0.3c0.2,0,0.4-0.1,0.6-0.3l2.8-2.8v3.3c0,0.5,0.4,0.9,0.9,0.9c0.5,0,0.9-0.4,0.9-0.9v-5.6
				C318.8,392.8,318.4,392.4,317.9,392.4z"/>
		</g>
	</g>
	<g>
		<g>
			<path class="st24" d="M317.9,429.1c-0.5,0-0.9,0.4-0.9,0.9v3.3l-7.1-7.1c2.8-3.1,4.5-7.2,4.5-11.7c0-9.6-7.8-17.4-17.4-17.4
				c-4.5,0-8.6,1.7-11.7,4.5l-7.3-7.3h3.6c0.5,0,0.9-0.4,0.9-0.9c0-0.5-0.4-0.9-0.9-0.9H276c-0.5,0-0.9,0.4-0.9,0.9v5.6
				c0,0.5,0.4,0.9,0.9,0.9c0.5,0,0.9-0.4,0.9-0.9v-3.3l7.1,7.1c-2.8,3.1-4.5,7.2-4.5,11.7s1.7,8.6,4.5,11.7l-7.1,7.1V430
				c0-0.5-0.4-0.9-0.9-0.9c-0.5,0-0.9,0.4-0.9,0.9v5.6c0,0.5,0.4,0.9,0.9,0.9h5.6c0.5,0,0.9-0.4,0.9-0.9c0-0.5-0.4-0.9-0.9-0.9h-3.6
				l7.3-7.3c3.1,2.8,7.2,4.5,11.7,4.5s8.6-1.7,11.7-4.5l7.3,7.3h-3.6c-0.5,0-0.9,0.4-0.9,0.9c0,0.5,0.4,0.9,0.9,0.9h5.6
				c0.5,0,0.9-0.4,0.9-0.9V430C318.8,429.5,318.4,429.1,317.9,429.1z M297,430.1c-8.6,0-15.7-7-15.7-15.7c0-8.6,7-15.7,15.7-15.7
				c8.6,0,15.7,7,15.7,15.7C312.6,423.1,305.6,430.1,297,430.1z"/>
		</g>
	</g>
	<g>
		<g>
			<path class="st24" d="M300.4,403.9c-0.6-0.7-1.5-1-2.4-1h-2.2c-0.9,0-1.8,0.4-2.4,1c-0.6,0.7-0.9,1.6-0.9,2.5l0.1,1.5l0.2,3.5
				c0.1,1.4,0.9,2.6,2.1,3.3c0.6,0.3,1.3,0.5,2,0.5c0.7,0,1.3-0.2,2-0.5c1.2-0.7,2-1.9,2.1-3.3l0.3-4l0.1-1
				C301.4,405.5,301.1,404.6,300.4,403.9z M294.3,406.3c0-0.4,0.1-0.8,0.4-1.1c0.3-0.3,0.7-0.5,1.1-0.5h1.6l-0.3,0.8
				c-0.1,0.2-0.8,1.1-2.8,1.4L294.3,406.3z M299.3,411.3c-0.1,0.8-0.5,1.5-1.2,1.9c-0.7,0.4-1.5,0.4-2.2,0c-0.7-0.4-1.1-1.1-1.2-1.9
				l-0.2-2.7c1.6-0.2,2.7-0.8,3.3-1.3c0.1,0.1,0.3,0.2,0.4,0.3c0.3,0.1,0.7,0.3,1.2,0.4L299.3,411.3z M299.1,406
				c-0.1,0-0.1-0.1-0.2-0.1l0.3-0.8c0.3,0.3,0.4,0.7,0.4,1.1C299.3,406.1,299.1,406.1,299.1,406z"/>
		</g>
	</g>
	<g>
		<g>
			<path class="st24" d="M306.6,420.9c-0.4-2.5-2.4-4.5-4.9-4.9c-0.4-0.1-0.8-0.1-1.1-0.1h-1.1c-0.2,0-0.5,0.1-0.6,0.3l-1.9,1.9
				l-1.9-1.9c-0.2-0.2-0.4-0.3-0.6-0.3h-1.1c-0.4,0-0.8,0-1.1,0.1c-2.5,0.5-4.4,2.4-4.9,4.9c-0.1,0.8,0.1,1.5,0.6,2.1
				c0.5,0.6,1.2,0.9,2,0.9H304c0.8,0,1.5-0.3,2-0.9C306.5,422.5,306.7,421.7,306.6,420.9z M304.7,421.9c-0.1,0.1-0.3,0.3-0.6,0.3
				h-14.1c-0.3,0-0.5-0.2-0.6-0.3c-0.1-0.1-0.2-0.4-0.2-0.7c0.3-1.8,1.7-3.2,3.5-3.5c0.3-0.1,0.5-0.1,0.8-0.1h0.7l2.2,2.2
				c0.2,0.2,0.4,0.3,0.6,0.3s0.5-0.1,0.6-0.3l2.2-2.2h0.7c0.3,0,0.5,0,0.8,0.1c1.8,0.3,3.2,1.7,3.5,3.5
				C304.9,421.6,304.8,421.8,304.7,421.9z"/>
		</g>
	</g>
</g>
<g>
	<g>
		<g>
			<path class="st24" d="M126.5,69.1c-0.4-1.2-0.9-2.4-1.5-3.5c1.1-1.7,0.9-4.1-0.6-5.6l-1.7-1.7c-1.5-1.5-3.8-1.7-5.6-0.6
				c-1.1-0.6-2.3-1.1-3.5-1.5c-0.4-2-2.3-3.5-4.4-3.5h-2.5c-2.1,0-3.9,1.5-4.4,3.5c-1.2,0.4-2.4,0.9-3.5,1.5
				c-1.7-1.1-4.1-0.9-5.6,0.6L91.6,60c-1.5,1.5-1.7,3.8-0.6,5.6c-0.6,1.1-1.1,2.3-1.5,3.5c-2,0.4-3.5,2.3-3.5,4.4v2.5
				c0,2.1,1.5,3.9,3.5,4.4c0.4,1.2,0.9,2.4,1.5,3.5c-1.1,1.7-0.9,4.1,0.6,5.6l1.7,1.7c1.5,1.5,3.8,1.7,5.6,0.6
				c1.1,0.6,2.3,1.1,3.5,1.5c0.4,2,2.3,3.5,4.4,3.5h2.5c2.1,0,3.9-1.5,4.4-3.5c1.2-0.4,2.4-0.9,3.5-1.5c1.7,1.1,4.1,0.9,5.6-0.6
				l1.7-1.7c1.5-1.5,1.7-3.8,0.6-5.6c0.6-1.1,1.1-2.3,1.5-3.5c2-0.4,3.5-2.3,3.5-4.4v-2.5C130,71.3,128.5,69.5,126.5,69.1z
				 M128.3,75.9c0,1.4-1.1,2.6-2.5,2.7c-0.4,0-0.7,0.3-0.8,0.6c-0.4,1.5-1,2.9-1.7,4.2c-0.2,0.3-0.1,0.7,0.1,1
				c0.9,1.1,0.9,2.7-0.1,3.7l-1.7,1.7c-1,1-2.6,1.1-3.7,0.1c-0.3-0.2-0.7-0.3-1-0.1c-1.3,0.8-2.7,1.3-4.2,1.7
				c-0.4,0.1-0.6,0.4-0.6,0.8c-0.1,1.4-1.3,2.5-2.7,2.5h-2.5c-1.4,0-2.6-1.1-2.7-2.5c0-0.4-0.3-0.7-0.6-0.8c-1.5-0.4-2.9-1-4.2-1.7
				c-0.1-0.1-0.3-0.1-0.4-0.1c-0.2,0-0.4,0.1-0.6,0.2c-1.1,0.9-2.7,0.9-3.7-0.1l-1.7-1.7c-1-1-1.1-2.6-0.1-3.7
				c0.2-0.3,0.3-0.7,0.1-1c-0.8-1.3-1.3-2.7-1.7-4.2c-0.1-0.4-0.4-0.6-0.8-0.6c-1.4-0.1-2.5-1.3-2.5-2.7v-2.5c0-1.4,1.1-2.6,2.5-2.7
				c0.4,0,0.7-0.3,0.8-0.6c0.4-1.5,1-2.9,1.7-4.2c0.2-0.3,0.1-0.7-0.1-1c-0.9-1.1-0.9-2.7,0.1-3.7l1.7-1.7c1-1,2.6-1.1,3.7-0.1
				c0.3,0.2,0.7,0.3,1,0.1c1.3-0.8,2.7-1.3,4.2-1.7c0.4-0.1,0.6-0.4,0.6-0.8c0.1-1.4,1.3-2.5,2.7-2.5h2.5c1.4,0,2.6,1.1,2.7,2.5
				c0,0.4,0.3,0.7,0.6,0.8c1.5,0.4,2.9,1,4.2,1.7c0.3,0.2,0.7,0.1,1-0.1c1.1-0.9,2.7-0.9,3.7,0.1l1.7,1.7c1,1,1.1,2.6,0.1,3.7
				c-0.2,0.3-0.3,0.7-0.1,1c0.8,1.3,1.3,2.7,1.7,4.2c0.1,0.4,0.4,0.6,0.8,0.6c1.4,0.1,2.5,1.3,2.5,2.7V75.9z"/>
		</g>
	</g>
	<g>
		<g>
			<path class="st24" d="M108,59.1c-8.6,0-15.6,7-15.6,15.6s7,15.6,15.6,15.6s15.6-7,15.6-15.6S116.6,59.1,108,59.1z M108,88.5
				c-7.6,0-13.8-6.2-13.8-13.8c0-7.6,6.2-13.8,13.8-13.8s13.8,6.2,13.8,13.8C121.8,82.3,115.7,88.5,108,88.5z"/>
		</g>
	</g>
	<g>
		<g>
			<path class="st24" d="M111.4,64.7c-0.6-0.6-1.4-1-2.3-1H107c-0.9,0-1.7,0.4-2.3,1c-0.6,0.6-0.9,1.5-0.9,2.4l0.1,1.4l0.2,3.4
				c0.1,1.3,0.8,2.5,2,3.2c0.6,0.3,1.2,0.5,1.9,0.5c0.6,0,1.3-0.2,1.9-0.5c1.2-0.6,1.9-1.8,2-3.2l0.3-3.9l0.1-1
				C112.3,66.2,112,65.3,111.4,64.7z M105.6,67c0-0.4,0.1-0.8,0.4-1.1c0.3-0.3,0.6-0.5,1-0.5h1.5l-0.3,0.8c-0.1,0.2-0.8,1-2.6,1.3
				L105.6,67z M110.2,71.8c0,0.7-0.5,1.4-1.1,1.8c-0.7,0.4-1.4,0.4-2.1,0c-0.7-0.4-1.1-1-1.1-1.8l-0.2-2.5c1.5-0.2,2.5-0.7,3.2-1.2
				c0.1,0.1,0.2,0.2,0.4,0.2c0.3,0.1,0.6,0.3,1.1,0.4L110.2,71.8z M110.1,66.7c-0.1,0-0.1-0.1-0.1-0.1l0.3-0.7
				c0.2,0.3,0.3,0.6,0.3,0.9C110.3,66.8,110.1,66.7,110.1,66.7z"/>
		</g>
	</g>
	<g>
		<g>
			<path class="st24" d="M117.3,81c-0.4-2.4-2.3-4.3-4.7-4.7c-0.4-0.1-0.7-0.1-1.1-0.1h-1.1c-0.2,0-0.5,0.1-0.6,0.3l-1.8,1.8
				l-1.8-1.8c-0.2-0.2-0.4-0.3-0.6-0.3h-1.1c-0.4,0-0.7,0-1.1,0.1c-2.4,0.4-4.3,2.4-4.7,4.7c-0.1,0.7,0.1,1.5,0.5,2.1
				c0.5,0.6,1.2,0.9,1.9,0.9h13.6c0.7,0,1.5-0.3,1.9-0.9C117.2,82.5,117.4,81.8,117.3,81z M115.4,82c-0.1,0.1-0.3,0.3-0.6,0.3h-13.6
				c-0.3,0-0.5-0.2-0.6-0.3c-0.1-0.1-0.2-0.3-0.2-0.6c0.3-1.7,1.6-3,3.3-3.3c0.3,0,0.5-0.1,0.8-0.1h0.7l2.1,2.1
				c0.2,0.2,0.4,0.3,0.6,0.3c0.2,0,0.5-0.1,0.6-0.3l2.1-2.1h0.7c0.3,0,0.5,0,0.8,0.1c1.7,0.3,3,1.7,3.3,3.3
				C115.6,81.7,115.5,81.9,115.4,82z"/>
		</g>
	</g>
	<g>
		<g>
			<path class="st24" d="M118.5,67.8c-0.3-0.4-0.8-0.5-1.2-0.2c-0.4,0.3-0.5,0.8-0.2,1.2c1.2,1.8,1.8,3.8,1.8,5.9
				c0,0.5,0.4,0.9,0.9,0.9s0.9-0.4,0.9-0.9C120.5,72.2,119.8,69.8,118.5,67.8z"/>
		</g>
	</g>
	<g>
		<g>
			<path class="st24" d="M116.5,65.5c-0.1-0.1-0.3-0.3-0.4-0.4c-0.4-0.3-0.9-0.3-1.2,0.1c-0.3,0.4-0.3,0.9,0.1,1.2
				c0.1,0.1,0.2,0.2,0.4,0.3c0.2,0.2,0.4,0.2,0.6,0.2c0.2,0,0.5-0.1,0.6-0.3C116.9,66.4,116.9,65.8,116.5,65.5z"/>
		</g>
	</g>
</g>
</svg>
