<?xml version="1.0" encoding="utf-8"?>
<!-- Generator: Adobe Illustrator 25.3.1, SVG Export Plug-In . SVG Version: 6.00 Build 0)  -->
<svg version="1.1" id="Layer_1" xmlns="http://www.w3.org/2000/svg" xmlns:xlink="http://www.w3.org/1999/xlink" x="0px" y="0px"
	 viewBox="0 0 600 551" style="enable-background:new 0 0 600 551;" xml:space="preserve">
<style type="text/css">
	.st0{fill:#FFFFFF;}
	.st1{fill:#E23A59;}
	.st2{fill:#CB3253;}
	.st3{fill:#FE5722;}
	.st4{fill:#FA471F;}
	.st5{fill:#065381;}
	.st6{fill:#064981;}
	.st7{fill:#5B5B5B;}
	.st8{fill:#4D4D4D;}
	.st9{fill:#312393;}
	.st10{fill:none;stroke:#FFFFFF;stroke-width:2.2948;stroke-linecap:round;stroke-linejoin:round;stroke-miterlimit:10;}
	.st11{fill:#FFFFFF;stroke:#FFFFFF;stroke-width:0.7649;stroke-miterlimit:10;}
	.st12{fill:#FFFFFF;stroke:#FFFFFF;stroke-width:0.5;stroke-miterlimit:10;}
</style>
<g>
	<path class="st0" d="M308.8,176.5c0-55.6,45.1-100.7,100.7-100.7s100.7,45.1,100.7,100.7s-45.1,100.7-100.7,100.7
		c-0.1,0-0.3,0-0.4,0c0,0,0,0-0.1,0c-42.8,0.2-80.3,23.7-100.2,58.4V176.5L308.8,176.5z"/>
	<path class="st0" d="M308.8,390.1c0-55.6,45.1-100.7,100.7-100.7s100.7,45.1,100.7,100.7s-45.1,100.7-100.7,100.7
		c-0.1,0-0.3,0-0.4,0c0,0,0,0-0.1,0c-42.8,0.2-80.3,23.7-100.2,58.4V390.1L308.8,390.1z"/>
	<path class="st0" d="M322,390.1c0,48.3,39.2,87.5,87.5,87.5s87.5-39.2,87.5-87.5s-39.2-87.5-87.5-87.5
		C361.2,302.5,322,341.7,322,390.1z"/>
	<path class="st0" d="M296.3,105c0-55.6-45.1-100.7-100.7-100.7C140,4.3,94.9,49.4,94.9,105S140,205.7,195.6,205.7
		c0.1,0,0.3,0,0.4,0c0,0,0,0,0.1,0c42.8,0.2,80.3,23.7,100.2,58.4V105L296.3,105z"/>
	<path class="st0" d="M296.3,318.5c0-55.6-45.1-100.7-100.7-100.7S94.9,262.9,94.9,318.5S140,419.2,195.6,419.2c0.1,0,0.3,0,0.4,0
		c0,0,0,0,0.1,0c42.8,0.2,80.3,23.7,100.2,58.4V318.5L296.3,318.5z"/>
	<path class="st0" d="M322,176.5c0,48.3,39.2,87.5,87.5,87.5s87.5-39.2,87.5-87.5S457.8,89,409.5,89S322,128.2,322,176.5z"/>
	<path class="st1" d="M283.1,105c0,48.3-39.2,87.5-87.5,87.5s-87.5-39.2-87.5-87.5s39.2-87.5,87.5-87.5
		C244,17.5,283.1,56.7,283.1,105z"/>
	<path class="st0" d="M283.1,318.5c0,48.3-39.2,87.5-87.5,87.5s-87.5-39.2-87.5-87.5s39.2-87.5,87.5-87.5
		C244,231,283.1,270.2,283.1,318.5z"/>
	<path class="st2" d="M195.6,17.5v175.1c48.3,0,87.5-39.2,87.5-87.5C283.1,56.7,244,17.5,195.6,17.5z"/>
	<path class="st3" d="M283.1,318.5c0,48.3-39.2,87.5-87.5,87.5s-87.5-39.2-87.5-87.5s39.2-87.5,87.5-87.5
		C244,231,283.1,270.2,283.1,318.5z"/>
	<path class="st4" d="M195.6,231v175.1c48.3,0,87.5-39.2,87.5-87.5C283.1,270.2,244,231,195.6,231z"/>
	<path class="st5" d="M497.1,176.5c0,48.3-39.2,87.5-87.5,87.5s-87.5-39.2-87.5-87.5S361.3,89,409.6,89S497.1,128.2,497.1,176.5z"/>
	<path class="st6" d="M409.5,89v175.1c48.3,0,87.5-39.2,87.5-87.5C497.1,128.2,457.9,89,409.5,89z"/>
	<path class="st7" d="M497.1,390.1c0,48.3-39.2,87.5-87.5,87.5s-87.5-39.2-87.5-87.5s39.2-87.5,87.5-87.5
		C457.9,302.5,497.1,341.7,497.1,390.1z"/>
	<path class="st8" d="M409.5,302.5v175.1c48.3,0,87.5-39.2,87.5-87.5C497.1,341.7,457.9,302.5,409.5,302.5z"/>
</g>
<g>
	<path class="st9" d="M67.1,326.5h-19V320c0-2.1,0.4-3.8,1.3-4.9c0.9-1.1,2.1-1.7,3.8-1.7c0.9,0,1.7,0.2,2.3,0.7s1.2,1.2,1.6,2.1
		c0.3-1,0.8-1.8,1.6-2.4s1.7-0.8,2.8-0.8c1.8,0,3.2,0.6,4.1,1.7c1,1.1,1.4,2.8,1.4,4.9v6.9H67.1z M56.1,323.2V320
		c0-1-0.2-1.8-0.7-2.4s-1.1-0.9-2-0.9s-1.6,0.3-2,0.8s-0.6,1.4-0.6,2.5v3.2H56.1z M58.5,323.2h5.9v-3.7c0-1-0.3-1.8-0.8-2.4
		c-0.5-0.6-1.2-0.9-2.1-0.9c-2,0-3,1-3,3C58.5,319.2,58.5,323.2,58.5,323.2z"/>
	<path class="st9" d="M65.7,301.5c1.1,0.9,1.6,2.3,1.6,4c0,1.5-0.4,2.7-1.3,3.5s-2.2,1.2-3.9,1.2H53V307h9.1c1.8,0,2.7-0.7,2.7-2.2
		s-0.6-2.6-1.7-3.1H53v-3.2h14.1v3L65.7,301.5z"/>
	<path class="st9" d="M49.3,295.2c-0.5,0-0.9-0.2-1.2-0.5s-0.5-0.7-0.5-1.3s0.2-1,0.5-1.3s0.7-0.5,1.2-0.5s0.9,0.2,1.2,0.5
		s0.5,0.8,0.5,1.3s-0.2,1-0.5,1.3S49.8,295.2,49.3,295.2z M67.1,291.8v3.2H53v-3.2H67.1z"/>
	<path class="st9" d="M67.1,285v3.2h-20V285H67.1z"/>
	<path class="st9" d="M59.9,282.1c-2.2,0-3.9-0.5-5.2-1.5s-2-2.4-2-4.1c0-1.5,0.5-2.7,1.6-3.6h-7.2v-3.2h20v2.9l-1.5,0.2
		c1.1,0.9,1.7,2.2,1.7,3.8c0,1.7-0.7,3-2,4C64,281.6,62.2,282.1,59.9,282.1z M60.2,278.9c1.4,0,2.6-0.3,3.4-0.8
		c0.8-0.6,1.2-1.3,1.2-2.4c0-1.3-0.6-2.2-1.7-2.8h-6c-1.1,0.6-1.7,1.5-1.7,2.8c0,1,0.4,1.8,1.2,2.4
		C57.3,278.7,58.6,278.9,60.2,278.9z"/>
	<path class="st9" d="M49.3,266.4c-0.5,0-0.9-0.2-1.2-0.5s-0.5-0.7-0.5-1.3s0.2-1,0.5-1.3s0.7-0.5,1.2-0.5s0.9,0.2,1.2,0.5
		s0.5,0.8,0.5,1.3s-0.2,1-0.5,1.3C50.2,266.3,49.8,266.4,49.3,266.4z M67.1,263.1v3.2H53v-3.2H67.1z"/>
	<path class="st9" d="M53,256.7l1.6-0.1c-1.3-1-1.9-2.4-1.9-4.1c0-2.9,1.7-4.4,5-4.5H67v3.2h-9.1c-0.9,0-1.6,0.2-2,0.6
		s-0.6,1-0.6,1.9c0,1.3,0.6,2.2,1.7,2.9h10v3.2H53V256.7z"/>
	<path class="st9" d="M59.9,245.3c-2.2,0-3.9-0.5-5.2-1.5s-2-2.4-2-4.1c0-1.6,0.6-2.9,1.7-3.8l-1.4-0.1v-2.9h13.7
		c1.9,0,3.3,0.6,4.4,1.7s1.6,2.7,1.6,4.7c0,1-0.2,2-0.6,3s-1,1.7-1.7,2.2l-1.9-1.5c1.2-1,1.7-2.2,1.7-3.6c0-1.1-0.3-1.9-0.9-2.5
		s-1.4-0.9-2.5-0.9h-1c1,0.9,1.5,2.1,1.5,3.7c0,1.7-0.7,3-2,4S62.2,245.3,59.9,245.3z M60.2,242.2c1.4,0,2.5-0.3,3.3-0.9
		c0.8-0.6,1.2-1.4,1.2-2.4c0-1.3-0.5-2.2-1.6-2.8h-6.2c-1.1,0.6-1.6,1.5-1.6,2.8c0,1,0.4,1.9,1.2,2.4
		C57.4,241.9,58.6,242.2,60.2,242.2z"/>
	<path class="st9" d="M58.6,211.6v7.8h5.8v-9.1H67v12.4H48v-12.3h2.7v9H56v-7.8L58.6,211.6L58.6,211.6z"/>
	<path class="st9" d="M53,204.9l1.5-0.1c-1.2-1-1.7-2.3-1.7-4.1c0-1.9,0.7-3.2,2.2-3.9c-1.4-1-2.2-2.5-2.2-4.3
		c0-1.6,0.4-2.7,1.3-3.5c0.9-0.8,2.1-1.1,3.8-1.2h9.3v3.2H58c-0.9,0-1.6,0.2-2,0.6c-0.4,0.4-0.6,1-0.6,1.9c0,0.7,0.2,1.3,0.6,1.8
		c0.4,0.5,0.9,0.8,1.5,1h9.7v3.2h-9.3c-1.7,0-2.5,0.9-2.5,2.5c0,1.3,0.5,2.2,1.6,2.7h10.2v3.2H53V204.9z"/>
	<path class="st9" d="M60.2,172.3c2.2,0,3.9,0.5,5.2,1.5s1.9,2.3,1.9,4c0,1.5-0.5,2.8-1.5,3.7h6.7v3.2H53v-2.9l1.4-0.1
		c-1.1-0.9-1.7-2.2-1.7-3.8c0-1.7,0.6-3.1,1.9-4c1.3-1,3.1-1.5,5.3-1.5L60.2,172.3L60.2,172.3z M59.9,175.5c-1.4,0-2.5,0.3-3.4,0.8
		s-1.2,1.4-1.2,2.4c0,1.3,0.5,2.2,1.6,2.8h6.3c1.1-0.6,1.6-1.5,1.6-2.8c0-1-0.4-1.8-1.2-2.4C62.8,175.7,61.5,175.5,59.9,175.5z"/>
	<path class="st9" d="M67.1,166.3v3.2h-20v-3.2H67.1z"/>
	<path class="st9" d="M59.9,163.4c-1.4,0-2.6-0.3-3.7-0.8c-1.1-0.5-2-1.3-2.6-2.3s-0.9-2.1-0.9-3.4c0-1.9,0.6-3.4,1.8-4.6
		c1.2-1.2,2.9-1.8,4.9-1.9h0.7c1.4,0,2.6,0.3,3.7,0.8c1.1,0.5,1.9,1.3,2.5,2.3s0.9,2.1,0.9,3.4c0,2-0.7,3.6-2,4.8s-3.1,1.8-5.3,1.8
		h0V163.4z M60.2,160.2c1.5,0,2.6-0.3,3.4-0.9c0.8-0.6,1.2-1.4,1.2-2.5s-0.4-1.9-1.3-2.5c-0.8-0.6-2.1-0.9-3.7-0.9
		c-1.4,0-2.6,0.3-3.4,0.9s-1.3,1.4-1.3,2.5c0,1,0.4,1.9,1.2,2.5C57.3,159.9,58.5,160.2,60.2,160.2z"/>
	<path class="st9" d="M62.5,142.9L53,140v-3.4l16.2,5.6c2.4,0.9,3.6,2.3,3.6,4.4c0,0.5-0.1,1-0.2,1.5h-2.5v-0.6
		c0-0.8-0.1-1.4-0.4-1.8c-0.3-0.4-0.8-0.7-1.5-1l-1.2-0.5l-14,5v-3.4L62.5,142.9z"/>
	<path class="st9" d="M67.1,126.6c-0.3,0.1-0.7,0.3-1.3,0.4c1.1,1,1.6,2.2,1.6,3.7c0,1.4-0.4,2.6-1.2,3.5c-0.8,0.9-1.8,1.3-3,1.3
		c-1.5,0-2.7-0.6-3.5-1.7c-0.8-1.1-1.2-2.7-1.2-4.8v-2h-0.9c-0.7,0-1.3,0.2-1.8,0.6c-0.4,0.4-0.7,1-0.7,1.9c0,0.7,0.2,1.3,0.5,1.8
		c0.4,0.5,0.8,0.7,1.4,0.7v3.2c-0.8,0-1.5-0.3-2.2-0.8s-1.2-1.2-1.6-2.1c-0.4-0.9-0.6-1.9-0.6-3c0-1.7,0.4-3,1.2-4s2-1.5,3.5-1.5
		h6.4c1.3,0,2.3-0.2,3-0.5h0.2v3.3H67.1z M64.8,130c0-0.6-0.2-1.2-0.5-1.8c-0.3-0.6-0.7-1-1.2-1.2h-2.7v1.7c0,1.2,0.2,2.1,0.6,2.6
		c0.4,0.6,1,0.9,1.7,0.9c0.6,0,1.1-0.2,1.5-0.6C64.6,131.2,64.8,130.7,64.8,130z"/>
	<path class="st9" d="M60.2,108.2c2.2,0,3.9,0.5,5.2,1.5s1.9,2.3,1.9,4s-0.6,2.9-1.8,3.9l1.5,0.2v2.9H47v-3.2h7.3
		c-1.1-0.9-1.6-2.1-1.6-3.7c0-1.7,0.6-3.1,1.9-4.1c1.3-1,3.1-1.5,5.4-1.5C60,108.2,60.2,108.2,60.2,108.2z M59.9,111.3
		c-1.5,0-2.7,0.3-3.4,0.8c-0.8,0.5-1.1,1.3-1.1,2.3c0,1.4,0.6,2.3,1.8,2.9H63c1.2-0.6,1.8-1.5,1.8-2.9c0-1-0.4-1.8-1.1-2.3
		s-1.9-0.8-3.4-0.8H59.9z"/>
	<path class="st9" d="M49.3,105.5c-0.5,0-0.9-0.2-1.2-0.5s-0.5-0.7-0.5-1.3s0.2-1,0.5-1.3s0.7-0.5,1.2-0.5s0.9,0.2,1.2,0.5
		s0.5,0.8,0.5,1.3s-0.2,1-0.5,1.3C50.2,105.4,49.8,105.5,49.3,105.5z M67.1,102.1v3.2H53v-3.2H67.1z"/>
	<path class="st9" d="M67.1,95.3v3.2h-20v-3.2H67.1z"/>
	<path class="st9" d="M49.3,91.9c-0.5,0-0.9-0.2-1.2-0.5s-0.5-0.7-0.5-1.3s0.2-1,0.5-1.3s0.7-0.5,1.2-0.5s0.9,0.2,1.2,0.5
		s0.5,0.8,0.5,1.3s-0.2,1-0.5,1.3C50.2,91.7,49.8,91.9,49.3,91.9z M67.1,88.5v3.2H53v-3.2H67.1z"/>
	<path class="st9" d="M49.5,81.1H53v-2.5h2.3v2.5h7.9c0.5,0,0.9-0.1,1.2-0.3c0.2-0.2,0.4-0.6,0.4-1.1c0-0.4,0-0.7-0.1-1.1H67
		c0.2,0.7,0.3,1.4,0.3,2.1c0,2.4-1.3,3.7-4,3.7h-8v2.3H53v-2.3h-3.4L49.5,81.1L49.5,81.1z"/>
	<path class="st9" d="M62.5,71.2L53,68.4V65l16.2,5.6c2.4,0.9,3.6,2.3,3.6,4.4c0,0.5-0.1,1-0.2,1.5h-2.5v-0.6c0-0.8-0.1-1.4-0.4-1.8
		s-0.8-0.7-1.5-1L67,72.7l-14,5v-3.4L62.5,71.2z"/>
</g>
<g>
	<path class="st0" d="M140.5,121.5v4.7h-2.2v-12.7h4.8c1.4,0,2.5,0.4,3.4,1.1c0.8,0.7,1.2,1.7,1.2,2.9c0,1.2-0.4,2.2-1.2,2.9
		s-2,1-3.4,1L140.5,121.5L140.5,121.5z M140.5,119.7h2.6c0.8,0,1.4-0.2,1.8-0.6c0.4-0.4,0.6-0.9,0.6-1.6s-0.2-1.2-0.6-1.6
		c-0.4-0.4-1-0.6-1.7-0.6h-2.7L140.5,119.7L140.5,119.7z"/>
	<path class="st0" d="M154.4,118.7c-0.3,0-0.6-0.1-0.9-0.1c-1,0-1.6,0.4-2,1.1v6.4h-2.1v-9.4h2l0.1,1.1c0.5-0.8,1.2-1.2,2.1-1.2
		c0.3,0,0.6,0,0.7,0.1L154.4,118.7z"/>
	<path class="st0" d="M155,121.4c0-0.9,0.2-1.8,0.5-2.5s0.9-1.3,1.5-1.7c0.7-0.4,1.4-0.6,2.3-0.6c1.3,0,2.3,0.4,3.1,1.2
		c0.8,0.8,1.2,1.9,1.3,3.3v0.5c0,0.9-0.2,1.8-0.5,2.5c-0.4,0.7-0.9,1.3-1.5,1.7c-0.7,0.4-1.4,0.6-2.3,0.6c-1.3,0-2.4-0.4-3.2-1.3
		s-1.2-2.1-1.2-3.5L155,121.4L155,121.4z M157.2,121.6c0,1,0.2,1.7,0.6,2.3c0.4,0.5,1,0.8,1.7,0.8s1.3-0.3,1.7-0.8
		c0.4-0.6,0.6-1.4,0.6-2.4s-0.2-1.7-0.6-2.3c-0.4-0.6-1-0.8-1.7-0.8s-1.2,0.3-1.6,0.8C157.4,119.7,157.2,120.5,157.2,121.6z"/>
	<path class="st0" d="M167.8,116.8V127c0,1-0.2,1.7-0.7,2.2s-1.2,0.8-2.1,0.8c-0.4,0-0.8,0-1.1-0.1v-1.7c0.2,0.1,0.5,0.1,0.7,0.1
		c0.7,0,1.1-0.4,1.1-1.1v-10.3L167.8,116.8L167.8,116.8z M165.5,114.4c0-0.3,0.1-0.6,0.3-0.8c0.2-0.2,0.5-0.3,0.9-0.3
		s0.7,0.1,0.9,0.3c0.2,0.2,0.3,0.5,0.3,0.8s-0.1,0.6-0.3,0.8s-0.5,0.3-0.9,0.3s-0.7-0.1-0.9-0.3S165.5,114.7,165.5,114.4z"/>
	<path class="st0" d="M174.2,126.4c-1.3,0-2.4-0.4-3.3-1.3s-1.2-2-1.2-3.4v-0.3c0-0.9,0.2-1.8,0.5-2.5s0.9-1.3,1.5-1.7
		c0.7-0.4,1.4-0.6,2.2-0.6c1.3,0,2.3,0.4,3,1.2c0.7,0.8,1,2,1,3.5v0.9h-6.1c0.1,0.8,0.3,1.4,0.8,1.8s1,0.7,1.7,0.7
		c1,0,1.8-0.4,2.4-1.2l1.1,1.1c-0.4,0.6-0.9,1-1.5,1.3C175.7,126.2,175,126.4,174.2,126.4z M173.9,118.3c-0.6,0-1,0.2-1.4,0.6
		s-0.6,1-0.7,1.7h4v-0.2c0-0.7-0.2-1.2-0.6-1.6C175,118.5,174.5,118.3,173.9,118.3z"/>
	<path class="st0" d="M183.4,124.7c0.5,0,1-0.2,1.3-0.5s0.5-0.7,0.6-1.1h2c0,0.6-0.2,1.1-0.5,1.6s-0.8,0.9-1.4,1.2
		c-0.6,0.3-1.2,0.4-1.9,0.4c-1.3,0-2.4-0.4-3.1-1.3c-0.8-0.9-1.2-2-1.2-3.5v-0.2c0-1.4,0.4-2.6,1.1-3.4c0.8-0.9,1.8-1.3,3.1-1.3
		c1.1,0,2,0.3,2.7,1s1.1,1.5,1.1,2.6h-2c0-0.5-0.2-1-0.6-1.3s-0.8-0.5-1.3-0.5c-0.7,0-1.2,0.2-1.6,0.7c-0.4,0.5-0.6,1.2-0.6,2.3v0.3
		c0,1,0.2,1.8,0.6,2.3C182.2,124.5,182.8,124.7,183.4,124.7z"/>
	<path class="st0" d="M191.5,114.5v2.3h1.7v1.6h-1.7v5.2c0,0.4,0.1,0.6,0.2,0.8c0.1,0.2,0.4,0.2,0.8,0.2c0.2,0,0.5,0,0.7-0.1v1.6
		c-0.5,0.1-0.9,0.2-1.4,0.2c-1.6,0-2.4-0.9-2.4-2.7v-5.3h-1.5v-1.6h1.5v-2.3h2.1V114.5z"/>
	<path class="st0" d="M199.5,126.2v-12.7h4.3c1.4,0,2.5,0.3,3.3,0.9c0.7,0.6,1.1,1.4,1.1,2.6c0,0.6-0.2,1.1-0.5,1.6
		s-0.8,0.8-1.4,1.1c0.7,0.2,1.2,0.5,1.6,1c0.4,0.5,0.6,1.1,0.6,1.8c0,1.2-0.4,2.1-1.1,2.7c-0.8,0.6-1.9,1-3.3,1H199.5z M201.7,118.9
		h2.2c0.7,0,1.2-0.2,1.6-0.5s0.6-0.7,0.6-1.3c0-0.6-0.2-1.1-0.5-1.4c-0.4-0.3-0.9-0.4-1.7-0.4h-2.1v3.6H201.7z M201.7,120.5v4h2.4
		c0.7,0,1.2-0.2,1.6-0.5s0.6-0.8,0.6-1.4c0-1.3-0.7-2-2-2L201.7,120.5L201.7,120.5z"/>
	<path class="st0" d="M216.1,126.2c-0.1-0.2-0.2-0.5-0.2-0.9c-0.7,0.7-1.5,1.1-2.5,1.1c-0.9,0-1.7-0.3-2.3-0.8s-0.9-1.2-0.9-2
		c0-1,0.4-1.8,1.1-2.3c0.7-0.5,1.8-0.8,3.2-0.8h1.3v-0.6c0-0.5-0.1-0.9-0.4-1.2c-0.3-0.3-0.7-0.4-1.2-0.4s-0.9,0.1-1.2,0.4
		c-0.3,0.2-0.5,0.5-0.5,0.9h-2.1c0-0.5,0.2-1,0.5-1.4s0.8-0.8,1.4-1.1c0.6-0.3,1.2-0.4,2-0.4c1.1,0,2,0.3,2.6,0.8
		c0.7,0.6,1,1.3,1,2.3v4.2c0,0.8,0.1,1.5,0.4,2v0.1h-2.2V126.2z M213.8,124.7c0.4,0,0.8-0.1,1.2-0.3c0.4-0.2,0.6-0.5,0.8-0.8v-1.8
		h-1.1c-0.8,0-1.4,0.1-1.8,0.4c-0.4,0.3-0.6,0.7-0.6,1.2c0,0.4,0.1,0.7,0.4,1S213.3,124.7,213.8,124.7z"/>
	<path class="st0" d="M225.4,123.7c0-0.4-0.2-0.7-0.5-0.9c-0.3-0.2-0.8-0.4-1.5-0.5c-0.7-0.2-1.3-0.3-1.8-0.6
		c-1.1-0.5-1.6-1.2-1.6-2.2c0-0.8,0.3-1.5,1-2s1.6-0.8,2.6-0.8c1.1,0,2,0.3,2.7,0.8c0.7,0.6,1,1.3,1,2.2h-2.1c0-0.4-0.2-0.7-0.5-1
		s-0.7-0.4-1.2-0.4s-0.8,0.1-1.1,0.3s-0.4,0.5-0.4,0.9c0,0.3,0.1,0.6,0.4,0.8s0.8,0.4,1.7,0.5c0.8,0.2,1.5,0.4,2,0.7
		c0.5,0.3,0.8,0.6,1.1,0.9c0.2,0.4,0.3,0.8,0.3,1.3c0,0.8-0.4,1.5-1.1,2.1s-1.6,0.8-2.8,0.8c-0.8,0-1.5-0.1-2.1-0.4
		s-1.1-0.7-1.4-1.1s-0.5-1-0.5-1.6h2.1c0,0.5,0.2,0.9,0.6,1.2s0.8,0.4,1.4,0.4c0.6,0,1-0.1,1.3-0.3
		C225.2,124.3,225.4,124,225.4,123.7z"/>
	<path class="st0" d="M233.4,126.4c-1.3,0-2.4-0.4-3.3-1.3s-1.2-2-1.2-3.4v-0.3c0-0.9,0.2-1.8,0.5-2.5s0.9-1.3,1.5-1.7
		c0.7-0.4,1.4-0.6,2.2-0.6c1.3,0,2.3,0.4,3,1.2c0.7,0.8,1,2,1,3.5v0.9H231c0.1,0.8,0.3,1.4,0.8,1.8s1,0.7,1.7,0.7
		c1,0,1.8-0.4,2.4-1.2l1.1,1.1c-0.4,0.6-0.9,1-1.5,1.3C234.9,126.2,234.2,126.4,233.4,126.4z M233.2,118.3c-0.6,0-1,0.2-1.4,0.6
		s-0.6,1-0.7,1.7h4v-0.2c0-0.7-0.2-1.2-0.6-1.6C234.2,118.5,233.8,118.3,233.2,118.3z"/>
	<path class="st0" d="M238.5,121.4c0-1.4,0.3-2.6,1-3.5s1.6-1.3,2.7-1.3c1,0,1.8,0.3,2.4,1v-4.8h2.1v13.4h-1.9l-0.1-1
		c-0.6,0.8-1.5,1.1-2.5,1.1c-1.1,0-2-0.4-2.7-1.3C238.8,124.2,238.5,123,238.5,121.4z M240.6,121.6c0,1,0.2,1.7,0.6,2.2
		c0.4,0.5,0.9,0.8,1.6,0.8c0.9,0,1.5-0.4,1.9-1.2v-4c-0.4-0.8-1-1.1-1.9-1.1c-0.7,0-1.2,0.3-1.6,0.8
		C240.8,119.7,240.6,120.5,240.6,121.6z"/>
	<path class="st0" d="M163.4,145.8h5.7v1.8h-7.9v-12.7h2.2V145.8z"/>
	<path class="st0" d="M174.7,147.8c-1.3,0-2.4-0.4-3.3-1.3s-1.2-2-1.2-3.4v-0.3c0-0.9,0.2-1.8,0.5-2.5s0.9-1.3,1.5-1.7
		c0.7-0.4,1.4-0.6,2.2-0.6c1.3,0,2.3,0.4,3,1.2s1,2,1,3.5v0.9h-6.1c0.1,0.8,0.3,1.4,0.8,1.8s1,0.7,1.7,0.7c1,0,1.8-0.4,2.4-1.2
		l1.1,1.1c-0.4,0.6-0.9,1-1.5,1.3C176.2,147.6,175.5,147.8,174.7,147.8z M174.5,139.7c-0.6,0-1,0.2-1.4,0.6s-0.6,1-0.7,1.7h4v-0.2
		c0-0.7-0.2-1.2-0.6-1.6C175.5,139.9,175.1,139.7,174.5,139.7z"/>
	<path class="st0" d="M185.8,147.6c-0.1-0.2-0.2-0.5-0.2-0.9c-0.7,0.7-1.5,1.1-2.5,1.1c-0.9,0-1.7-0.3-2.3-0.8s-0.9-1.2-0.9-2
		c0-1,0.4-1.8,1.1-2.3c0.7-0.5,1.8-0.8,3.2-0.8h1.3v-0.6c0-0.5-0.1-0.9-0.4-1.2c-0.3-0.3-0.7-0.4-1.2-0.4s-0.9,0.1-1.2,0.4
		c-0.3,0.2-0.5,0.5-0.5,0.9h-2.1c0-0.5,0.2-1,0.5-1.4s0.8-0.8,1.4-1.1c0.6-0.3,1.2-0.4,2-0.4c1.1,0,2,0.3,2.6,0.8
		c0.7,0.6,1,1.3,1,2.3v4.2c0,0.8,0.1,1.5,0.4,2v0.1L185.8,147.6L185.8,147.6z M183.5,146.1c0.4,0,0.8-0.1,1.2-0.3s0.6-0.5,0.8-0.8
		v-1.8h-1.1c-0.8,0-1.4,0.1-1.8,0.4c-0.4,0.3-0.6,0.7-0.6,1.2c0,0.4,0.1,0.7,0.4,1S183,146.1,183.5,146.1z"/>
	<path class="st0" d="M194.7,140.1c-0.3,0-0.6-0.1-0.9-0.1c-1,0-1.6,0.4-2,1.1v6.4h-2.1v-9.4h2l0.1,1.1c0.5-0.8,1.2-1.2,2.1-1.2
		c0.3,0,0.6,0,0.7,0.1L194.7,140.1z"/>
	<path class="st0" d="M198,138.2l0.1,1.1c0.7-0.8,1.6-1.3,2.7-1.3c2,0,3,1.1,3,3.4v6.2h-2.1v-6.1c0-0.6-0.1-1-0.4-1.3
		s-0.7-0.4-1.3-0.4c-0.9,0-1.5,0.4-1.9,1.2v6.7H196v-9.4L198,138.2L198,138.2z"/>
	<path class="st0" d="M205.9,135.7c0-0.3,0.1-0.6,0.3-0.8s0.5-0.3,0.9-0.3s0.7,0.1,0.9,0.3s0.3,0.5,0.3,0.8s-0.1,0.6-0.3,0.8
		s-0.5,0.3-0.9,0.3s-0.7-0.1-0.9-0.3S205.9,136,205.9,135.7z M208.2,147.6h-2.1v-9.4h2.1V147.6z"/>
	<path class="st0" d="M212.4,138.2l0.1,1.1c0.7-0.8,1.6-1.3,2.7-1.3c2,0,3,1.1,3,3.4v6.2h-2.1v-6.1c0-0.6-0.1-1-0.4-1.3
		s-0.7-0.4-1.3-0.4c-0.9,0-1.5,0.4-1.9,1.2v6.7h-2.1v-9.4L212.4,138.2L212.4,138.2z"/>
	<path class="st0" d="M220,142.8c0-1.5,0.3-2.6,1-3.5s1.6-1.3,2.7-1.3c1.1,0,1.9,0.4,2.5,1.1l0.1-0.9h1.9v9.1c0,1.2-0.4,2.2-1.2,2.9
		s-1.8,1.1-3.1,1.1c-0.7,0-1.4-0.1-2-0.4c-0.7-0.3-1.2-0.7-1.5-1.1l1-1.3c0.6,0.8,1.4,1.2,2.4,1.2c0.7,0,1.3-0.2,1.7-0.6
		c0.4-0.4,0.6-0.9,0.6-1.7v-0.6c-0.6,0.7-1.4,1-2.4,1c-1.1,0-2-0.4-2.7-1.3S220,144.4,220,142.8z M222.1,143c0,0.9,0.2,1.7,0.6,2.2
		c0.4,0.5,0.9,0.8,1.6,0.8c0.9,0,1.5-0.4,1.9-1.1v-4.1c-0.4-0.7-1-1.1-1.9-1.1c-0.7,0-1.2,0.3-1.6,0.8
		C222.3,141.1,222.1,141.9,222.1,143z"/>
</g>
<g>
	<path class="st0" d="M378.1,400.9h-5.2v3.9h6v1.7h-8.2V394h8.1v1.8h-6v3.5h5.2v1.6H378.1z"/>
	<path class="st0" d="M383.9,400.2l1.8-3.1h2.3l-2.9,4.6l2.9,4.7h-2.3l-1.9-3.2l-1.9,3.2h-2.3l2.9-4.7l-2.8-4.6h2.3L383.9,400.2z"/>
	<path class="st0" d="M397.6,401.9c0,1.4-0.3,2.6-1,3.5s-1.5,1.3-2.6,1.3c-1,0-1.8-0.3-2.5-1v4.4h-2.1v-12.9h1.9l0.1,0.9
		c0.6-0.7,1.5-1.1,2.5-1.1c1.1,0,2,0.4,2.7,1.3s1,2,1,3.5V401.9z M395.5,401.7c0-0.9-0.2-1.7-0.6-2.2s-0.9-0.8-1.6-0.8
		c-0.9,0-1.5,0.4-1.8,1.1v4.1c0.4,0.7,1,1.1,1.9,1.1c0.7,0,1.2-0.3,1.6-0.8C395.3,403.6,395.5,402.8,395.5,401.7z"/>
	<path class="st0" d="M403.5,406.7c-1.3,0-2.4-0.4-3.2-1.3c-0.8-0.8-1.2-1.9-1.2-3.3v-0.3c0-0.9,0.2-1.8,0.5-2.5s0.9-1.3,1.5-1.7
		s1.4-0.6,2.2-0.6c1.3,0,2.3,0.4,2.9,1.2s1,2,1,3.4v0.8h-6.1c0.1,0.8,0.3,1.4,0.8,1.8s1,0.7,1.7,0.7c1,0,1.7-0.4,2.3-1.2l1.1,1.1
		c-0.4,0.6-0.9,1-1.5,1.3C404.9,406.5,404.2,406.7,403.5,406.7z M403.2,398.7c-0.6,0-1,0.2-1.4,0.6s-0.6,1-0.7,1.7h4v-0.2
		c0-0.7-0.2-1.2-0.6-1.6C404.2,398.9,403.8,398.7,403.2,398.7z"/>
	<path class="st0" d="M413.7,399.1c-0.3,0-0.6-0.1-0.9-0.1c-1,0-1.6,0.4-1.9,1.1v6.4h-2.1v-9.3h2l0.1,1c0.5-0.8,1.2-1.2,2.1-1.2
		c0.3,0,0.5,0,0.7,0.1L413.7,399.1z"/>
	<path class="st0" d="M415,394.7c0-0.3,0.1-0.6,0.3-0.8c0.2-0.2,0.5-0.3,0.9-0.3s0.7,0.1,0.9,0.3c0.2,0.2,0.3,0.5,0.3,0.8
		s-0.1,0.6-0.3,0.8c-0.2,0.2-0.5,0.3-0.9,0.3s-0.7-0.1-0.9-0.3C415.1,395.3,415,395.1,415,394.7z M417.3,406.5h-2.1v-9.3h2.1V406.5z
		"/>
	<path class="st0" d="M423.6,406.7c-1.3,0-2.4-0.4-3.2-1.3c-0.8-0.8-1.2-1.9-1.2-3.3v-0.3c0-0.9,0.2-1.8,0.5-2.5s0.9-1.3,1.5-1.7
		s1.4-0.6,2.2-0.6c1.3,0,2.3,0.4,2.9,1.2s1,2,1,3.4v0.8h-6.1c0.1,0.8,0.3,1.4,0.8,1.8s1,0.7,1.7,0.7c1,0,1.7-0.4,2.3-1.2l1.1,1.1
		c-0.4,0.6-0.9,1-1.5,1.3C425.1,406.5,424.4,406.7,423.6,406.7z M423.4,398.7c-0.6,0-1,0.2-1.4,0.6s-0.6,1-0.7,1.7h4v-0.2
		c0-0.7-0.2-1.2-0.6-1.6C424.4,398.9,424,398.7,423.4,398.7z"/>
	<path class="st0" d="M431,397.2l0.1,1.1c0.7-0.8,1.6-1.2,2.7-1.2c1.9,0,2.9,1.1,3,3.3v6.2h-2.1v-6c0-0.6-0.1-1-0.4-1.3
		s-0.7-0.4-1.3-0.4c-0.8,0-1.5,0.4-1.9,1.1v6.6H429v-9.3h2V397.2z"/>
	<path class="st0" d="M442.7,405c0.5,0,1-0.2,1.3-0.5s0.5-0.7,0.6-1.1h2c0,0.6-0.2,1.1-0.5,1.6s-0.8,0.9-1.4,1.2s-1.2,0.4-1.9,0.4
		c-1.3,0-2.3-0.4-3.1-1.3c-0.8-0.8-1.1-2-1.1-3.5v-0.2c0-1.4,0.4-2.6,1.1-3.4c0.8-0.9,1.8-1.3,3.1-1.3c1.1,0,2,0.3,2.7,1
		s1.1,1.5,1.1,2.5h-2c0-0.5-0.2-1-0.5-1.3s-0.8-0.5-1.3-0.5c-0.7,0-1.2,0.2-1.6,0.7s-0.6,1.2-0.6,2.2v0.3c0,1,0.2,1.8,0.5,2.3
		C441.4,404.7,442,405,442.7,405z"/>
	<path class="st0" d="M452.2,406.7c-1.3,0-2.4-0.4-3.2-1.3c-0.8-0.8-1.2-1.9-1.2-3.3v-0.3c0-0.9,0.2-1.8,0.5-2.5
		c0.4-0.7,0.9-1.3,1.5-1.7s1.4-0.6,2.2-0.6c1.3,0,2.3,0.4,2.9,1.2s1,2,1,3.4v0.8h-6.1c0.1,0.8,0.3,1.4,0.8,1.8s1,0.7,1.7,0.7
		c1,0,1.7-0.4,2.3-1.2l1.1,1.1c-0.4,0.6-0.9,1-1.5,1.3C453.6,406.5,452.9,406.7,452.2,406.7z M451.9,398.7c-0.6,0-1,0.2-1.4,0.6
		s-0.6,1-0.7,1.7h4v-0.2c0-0.7-0.2-1.2-0.6-1.6C453,398.9,452.5,398.7,451.9,398.7z"/>
	<path class="st0" d="M372.2,423v4.7H370v-12.5h4.8c1.4,0,2.5,0.4,3.3,1.1s1.2,1.7,1.2,2.9c0,1.2-0.4,2.2-1.2,2.9
		c-0.8,0.7-1.9,1-3.4,1h-2.5V423z M372.2,421.3h2.6c0.8,0,1.4-0.2,1.8-0.5s0.6-0.9,0.6-1.6s-0.2-1.2-0.6-1.6s-1-0.6-1.7-0.6h-2.7
		L372.2,421.3L372.2,421.3z"/>
	<path class="st0" d="M385.1,427.8c-1.3,0-2.4-0.4-3.2-1.3c-0.8-0.8-1.2-2-1.2-3.3V423c0-0.9,0.2-1.8,0.5-2.5
		c0.4-0.7,0.9-1.3,1.5-1.7c0.6-0.4,1.4-0.6,2.2-0.6c1.3,0,2.3,0.4,2.9,1.2s1,2,1,3.4v0.8h-6.1c0.1,0.8,0.3,1.4,0.8,1.8
		s1,0.7,1.7,0.7c1,0,1.7-0.4,2.3-1.2l1.1,1.1c-0.4,0.6-0.9,1-1.5,1.3C386.6,427.7,385.9,427.8,385.1,427.8z M384.9,419.9
		c-0.6,0-1,0.2-1.4,0.6s-0.6,1-0.7,1.7h4V422c0-0.7-0.2-1.2-0.6-1.6C385.9,420,385.4,419.9,384.9,419.9z"/>
	<path class="st0" d="M394.6,427.8c-1.3,0-2.4-0.4-3.2-1.3c-0.8-0.8-1.2-2-1.2-3.3V423c0-0.9,0.2-1.8,0.5-2.5
		c0.4-0.7,0.9-1.3,1.5-1.7c0.6-0.4,1.4-0.6,2.2-0.6c1.3,0,2.3,0.4,2.9,1.2s1,2,1,3.4v0.8h-6.1c0.1,0.8,0.3,1.4,0.8,1.8
		s1,0.7,1.7,0.7c1,0,1.7-0.4,2.3-1.2l1.1,1.1c-0.4,0.6-0.9,1-1.5,1.3C396.1,427.7,395.4,427.8,394.6,427.8z M394.3,419.9
		c-0.6,0-1,0.2-1.4,0.6s-0.6,1-0.7,1.7h4V422c0-0.7-0.2-1.2-0.6-1.6C395.4,420,394.9,419.9,394.3,419.9z"/>
	<path class="st0" d="M404.8,420.3c-0.3,0-0.6-0.1-0.9-0.1c-1,0-1.6,0.4-1.9,1.1v6.4h-2.1v-9.3h2l0.1,1c0.5-0.8,1.2-1.2,2.1-1.2
		c0.3,0,0.5,0,0.7,0.1L404.8,420.3z"/>
	<path class="st0" d="M420.4,426c-0.5,0.6-1.1,1-1.9,1.3s-1.7,0.5-2.7,0.5c-1.1,0-2-0.2-2.8-0.7s-1.4-1.2-1.9-2
		c-0.4-0.9-0.7-1.9-0.7-3.1v-1c0-1.9,0.5-3.4,1.4-4.4c0.9-1.1,2.2-1.6,3.8-1.6c1.4,0,2.5,0.3,3.3,1s1.3,1.7,1.5,3h-2.1
		c-0.2-1.5-1.1-2.3-2.6-2.3c-1,0-1.7,0.4-2.2,1.1s-0.8,1.7-0.8,3.1v1c0,1.4,0.3,2.4,0.9,3.2c0.6,0.7,1.4,1.1,2.4,1.1
		c1.1,0,1.9-0.3,2.4-0.8v-2.5h-2.6v-1.7h4.8v4.8H420.4z"/>
	<path class="st0" d="M427.4,420.3c-0.3,0-0.6-0.1-0.9-0.1c-1,0-1.6,0.4-1.9,1.1v6.4h-2.1v-9.3h2l0.1,1c0.5-0.8,1.2-1.2,2.1-1.2
		c0.3,0,0.5,0,0.7,0.1L427.4,420.3z"/>
	<path class="st0" d="M428.1,422.9c0-0.9,0.2-1.7,0.5-2.5c0.4-0.7,0.9-1.3,1.5-1.7s1.4-0.6,2.3-0.6c1.3,0,2.3,0.4,3.1,1.2
		s1.2,1.9,1.3,3.2v0.5c0,0.9-0.2,1.7-0.5,2.5c-0.4,0.7-0.9,1.3-1.5,1.7c-0.7,0.4-1.4,0.6-2.3,0.6c-1.3,0-2.4-0.4-3.2-1.3
		c-0.8-0.9-1.2-2-1.2-3.5L428.1,422.9L428.1,422.9z M430.2,423.1c0,1,0.2,1.7,0.6,2.3s0.9,0.8,1.7,0.8s1.3-0.3,1.7-0.8
		s0.6-1.4,0.6-2.4c0-0.9-0.2-1.7-0.6-2.2c-0.4-0.6-1-0.8-1.7-0.8s-1.2,0.3-1.6,0.8S430.2,422,430.2,423.1z"/>
	<path class="st0" d="M444.2,426.8c-0.6,0.7-1.5,1.1-2.6,1.1c-1,0-1.8-0.3-2.3-0.9s-0.8-1.4-0.8-2.6v-6h2.1v6c0,1.2,0.5,1.8,1.5,1.8
		s1.7-0.4,2.1-1.1v-6.7h2.1v9.3h-2L444.2,426.8z"/>
	<path class="st0" d="M456.5,423.1c0,1.4-0.3,2.6-1,3.5s-1.5,1.3-2.6,1.3c-1,0-1.8-0.3-2.5-1v4.4h-2.1v-12.9h1.9l0.1,0.9
		c0.6-0.7,1.5-1.1,2.5-1.1c1.1,0,2,0.4,2.7,1.3s1,2,1,3.5V423.1z M454.4,422.9c0-0.9-0.2-1.7-0.6-2.2s-0.9-0.8-1.6-0.8
		c-0.9,0-1.5,0.4-1.8,1.1v4.1c0.4,0.7,1,1.1,1.9,1.1c0.7,0,1.2-0.3,1.6-0.8C454.2,424.8,454.4,424,454.4,422.9z"/>
</g>
<g>
	<path class="st0" d="M349.5,194.3v-12.7h3.7c1.1,0,2.1,0.2,3,0.7s1.5,1.2,2,2.1c0.5,0.9,0.7,2,0.7,3.1v0.6c0,1.2-0.2,2.3-0.7,3.2
		s-1.2,1.6-2,2.1c-0.9,0.5-1.9,0.7-3,0.7h-3.7V194.3z M351.7,183.4v9.1h1.4c1.2,0,2-0.4,2.7-1.1s0.9-1.8,0.9-3.1v-0.7
		c0-1.4-0.3-2.4-0.9-3.1c-0.6-0.7-1.5-1.1-2.6-1.1L351.7,183.4L351.7,183.4z"/>
	<path class="st0" d="M361,182.4c0-0.3,0.1-0.6,0.3-0.8c0.2-0.2,0.5-0.3,0.9-0.3s0.7,0.1,0.9,0.3c0.2,0.2,0.3,0.5,0.3,0.8
		s-0.1,0.6-0.3,0.8c-0.2,0.2-0.5,0.3-0.9,0.3s-0.7-0.1-0.9-0.3S361,182.7,361,182.4z M363.2,194.3h-2.1v-9.4h2.1V194.3z"/>
	<path class="st0" d="M368.8,191.6l2-6.7h2.2l-3.3,9.4h-1.8l-3.3-9.4h2.2L368.8,191.6z"/>
	<path class="st0" d="M378.4,194.4c-1.3,0-2.4-0.4-3.3-1.3s-1.2-2-1.2-3.4v-0.3c0-0.9,0.2-1.8,0.5-2.5s0.9-1.3,1.5-1.7
		c0.7-0.4,1.4-0.6,2.2-0.6c1.3,0,2.3,0.4,3,1.2s1,2,1,3.5v0.9H376c0.1,0.8,0.3,1.4,0.8,1.8s1,0.7,1.7,0.7c1,0,1.8-0.4,2.4-1.2
		l1.1,1.1c-0.4,0.6-0.9,1-1.5,1.3C379.8,194.3,379.1,194.4,378.4,194.4z M378.1,186.4c-0.6,0-1,0.2-1.4,0.6s-0.6,1-0.7,1.7h4v-0.2
		c0-0.7-0.2-1.2-0.6-1.6C379.1,186.5,378.7,186.4,378.1,186.4z"/>
	<path class="st0" d="M388.7,186.8c-0.3,0-0.6-0.1-0.9-0.1c-1,0-1.6,0.4-2,1.1v6.4h-2.1v-9.4h2l0.1,1.1c0.5-0.8,1.2-1.2,2.1-1.2
		c0.3,0,0.6,0,0.7,0.1L388.7,186.8z"/>
	<path class="st0" d="M395.3,191.7c0-0.4-0.2-0.7-0.5-0.9s-0.8-0.4-1.5-0.5c-0.7-0.2-1.3-0.3-1.8-0.6c-1.1-0.5-1.6-1.2-1.6-2.2
		c0-0.8,0.3-1.5,1-2s1.6-0.8,2.6-0.8c1.1,0,2,0.3,2.7,0.8c0.7,0.6,1,1.3,1,2.2h-2.1c0-0.4-0.2-0.7-0.5-1s-0.7-0.4-1.2-0.4
		s-0.8,0.1-1.1,0.3c-0.3,0.2-0.4,0.5-0.4,0.9c0,0.3,0.1,0.6,0.4,0.8s0.8,0.4,1.7,0.5s1.5,0.4,2,0.7s0.8,0.6,1.1,0.9
		c0.2,0.4,0.3,0.8,0.3,1.3c0,0.8-0.4,1.5-1.1,2.1c-0.7,0.5-1.6,0.8-2.8,0.8c-0.8,0-1.5-0.1-2.1-0.4s-1.1-0.7-1.4-1.1
		c-0.3-0.5-0.5-1-0.5-1.6h2.1c0,0.5,0.2,0.9,0.6,1.2s0.8,0.4,1.4,0.4s1-0.1,1.3-0.3C395.2,192.3,395.3,192,395.3,191.7z"/>
	<path class="st0" d="M403.4,194.4c-1.3,0-2.4-0.4-3.3-1.3s-1.2-2-1.2-3.4v-0.3c0-0.9,0.2-1.8,0.5-2.5s0.9-1.3,1.5-1.7
		c0.7-0.4,1.4-0.6,2.2-0.6c1.3,0,2.3,0.4,3,1.2s1,2,1,3.5v0.9H401c0.1,0.8,0.3,1.4,0.8,1.8s1,0.7,1.7,0.7c1,0,1.8-0.4,2.4-1.2
		l1.1,1.1c-0.4,0.6-0.9,1-1.5,1.3C404.8,194.3,404.1,194.4,403.4,194.4z M403.1,186.4c-0.6,0-1,0.2-1.4,0.6s-0.6,1-0.7,1.7h4v-0.2
		c0-0.7-0.2-1.2-0.6-1.6C404.1,186.5,403.7,186.4,403.1,186.4z"/>
	<path class="st0" d="M420.8,188.6h-5.2v3.9h6.1v1.8h-8.3v-12.7h8.2v1.8h-6v3.5h5.2L420.8,188.6L420.8,188.6z"/>
	<path class="st0" d="M425.5,194.3h-2.1v-13.4h2.1V194.3z"/>
	<path class="st0" d="M432,194.4c-1.3,0-2.4-0.4-3.3-1.3s-1.2-2-1.2-3.4v-0.3c0-0.9,0.2-1.8,0.5-2.5s0.9-1.3,1.5-1.7
		c0.7-0.4,1.4-0.6,2.2-0.6c1.3,0,2.3,0.4,3,1.2s1,2,1,3.5v0.9h-6.1c0.1,0.8,0.3,1.4,0.8,1.8s1,0.7,1.7,0.7c1,0,1.8-0.4,2.4-1.2
		l1.1,1.1c-0.4,0.6-0.9,1-1.5,1.3C433.4,194.3,432.7,194.4,432,194.4z M431.7,186.4c-0.6,0-1,0.2-1.4,0.6s-0.6,1-0.7,1.7h4v-0.2
		c0-0.7-0.2-1.2-0.6-1.6C432.7,186.5,432.3,186.4,431.7,186.4z"/>
	<path class="st0" d="M441.2,192.7c0.5,0,1-0.2,1.3-0.5s0.5-0.7,0.6-1.1h2c0,0.6-0.2,1.1-0.5,1.6s-0.8,0.9-1.4,1.2s-1.2,0.4-1.9,0.4
		c-1.3,0-2.4-0.4-3.1-1.3c-0.8-0.9-1.2-2-1.2-3.5v-0.2c0-1.4,0.4-2.6,1.1-3.4s1.8-1.3,3.1-1.3c1.1,0,2,0.3,2.7,1s1.1,1.5,1.1,2.6h-2
		c0-0.5-0.2-1-0.6-1.3s-0.8-0.5-1.3-0.5c-0.7,0-1.2,0.2-1.6,0.7s-0.6,1.2-0.6,2.3v0.3c0,1,0.2,1.8,0.6,2.3
		C440,192.5,440.5,192.7,441.2,192.7z"/>
	<path class="st0" d="M449.3,182.6v2.3h1.7v1.6h-1.7v5.3c0,0.4,0.1,0.6,0.2,0.8s0.4,0.2,0.8,0.2c0.2,0,0.5,0,0.7-0.1v1.6
		c-0.5,0.1-0.9,0.2-1.4,0.2c-1.6,0-2.4-0.9-2.4-2.7v-5.3h-1.5v-1.6h1.5v-2.3H449.3z"/>
	<path class="st0" d="M452.6,182.4c0-0.3,0.1-0.6,0.3-0.8c0.2-0.2,0.5-0.3,0.9-0.3s0.7,0.1,0.9,0.3c0.2,0.2,0.3,0.5,0.3,0.8
		s-0.1,0.6-0.3,0.8c-0.2,0.2-0.5,0.3-0.9,0.3s-0.7-0.1-0.9-0.3S452.6,182.7,452.6,182.4z M454.8,194.3h-2.1v-9.4h2.1V194.3z"/>
	<path class="st0" d="M460.5,191.6l2-6.7h2.2l-3.3,9.4h-1.8l-3.3-9.4h2.2L460.5,191.6z"/>
	<path class="st0" d="M470,194.4c-1.3,0-2.4-0.4-3.3-1.3s-1.2-2-1.2-3.4v-0.3c0-0.9,0.2-1.8,0.5-2.5s0.9-1.3,1.5-1.7
		c0.7-0.4,1.4-0.6,2.2-0.6c1.3,0,2.3,0.4,3,1.2s1,2,1,3.5v0.9h-6.1c0.1,0.8,0.3,1.4,0.8,1.8s1,0.7,1.7,0.7c1,0,1.8-0.4,2.4-1.2
		l1.1,1.1c-0.4,0.6-0.9,1-1.5,1.3C471.5,194.3,470.8,194.4,470,194.4z M469.7,186.4c-0.6,0-1,0.2-1.4,0.6s-0.6,1-0.7,1.7h4v-0.2
		c0-0.7-0.2-1.2-0.6-1.6C470.8,186.5,470.3,186.4,469.7,186.4z"/>
	<path class="st0" d="M363.2,212.4c0-0.6-0.2-1-0.6-1.3s-1.1-0.6-2.1-0.9c-1-0.3-1.8-0.6-2.4-1c-1.2-0.7-1.7-1.7-1.7-2.8
		c0-1,0.4-1.9,1.2-2.5c0.8-0.7,1.9-1,3.2-1c0.9,0,1.7,0.2,2.4,0.5c0.7,0.3,1.2,0.8,1.6,1.4c0.4,0.6,0.6,1.3,0.6,2h-2.2
		c0-0.7-0.2-1.2-0.6-1.6c-0.4-0.4-1-0.6-1.8-0.6c-0.7,0-1.3,0.2-1.7,0.5c-0.4,0.3-0.6,0.7-0.6,1.3c0,0.5,0.2,0.9,0.6,1.2
		s1.1,0.6,2.1,0.9c1,0.3,1.8,0.6,2.4,1s1,0.8,1.3,1.3s0.4,1.1,0.4,1.7c0,1.1-0.4,1.9-1.2,2.5s-1.9,0.9-3.3,0.9
		c-0.9,0-1.8-0.2-2.5-0.5c-0.8-0.3-1.4-0.8-1.8-1.4s-0.6-1.3-0.6-2.1h2.2c0,0.7,0.2,1.3,0.7,1.7s1.2,0.6,2,0.6s1.3-0.2,1.7-0.5
		C363,213.3,363.2,212.9,363.2,212.4z"/>
	<path class="st0" d="M375.4,211c0,1.5-0.3,2.6-1,3.5s-1.5,1.3-2.7,1.3c-1,0-1.9-0.3-2.5-1v4.5h-2.1v-13h1.9l0.1,1
		c0.6-0.8,1.5-1.1,2.5-1.1c1.1,0,2,0.4,2.7,1.3c0.7,0.9,1,2,1,3.6V211H375.4z M373.3,210.8c0-0.9-0.2-1.7-0.6-2.2
		c-0.4-0.6-0.9-0.8-1.6-0.8c-0.9,0-1.5,0.4-1.9,1.1v4.2c0.4,0.7,1,1.1,1.9,1.1c0.7,0,1.2-0.3,1.6-0.8
		C373.1,212.7,373.3,211.9,373.3,210.8z"/>
	<path class="st0" d="M381.3,215.8c-1.3,0-2.4-0.4-3.3-1.3s-1.2-2-1.2-3.4v-0.3c0-0.9,0.2-1.8,0.5-2.5s0.9-1.3,1.5-1.7
		c0.7-0.4,1.4-0.6,2.2-0.6c1.3,0,2.3,0.4,3,1.2s1,2,1,3.5v0.9h-6.1c0.1,0.8,0.3,1.4,0.8,1.8s1,0.7,1.7,0.7c1,0,1.8-0.4,2.4-1.2
		l1.1,1.1c-0.4,0.6-0.9,1-1.5,1.3S382.1,215.8,381.3,215.8z M381,207.7c-0.6,0-1,0.2-1.4,0.6s-0.6,1-0.7,1.7h4v-0.2
		c0-0.7-0.2-1.2-0.6-1.6C382.1,207.9,381.6,207.7,381,207.7z"/>
	<path class="st0" d="M390.6,214.1c0.5,0,1-0.2,1.3-0.5s0.5-0.7,0.6-1.1h2c0,0.6-0.2,1.1-0.5,1.6s-0.8,0.9-1.4,1.2s-1.2,0.4-1.9,0.4
		c-1.3,0-2.4-0.4-3.1-1.3c-0.8-0.9-1.2-2-1.2-3.5v-0.2c0-1.4,0.4-2.6,1.1-3.4s1.8-1.3,3.1-1.3c1.1,0,2,0.3,2.7,1s1.1,1.5,1.1,2.6h-2
		c0-0.5-0.2-1-0.6-1.3s-0.8-0.5-1.3-0.5c-0.7,0-1.2,0.2-1.6,0.7s-0.6,1.2-0.6,2.3v0.3c0,1,0.2,1.8,0.6,2.3
		C389.3,213.9,389.9,214.1,390.6,214.1z"/>
	<path class="st0" d="M396,203.8c0-0.3,0.1-0.6,0.3-0.8c0.2-0.2,0.5-0.3,0.9-0.3s0.7,0.1,0.9,0.3c0.2,0.2,0.3,0.5,0.3,0.8
		s-0.1,0.6-0.3,0.8c-0.2,0.2-0.5,0.3-0.9,0.3s-0.7-0.1-0.9-0.3C396.1,204.4,396,204.1,396,203.8z M398.3,215.6h-2.1v-9.4h2.1V215.6z
		"/>
	<path class="st0" d="M406.2,215.6c-0.1-0.2-0.2-0.5-0.2-0.9c-0.7,0.7-1.5,1.1-2.5,1.1c-0.9,0-1.7-0.3-2.3-0.8s-0.9-1.2-0.9-2
		c0-1,0.4-1.8,1.1-2.3s1.8-0.8,3.2-0.8h1.3v-0.6c0-0.5-0.1-0.9-0.4-1.2s-0.7-0.4-1.2-0.4s-0.9,0.1-1.2,0.4c-0.3,0.2-0.5,0.5-0.5,0.9
		h-2.1c0-0.5,0.2-1,0.5-1.4s0.8-0.8,1.4-1.1s1.2-0.4,2-0.4c1.1,0,2,0.3,2.6,0.8c0.7,0.6,1,1.3,1,2.3v4.2c0,0.8,0.1,1.5,0.4,2v0.1
		L406.2,215.6L406.2,215.6z M403.9,214.1c0.4,0,0.8-0.1,1.2-0.3s0.6-0.5,0.8-0.8v-1.8h-1.1c-0.8,0-1.4,0.1-1.8,0.4
		c-0.4,0.3-0.6,0.7-0.6,1.2c0,0.4,0.1,0.7,0.4,1S403.4,214.1,403.9,214.1z"/>
	<path class="st0" d="M412.4,215.6h-2.1v-13.4h2.1V215.6z"/>
	<path class="st0" d="M414.7,203.8c0-0.3,0.1-0.6,0.3-0.8c0.2-0.2,0.5-0.3,0.9-0.3s0.7,0.1,0.9,0.3c0.2,0.2,0.3,0.5,0.3,0.8
		s-0.1,0.6-0.3,0.8c-0.2,0.2-0.5,0.3-0.9,0.3s-0.7-0.1-0.9-0.3C414.8,204.4,414.7,204.1,414.7,203.8z M417,215.6h-2.1v-9.4h2.1
		V215.6z"/>
	<path class="st0" d="M421.5,213.9h5v1.7h-7.6v-1.4l4.8-6.3H419v-1.7h7.4v1.3L421.5,213.9z"/>
	<path class="st0" d="M433.9,215.6c-0.1-0.2-0.2-0.5-0.2-0.9c-0.7,0.7-1.5,1.1-2.5,1.1c-0.9,0-1.7-0.3-2.3-0.8s-0.9-1.2-0.9-2
		c0-1,0.4-1.8,1.1-2.3s1.8-0.8,3.2-0.8h1.3v-0.6c0-0.5-0.1-0.9-0.4-1.2s-0.7-0.4-1.2-0.4s-0.9,0.1-1.2,0.4c-0.3,0.2-0.5,0.5-0.5,0.9
		h-2.1c0-0.5,0.2-1,0.5-1.4s0.8-0.8,1.4-1.1s1.2-0.4,2-0.4c1.1,0,2,0.3,2.6,0.8c0.7,0.6,1,1.3,1,2.3v4.2c0,0.8,0.1,1.5,0.4,2v0.1
		L433.9,215.6L433.9,215.6z M431.5,214.1c0.4,0,0.8-0.1,1.2-0.3s0.6-0.5,0.8-0.8v-1.8h-1.1c-0.8,0-1.4,0.1-1.8,0.4
		c-0.4,0.3-0.6,0.7-0.6,1.2c0,0.4,0.1,0.7,0.4,1S431.1,214.1,431.5,214.1z"/>
	<path class="st0" d="M440.5,203.9v2.3h1.7v1.6h-1.7v5.3c0,0.4,0.1,0.6,0.2,0.8s0.4,0.2,0.8,0.2c0.2,0,0.5,0,0.7-0.1v1.6
		c-0.5,0.1-0.9,0.2-1.4,0.2c-1.6,0-2.4-0.9-2.4-2.7v-5.3h-1.5v-1.6h1.5v-2.3H440.5z"/>
	<path class="st0" d="M443.8,203.8c0-0.3,0.1-0.6,0.3-0.8c0.2-0.2,0.5-0.3,0.9-0.3s0.7,0.1,0.9,0.3c0.2,0.2,0.3,0.5,0.3,0.8
		s-0.1,0.6-0.3,0.8c-0.2,0.2-0.5,0.3-0.9,0.3s-0.7-0.1-0.9-0.3C443.9,204.4,443.8,204.1,443.8,203.8z M446,215.6h-2.1v-9.4h2.1
		V215.6z"/>
	<path class="st0" d="M447.9,210.8c0-0.9,0.2-1.8,0.5-2.5c0.4-0.7,0.9-1.3,1.5-1.7c0.7-0.4,1.4-0.6,2.3-0.6c1.3,0,2.3,0.4,3.1,1.2
		s1.2,1.9,1.3,3.3v0.5c0,0.9-0.2,1.8-0.5,2.5s-0.9,1.3-1.5,1.7c-0.7,0.4-1.4,0.6-2.3,0.6c-1.3,0-2.4-0.4-3.2-1.3s-1.2-2.1-1.2-3.5
		L447.9,210.8L447.9,210.8z M450,211c0,1,0.2,1.7,0.6,2.3c0.4,0.5,1,0.8,1.7,0.8s1.3-0.3,1.7-0.8c0.4-0.6,0.6-1.4,0.6-2.4
		s-0.2-1.7-0.6-2.3s-1-0.8-1.7-0.8s-1.2,0.3-1.6,0.8S450,209.9,450,211z"/>
	<path class="st0" d="M460.4,206.2l0.1,1.1c0.7-0.8,1.6-1.3,2.7-1.3c2,0,3,1.1,3,3.4v6.2h-2.1v-6.1c0-0.6-0.1-1-0.4-1.3
		s-0.7-0.4-1.3-0.4c-0.9,0-1.5,0.4-1.9,1.2v6.7h-2.1v-9.4L460.4,206.2L460.4,206.2z"/>
</g>
<g>
	<path class="st0" d="M138.3,316.7l3.7,9.7l3.6-9.7h2.8v12.7h-2.2v-4.2l0.2-5.6l-3.7,9.8h-1.6l-3.7-9.7l0.2,5.6v4.2h-2.2v-12.7
		L138.3,316.7L138.3,316.7z"/>
	<path class="st0" d="M150.8,317.5c0-0.3,0.1-0.6,0.3-0.8c0.2-0.2,0.5-0.3,0.9-0.3s0.7,0.1,0.9,0.3c0.2,0.2,0.3,0.5,0.3,0.8
		s-0.1,0.6-0.3,0.8c-0.2,0.2-0.5,0.3-0.9,0.3s-0.7-0.1-0.9-0.3C150.9,318.1,150.8,317.8,150.8,317.5z M153.1,329.3H151v-9.4h2.1
		V329.3z"/>
	<path class="st0" d="M159.2,327.8c0.5,0,1-0.2,1.3-0.5s0.5-0.7,0.6-1.1h2c0,0.6-0.2,1.1-0.5,1.6s-0.8,0.9-1.4,1.2
		c-0.6,0.3-1.2,0.4-1.9,0.4c-1.3,0-2.4-0.4-3.1-1.3c-0.8-0.9-1.2-2-1.2-3.5v-0.2c0-1.4,0.4-2.6,1.1-3.4c0.8-0.9,1.8-1.3,3.1-1.3
		c1.1,0,2,0.3,2.7,1s1.1,1.5,1.1,2.6h-2c0-0.5-0.2-1-0.6-1.3s-0.8-0.5-1.3-0.5c-0.7,0-1.2,0.2-1.6,0.7c-0.4,0.5-0.6,1.2-0.6,2.3v0.3
		c0,1,0.2,1.8,0.6,2.3C158,327.6,158.5,327.8,159.2,327.8z"/>
	<path class="st0" d="M169.6,321.9c-0.3,0-0.6-0.1-0.9-0.1c-1,0-1.6,0.4-2,1.1v6.4h-2.1v-9.4h2l0.1,1.1c0.5-0.8,1.2-1.2,2.1-1.2
		c0.3,0,0.6,0,0.7,0.1L169.6,321.9z"/>
	<path class="st0" d="M170.2,324.6c0-0.9,0.2-1.8,0.5-2.5c0.4-0.7,0.9-1.3,1.5-1.7c0.7-0.4,1.4-0.6,2.3-0.6c1.3,0,2.3,0.4,3.1,1.2
		s1.2,1.9,1.3,3.3v0.5c0,0.9-0.2,1.8-0.5,2.5s-0.9,1.3-1.5,1.7c-0.7,0.4-1.4,0.6-2.3,0.6c-1.3,0-2.4-0.4-3.2-1.3s-1.2-2.1-1.2-3.5
		L170.2,324.6L170.2,324.6z M172.3,324.7c0,1,0.2,1.7,0.6,2.3c0.4,0.5,1,0.8,1.7,0.8s1.3-0.3,1.7-0.8c0.4-0.6,0.6-1.4,0.6-2.4
		s-0.2-1.7-0.6-2.3c-0.4-0.6-1-0.8-1.7-0.8s-1.2,0.3-1.6,0.8C172.5,322.8,172.3,323.6,172.3,324.7z"/>
	<path class="st0" d="M187.6,327.6h5.7v1.8h-7.9v-12.7h2.2V327.6z"/>
	<path class="st0" d="M199,329.5c-1.3,0-2.4-0.4-3.3-1.3s-1.2-2-1.2-3.4v-0.3c0-0.9,0.2-1.8,0.5-2.5s0.9-1.3,1.5-1.7
		s1.4-0.6,2.2-0.6c1.3,0,2.3,0.4,3,1.2s1,2,1,3.5v0.9h-6.1c0.1,0.8,0.3,1.4,0.8,1.8c0.5,0.5,1,0.7,1.7,0.7c1,0,1.8-0.4,2.4-1.2
		l1.1,1.1c-0.4,0.6-0.9,1-1.5,1.3C200.4,329.4,199.7,329.5,199,329.5z M198.7,321.5c-0.6,0-1,0.2-1.4,0.6s-0.6,1-0.7,1.7h4v-0.2
		c0-0.7-0.2-1.2-0.6-1.6C199.7,321.6,199.3,321.5,198.7,321.5z"/>
	<path class="st0" d="M210,329.3c-0.1-0.2-0.2-0.5-0.2-0.9c-0.7,0.7-1.5,1.1-2.5,1.1c-0.9,0-1.7-0.3-2.3-0.8s-0.9-1.2-0.9-2
		c0-1,0.4-1.8,1.1-2.3s1.8-0.8,3.2-0.8h1.3V323c0-0.5-0.1-0.9-0.4-1.2c-0.3-0.3-0.7-0.4-1.2-0.4s-0.9,0.1-1.2,0.4s-0.5,0.5-0.5,0.9
		h-2.1c0-0.5,0.2-1,0.5-1.4s0.8-0.8,1.4-1.1s1.2-0.4,2-0.4c1.1,0,2,0.3,2.6,0.8c0.7,0.6,1,1.3,1,2.3v4.2c0,0.8,0.1,1.5,0.4,2v0.1
		H210V329.3z M207.7,327.8c0.4,0,0.8-0.1,1.2-0.3c0.4-0.2,0.6-0.5,0.8-0.8v-1.8h-1.1c-0.8,0-1.4,0.1-1.8,0.4
		c-0.4,0.3-0.6,0.7-0.6,1.2c0,0.4,0.1,0.7,0.4,1S207.2,327.8,207.7,327.8z"/>
	<path class="st0" d="M218.9,321.9c-0.3,0-0.6-0.1-0.9-0.1c-1,0-1.6,0.4-2,1.1v6.4h-2v-9.4h2l0.1,1.1c0.5-0.8,1.2-1.2,2.1-1.2
		c0.3,0,0.6,0,0.7,0.1L218.9,321.9z"/>
	<path class="st0" d="M222.2,319.9l0.1,1.1c0.7-0.8,1.6-1.3,2.7-1.3c2,0,3,1.1,3,3.4v6.2h-2.1v-6.1c0-0.6-0.1-1-0.4-1.3
		s-0.7-0.4-1.3-0.4c-0.9,0-1.5,0.4-1.9,1.2v6.7h-2.1V320h2V319.9z"/>
	<path class="st0" d="M230.2,317.5c0-0.3,0.1-0.6,0.3-0.8c0.2-0.2,0.5-0.3,0.9-0.3s0.7,0.1,0.9,0.3c0.2,0.2,0.3,0.5,0.3,0.8
		s-0.1,0.6-0.3,0.8c-0.2,0.2-0.5,0.3-0.9,0.3s-0.7-0.1-0.9-0.3S230.2,317.8,230.2,317.5z M232.4,329.3h-2.1v-9.4h2.1V329.3z"/>
	<path class="st0" d="M236.7,319.9l0.1,1.1c0.7-0.8,1.6-1.3,2.7-1.3c2,0,3,1.1,3,3.4v6.2h-2.1v-6.1c0-0.6-0.1-1-0.4-1.3
		s-0.7-0.4-1.3-0.4c-0.9,0-1.5,0.4-1.9,1.2v6.7h-2.1V320h2V319.9z"/>
	<path class="st0" d="M244.2,324.6c0-1.5,0.3-2.6,1-3.5s1.6-1.3,2.7-1.3c1.1,0,1.9,0.4,2.5,1.1l0.1-0.9h1.9v9.1
		c0,1.2-0.4,2.2-1.2,2.9s-1.8,1.1-3.1,1.1c-0.7,0-1.4-0.1-2-0.4s-1.2-0.7-1.5-1.1l1-1.3c0.6,0.8,1.4,1.2,2.4,1.2
		c0.7,0,1.3-0.2,1.7-0.6s0.6-0.9,0.6-1.7v-0.6c-0.6,0.7-1.4,1-2.4,1c-1.1,0-2-0.4-2.7-1.3S244.2,326.1,244.2,324.6z M246.3,324.8
		c0,0.9,0.2,1.7,0.6,2.2c0.4,0.5,0.9,0.8,1.6,0.8c0.9,0,1.5-0.4,1.9-1.1v-4.1c-0.4-0.7-1-1.1-1.9-1.1c-0.7,0-1.2,0.3-1.6,0.8
		C246.5,322.9,246.3,323.7,246.3,324.8z"/>
	<path class="st0" d="M141.2,347.3c0-0.6,0.2-1.1,0.5-1.6s0.9-1.1,1.9-1.7c-0.5-0.6-0.8-1.1-1-1.6c-0.2-0.4-0.3-0.9-0.3-1.3
		c0-1,0.3-1.8,0.9-2.4c0.6-0.6,1.4-0.9,2.4-0.9c0.9,0,1.7,0.3,2.3,0.8s0.9,1.2,0.9,2c0,0.5-0.1,1-0.4,1.5c-0.3,0.4-0.7,0.9-1.3,1.3
		l-0.9,0.6l2.4,2.9c0.4-0.7,0.5-1.5,0.5-2.3h1.8c0,1.6-0.4,2.8-1.1,3.8l1.9,2.2h-2.5l-0.7-0.8c-0.9,0.7-2,1-3.2,1
		c-1.3,0-2.3-0.3-3-1C141.5,349.2,141.2,348.4,141.2,347.3z M145.4,349.2c0.7,0,1.4-0.2,2-0.7l-2.8-3.3l-0.3,0.2
		c-0.7,0.5-1,1.1-1,1.8c0,0.6,0.2,1.1,0.6,1.4C144.2,349,144.7,349.2,145.4,349.2z M144.2,341c0,0.5,0.3,1.1,0.9,1.8l1-0.7l0.3-0.2
		c0.4-0.3,0.5-0.7,0.5-1.2c0-0.3-0.1-0.6-0.4-0.8c-0.2-0.2-0.6-0.4-0.9-0.4c-0.4,0-0.7,0.1-1,0.4C144.3,340.3,144.2,340.6,144.2,341
		z"/>
	<path class="st0" d="M167.2,346.6c-0.1,1.4-0.6,2.4-1.5,3.2c-0.9,0.8-2,1.1-3.5,1.1c-1,0-1.9-0.2-2.7-0.7s-1.4-1.2-1.8-2
		c-0.4-0.9-0.6-1.9-0.7-3.1v-1.2c0-1.2,0.2-2.2,0.6-3.2c0.4-0.9,1-1.6,1.8-2.1s1.7-0.7,2.7-0.7c1.4,0,2.5,0.4,3.4,1.1
		c0.9,0.8,1.3,1.8,1.5,3.2h-2c-0.1-0.9-0.4-1.6-0.8-2c-0.4-0.4-1.1-0.6-1.9-0.6c-1,0-1.7,0.3-2.2,1s-0.8,1.7-0.8,3.1v1.1
		c0,1.4,0.2,2.4,0.7,3.1s1.2,1.1,2.2,1.1c0.9,0,1.5-0.2,1.9-0.6s0.7-1,0.8-1.9h2.3V346.6z"/>
	<path class="st0" d="M174.6,350.7c-0.1-0.2-0.2-0.5-0.2-0.9c-0.7,0.7-1.5,1.1-2.5,1.1c-0.9,0-1.7-0.3-2.3-0.8s-0.9-1.2-0.9-2
		c0-1,0.4-1.8,1.1-2.3s1.8-0.8,3.2-0.8h1.3v-0.6c0-0.5-0.1-0.9-0.4-1.2c-0.3-0.3-0.7-0.4-1.2-0.4s-0.9,0.1-1.2,0.4s-0.5,0.5-0.5,0.9
		h-2.1c0-0.5,0.2-1,0.5-1.4s0.8-0.8,1.4-1.1s1.2-0.4,2-0.4c1.1,0,2,0.3,2.6,0.8c0.7,0.6,1,1.3,1,2.3v4.2c0,0.8,0.1,1.5,0.4,2v0.1
		L174.6,350.7L174.6,350.7z M172.2,349.2c0.4,0,0.8-0.1,1.2-0.3c0.4-0.2,0.6-0.5,0.8-0.8v-1.8h-1.1c-0.8,0-1.4,0.1-1.8,0.4
		c-0.4,0.3-0.6,0.7-0.6,1.2c0,0.4,0.1,0.7,0.4,1S171.8,349.2,172.2,349.2z"/>
	<path class="st0" d="M183.8,348.1c0-0.4-0.2-0.7-0.5-0.9s-0.8-0.4-1.5-0.5c-0.7-0.2-1.3-0.3-1.8-0.6c-1.1-0.5-1.6-1.2-1.6-2.2
		c0-0.8,0.3-1.5,1-2s1.6-0.8,2.6-0.8c1.1,0,2,0.3,2.7,0.8c0.7,0.6,1,1.3,1,2.2h-2.1c0-0.4-0.2-0.7-0.5-1s-0.7-0.4-1.2-0.4
		s-0.8,0.1-1.1,0.3c-0.3,0.2-0.4,0.5-0.4,0.9c0,0.3,0.1,0.6,0.4,0.8c0.3,0.2,0.8,0.4,1.7,0.5s1.5,0.4,2,0.7c0.5,0.3,0.8,0.6,1.1,0.9
		c0.2,0.4,0.3,0.8,0.3,1.3c0,0.8-0.4,1.5-1.1,2.1c-0.7,0.5-1.6,0.8-2.8,0.8c-0.8,0-1.5-0.1-2.1-0.4s-1.1-0.7-1.4-1.1
		c-0.3-0.5-0.5-1-0.5-1.6h2.1c0,0.5,0.2,0.9,0.6,1.2c0.3,0.3,0.8,0.4,1.4,0.4c0.6,0,1-0.1,1.3-0.3
		C183.7,348.8,183.8,348.5,183.8,348.1z"/>
	<path class="st0" d="M191.9,350.9c-1.3,0-2.4-0.4-3.3-1.3s-1.2-2-1.2-3.4V346c0-0.9,0.2-1.8,0.5-2.5s0.9-1.3,1.5-1.7
		s1.4-0.6,2.2-0.6c1.3,0,2.3,0.4,3,1.2s1,2,1,3.5v0.9h-6.1c0.1,0.8,0.3,1.4,0.8,1.8c0.5,0.5,1,0.7,1.7,0.7c1,0,1.8-0.4,2.4-1.2
		l1.1,1.1c-0.4,0.6-0.9,1-1.5,1.3C193.4,350.7,192.7,350.9,191.9,350.9z M191.6,342.8c-0.6,0-1,0.2-1.4,0.6s-0.6,1-0.7,1.7h4V345
		c0-0.7-0.2-1.2-0.6-1.6C192.7,343,192.2,342.8,191.6,342.8z"/>
	<path class="st0" d="M201.4,346.2h-4.6v-1.7h4.6V346.2z"/>
	<path class="st0" d="M210,347.4c0-0.6-0.2-1-0.6-1.3c-0.4-0.3-1.1-0.6-2.1-0.9s-1.8-0.6-2.4-1c-1.2-0.7-1.7-1.7-1.7-2.8
		c0-1,0.4-1.9,1.2-2.5c0.8-0.7,1.9-1,3.2-1c0.9,0,1.7,0.2,2.4,0.5s1.2,0.8,1.6,1.4c0.4,0.6,0.6,1.3,0.6,2H210c0-0.7-0.2-1.2-0.6-1.6
		c-0.4-0.4-1-0.6-1.8-0.6c-0.7,0-1.3,0.2-1.7,0.5s-0.6,0.7-0.6,1.3c0,0.5,0.2,0.9,0.6,1.2c0.4,0.3,1.1,0.6,2.1,0.9s1.8,0.6,2.4,1
		c0.6,0.4,1,0.8,1.3,1.3s0.4,1.1,0.4,1.7c0,1.1-0.4,1.9-1.2,2.5s-1.9,0.9-3.3,0.9c-0.9,0-1.8-0.2-2.5-0.5c-0.8-0.3-1.4-0.8-1.8-1.4
		c-0.4-0.6-0.6-1.3-0.6-2.1h2.2c0,0.7,0.2,1.3,0.7,1.7c0.5,0.4,1.2,0.6,2,0.6s1.3-0.2,1.7-0.5C209.8,348.4,210,348,210,347.4z"/>
	<path class="st0" d="M216.5,339v2.3h1.7v1.6h-1.7v5.3c0,0.4,0.1,0.6,0.2,0.8s0.4,0.2,0.8,0.2c0.2,0,0.5,0,0.7-0.1v1.6
		c-0.5,0.1-0.9,0.2-1.4,0.2c-1.6,0-2.4-0.9-2.4-2.7v-5.3h-1.5v-1.6h1.5V339H216.5z"/>
	<path class="st0" d="M225.5,349.8c-0.6,0.7-1.5,1.1-2.6,1.1c-1,0-1.8-0.3-2.3-0.9s-0.8-1.5-0.8-2.6v-6.1h2.1v6.1
		c0,1.2,0.5,1.8,1.5,1.8s1.7-0.4,2.1-1.1v-6.8h2.1v9.4h-2L225.5,349.8z"/>
	<path class="st0" d="M229.3,345.9c0-1.4,0.3-2.6,1-3.5s1.6-1.3,2.7-1.3c1,0,1.8,0.3,2.4,1v-4.8h2.1v13.4h-1.9l-0.1-1
		c-0.6,0.8-1.5,1.1-2.5,1.1c-1.1,0-2-0.4-2.7-1.3C229.6,348.7,229.3,347.5,229.3,345.9z M231.4,346.1c0,1,0.2,1.7,0.6,2.2
		c0.4,0.5,0.9,0.8,1.6,0.8c0.9,0,1.5-0.4,1.9-1.2v-4c-0.4-0.8-1-1.1-1.9-1.1c-0.7,0-1.2,0.3-1.6,0.8
		C231.6,344.2,231.4,345,231.4,346.1z"/>
	<path class="st0" d="M243,347.7l1.9-6.4h2.3l-3.7,10.8c-0.6,1.6-1.5,2.4-2.9,2.4c-0.3,0-0.6-0.1-1-0.2v-1.6h0.4
		c0.5,0,0.9-0.1,1.2-0.3c0.3-0.2,0.5-0.5,0.6-1l0.3-0.8l-3.3-9.4h2.3L243,347.7z"/>
	<path class="st0" d="M145.7,359.4l3.7,9.7l3.6-9.7h2.8v12.7h-2.2v-4.2l0.2-5.6l-3.7,9.8h-1.6l-3.7-9.7l0.2,5.6v4.2h-2.2v-12.7
		L145.7,359.4L145.7,359.4z"/>
	<path class="st0" d="M162.3,372.2c-1.3,0-2.4-0.4-3.3-1.3s-1.2-2-1.2-3.4v-0.3c0-0.9,0.2-1.8,0.5-2.5s0.9-1.3,1.5-1.7
		s1.4-0.6,2.2-0.6c1.3,0,2.3,0.4,3,1.2s1,2,1,3.5v0.9h-6c0.1,0.8,0.3,1.4,0.8,1.8c0.5,0.5,1,0.7,1.7,0.7c1,0,1.8-0.4,2.4-1.2
		l1.1,1.1c-0.4,0.6-0.9,1-1.5,1.3C163.8,372.1,163.1,372.2,162.3,372.2z M162.1,364.2c-0.6,0-1,0.2-1.4,0.6s-0.6,1-0.7,1.7h4v-0.2
		c0-0.7-0.2-1.2-0.6-1.6C163.1,364.4,162.7,364.2,162.1,364.2z"/>
	<path class="st0" d="M170.4,360.4v2.3h1.7v1.6h-1.7v5.3c0,0.4,0.1,0.6,0.2,0.8s0.4,0.2,0.8,0.2c0.2,0,0.5,0,0.7-0.1v1.6
		c-0.5,0.1-0.9,0.2-1.4,0.2c-1.6,0-2.4-0.9-2.4-2.7v-5.3h-1.5v-1.6h1.5v-2.3H170.4z"/>
	<path class="st0" d="M175.7,363.7c0.7-0.8,1.6-1.2,2.6-1.2c2,0,3,1.1,3.1,3.4v6.1h-2.1v-6c0-0.6-0.1-1.1-0.4-1.4
		c-0.3-0.3-0.7-0.4-1.2-0.4c-0.8,0-1.5,0.4-1.9,1.1v6.7h-2.1v-13.4h2.1v5.1H175.7z"/>
	<path class="st0" d="M183.2,367.3c0-0.9,0.2-1.8,0.5-2.5c0.4-0.7,0.9-1.3,1.5-1.7c0.7-0.4,1.4-0.6,2.3-0.6c1.3,0,2.3,0.4,3.1,1.2
		s1.2,1.9,1.3,3.3v0.5c0,0.9-0.2,1.8-0.5,2.5s-0.9,1.3-1.5,1.7c-0.7,0.4-1.4,0.6-2.3,0.6c-1.3,0-2.4-0.4-3.2-1.3s-1.2-2.1-1.2-3.5
		L183.2,367.3L183.2,367.3z M185.3,367.5c0,1,0.2,1.7,0.6,2.3c0.4,0.5,1,0.8,1.7,0.8s1.3-0.3,1.7-0.8c0.4-0.6,0.6-1.4,0.6-2.4
		s-0.2-1.7-0.6-2.3c-0.4-0.6-1-0.8-1.7-0.8s-1.2,0.3-1.6,0.8C185.5,365.6,185.3,366.4,185.3,367.5z"/>
	<path class="st0" d="M193.3,367.3c0-1.4,0.3-2.6,1-3.5s1.6-1.3,2.7-1.3c1,0,1.8,0.3,2.4,1v-4.8h2.1v13.4h-1.9l-0.1-1
		c-0.6,0.8-1.5,1.1-2.5,1.1c-1.1,0-2-0.4-2.7-1.3C193.6,370,193.3,368.8,193.3,367.3z M195.4,367.5c0,1,0.2,1.7,0.6,2.2
		c0.4,0.5,0.9,0.8,1.6,0.8c0.9,0,1.5-0.4,1.9-1.2v-4c-0.4-0.8-1-1.1-1.9-1.1c-0.7,0-1.2,0.3-1.6,0.8
		C195.6,365.6,195.4,366.4,195.4,367.5z"/>
	<path class="st0" d="M203.3,367.3c0-0.9,0.2-1.8,0.5-2.5c0.4-0.7,0.9-1.3,1.5-1.7c0.7-0.4,1.4-0.6,2.3-0.6c1.3,0,2.3,0.4,3.1,1.2
		s1.2,1.9,1.3,3.3v0.5c0,0.9-0.2,1.8-0.5,2.5s-0.9,1.3-1.5,1.7c-0.7,0.4-1.4,0.6-2.3,0.6c-1.3,0-2.4-0.4-3.2-1.3s-1.2-2.1-1.2-3.5
		L203.3,367.3L203.3,367.3z M205.4,367.5c0,1,0.2,1.7,0.6,2.3c0.4,0.5,1,0.8,1.7,0.8s1.3-0.3,1.7-0.8c0.4-0.6,0.6-1.4,0.6-2.4
		s-0.2-1.7-0.6-2.3c-0.4-0.6-1-0.8-1.7-0.8s-1.2,0.3-1.6,0.8C205.7,365.6,205.4,366.4,205.4,367.5z"/>
	<path class="st0" d="M216.1,372.1H214v-13.4h2.1V372.1z"/>
	<path class="st0" d="M218,367.3c0-0.9,0.2-1.8,0.5-2.5c0.4-0.7,0.9-1.3,1.5-1.7c0.7-0.4,1.4-0.6,2.3-0.6c1.3,0,2.3,0.4,3.1,1.2
		s1.2,1.9,1.3,3.3v0.5c0,0.9-0.2,1.8-0.5,2.5s-0.9,1.3-1.5,1.7c-0.7,0.4-1.4,0.6-2.3,0.6c-1.3,0-2.4-0.4-3.2-1.3s-1.2-2.1-1.2-3.5
		L218,367.3L218,367.3z M220.1,367.5c0,1,0.2,1.7,0.6,2.3c0.4,0.5,1,0.8,1.7,0.8s1.3-0.3,1.7-0.8c0.4-0.6,0.6-1.4,0.6-2.4
		s-0.2-1.7-0.6-2.3c-0.4-0.6-1-0.8-1.7-0.8s-1.2,0.3-1.6,0.8C220.3,365.6,220.1,366.4,220.1,367.5z"/>
	<path class="st0" d="M228.2,367.3c0-1.5,0.3-2.6,1-3.5s1.6-1.3,2.7-1.3c1.1,0,1.9,0.4,2.5,1.1l0.1-0.9h1.9v9.1
		c0,1.2-0.4,2.2-1.2,2.9s-1.8,1.1-3.1,1.1c-0.7,0-1.4-0.1-2-0.4s-1.2-0.7-1.5-1.1l1-1.3c0.6,0.8,1.4,1.2,2.4,1.2
		c0.7,0,1.3-0.2,1.7-0.6s0.6-0.9,0.6-1.7v-0.6c-0.6,0.7-1.4,1-2.4,1c-1.1,0-2-0.4-2.7-1.3S228.2,368.8,228.2,367.3z M230.3,367.5
		c0,0.9,0.2,1.7,0.6,2.2c0.4,0.5,0.9,0.8,1.6,0.8c0.9,0,1.5-0.4,1.9-1.1v-4.1c-0.4-0.7-1-1.1-1.9-1.1c-0.7,0-1.2,0.3-1.6,0.8
		C230.5,365.6,230.3,366.4,230.3,367.5z"/>
	<path class="st0" d="M241.9,369l1.9-6.4h2.3l-3.7,10.8c-0.6,1.6-1.5,2.4-2.9,2.4c-0.3,0-0.6-0.1-1-0.2V374h0.4
		c0.5,0,0.9-0.1,1.2-0.3c0.3-0.2,0.5-0.5,0.6-1l0.3-0.8l-3.3-9.4h2.3L241.9,369z"/>
</g>
<g>
	<path class="st0" d="M413,345.6c2.7,0,4.8-2.2,4.8-4.8c0-2.7-2.2-4.8-4.8-4.8s-4.8,2.2-4.8,4.8C408.1,343.4,410.3,345.6,413,345.6z
		 M413,338.3c1.3,0,2.4,1.1,2.4,2.4s-1.1,2.4-2.4,2.4s-2.4-1.1-2.4-2.4S411.6,338.3,413,338.3z"/>
	<path class="st0" d="M405.7,356.5c0.7,0,1.2-0.5,1.2-1.2c0-3.3,2.7-6,6-6s6,2.7,6,6c0,0.7,0.5,1.2,1.2,1.2s1.2-0.5,1.2-1.2
		c0-4.7-3.8-8.5-8.5-8.5s-8.5,3.8-8.5,8.5C404.5,355.9,405,356.5,405.7,356.5z"/>
	<path class="st0" d="M396.6,374c2.7,0,4.8-2.2,4.8-4.8c0-2.7-2.2-4.8-4.8-4.8c-2.7,0-4.8,2.2-4.8,4.8
		C391.7,371.8,393.9,374,396.6,374z M396.6,366.7c1.3,0,2.4,1.1,2.4,2.4s-1.1,2.4-2.4,2.4s-2.4-1.1-2.4-2.4
		C394.2,367.8,395.2,366.7,396.6,366.7z"/>
	<path class="st0" d="M396.6,375.2c-4.7,0-8.5,3.8-8.5,8.5c0,0.7,0.5,1.2,1.2,1.2s1.2-0.5,1.2-1.2c0-3.3,2.7-6,6-6s6,2.7,6,6
		c0,0.7,0.5,1.2,1.2,1.2s1.2-0.5,1.2-1.2C405,379,401.2,375.2,396.6,375.2z"/>
	<path class="st0" d="M429.4,374c2.7,0,4.8-2.2,4.8-4.8c0-2.7-2.2-4.8-4.8-4.8c-2.7,0-4.8,2.2-4.8,4.8
		C424.5,371.8,426.7,374,429.4,374z M429.4,366.7c1.3,0,2.4,1.1,2.4,2.4s-1.1,2.4-2.4,2.4s-2.4-1.1-2.4-2.4
		C426.9,367.8,428,366.7,429.4,366.7z"/>
	<path class="st0" d="M429.4,375.2c-4.7,0-8.5,3.8-8.5,8.5c0,0.7,0.5,1.2,1.2,1.2s1.2-0.5,1.2-1.2c0-3.3,2.7-6,6-6s6,2.7,6,6
		c0,0.7,0.5,1.2,1.2,1.2s1.2-0.5,1.2-1.2C437.8,379,434,375.2,429.4,375.2z"/>
	<path class="st0" d="M420.5,368.8l-6.3-3.6v-7.3c0-0.7-0.5-1.2-1.2-1.2s-1.2,0.5-1.2,1.2v7.3l-6.3,3.6c-0.6,0.3-0.8,1.1-0.4,1.7
		c0.3,0.6,1.1,0.8,1.7,0.4l6.3-3.6l6.3,3.6c0.2,0.1,0.4,0.2,0.6,0.2c0.4,0,0.8-0.2,1-0.6C421.3,369.9,421.1,369.1,420.5,368.8z"/>
</g>
<g>
	<g>
		<g>
			<path class="st0" d="M431.9,141.4c-0.4-1.4-1-2.7-1.6-3.9c1.2-1.9,1-4.5-0.7-6.2l-1.9-1.9c-1.7-1.7-4.3-1.9-6.2-0.7
				c-1.3-0.7-2.6-1.2-3.9-1.6c-0.5-2.2-2.5-3.9-4.8-3.9h-2.7c-2.3,0-4.4,1.7-4.8,3.9c-1.4,0.4-2.7,1-3.9,1.6c-1.9-1.2-4.5-1-6.2,0.7
				l-1.9,1.9c-1.7,1.7-1.9,4.3-0.7,6.2c-0.7,1.3-1.2,2.6-1.6,3.9c-2.2,0.5-3.9,2.5-3.9,4.8v2.7c0,2.3,1.7,4.4,3.9,4.8
				c0.4,1.4,1,2.7,1.6,3.9c-1.2,1.9-1,4.5,0.7,6.2l1.9,1.9c1.7,1.7,4.3,1.9,6.2,0.7c1.3,0.7,2.6,1.2,3.9,1.6
				c0.5,2.2,2.5,3.9,4.8,3.9h2.7c2.3,0,4.4-1.7,4.8-3.9c1.4-0.4,2.7-1,3.9-1.6c1.9,1.2,4.5,1,6.2-0.7l1.9-1.9
				c1.7-1.7,1.9-4.3,0.7-6.2c0.7-1.3,1.2-2.6,1.6-3.9c2.2-0.5,3.9-2.5,3.9-4.8v-2.7C435.8,143.9,434.1,141.9,431.9,141.4z
				 M433.8,149c0,1.6-1.2,2.9-2.8,3c-0.4,0-0.8,0.3-0.9,0.7c-0.4,1.6-1.1,3.2-1.9,4.6c-0.2,0.4-0.2,0.8,0.1,1.1c1,1.2,0.9,3-0.2,4.1
				l-1.9,1.9c-1.1,1.1-2.9,1.2-4.1,0.2c-0.3-0.3-0.8-0.3-1.1-0.1c-1.5,0.8-3,1.5-4.6,1.9c-0.4,0.1-0.7,0.5-0.7,0.9
				c-0.1,1.6-1.4,2.8-3,2.8H410c-1.6,0-2.9-1.2-3-2.8c0-0.4-0.3-0.8-0.7-0.9c-1.6-0.4-3.2-1.1-4.6-1.9c-0.2-0.1-0.3-0.1-0.5-0.1
				s-0.5,0.1-0.6,0.2c-1.2,1-3,0.9-4.1-0.2l-1.9-1.9c-1.1-1.1-1.2-2.9-0.2-4.1c0.3-0.3,0.3-0.8,0.1-1.1c-0.8-1.5-1.5-3-1.9-4.6
				c-0.1-0.4-0.5-0.7-0.9-0.7c-1.6-0.1-2.8-1.4-2.8-3v-2.7c0-1.6,1.2-2.9,2.8-3c0.4,0,0.8-0.3,0.9-0.7c0.4-1.6,1.1-3.2,1.9-4.6
				c0.2-0.4,0.2-0.8-0.1-1.1c-1-1.2-0.9-3,0.2-4.1l1.9-1.9c1.1-1.1,2.9-1.2,4.1-0.2c0.3,0.3,0.8,0.3,1.1,0.1c1.5-0.8,3-1.5,4.6-1.9
				c0.4-0.1,0.7-0.5,0.7-0.9c0.1-1.6,1.4-2.8,3-2.8h2.7c1.6,0,2.9,1.2,3,2.8c0,0.4,0.3,0.8,0.7,0.9c1.6,0.4,3.2,1.1,4.6,1.9
				c0.4,0.2,0.8,0.2,1.1-0.1c1.2-1,3-0.9,4.1,0.2l1.9,1.9c1.1,1.1,1.2,2.9,0.2,4.1c-0.3,0.3-0.3,0.8-0.1,1.1c0.8,1.5,1.5,3,1.9,4.6
				c0.1,0.4,0.5,0.7,0.9,0.7c1.6,0.1,2.8,1.4,2.8,3V149z"/>
		</g>
	</g>
	<g>
		<g>
			<path class="st0" d="M411.3,130.3c-9.5,0-17.3,7.8-17.3,17.3s7.8,17.3,17.3,17.3s17.3-7.8,17.3-17.3
				C428.6,138.1,420.8,130.3,411.3,130.3z M411.3,163c-8.5,0-15.4-6.9-15.4-15.4s6.9-15.4,15.4-15.4s15.4,6.9,15.4,15.4
				C426.6,156.1,419.8,163,411.3,163z"/>
		</g>
	</g>
	<g>
		<g>
			<path class="st0" d="M415,136.6c-0.7-0.7-1.6-1.1-2.6-1.1H410c-1,0-1.9,0.4-2.6,1.1c-0.7,0.7-1,1.7-0.9,2.6l0.1,1.6l0.2,3.8
				c0.1,1.5,0.9,2.8,2.3,3.5c0.7,0.4,1.4,0.5,2.1,0.5s1.4-0.2,2.1-0.5c1.3-0.7,2.2-2,2.3-3.5l0.3-4.3l0.1-1.1
				C416.1,138.2,415.7,137.3,415,136.6z M408.5,139.1c0-0.4,0.1-0.9,0.4-1.2s0.7-0.5,1.2-0.5h1.7l-0.3,0.8c-0.1,0.2-0.9,1.1-2.9,1.4
				L408.5,139.1z M413.7,144.4c-0.1,0.8-0.5,1.6-1.2,2s-1.6,0.4-2.3,0c-0.7-0.4-1.2-1.1-1.2-2l-0.2-2.8c1.7-0.2,2.8-0.8,3.5-1.4
				c0.1,0.1,0.3,0.2,0.4,0.3c0.3,0.2,0.7,0.3,1.3,0.5L413.7,144.4z M413.5,138.8c-0.1,0-0.1-0.1-0.1-0.1l0.3-0.7
				c0.2,0.3,0.4,0.6,0.4,1C413.8,138.9,413.6,138.8,413.5,138.8z"/>
		</g>
	</g>
	<g>
		<g>
			<path class="st0" d="M421.6,154.7c-0.5-2.7-2.6-4.8-5.2-5.3c-0.4-0.1-0.8-0.1-1.2-0.1H414c-0.3,0-0.5,0.1-0.7,0.3l-2,2l-2-2
				c-0.2-0.2-0.4-0.3-0.7-0.3h-1.2c-0.4,0-0.8,0-1.2,0.1c-2.7,0.5-4.8,2.6-5.2,5.3c-0.1,0.8,0.1,1.7,0.6,2.3s1.3,1,2.2,1h15.1
				c0.8,0,1.6-0.4,2.2-1C421.5,156.4,421.7,155.6,421.6,154.7z M419.5,155.8c-0.1,0.1-0.3,0.3-0.7,0.3h-15.1c-0.3,0-0.6-0.2-0.7-0.3
				s-0.2-0.4-0.2-0.7c0.3-1.9,1.8-3.4,3.7-3.7c0.3-0.1,0.6-0.1,0.9-0.1h0.8l2.4,2.4c0.2,0.2,0.4,0.3,0.7,0.3c0.3,0,0.5-0.1,0.7-0.3
				l2.4-2.4h0.8c0.3,0,0.6,0,0.9,0.1c1.9,0.4,3.3,1.8,3.7,3.7C419.7,155.4,419.6,155.7,419.5,155.8z"/>
		</g>
	</g>
	<g>
		<g>
			<path class="st0" d="M422.9,140c-0.3-0.4-0.9-0.6-1.4-0.3c-0.4,0.3-0.6,0.9-0.3,1.4c1.3,2,2,4.2,2,6.6c0,0.5,0.4,1,1,1s1-0.4,1-1
				C425.2,144.9,424.4,142.3,422.9,140z"/>
		</g>
	</g>
	<g>
		<g>
			<path class="st0" d="M420.8,137.5c-0.2-0.1-0.3-0.3-0.5-0.4c-0.4-0.3-1-0.3-1.4,0.1c-0.3,0.4-0.3,1,0.1,1.4
				c0.1,0.1,0.3,0.2,0.4,0.4c0.2,0.2,0.4,0.3,0.7,0.3c0.3,0,0.5-0.1,0.7-0.3C421.2,138.4,421.1,137.8,420.8,137.5z"/>
		</g>
	</g>
</g>
<g>
	<line class="st10" x1="201.2" y1="94.6" x2="201.2" y2="104.1"/>
	<path class="st10" d="M199,70.5c-2.1,0.4-3.8,0-4.5-1.3s-0.2-3.2,1.1-4.7c-1.7-1.7-3.6-2.8-5.8-3.4c-0.6,1.9-1.9,3.4-3.4,3.4
		s-2.8-1.3-3.4-3.4c-2.4,0.8-4.5,1.9-6,3.4c1.3,1.5,1.9,3.4,1.1,4.7s-2.6,1.7-4.5,1.3c-0.4,1.1-0.6,2.3-0.6,3.4s0.2,2.3,0.4,3.4
		c2.1-0.4,3.8,0,4.5,1.3s0.2,3.2-1.1,4.7c1.7,1.7,3.6,2.8,5.8,3.4c0.6-1.9,1.9-3.4,3.4-3.4s2.8,1.3,3.4,3.4c2.3-0.6,4.3-1.7,5.8-3.4
		c-1.3-1.5-1.9-3.4-1.1-4.7s2.6-1.7,4.5-1.3c0.4-1.1,0.4-2.3,0.4-3.4C199,72.8,199.2,71.7,199,70.5z"/>
	<g>
		<path class="st11" d="M186.2,75.8c-0.2,0-0.6,0-0.8-0.2s-0.4-0.2-0.6-0.4c-0.2-0.2-0.4-0.4-0.4-0.6s-0.2-0.6-0.2-0.8
			c0-0.2,0-0.6,0.2-0.8c0.2-0.2,0.2-0.4,0.4-0.6c0.8-0.8,1.9-0.8,2.6,0c0.2,0.2,0.4,0.4,0.4,0.6s0.2,0.6,0.2,0.8
			c0,0.2,0,0.6-0.2,0.8c-0.2,0.2-0.2,0.4-0.4,0.6C187.1,75.6,186.7,75.8,186.2,75.8z"/>
	</g>
	<line class="st10" x1="182.4" y1="86.5" x2="182.4" y2="100.3"/>
	<path class="st10" d="M199.3,94.6h7.5c2.1,0,3.8-1.7,3.8-3.8v-7.5h5.6L210.6,72c0-9.4-7.5-16.9-16.9-16.9c-5.6,0-10.7,2.8-13.7,7.2
		"/>
</g>
<g>
	<path class="st12" d="M217.6,251.6h-47.5c-0.4,0-0.7,0.3-0.7,0.7v22.3c0,0.4,0.3,0.7,0.7,0.7h7.7c-2,1.3-3.4,3.5-3.4,6.1v0.6
		c0,0.4,0.3,0.7,0.7,0.7H188c0.4,0,0.7-0.3,0.7-0.7v-0.6c0-2.6-1.4-4.8-3.4-6.1h32.3c0.4,0,0.7-0.3,0.7-0.7v-22.3
		C218.3,251.9,218,251.6,217.6,251.6z M181.5,274.3c-2.2,0-4-1.8-4-4s1.8-4,4-4s4,1.8,4,4S183.7,274.3,181.5,274.3z M187.3,281.3
		h-11.5c0-3.1,2.6-5.7,5.8-5.7C184.7,275.7,187.3,278.2,187.3,281.3z M216.9,273.9h-31.5c0.9-1,1.5-2.2,1.5-3.7c0-3-2.4-5.4-5.4-5.4
		s-5.4,2.4-5.4,5.4c0,1.4,0.6,2.7,1.5,3.7h-6.8V253h46.1V273.9z"/>
	<path class="st12" d="M174.5,299.4v0.4c0,0.4,0.3,0.7,0.7,0.7h9.4h9.4h9.4h9.4c0.4,0,0.7-0.3,0.7-0.7v-0.4c0-2.1-1.2-3.9-3-4.8
		c1-0.7,1.7-1.9,1.7-3.3c0-2.2-1.8-4.1-4.1-4.1s-4.1,1.8-4.1,4.1c0,1.3,0.7,2.5,1.7,3.3c-1,0.5-1.7,1.2-2.3,2.2
		c-0.5-0.9-1.3-1.7-2.3-2.2c1-0.7,1.7-1.9,1.7-3.3c0-2.2-1.8-4.1-4.1-4.1c-2.2,0-4.1,1.8-4.1,4.1c0,1.3,0.7,2.5,1.7,3.3
		c-1,0.5-1.7,1.2-2.3,2.2c-0.5-0.9-1.3-1.7-2.3-2.2c1-0.7,1.7-1.9,1.7-3.3c0-2.2-1.8-4.1-4.1-4.1c-2.2,0-4.1,1.8-4.1,4.1
		c0,1.3,0.7,2.5,1.7,3.3c-1,0.5-1.7,1.2-2.3,2.2c-0.5-0.9-1.3-1.7-2.3-2.2c1-0.7,1.7-1.9,1.7-3.3c0-2.2-1.8-4.1-4.1-4.1
		c-2.2,0-4.1,1.8-4.1,4.1c0,1.3,0.7,2.5,1.7,3.3C175.7,295.5,174.5,297.3,174.5,299.4z M205.2,291.4c0-1.5,1.2-2.7,2.7-2.7
		s2.7,1.2,2.7,2.7s-1.2,2.7-2.7,2.7S205.2,292.9,205.2,291.4z M207.9,295.5c2.1,0,3.8,1.6,4,3.7H204
		C204.1,297.1,205.8,295.5,207.9,295.5z M195.9,291.4c0-1.5,1.2-2.7,2.7-2.7s2.7,1.2,2.7,2.7s-1.2,2.7-2.7,2.7
		S195.9,292.9,195.9,291.4z M198.6,295.5c2.1,0,3.8,1.6,4,3.7h-7.9C194.7,297.1,196.5,295.5,198.6,295.5z M186.5,291.4
		c0-1.5,1.2-2.7,2.7-2.7s2.7,1.2,2.7,2.7s-1.2,2.7-2.7,2.7S186.5,292.9,186.5,291.4z M189.2,295.5c2.1,0,3.8,1.6,4,3.7h-7.9
		C185.4,297.1,187.1,295.5,189.2,295.5z M177.2,291.4c0-1.5,1.2-2.7,2.7-2.7s2.7,1.2,2.7,2.7s-1.2,2.7-2.7,2.7
		S177.2,292.9,177.2,291.4z M179.9,295.5c2.1,0,3.8,1.6,4,3.7H176C176,297.1,177.8,295.5,179.9,295.5z"/>
	<path class="st12" d="M177.1,258.7h33.6c0.4,0,0.7-0.3,0.7-0.7s-0.3-0.7-0.7-0.7h-33.6c-0.4,0-0.7,0.3-0.7,0.7
		S176.7,258.7,177.1,258.7z"/>
	<path class="st12" d="M210.7,262.8h-18.1c-0.4,0-0.7,0.3-0.7,0.7s0.3,0.7,0.7,0.7h18.1c0.4,0,0.7-0.3,0.7-0.7
		S211.1,262.8,210.7,262.8z"/>
	<path class="st12" d="M210.7,268.3h-18.1c-0.4,0-0.7,0.3-0.7,0.7s0.3,0.7,0.7,0.7h18.1c0.4,0,0.7-0.3,0.7-0.7
		S211.1,268.3,210.7,268.3z"/>
</g>
</svg>
