<?xml version="1.0" encoding="utf-8"?>
<!-- Generator: Adobe Illustrator 25.3.1, SVG Export Plug-In . SVG Version: 6.00 Build 0)  -->
<svg version="1.1" id="Layer_1" xmlns="http://www.w3.org/2000/svg" xmlns:xlink="http://www.w3.org/1999/xlink" x="0px" y="0px"
	 viewBox="0 0 600 551" style="enable-background:new 0 0 600 551;" xml:space="preserve">
<style type="text/css">
	.st0{fill:#FFFFFF;}
	.st1{fill:#E23A59;}
	.st2{fill:#CB3253;}
	.st3{fill:#FE5722;}
	.st4{fill:#FA471F;}
	.st5{fill:#065381;}
	.st6{fill:#064981;}
	.st7{fill:#5B5B5B;}
	.st8{fill:#4D4D4D;}
	.st9{fill:#312393;}
	.st10{fill-rule:evenodd;clip-rule:evenodd;fill:#FFFFFF;}
	.st11{fill:none;stroke:#FFFFFF;stroke-width:1.6693;stroke-linecap:round;stroke-linejoin:round;}
</style>
<g>
	<path class="st0" d="M308.8,176.5c0-55.6,45.1-100.7,100.7-100.7c55.6,0,100.7,45.1,100.7,100.7c0,55.6-45.1,100.7-100.7,100.7
		c-0.1,0-0.3,0-0.4,0c0,0,0,0-0.1,0c-42.8,0.2-80.3,23.7-100.2,58.4V176.5L308.8,176.5z"/>
	<path class="st0" d="M308.8,390.1c0-55.6,45.1-100.7,100.7-100.7c55.6,0,100.7,45.1,100.7,100.7c0,55.6-45.1,100.7-100.7,100.7
		c-0.1,0-0.3,0-0.4,0c0,0,0,0-0.1,0c-42.8,0.2-80.3,23.7-100.2,58.4V390.1L308.8,390.1z"/>
	<path class="st0" d="M322,390.1c0,48.3,39.2,87.5,87.5,87.5c48.3,0,87.5-39.2,87.5-87.5c0-48.3-39.2-87.5-87.5-87.5
		C361.2,302.5,322,341.7,322,390.1z"/>
	<path class="st0" d="M296.3,105c0-55.6-45.1-100.7-100.7-100.7C140,4.3,94.9,49.4,94.9,105c0,55.6,45.1,100.7,100.7,100.7
		c0.1,0,0.3,0,0.4,0c0,0,0,0,0.1,0c42.8,0.2,80.3,23.7,100.2,58.4V105L296.3,105z"/>
	<path class="st0" d="M296.3,318.5c0-55.6-45.1-100.7-100.7-100.7c-55.6,0-100.7,45.1-100.7,100.7c0,55.6,45.1,100.7,100.7,100.7
		c0.1,0,0.3,0,0.4,0c0,0,0,0,0.1,0c42.8,0.2,80.3,23.7,100.2,58.4V318.5L296.3,318.5z"/>
	<path class="st0" d="M322,176.5c0,48.3,39.2,87.5,87.5,87.5c48.3,0,87.5-39.2,87.5-87.5c0-48.3-39.2-87.5-87.5-87.5
		C361.2,89,322,128.2,322,176.5z"/>
	<path class="st1" d="M283.1,105c0,48.3-39.2,87.5-87.5,87.5c-48.3,0-87.5-39.2-87.5-87.5c0-48.3,39.2-87.5,87.5-87.5
		C244,17.5,283.1,56.7,283.1,105z"/>
	<path class="st0" d="M283.1,318.5c0,48.3-39.2,87.5-87.5,87.5c-48.3,0-87.5-39.2-87.5-87.5c0-48.3,39.2-87.5,87.5-87.5
		C244,231,283.1,270.2,283.1,318.5z"/>
	<path class="st2" d="M195.6,17.5v175.1c48.3,0,87.5-39.2,87.5-87.5C283.1,56.7,244,17.5,195.6,17.5z"/>
	<path class="st3" d="M283.1,318.5c0,48.3-39.2,87.5-87.5,87.5c-48.3,0-87.5-39.2-87.5-87.5c0-48.3,39.2-87.5,87.5-87.5
		C244,231,283.1,270.2,283.1,318.5z"/>
	<path class="st4" d="M195.6,231v175.1c48.3,0,87.5-39.2,87.5-87.5C283.1,270.2,244,231,195.6,231z"/>
	<path class="st5" d="M497.1,176.5c0,48.3-39.2,87.5-87.5,87.5c-48.3,0-87.5-39.2-87.5-87.5c0-48.3,39.2-87.5,87.5-87.5
		C457.9,89,497.1,128.2,497.1,176.5z"/>
	<path class="st6" d="M409.5,89v175.1c48.3,0,87.5-39.2,87.5-87.5C497.1,128.2,457.9,89,409.5,89z"/>
	<path class="st7" d="M497.1,390.1c0,48.3-39.2,87.5-87.5,87.5c-48.3,0-87.5-39.2-87.5-87.5c0-48.3,39.2-87.5,87.5-87.5
		C457.9,302.5,497.1,341.7,497.1,390.1z"/>
	<path class="st8" d="M409.5,302.5v175.1c48.3,0,87.5-39.2,87.5-87.5C497.1,341.7,457.9,302.5,409.5,302.5z"/>
</g>
<g>
	<path class="st9" d="M62.9,243.8L48.1,239v-3.6l19,6.8v3.2l-19,6.8v-3.6L62.9,243.8z"/>
	<path class="st9" d="M67.3,227.9c0,2-0.6,3.6-1.9,4.9s-2.9,1.9-5.1,1.9H60c-1.4,0-2.7-0.3-3.8-0.8c-1.1-0.5-2-1.3-2.6-2.3
		s-0.9-2.1-0.9-3.3c0-1.9,0.6-3.4,1.8-4.5c1.2-1,3-1.6,5.2-1.6H61v9.2c1.2-0.1,2.1-0.5,2.8-1.2c0.7-0.7,1-1.5,1-2.6
		c0-1.5-0.6-2.6-1.8-3.5l1.6-1.7c0.8,0.6,1.5,1.3,2,2.3C67.1,225.7,67.3,226.8,67.3,227.9z M55.3,228.3c0,0.9,0.3,1.6,0.9,2.1
		c0.6,0.5,1.5,0.9,2.5,1v-6h-0.2c-1.1,0.1-1.9,0.4-2.4,0.8C55.5,226.7,55.3,227.4,55.3,228.3z"/>
	<path class="st9" d="M53,216.9l1.6-0.1c-1.3-1-1.9-2.4-1.9-4.1c0-2.9,1.7-4.4,5-4.5h9.3v3.2h-9.1c-0.9,0-1.6,0.2-2,0.6
		s-0.6,1-0.6,1.9c0,1.3,0.6,2.2,1.7,2.9h10v3.2H53V216.9z"/>
	<path class="st9" d="M49.5,201H53v-2.5h2.3v2.5h7.9c0.5,0,0.9-0.1,1.2-0.3c0.2-0.2,0.4-0.6,0.4-1.1c0-0.4,0-0.7-0.1-1.1H67
		c0.2,0.7,0.3,1.4,0.3,2.1c0,2.4-1.3,3.7-4,3.7h-8v2.3H53v-2.3h-3.4V201z"/>
	<path class="st9" d="M65.7,187.5c1.1,0.9,1.6,2.3,1.6,4c0,1.5-0.4,2.7-1.3,3.5c-0.9,0.8-2.2,1.2-3.9,1.2H53V193h9.1
		c1.8,0,2.7-0.7,2.7-2.2c0-1.5-0.6-2.6-1.7-3.1H53v-3.2h14.1v3L65.7,187.5z"/>
	<path class="st9" d="M55.9,173.9c-0.1,0.4-0.1,0.8-0.1,1.3c0,1.5,0.6,2.4,1.7,2.9h9.6v3.2H53v-3l1.6-0.1c-1.2-0.8-1.8-1.8-1.8-3.2
		c0-0.5,0.1-0.8,0.2-1.1L55.9,173.9z"/>
	<path class="st9" d="M67.3,165.9c0,2-0.6,3.6-1.9,4.9s-2.9,1.9-5.1,1.9H60c-1.4,0-2.7-0.3-3.8-0.8c-1.1-0.5-2-1.3-2.6-2.3
		c-0.6-1-0.9-2.1-0.9-3.3c0-1.9,0.6-3.4,1.8-4.5c1.2-1,3-1.6,5.2-1.6H61v9.2c1.2-0.1,2.1-0.5,2.8-1.2c0.7-0.7,1-1.5,1-2.6
		c0-1.5-0.6-2.6-1.8-3.5l1.6-1.7c0.8,0.6,1.5,1.3,2,2.3C67.1,163.7,67.3,164.7,67.3,165.9z M55.3,166.3c0,0.9,0.3,1.6,0.9,2.1
		c0.6,0.5,1.5,0.9,2.5,1v-6h-0.2c-1.1,0.1-1.9,0.4-2.4,0.8C55.5,164.7,55.3,165.4,55.3,166.3z"/>
	<path class="st9" d="M62.2,140.9c-0.8,0-1.5,0.3-1.9,0.9c-0.5,0.6-0.9,1.6-1.4,3.2c-0.5,1.5-1,2.7-1.5,3.7
		c-1.1,1.7-2.5,2.6-4.3,2.6c-1.5,0-2.8-0.6-3.8-1.9c-1-1.2-1.5-2.9-1.5-4.9c0-1.3,0.2-2.5,0.7-3.5c0.5-1,1.2-1.8,2.1-2.4
		c0.9-0.6,1.9-0.9,3-0.9v3.3c-1,0-1.8,0.3-2.3,0.9c-0.6,0.6-0.8,1.5-0.8,2.7c0,1.1,0.2,1.9,0.7,2.5c0.5,0.6,1.1,0.9,1.9,0.9
		c0.7,0,1.3-0.3,1.7-1c0.5-0.6,0.9-1.7,1.4-3.2c0.4-1.5,0.9-2.7,1.5-3.6c0.6-0.9,1.2-1.6,1.9-2c0.7-0.4,1.6-0.6,2.5-0.6
		c1.6,0,2.8,0.6,3.8,1.8c0.9,1.2,1.4,2.9,1.4,4.9c0,1.4-0.3,2.6-0.8,3.8s-1.2,2-2.1,2.7c-0.9,0.6-1.9,1-3.1,1v-3.3
		c1.1,0,1.9-0.4,2.5-1.1c0.6-0.7,0.9-1.7,0.9-3.1c0-1.1-0.2-2-0.7-2.6S63,140.9,62.2,140.9z"/>
	<path class="st9" d="M65.7,126.5c1.1,0.9,1.6,2.3,1.6,4c0,1.5-0.4,2.7-1.3,3.5c-0.9,0.8-2.2,1.2-3.9,1.2H53v-3.2h9.1
		c1.8,0,2.7-0.7,2.7-2.2c0-1.5-0.6-2.6-1.7-3.1H53v-3.2h14.1v3L65.7,126.5z"/>
	<path class="st9" d="M60.2,107.8c2.2,0,3.9,0.5,5.2,1.5c1.3,1,1.9,2.3,1.9,4c0,1.5-0.5,2.8-1.5,3.7h6.7v3.2H53v-2.9l1.4-0.1
		c-1.1-0.9-1.7-2.2-1.7-3.8c0-1.7,0.6-3.1,1.9-4c1.3-1,3.1-1.5,5.3-1.5H60.2z M59.9,111c-1.4,0-2.5,0.3-3.4,0.8s-1.2,1.4-1.2,2.4
		c0,1.3,0.5,2.2,1.6,2.8h6.3c1.1-0.6,1.6-1.5,1.6-2.8c0-1-0.4-1.8-1.2-2.4C62.8,111.3,61.5,111,59.9,111z"/>
	<path class="st9" d="M60.2,92.8c2.2,0,3.9,0.5,5.2,1.5c1.3,1,1.9,2.3,1.9,4c0,1.5-0.5,2.8-1.5,3.7h6.7v3.2H53v-2.9l1.4-0.1
		c-1.1-0.9-1.7-2.2-1.7-3.8c0-1.7,0.6-3.1,1.9-4c1.3-1,3.1-1.5,5.3-1.5H60.2z M59.9,95.9c-1.4,0-2.5,0.3-3.4,0.8s-1.2,1.4-1.2,2.4
		c0,1.3,0.5,2.2,1.6,2.8h6.3c1.1-0.6,1.6-1.5,1.6-2.8c0-1-0.4-1.8-1.2-2.4C62.8,96.2,61.5,95.9,59.9,95.9z"/>
	<path class="st9" d="M59.9,90.7c-1.4,0-2.6-0.3-3.7-0.8c-1.1-0.5-2-1.3-2.6-2.3c-0.6-1-0.9-2.1-0.9-3.4c0-1.9,0.6-3.4,1.8-4.6
		c1.2-1.2,2.9-1.8,4.9-1.9l0.7,0c1.4,0,2.6,0.3,3.7,0.8c1.1,0.5,1.9,1.3,2.5,2.3c0.6,1,0.9,2.1,0.9,3.4c0,2-0.7,3.6-2,4.8
		s-3.1,1.8-5.3,1.8H59.9z M60.2,87.5c1.5,0,2.6-0.3,3.4-0.9c0.8-0.6,1.2-1.4,1.2-2.5c0-1.1-0.4-1.9-1.3-2.5
		c-0.8-0.6-2.1-0.9-3.7-0.9c-1.4,0-2.6,0.3-3.4,0.9s-1.3,1.4-1.3,2.5c0,1,0.4,1.9,1.2,2.5C57.3,87.2,58.5,87.5,60.2,87.5z"/>
	<path class="st9" d="M55.9,67.5c-0.1,0.4-0.1,0.8-0.1,1.3c0,1.5,0.6,2.4,1.7,2.9h9.6v3.2H53v-3l1.6-0.1c-1.2-0.8-1.8-1.8-1.8-3.2
		c0-0.5,0.1-0.8,0.2-1.1L55.9,67.5z"/>
	<path class="st9" d="M49.5,60.9H53v-2.5h2.3v2.5h7.9c0.5,0,0.9-0.1,1.2-0.3c0.2-0.2,0.4-0.6,0.4-1.1c0-0.4,0-0.7-0.1-1.1H67
		c0.2,0.7,0.3,1.4,0.3,2.1c0,2.4-1.3,3.7-4,3.7h-8v2.3H53v-2.3h-3.4V60.9z"/>
</g>
<g>
	<path class="st0" d="M163.2,116.2h-2.1v-10.1l-3.1,1v-1.8l4.9-1.8h0.3V116.2z"/>
	<path class="st0" d="M175.8,110.9c0,1.8-0.3,3.2-1,4.1s-1.7,1.4-3.1,1.4c-1.4,0-2.4-0.4-3.1-1.3s-1-2.2-1.1-4v-2.2
		c0-1.8,0.3-3.2,1-4.1c0.7-0.9,1.7-1.4,3.1-1.4c1.4,0,2.4,0.4,3.1,1.3c0.7,0.9,1,2.2,1,3.9V110.9z M173.7,108.6c0-1.2-0.2-2-0.5-2.6
		c-0.3-0.5-0.8-0.8-1.5-0.8c-0.7,0-1.2,0.3-1.5,0.8c-0.3,0.5-0.5,1.3-0.5,2.4v2.8c0,1.2,0.2,2,0.5,2.6c0.3,0.6,0.8,0.9,1.5,0.9
		c0.7,0,1.2-0.3,1.5-0.8c0.3-0.5,0.5-1.4,0.5-2.5V108.6z"/>
	<path class="st0" d="M191.9,112.1c-0.1,1.3-0.6,2.4-1.5,3.1c-0.9,0.8-2,1.1-3.4,1.1c-1,0-1.9-0.2-2.6-0.7s-1.3-1.1-1.8-2
		c-0.4-0.9-0.6-1.9-0.6-3v-1.2c0-1.2,0.2-2.2,0.6-3.1c0.4-0.9,1-1.6,1.8-2.1c0.8-0.5,1.7-0.7,2.7-0.7c1.4,0,2.5,0.4,3.3,1.1
		s1.3,1.8,1.5,3.2h-2.2c-0.1-0.9-0.4-1.6-0.8-2c-0.4-0.4-1-0.6-1.9-0.6c-0.9,0-1.7,0.3-2.2,1c-0.5,0.7-0.8,1.7-0.8,3v1.1
		c0,1.4,0.2,2.4,0.7,3.1s1.2,1.1,2.1,1.1c0.9,0,1.5-0.2,1.9-0.6c0.4-0.4,0.7-1,0.8-1.9H191.9z"/>
	<path class="st0" d="M193.3,111.5c0-0.9,0.2-1.7,0.5-2.5c0.4-0.7,0.9-1.3,1.5-1.7c0.7-0.4,1.4-0.6,2.3-0.6c1.3,0,2.3,0.4,3.1,1.2
		c0.8,0.8,1.2,1.9,1.3,3.2l0,0.5c0,0.9-0.2,1.7-0.5,2.5c-0.4,0.7-0.9,1.3-1.5,1.7s-1.4,0.6-2.3,0.6c-1.3,0-2.4-0.4-3.2-1.3
		c-0.8-0.9-1.2-2-1.2-3.5V111.5z M195.4,111.6c0,1,0.2,1.7,0.6,2.3s0.9,0.8,1.7,0.8c0.7,0,1.3-0.3,1.7-0.8s0.6-1.4,0.6-2.4
		c0-0.9-0.2-1.7-0.6-2.2s-1-0.8-1.7-0.8c-0.7,0-1.2,0.3-1.6,0.8C195.6,109.8,195.4,110.6,195.4,111.6z"/>
	<path class="st0" d="M209.4,115.3c-0.6,0.7-1.5,1.1-2.6,1.1c-1,0-1.8-0.3-2.3-0.9s-0.8-1.4-0.8-2.6v-6h2.1v6c0,1.2,0.5,1.8,1.5,1.8
		c1,0,1.7-0.4,2.1-1.1v-6.7h2.1v9.3h-2L209.4,115.3z"/>
	<path class="st0" d="M218.4,108.8c-0.3,0-0.6-0.1-0.9-0.1c-1,0-1.6,0.4-1.9,1.1v6.4h-2.1v-9.3h2l0.1,1c0.5-0.8,1.2-1.2,2.1-1.2
		c0.3,0,0.5,0,0.7,0.1L218.4,108.8z"/>
	<path class="st0" d="M225,113.7c0-0.4-0.2-0.7-0.5-0.9c-0.3-0.2-0.8-0.4-1.5-0.5s-1.3-0.3-1.8-0.6c-1-0.5-1.6-1.2-1.6-2.2
		c0-0.8,0.3-1.5,1-2c0.7-0.5,1.5-0.8,2.6-0.8c1.1,0,2,0.3,2.7,0.8s1,1.3,1,2.1h-2.1c0-0.4-0.1-0.7-0.4-1s-0.7-0.4-1.2-0.4
		c-0.5,0-0.8,0.1-1.1,0.3c-0.3,0.2-0.4,0.5-0.4,0.9c0,0.3,0.1,0.6,0.4,0.7c0.3,0.2,0.8,0.4,1.6,0.5c0.8,0.2,1.5,0.4,1.9,0.6
		c0.5,0.2,0.8,0.6,1,0.9c0.2,0.4,0.3,0.8,0.3,1.3c0,0.8-0.3,1.5-1,2s-1.6,0.8-2.7,0.8c-0.8,0-1.4-0.1-2-0.4s-1.1-0.7-1.4-1.1
		c-0.3-0.5-0.5-1-0.5-1.6h2c0,0.5,0.2,0.9,0.6,1.1c0.3,0.3,0.8,0.4,1.4,0.4c0.6,0,1-0.1,1.3-0.3C224.8,114.3,225,114,225,113.7z"/>
	<path class="st0" d="M233,116.4c-1.3,0-2.4-0.4-3.2-1.3c-0.8-0.8-1.2-1.9-1.2-3.3v-0.3c0-0.9,0.2-1.8,0.5-2.5
		c0.4-0.7,0.9-1.3,1.5-1.7c0.6-0.4,1.4-0.6,2.2-0.6c1.3,0,2.3,0.4,2.9,1.2s1,2,1,3.4v0.8h-6.1c0.1,0.8,0.3,1.4,0.8,1.8
		s1,0.7,1.7,0.7c1,0,1.7-0.4,2.3-1.2l1.1,1.1c-0.4,0.6-0.9,1-1.5,1.3C234.5,116.2,233.8,116.4,233,116.4z M232.7,108.4
		c-0.6,0-1,0.2-1.4,0.6s-0.6,1-0.7,1.7h4v-0.2c0-0.7-0.2-1.2-0.6-1.6C233.8,108.6,233.3,108.4,232.7,108.4z"/>
	<path class="st0" d="M131.3,132.7v4.7h-2.2v-12.5h4.8c1.4,0,2.5,0.4,3.3,1.1c0.8,0.7,1.2,1.7,1.2,2.9c0,1.2-0.4,2.2-1.2,2.9
		s-1.9,1-3.4,1H131.3z M131.3,131h2.6c0.8,0,1.4-0.2,1.8-0.5c0.4-0.4,0.6-0.9,0.6-1.6c0-0.7-0.2-1.2-0.6-1.6c-0.4-0.4-1-0.6-1.7-0.6
		h-2.7V131z"/>
	<path class="st0" d="M145,130c-0.3,0-0.6-0.1-0.9-0.1c-1,0-1.6,0.4-1.9,1.1v6.4h-2.1v-9.3h2l0.1,1c0.5-0.8,1.2-1.2,2.1-1.2
		c0.3,0,0.5,0,0.7,0.1L145,130z"/>
	<path class="st0" d="M145.7,132.6c0-0.9,0.2-1.7,0.5-2.5c0.4-0.7,0.9-1.3,1.5-1.7c0.7-0.4,1.4-0.6,2.3-0.6c1.3,0,2.3,0.4,3.1,1.2
		c0.8,0.8,1.2,1.9,1.3,3.2l0,0.5c0,0.9-0.2,1.7-0.5,2.5c-0.4,0.7-0.9,1.3-1.5,1.7s-1.4,0.6-2.3,0.6c-1.3,0-2.4-0.4-3.2-1.3
		c-0.8-0.9-1.2-2-1.2-3.5V132.6z M147.7,132.8c0,1,0.2,1.7,0.6,2.3s0.9,0.8,1.7,0.8c0.7,0,1.3-0.3,1.7-0.8s0.6-1.4,0.6-2.4
		c0-0.9-0.2-1.7-0.6-2.2s-1-0.8-1.7-0.8c-0.7,0-1.2,0.3-1.6,0.8C147.9,130.9,147.7,131.7,147.7,132.8z"/>
	<path class="st0" d="M158.3,128.1v10.2c0,1-0.2,1.7-0.7,2.2c-0.5,0.5-1.2,0.8-2.1,0.8c-0.4,0-0.8,0-1.1-0.1v-1.7
		c0.2,0.1,0.5,0.1,0.7,0.1c0.7,0,1.1-0.4,1.1-1.1v-10.2H158.3z M156,125.6c0-0.3,0.1-0.6,0.3-0.8c0.2-0.2,0.5-0.3,0.9-0.3
		c0.4,0,0.7,0.1,0.9,0.3c0.2,0.2,0.3,0.5,0.3,0.8c0,0.3-0.1,0.6-0.3,0.8c-0.2,0.2-0.5,0.3-0.9,0.3c-0.4,0-0.7-0.1-0.9-0.3
		C156.1,126.2,156,126,156,125.6z"/>
	<path class="st0" d="M164.6,137.6c-1.3,0-2.4-0.4-3.2-1.3c-0.8-0.8-1.2-1.9-1.2-3.3v-0.3c0-0.9,0.2-1.8,0.5-2.5
		c0.4-0.7,0.9-1.3,1.5-1.7c0.6-0.4,1.4-0.6,2.2-0.6c1.3,0,2.3,0.4,2.9,1.2s1,2,1,3.4v0.8h-6.1c0.1,0.8,0.3,1.4,0.8,1.8
		s1,0.7,1.7,0.7c1,0,1.7-0.4,2.3-1.2l1.1,1.1c-0.4,0.6-0.9,1-1.5,1.3C166.1,137.4,165.4,137.6,164.6,137.6z M164.4,129.6
		c-0.6,0-1,0.2-1.4,0.6s-0.6,1-0.7,1.7h4v-0.2c0-0.7-0.2-1.2-0.6-1.6C165.4,129.8,165,129.6,164.4,129.6z"/>
	<path class="st0" d="M173.8,135.9c0.5,0,1-0.2,1.3-0.5s0.5-0.7,0.6-1.1h2c0,0.6-0.2,1.1-0.5,1.6s-0.8,0.9-1.4,1.2
		c-0.6,0.3-1.2,0.4-1.9,0.4c-1.3,0-2.3-0.4-3.1-1.3c-0.8-0.8-1.1-2-1.1-3.5v-0.2c0-1.4,0.4-2.6,1.1-3.4c0.8-0.9,1.8-1.3,3.1-1.3
		c1.1,0,2,0.3,2.7,1c0.7,0.6,1.1,1.5,1.1,2.5h-2c0-0.5-0.2-1-0.5-1.3c-0.3-0.3-0.8-0.5-1.3-0.5c-0.7,0-1.2,0.2-1.6,0.7
		c-0.4,0.5-0.6,1.2-0.6,2.2v0.3c0,1,0.2,1.8,0.5,2.3C172.6,135.6,173.1,135.9,173.8,135.9z"/>
	<path class="st0" d="M181.9,125.8v2.3h1.6v1.6h-1.6v5.2c0,0.4,0.1,0.6,0.2,0.8c0.1,0.2,0.4,0.2,0.8,0.2c0.2,0,0.5,0,0.7-0.1v1.6
		c-0.5,0.1-0.9,0.2-1.4,0.2c-1.6,0-2.4-0.9-2.4-2.7v-5.3h-1.5v-1.6h1.5v-2.3H181.9z"/>
	<path class="st0" d="M190.3,134.9c0-0.4-0.2-0.7-0.5-0.9c-0.3-0.2-0.8-0.4-1.5-0.5s-1.3-0.3-1.8-0.6c-1-0.5-1.6-1.2-1.6-2.2
		c0-0.8,0.3-1.5,1-2c0.7-0.5,1.5-0.8,2.6-0.8c1.1,0,2,0.3,2.7,0.8s1,1.3,1,2.1h-2.1c0-0.4-0.1-0.7-0.4-1s-0.7-0.4-1.2-0.4
		c-0.5,0-0.8,0.1-1.1,0.3c-0.3,0.2-0.4,0.5-0.4,0.9c0,0.3,0.1,0.6,0.4,0.7c0.3,0.2,0.8,0.4,1.6,0.5c0.8,0.2,1.5,0.4,1.9,0.6
		c0.5,0.2,0.8,0.6,1,0.9c0.2,0.4,0.3,0.8,0.3,1.3c0,0.8-0.3,1.5-1,2s-1.6,0.8-2.7,0.8c-0.8,0-1.4-0.1-2-0.4s-1.1-0.7-1.4-1.1
		c-0.3-0.5-0.5-1-0.5-1.6h2c0,0.5,0.2,0.9,0.6,1.1c0.3,0.3,0.8,0.4,1.4,0.4c0.6,0,1-0.1,1.3-0.3
		C190.2,135.5,190.3,135.2,190.3,134.9z"/>
	<path class="st0" d="M198.6,125.6c0-0.3,0.1-0.6,0.3-0.8c0.2-0.2,0.5-0.3,0.9-0.3c0.4,0,0.7,0.1,0.9,0.3c0.2,0.2,0.3,0.5,0.3,0.8
		c0,0.3-0.1,0.6-0.3,0.8c-0.2,0.2-0.5,0.3-0.9,0.3c-0.4,0-0.7-0.1-0.9-0.3C198.7,126.2,198.6,126,198.6,125.6z M200.8,137.4h-2.1
		v-9.3h2.1V137.4z"/>
	<path class="st0" d="M205.1,128.1l0.1,1.1c0.7-0.8,1.6-1.2,2.7-1.2c1.9,0,2.9,1.1,3,3.3v6.2h-2.1v-6c0-0.6-0.1-1-0.4-1.3
		c-0.3-0.3-0.7-0.4-1.3-0.4c-0.8,0-1.5,0.4-1.9,1.1v6.6h-2.1v-9.3H205.1z"/>
	<path class="st0" d="M221.6,130.8l2.9-5.9h2.4l-4.2,7.9v4.6h-2.2v-4.6l-4.2-7.9h2.4L221.6,130.8z"/>
	<path class="st0" d="M231.6,137.6c-1.3,0-2.4-0.4-3.2-1.3c-0.8-0.8-1.2-1.9-1.2-3.3v-0.3c0-0.9,0.2-1.8,0.5-2.5
		c0.4-0.7,0.9-1.3,1.5-1.7c0.6-0.4,1.4-0.6,2.2-0.6c1.3,0,2.3,0.4,2.9,1.2s1,2,1,3.4v0.8h-6.1c0.1,0.8,0.3,1.4,0.8,1.8
		s1,0.7,1.7,0.7c1,0,1.7-0.4,2.3-1.2l1.1,1.1c-0.4,0.6-0.9,1-1.5,1.3C233.1,137.4,232.4,137.6,231.6,137.6z M231.4,129.6
		c-0.6,0-1,0.2-1.4,0.6s-0.6,1-0.7,1.7h4v-0.2c0-0.7-0.2-1.2-0.6-1.6C232.4,129.8,232,129.6,231.4,129.6z"/>
	<path class="st0" d="M242.6,137.4c-0.1-0.2-0.2-0.5-0.2-0.9c-0.7,0.7-1.5,1-2.4,1c-0.9,0-1.7-0.3-2.3-0.8c-0.6-0.5-0.9-1.2-0.9-2
		c0-1,0.4-1.8,1.1-2.3c0.7-0.5,1.8-0.8,3.2-0.8h1.3v-0.6c0-0.5-0.1-0.9-0.4-1.2c-0.3-0.3-0.7-0.4-1.2-0.4c-0.5,0-0.9,0.1-1.2,0.4
		c-0.3,0.2-0.5,0.5-0.5,0.9h-2.1c0-0.5,0.2-1,0.5-1.4s0.8-0.8,1.4-1c0.6-0.3,1.2-0.4,2-0.4c1.1,0,2,0.3,2.6,0.8s1,1.3,1,2.3v4.2
		c0,0.8,0.1,1.5,0.4,2v0.1H242.6z M240.3,135.9c0.4,0,0.8-0.1,1.2-0.3c0.4-0.2,0.6-0.5,0.8-0.8V133h-1.1c-0.8,0-1.4,0.1-1.8,0.4
		c-0.4,0.3-0.6,0.7-0.6,1.1c0,0.4,0.1,0.7,0.4,1C239.5,135.8,239.8,135.9,240.3,135.9z"/>
	<path class="st0" d="M251.4,130c-0.3,0-0.6-0.1-0.9-0.1c-1,0-1.6,0.4-1.9,1.1v6.4h-2.1v-9.3h2l0.1,1c0.5-0.8,1.2-1.2,2.1-1.2
		c0.3,0,0.5,0,0.7,0.1L251.4,130z"/>
	<path class="st0" d="M262.7,137.4h-2.1v-10.1l-3.1,1v-1.8l4.9-1.8h0.3V137.4z"/>
</g>
<g>
	<path class="st0" d="M378.4,192.5h-2.1v-10.1l-3.1,1v-1.8l4.9-1.8h0.3V192.5z"/>
	<path class="st0" d="M388.4,192.5h-2.1v-10.1l-3.1,1v-1.8l4.9-1.8h0.3V192.5z"/>
	<path class="st0" d="M407.1,188.4c-0.1,1.3-0.6,2.4-1.5,3.1c-0.9,0.8-2,1.1-3.4,1.1c-1,0-1.9-0.2-2.6-0.7c-0.8-0.5-1.3-1.1-1.8-2
		c-0.4-0.9-0.6-1.9-0.6-3v-1.2c0-1.2,0.2-2.2,0.6-3.1c0.4-0.9,1-1.6,1.8-2.1s1.7-0.7,2.7-0.7c1.4,0,2.5,0.4,3.3,1.1s1.3,1.8,1.5,3.2
		h-2.2c-0.1-0.9-0.4-1.6-0.8-2c-0.4-0.4-1-0.6-1.9-0.6c-0.9,0-1.7,0.3-2.2,1c-0.5,0.7-0.8,1.7-0.8,3v1.1c0,1.4,0.2,2.4,0.7,3.1
		s1.2,1.1,2.1,1.1c0.9,0,1.5-0.2,1.9-0.6c0.4-0.4,0.7-1,0.8-1.9H407.1z"/>
	<path class="st0" d="M408.5,187.7c0-0.9,0.2-1.7,0.5-2.5c0.4-0.7,0.9-1.3,1.5-1.7c0.7-0.4,1.4-0.6,2.3-0.6c1.3,0,2.3,0.4,3.1,1.2
		c0.8,0.8,1.2,1.9,1.3,3.2l0,0.5c0,0.9-0.2,1.7-0.5,2.5s-0.9,1.3-1.5,1.7s-1.4,0.6-2.3,0.6c-1.3,0-2.4-0.4-3.2-1.3
		c-0.8-0.9-1.2-2-1.2-3.5V187.7z M410.6,187.9c0,1,0.2,1.7,0.6,2.3s0.9,0.8,1.7,0.8c0.7,0,1.3-0.3,1.7-0.8c0.4-0.6,0.6-1.4,0.6-2.4
		c0-0.9-0.2-1.7-0.6-2.2s-1-0.8-1.7-0.8c-0.7,0-1.2,0.3-1.6,0.8C410.8,186,410.6,186.8,410.6,187.9z"/>
	<path class="st0" d="M424.6,191.6c-0.6,0.7-1.5,1.1-2.6,1.1c-1,0-1.8-0.3-2.3-0.9c-0.5-0.6-0.8-1.4-0.8-2.6v-6h2.1v6
		c0,1.2,0.5,1.8,1.5,1.8c1,0,1.7-0.4,2.1-1.1v-6.7h2.1v9.3h-2L424.6,191.6z"/>
	<path class="st0" d="M433.6,185.1c-0.3,0-0.6-0.1-0.9-0.1c-1,0-1.6,0.4-1.9,1.1v6.4h-2.1v-9.3h2l0.1,1c0.5-0.8,1.2-1.2,2.1-1.2
		c0.3,0,0.5,0,0.7,0.1L433.6,185.1z"/>
	<path class="st0" d="M440.2,190c0-0.4-0.2-0.7-0.5-0.9s-0.8-0.4-1.5-0.5c-0.7-0.1-1.3-0.3-1.8-0.6c-1-0.5-1.6-1.2-1.6-2.2
		c0-0.8,0.3-1.5,1-2c0.7-0.5,1.5-0.8,2.6-0.8c1.1,0,2,0.3,2.7,0.8s1,1.3,1,2.1H440c0-0.4-0.1-0.7-0.4-1s-0.7-0.4-1.2-0.4
		c-0.5,0-0.8,0.1-1.1,0.3c-0.3,0.2-0.4,0.5-0.4,0.9c0,0.3,0.1,0.6,0.4,0.7c0.3,0.2,0.8,0.4,1.6,0.5c0.8,0.2,1.5,0.4,1.9,0.6
		c0.5,0.2,0.8,0.6,1,0.9c0.2,0.4,0.3,0.8,0.3,1.3c0,0.8-0.3,1.5-1,2s-1.6,0.8-2.7,0.8c-0.8,0-1.4-0.1-2-0.4s-1.1-0.7-1.4-1.1
		c-0.3-0.5-0.5-1-0.5-1.6h2c0,0.5,0.2,0.9,0.6,1.1c0.3,0.3,0.8,0.4,1.4,0.4c0.6,0,1-0.1,1.3-0.3C440,190.6,440.2,190.3,440.2,190z"
		/>
	<path class="st0" d="M448.1,192.7c-1.3,0-2.4-0.4-3.2-1.3c-0.8-0.8-1.2-1.9-1.2-3.3v-0.3c0-0.9,0.2-1.8,0.5-2.5
		c0.4-0.7,0.9-1.3,1.5-1.7c0.6-0.4,1.4-0.6,2.2-0.6c1.3,0,2.3,0.4,2.9,1.2s1,2,1,3.4v0.8h-6.1c0.1,0.8,0.3,1.4,0.8,1.8
		s1,0.7,1.7,0.7c1,0,1.7-0.4,2.3-1.2l1.1,1.1c-0.4,0.6-0.9,1-1.5,1.3C449.6,192.5,448.9,192.7,448.1,192.7z M447.9,184.7
		c-0.6,0-1,0.2-1.4,0.6c-0.4,0.4-0.6,1-0.7,1.7h4v-0.2c0-0.7-0.2-1.2-0.6-1.6C448.9,184.9,448.5,184.7,447.9,184.7z"/>
	<path class="st0" d="M346.4,209v4.7h-2.2v-12.5h4.8c1.4,0,2.5,0.4,3.3,1.1c0.8,0.7,1.2,1.7,1.2,2.9c0,1.2-0.4,2.2-1.2,2.9
		c-0.8,0.7-1.9,1-3.4,1H346.4z M346.4,207.3h2.6c0.8,0,1.4-0.2,1.8-0.5s0.6-0.9,0.6-1.6c0-0.7-0.2-1.2-0.6-1.6
		c-0.4-0.4-1-0.6-1.7-0.6h-2.7V207.3z"/>
	<path class="st0" d="M360.2,206.3c-0.3,0-0.6-0.1-0.9-0.1c-1,0-1.6,0.4-1.9,1.1v6.4h-2.1v-9.3h2l0.1,1c0.5-0.8,1.2-1.2,2.1-1.2
		c0.3,0,0.5,0,0.7,0.1L360.2,206.3z"/>
	<path class="st0" d="M360.8,208.9c0-0.9,0.2-1.7,0.5-2.5c0.4-0.7,0.9-1.3,1.5-1.7c0.7-0.4,1.4-0.6,2.3-0.6c1.3,0,2.3,0.4,3.1,1.2
		c0.8,0.8,1.2,1.9,1.3,3.2l0,0.5c0,0.9-0.2,1.7-0.5,2.5s-0.9,1.3-1.5,1.7s-1.4,0.6-2.3,0.6c-1.3,0-2.4-0.4-3.2-1.3
		c-0.8-0.9-1.2-2-1.2-3.5V208.9z M362.9,209.1c0,1,0.2,1.7,0.6,2.3s0.9,0.8,1.7,0.8c0.7,0,1.3-0.3,1.7-0.8c0.4-0.6,0.6-1.4,0.6-2.4
		c0-0.9-0.2-1.7-0.6-2.2s-1-0.8-1.7-0.8c-0.7,0-1.2,0.3-1.6,0.8C363.1,207.2,362.9,208,362.9,209.1z"/>
	<path class="st0" d="M373.4,204.3v10.2c0,1-0.2,1.7-0.7,2.2c-0.5,0.5-1.2,0.8-2.1,0.8c-0.4,0-0.8,0-1.1-0.1v-1.7
		c0.2,0.1,0.5,0.1,0.7,0.1c0.7,0,1.1-0.4,1.1-1.1v-10.2H373.4z M371.2,201.9c0-0.3,0.1-0.6,0.3-0.8c0.2-0.2,0.5-0.3,0.9-0.3
		s0.7,0.1,0.9,0.3c0.2,0.2,0.3,0.5,0.3,0.8c0,0.3-0.1,0.6-0.3,0.8c-0.2,0.2-0.5,0.3-0.9,0.3s-0.7-0.1-0.9-0.3
		C371.3,202.5,371.2,202.2,371.2,201.9z"/>
	<path class="st0" d="M379.8,213.8c-1.3,0-2.4-0.4-3.2-1.3c-0.8-0.8-1.2-1.9-1.2-3.3V209c0-0.9,0.2-1.8,0.5-2.5
		c0.4-0.7,0.9-1.3,1.5-1.7c0.6-0.4,1.4-0.6,2.2-0.6c1.3,0,2.3,0.4,2.9,1.2s1,2,1,3.4v0.8h-6.1c0.1,0.8,0.3,1.4,0.8,1.8
		s1,0.7,1.7,0.7c1,0,1.7-0.4,2.3-1.2l1.1,1.1c-0.4,0.6-0.9,1-1.5,1.3C381.3,213.7,380.6,213.8,379.8,213.8z M379.5,205.9
		c-0.6,0-1,0.2-1.4,0.6s-0.6,1-0.7,1.7h4V208c0-0.7-0.2-1.2-0.6-1.6C380.6,206,380.1,205.9,379.5,205.9z"/>
	<path class="st0" d="M389,212.2c0.5,0,1-0.2,1.3-0.5s0.5-0.7,0.6-1.1h2c0,0.6-0.2,1.1-0.5,1.6c-0.3,0.5-0.8,0.9-1.4,1.2
		c-0.6,0.3-1.2,0.4-1.9,0.4c-1.3,0-2.3-0.4-3.1-1.3c-0.8-0.8-1.1-2-1.1-3.5v-0.2c0-1.4,0.4-2.6,1.1-3.4c0.8-0.9,1.8-1.3,3.1-1.3
		c1.1,0,2,0.3,2.7,1s1.1,1.5,1.1,2.5h-2c0-0.5-0.2-1-0.5-1.3c-0.3-0.3-0.8-0.5-1.3-0.5c-0.7,0-1.2,0.2-1.6,0.7
		c-0.4,0.5-0.6,1.2-0.6,2.2v0.3c0,1,0.2,1.8,0.5,2.3S388.3,212.2,389,212.2z"/>
	<path class="st0" d="M397,202.1v2.3h1.6v1.6H397v5.2c0,0.4,0.1,0.6,0.2,0.8c0.1,0.2,0.4,0.2,0.8,0.2c0.2,0,0.5,0,0.7-0.1v1.6
		c-0.5,0.1-0.9,0.2-1.4,0.2c-1.6,0-2.4-0.9-2.4-2.7v-5.3h-1.5v-1.6h1.5v-2.3H397z"/>
	<path class="st0" d="M405.5,211.1c0-0.4-0.2-0.7-0.5-0.9c-0.3-0.2-0.8-0.4-1.5-0.5c-0.7-0.1-1.3-0.3-1.8-0.6
		c-1-0.5-1.6-1.2-1.6-2.2c0-0.8,0.3-1.5,1-2c0.7-0.5,1.5-0.8,2.6-0.8c1.1,0,2,0.3,2.7,0.8s1,1.3,1,2.1h-2.1c0-0.4-0.1-0.7-0.4-1
		s-0.7-0.4-1.2-0.4c-0.5,0-0.8,0.1-1.1,0.3c-0.3,0.2-0.4,0.5-0.4,0.9c0,0.3,0.1,0.6,0.4,0.7c0.3,0.2,0.8,0.4,1.6,0.5
		c0.8,0.2,1.5,0.4,1.9,0.6c0.5,0.2,0.8,0.6,1,0.9c0.2,0.4,0.3,0.8,0.3,1.3c0,0.8-0.3,1.5-1,2s-1.6,0.8-2.7,0.8c-0.8,0-1.4-0.1-2-0.4
		s-1.1-0.7-1.4-1.1c-0.3-0.5-0.5-1-0.5-1.6h2c0,0.5,0.2,0.9,0.6,1.1c0.3,0.3,0.8,0.4,1.4,0.4c0.6,0,1-0.1,1.3-0.3
		C405.3,211.8,405.5,211.5,405.5,211.1z"/>
	<path class="st0" d="M413.8,201.9c0-0.3,0.1-0.6,0.3-0.8c0.2-0.2,0.5-0.3,0.9-0.3c0.4,0,0.7,0.1,0.9,0.3c0.2,0.2,0.3,0.5,0.3,0.8
		c0,0.3-0.1,0.6-0.3,0.8c-0.2,0.2-0.5,0.3-0.9,0.3c-0.4,0-0.7-0.1-0.9-0.3C413.9,202.5,413.8,202.2,413.8,201.9z M416,213.7h-2.1
		v-9.3h2.1V213.7z"/>
	<path class="st0" d="M420.2,204.3l0.1,1.1c0.7-0.8,1.6-1.2,2.7-1.2c1.9,0,2.9,1.1,3,3.3v6.2h-2.1v-6c0-0.6-0.1-1-0.4-1.3
		c-0.3-0.3-0.7-0.4-1.3-0.4c-0.8,0-1.5,0.4-1.9,1.1v6.6h-2.1v-9.3H420.2z"/>
	<path class="st0" d="M436.8,207.1l2.9-5.9h2.4l-4.2,7.9v4.6h-2.2v-4.6l-4.2-7.9h2.4L436.8,207.1z"/>
	<path class="st0" d="M446.8,213.8c-1.3,0-2.4-0.4-3.2-1.3c-0.8-0.8-1.2-1.9-1.2-3.3V209c0-0.9,0.2-1.8,0.5-2.5
		c0.4-0.7,0.9-1.3,1.5-1.7c0.6-0.4,1.4-0.6,2.2-0.6c1.3,0,2.3,0.4,2.9,1.2s1,2,1,3.4v0.8h-6.1c0.1,0.8,0.3,1.4,0.8,1.8
		s1,0.7,1.7,0.7c1,0,1.7-0.4,2.3-1.2l1.1,1.1c-0.4,0.6-0.9,1-1.5,1.3C448.3,213.7,447.6,213.8,446.8,213.8z M446.5,205.9
		c-0.6,0-1,0.2-1.4,0.6c-0.4,0.4-0.6,1-0.7,1.7h4V208c0-0.7-0.2-1.2-0.6-1.6C447.6,206,447.1,205.9,446.5,205.9z"/>
	<path class="st0" d="M457.7,213.7c-0.1-0.2-0.2-0.5-0.2-0.9c-0.7,0.7-1.5,1-2.4,1c-0.9,0-1.7-0.3-2.3-0.8c-0.6-0.5-0.9-1.2-0.9-2
		c0-1,0.4-1.8,1.1-2.3c0.7-0.5,1.8-0.8,3.2-0.8h1.3v-0.6c0-0.5-0.1-0.9-0.4-1.2c-0.3-0.3-0.7-0.4-1.2-0.4c-0.5,0-0.9,0.1-1.2,0.4
		c-0.3,0.2-0.5,0.5-0.5,0.9h-2.1c0-0.5,0.2-1,0.5-1.4s0.8-0.8,1.4-1s1.2-0.4,2-0.4c1.1,0,2,0.3,2.6,0.8s1,1.3,1,2.3v4.2
		c0,0.8,0.1,1.5,0.4,2v0.1H457.7z M455.4,212.2c0.4,0,0.8-0.1,1.2-0.3c0.4-0.2,0.6-0.5,0.8-0.8v-1.8h-1.1c-0.8,0-1.4,0.1-1.7,0.4
		c-0.4,0.3-0.6,0.7-0.6,1.1c0,0.4,0.1,0.7,0.4,1C454.6,212,455,212.2,455.4,212.2z"/>
	<path class="st0" d="M466.6,206.3c-0.3,0-0.6-0.1-0.9-0.1c-1,0-1.6,0.4-1.9,1.1v6.4h-2.1v-9.3h2l0.1,1c0.5-0.8,1.2-1.2,2.1-1.2
		c0.3,0,0.5,0,0.7,0.1L466.6,206.3z"/>
	<path class="st0" d="M480.6,213.7h-8.4v-1.4l4.2-4.6c0.6-0.7,1-1.2,1.3-1.7s0.4-0.9,0.4-1.4c0-0.6-0.2-1.1-0.5-1.4
		c-0.3-0.4-0.8-0.6-1.4-0.6c-0.7,0-1.2,0.2-1.6,0.6c-0.4,0.4-0.6,1-0.6,1.7h-2.1c0-0.8,0.2-1.5,0.5-2.1c0.3-0.6,0.8-1.1,1.5-1.4
		s1.4-0.5,2.2-0.5c1.2,0,2.2,0.3,2.9,0.9c0.7,0.6,1.1,1.5,1.1,2.5c0,0.6-0.2,1.3-0.5,2c-0.4,0.7-0.9,1.5-1.7,2.3l-3.1,3.3h5.8V213.7
		z"/>
</g>
<g>
	<path class="st0" d="M134.7,325.6h-5.2v3.9h6.1v1.8h-8.3v-12.7h8.2v1.8h-6v3.5h5.2V325.6z"/>
	<path class="st0" d="M139.2,321.8l0.1,1.1c0.7-0.8,1.6-1.3,2.7-1.3c2,0,3,1.1,3,3.4v6.2h-2.1v-6.1c0-0.6-0.1-1-0.4-1.3
		s-0.7-0.4-1.3-0.4c-0.9,0-1.5,0.4-1.9,1.2v6.7h-2.1v-9.4H139.2z"/>
	<path class="st0" d="M149.7,319.6v2.3h1.7v1.6h-1.7v5.3c0,0.4,0.1,0.6,0.2,0.8c0.1,0.2,0.4,0.2,0.8,0.2c0.2,0,0.5,0,0.7-0.1v1.6
		c-0.5,0.1-0.9,0.2-1.4,0.2c-1.6,0-2.4-0.9-2.4-2.7v-5.3h-1.5v-1.6h1.5v-2.3H149.7z"/>
	<path class="st0" d="M157.9,323.8c-0.3,0-0.6-0.1-0.9-0.1c-1,0-1.6,0.4-2,1.1v6.4H153v-9.4h2l0.1,1.1c0.5-0.8,1.2-1.2,2.1-1.2
		c0.3,0,0.6,0,0.7,0.1L157.9,323.8z"/>
	<path class="st0" d="M163.3,331.4c-1.3,0-2.4-0.4-3.3-1.3s-1.2-2-1.2-3.4v-0.3c0-0.9,0.2-1.8,0.5-2.5s0.9-1.3,1.5-1.7
		c0.7-0.4,1.4-0.6,2.2-0.6c1.3,0,2.3,0.4,3,1.2s1,2,1,3.5v0.9h-6.1c0.1,0.8,0.3,1.4,0.8,1.8s1,0.7,1.7,0.7c1,0,1.8-0.4,2.4-1.2
		l1.1,1.1c-0.4,0.6-0.9,1-1.5,1.3C164.7,331.3,164,331.4,163.3,331.4z M163,323.4c-0.6,0-1,0.2-1.4,0.6s-0.6,1-0.7,1.7h4v-0.2
		c0-0.7-0.2-1.2-0.6-1.6C164,323.5,163.6,323.4,163,323.4z"/>
	<path class="st0" d="M176.9,326.6c0,1.5-0.3,2.6-1,3.5c-0.7,0.9-1.5,1.3-2.7,1.3c-1,0-1.9-0.3-2.5-1v4.5h-2.1v-13h1.9l0.1,1
		c0.6-0.8,1.5-1.1,2.5-1.1c1.1,0,2,0.4,2.7,1.3c0.7,0.9,1,2,1,3.6V326.6z M174.8,326.5c0-0.9-0.2-1.7-0.6-2.2
		c-0.4-0.6-0.9-0.8-1.6-0.8c-0.9,0-1.5,0.4-1.9,1.1v4.2c0.4,0.7,1,1.1,1.9,1.1c0.7,0,1.2-0.3,1.6-0.8
		C174.6,328.4,174.8,327.6,174.8,326.5z"/>
	<path class="st0" d="M183.6,323.8c-0.3,0-0.6-0.1-0.9-0.1c-1,0-1.6,0.4-2,1.1v6.4h-2.1v-9.4h2l0.1,1.1c0.5-0.8,1.2-1.2,2.1-1.2
		c0.3,0,0.6,0,0.7,0.1L183.6,323.8z"/>
	<path class="st0" d="M188.9,331.4c-1.3,0-2.4-0.4-3.3-1.3s-1.2-2-1.2-3.4v-0.3c0-0.9,0.2-1.8,0.5-2.5s0.9-1.3,1.5-1.7
		c0.7-0.4,1.4-0.6,2.2-0.6c1.3,0,2.3,0.4,3,1.2s1,2,1,3.5v0.9h-6.1c0.1,0.8,0.3,1.4,0.8,1.8s1,0.7,1.7,0.7c1,0,1.8-0.4,2.4-1.2
		l1.1,1.1c-0.4,0.6-0.9,1-1.5,1.3C190.4,331.3,189.7,331.4,188.9,331.4z M188.7,323.4c-0.6,0-1,0.2-1.4,0.6s-0.6,1-0.7,1.7h4v-0.2
		c0-0.7-0.2-1.2-0.6-1.6C189.7,323.5,189.3,323.4,188.7,323.4z"/>
	<path class="st0" d="M196.3,321.8l0.1,1.1c0.7-0.8,1.6-1.3,2.7-1.3c2,0,3,1.1,3,3.4v6.2H200v-6.1c0-0.6-0.1-1-0.4-1.3
		s-0.7-0.4-1.3-0.4c-0.9,0-1.5,0.4-1.9,1.2v6.7h-2.1v-9.4H196.3z"/>
	<path class="st0" d="M208.4,331.4c-1.3,0-2.4-0.4-3.3-1.3s-1.2-2-1.2-3.4v-0.3c0-0.9,0.2-1.8,0.5-2.5s0.9-1.3,1.5-1.7
		c0.7-0.4,1.4-0.6,2.2-0.6c1.3,0,2.3,0.4,3,1.2s1,2,1,3.5v0.9H206c0.1,0.8,0.3,1.4,0.8,1.8s1,0.7,1.7,0.7c1,0,1.8-0.4,2.4-1.2
		l1.1,1.1c-0.4,0.6-0.9,1-1.5,1.3C209.9,331.3,209.2,331.4,208.4,331.4z M208.1,323.4c-0.6,0-1,0.2-1.4,0.6s-0.6,1-0.7,1.7h4v-0.2
		c0-0.7-0.2-1.2-0.6-1.6C209.2,323.5,208.7,323.4,208.1,323.4z"/>
	<path class="st0" d="M219.5,330.3c-0.6,0.7-1.5,1.1-2.6,1.1c-1,0-1.8-0.3-2.3-0.9s-0.8-1.5-0.8-2.6v-6.1h2.1v6.1
		c0,1.2,0.5,1.8,1.5,1.8c1,0,1.7-0.4,2.1-1.1v-6.8h2.1v9.4h-2L219.5,330.3z"/>
	<path class="st0" d="M228.6,323.8c-0.3,0-0.6-0.1-0.9-0.1c-1,0-1.6,0.4-2,1.1v6.4h-2.1v-9.4h2l0.1,1.1c0.5-0.8,1.2-1.2,2.1-1.2
		c0.3,0,0.6,0,0.7,0.1L228.6,323.8z"/>
	<path class="st0" d="M235.2,328.7c0-0.4-0.2-0.7-0.5-0.9c-0.3-0.2-0.8-0.4-1.5-0.5c-0.7-0.2-1.3-0.3-1.8-0.6
		c-1.1-0.5-1.6-1.2-1.6-2.2c0-0.8,0.3-1.5,1-2s1.6-0.8,2.6-0.8c1.1,0,2,0.3,2.7,0.8c0.7,0.6,1,1.3,1,2.2h-2.1c0-0.4-0.2-0.7-0.5-1
		c-0.3-0.3-0.7-0.4-1.2-0.4c-0.5,0-0.8,0.1-1.1,0.3c-0.3,0.2-0.4,0.5-0.4,0.9c0,0.3,0.1,0.6,0.4,0.8s0.8,0.4,1.7,0.5s1.5,0.4,2,0.7
		c0.5,0.3,0.8,0.6,1.1,0.9c0.2,0.4,0.3,0.8,0.3,1.3c0,0.8-0.4,1.5-1.1,2.1c-0.7,0.5-1.6,0.8-2.8,0.8c-0.8,0-1.5-0.1-2.1-0.4
		s-1.1-0.7-1.4-1.1c-0.3-0.5-0.5-1-0.5-1.6h2.1c0,0.5,0.2,0.9,0.6,1.2s0.8,0.4,1.4,0.4c0.6,0,1-0.1,1.3-0.3
		C235.1,329.3,235.2,329,235.2,328.7z"/>
	<path class="st0" d="M241.2,322.9c0.7-0.8,1.6-1.2,2.6-1.2c2,0,3,1.1,3.1,3.4v6.1h-2.1v-6.1c0-0.6-0.1-1.1-0.4-1.4
		s-0.7-0.4-1.2-0.4c-0.8,0-1.5,0.4-1.9,1.1v6.7h-2.1v-13.4h2.1V322.9z"/>
	<path class="st0" d="M249,319.4c0-0.3,0.1-0.6,0.3-0.8c0.2-0.2,0.5-0.3,0.9-0.3s0.7,0.1,0.9,0.3c0.2,0.2,0.3,0.5,0.3,0.8
		c0,0.3-0.1,0.6-0.3,0.8c-0.2,0.2-0.5,0.3-0.9,0.3s-0.7-0.1-0.9-0.3C249.1,320,249,319.7,249,319.4z M251.3,331.3h-2.1v-9.4h2.1
		V331.3z"/>
	<path class="st0" d="M261.8,326.6c0,1.5-0.3,2.6-1,3.5c-0.7,0.9-1.5,1.3-2.7,1.3c-1,0-1.9-0.3-2.5-1v4.5h-2.1v-13h1.9l0.1,1
		c0.6-0.8,1.5-1.1,2.5-1.1c1.1,0,2,0.4,2.7,1.3c0.7,0.9,1,2,1,3.6V326.6z M259.7,326.5c0-0.9-0.2-1.7-0.6-2.2
		c-0.4-0.6-0.9-0.8-1.6-0.8c-0.9,0-1.5,0.4-1.9,1.1v4.2c0.4,0.7,1,1.1,1.9,1.1c0.7,0,1.2-0.3,1.6-0.8
		C259.5,328.4,259.7,327.6,259.7,326.5z"/>
	<path class="st0" d="M147.6,347.9v4.7h-2.2V340h4.8c1.4,0,2.5,0.4,3.4,1.1c0.8,0.7,1.2,1.7,1.2,2.9c0,1.2-0.4,2.2-1.2,2.9
		s-2,1-3.4,1H147.6z M147.6,346.1h2.6c0.8,0,1.4-0.2,1.8-0.6c0.4-0.4,0.6-0.9,0.6-1.6c0-0.7-0.2-1.2-0.6-1.6c-0.4-0.4-1-0.6-1.7-0.6
		h-2.7V346.1z"/>
	<path class="st0" d="M161.5,345.1c-0.3,0-0.6-0.1-0.9-0.1c-1,0-1.6,0.4-2,1.1v6.4h-2.1v-9.4h2l0.1,1.1c0.5-0.8,1.2-1.2,2.1-1.2
		c0.3,0,0.6,0,0.7,0.1L161.5,345.1z"/>
	<path class="st0" d="M168.2,352.6c-0.1-0.2-0.2-0.5-0.2-0.9c-0.7,0.7-1.5,1.1-2.5,1.1c-0.9,0-1.7-0.3-2.3-0.8s-0.9-1.2-0.9-2
		c0-1,0.4-1.8,1.1-2.3c0.7-0.5,1.8-0.8,3.2-0.8h1.3v-0.6c0-0.5-0.1-0.9-0.4-1.2c-0.3-0.3-0.7-0.4-1.2-0.4c-0.5,0-0.9,0.1-1.2,0.4
		c-0.3,0.2-0.5,0.5-0.5,0.9h-2.1c0-0.5,0.2-1,0.5-1.4s0.8-0.8,1.4-1.1c0.6-0.3,1.2-0.4,2-0.4c1.1,0,2,0.3,2.6,0.8
		c0.7,0.6,1,1.3,1,2.3v4.2c0,0.8,0.1,1.5,0.4,2v0.1H168.2z M165.8,351.1c0.4,0,0.8-0.1,1.2-0.3s0.6-0.5,0.8-0.8v-1.8h-1.1
		c-0.8,0-1.4,0.1-1.8,0.4c-0.4,0.3-0.6,0.7-0.6,1.2c0,0.4,0.1,0.7,0.4,1S165.4,351.1,165.8,351.1z"/>
	<path class="st0" d="M176,351.1c0.5,0,1-0.2,1.3-0.5c0.3-0.3,0.5-0.7,0.6-1.1h2c0,0.6-0.2,1.1-0.5,1.6c-0.3,0.5-0.8,0.9-1.4,1.2
		c-0.6,0.3-1.2,0.4-1.9,0.4c-1.3,0-2.4-0.4-3.1-1.3c-0.8-0.9-1.2-2-1.2-3.5v-0.2c0-1.4,0.4-2.6,1.1-3.4s1.8-1.3,3.1-1.3
		c1.1,0,2,0.3,2.7,1c0.7,0.7,1.1,1.5,1.1,2.6h-2c0-0.5-0.2-1-0.6-1.3s-0.8-0.5-1.3-0.5c-0.7,0-1.2,0.2-1.6,0.7
		c-0.4,0.5-0.6,1.2-0.6,2.3v0.3c0,1,0.2,1.8,0.6,2.3C174.8,350.9,175.3,351.1,176,351.1z"/>
	<path class="st0" d="M184.1,340.9v2.3h1.7v1.6h-1.7v5.3c0,0.4,0.1,0.6,0.2,0.8c0.1,0.2,0.4,0.2,0.8,0.2c0.2,0,0.5,0,0.7-0.1v1.6
		c-0.5,0.1-0.9,0.2-1.4,0.2c-1.6,0-2.4-0.9-2.4-2.7v-5.3h-1.5v-1.6h1.5v-2.3H184.1z"/>
	<path class="st0" d="M187.4,340.8c0-0.3,0.1-0.6,0.3-0.8c0.2-0.2,0.5-0.3,0.9-0.3s0.7,0.1,0.9,0.3c0.2,0.2,0.3,0.5,0.3,0.8
		c0,0.3-0.1,0.6-0.3,0.8c-0.2,0.2-0.5,0.3-0.9,0.3s-0.7-0.1-0.9-0.3C187.5,341.4,187.4,341.1,187.4,340.8z M189.7,352.6h-2.1v-9.4
		h2.1V352.6z"/>
	<path class="st0" d="M195.8,351.1c0.5,0,1-0.2,1.3-0.5c0.3-0.3,0.5-0.7,0.6-1.1h2c0,0.6-0.2,1.1-0.5,1.6c-0.3,0.5-0.8,0.9-1.4,1.2
		c-0.6,0.3-1.2,0.4-1.9,0.4c-1.3,0-2.4-0.4-3.1-1.3c-0.8-0.9-1.2-2-1.2-3.5v-0.2c0-1.4,0.4-2.6,1.1-3.4s1.8-1.3,3.1-1.3
		c1.1,0,2,0.3,2.7,1c0.7,0.7,1.1,1.5,1.1,2.6h-2c0-0.5-0.2-1-0.6-1.3s-0.8-0.5-1.3-0.5c-0.7,0-1.2,0.2-1.6,0.7
		c-0.4,0.5-0.6,1.2-0.6,2.3v0.3c0,1,0.2,1.8,0.6,2.3C194.6,350.9,195.1,351.1,195.8,351.1z"/>
	<path class="st0" d="M207,351.7c-0.6,0.7-1.5,1.1-2.6,1.1c-1,0-1.8-0.3-2.3-0.9s-0.8-1.5-0.8-2.6v-6.1h2.1v6.1
		c0,1.2,0.5,1.8,1.5,1.8c1,0,1.7-0.4,2.1-1.1v-6.8h2.1v9.4h-2L207,351.7z"/>
	<path class="st0" d="M213.2,343.2l0.1,1c0.7-0.8,1.6-1.2,2.7-1.2c1.3,0,2.1,0.5,2.6,1.4c0.7-1,1.6-1.4,2.9-1.4c1,0,1.8,0.3,2.3,0.9
		c0.5,0.6,0.8,1.4,0.8,2.5v6.2h-2.1v-6.1c0-0.6-0.1-1-0.4-1.3c-0.3-0.3-0.7-0.4-1.3-0.4c-0.5,0-0.9,0.1-1.2,0.4
		c-0.3,0.3-0.5,0.6-0.6,1l0,6.5h-2.1v-6.2c0-1.1-0.6-1.7-1.7-1.7c-0.8,0-1.4,0.3-1.8,1v6.8h-2.1v-9.4H213.2z"/>
	<path class="st0" d="M231.1,340.8c0-0.3,0.1-0.6,0.3-0.8c0.2-0.2,0.5-0.3,0.9-0.3s0.7,0.1,0.9,0.3c0.2,0.2,0.3,0.5,0.3,0.8
		c0,0.3-0.1,0.6-0.3,0.8c-0.2,0.2-0.5,0.3-0.9,0.3s-0.7-0.1-0.9-0.3C231.2,341.4,231.1,341.1,231.1,340.8z M233.3,352.6h-2.1v-9.4
		h2.1V352.6z"/>
	<path class="st0" d="M237.6,343.2l0.1,1.1c0.7-0.8,1.6-1.3,2.7-1.3c2,0,3,1.1,3,3.4v6.2h-2.1v-6.1c0-0.6-0.1-1-0.4-1.3
		s-0.7-0.4-1.3-0.4c-0.9,0-1.5,0.4-1.9,1.2v6.7h-2.1v-9.4H237.6z"/>
	<path class="st0" d="M156.8,370.7c0-0.6-0.2-1-0.6-1.3c-0.4-0.3-1.1-0.6-2.1-0.9c-1-0.3-1.8-0.6-2.4-1c-1.2-0.7-1.7-1.7-1.7-2.8
		c0-1,0.4-1.9,1.2-2.5c0.8-0.7,1.9-1,3.2-1c0.9,0,1.7,0.2,2.4,0.5c0.7,0.3,1.2,0.8,1.6,1.4c0.4,0.6,0.6,1.3,0.6,2h-2.2
		c0-0.7-0.2-1.2-0.6-1.6c-0.4-0.4-1-0.6-1.8-0.6c-0.7,0-1.3,0.2-1.7,0.5c-0.4,0.3-0.6,0.7-0.6,1.3c0,0.5,0.2,0.9,0.6,1.2
		c0.4,0.3,1.1,0.6,2.1,0.9c1,0.3,1.8,0.6,2.4,1c0.6,0.4,1,0.8,1.3,1.3c0.3,0.5,0.4,1.1,0.4,1.7c0,1.1-0.4,1.9-1.2,2.5
		s-1.9,0.9-3.3,0.9c-0.9,0-1.8-0.2-2.5-0.5c-0.8-0.3-1.4-0.8-1.8-1.4s-0.6-1.3-0.6-2.1h2.2c0,0.7,0.2,1.3,0.7,1.7
		c0.5,0.4,1.2,0.6,2,0.6c0.8,0,1.3-0.2,1.7-0.5C156.6,371.6,156.8,371.2,156.8,370.7z"/>
	<path class="st0" d="M164.8,374.2c-1.3,0-2.4-0.4-3.3-1.3s-1.2-2-1.2-3.4v-0.3c0-0.9,0.2-1.8,0.5-2.5s0.9-1.3,1.5-1.7
		c0.7-0.4,1.4-0.6,2.2-0.6c1.3,0,2.3,0.4,3,1.2s1,2,1,3.5v0.9h-6.1c0.1,0.8,0.3,1.4,0.8,1.8s1,0.7,1.7,0.7c1,0,1.8-0.4,2.4-1.2
		l1.1,1.1c-0.4,0.6-0.9,1-1.5,1.3C166.3,374,165.6,374.2,164.8,374.2z M164.6,366.1c-0.6,0-1,0.2-1.4,0.6s-0.6,1-0.7,1.7h4v-0.2
		c0-0.7-0.2-1.2-0.6-1.6C165.6,366.3,165.2,366.1,164.6,366.1z"/>
	<path class="st0" d="M172.2,364.6l0.1,1c0.7-0.8,1.6-1.2,2.7-1.2c1.3,0,2.1,0.5,2.6,1.4c0.7-1,1.6-1.4,2.9-1.4c1,0,1.8,0.3,2.3,0.9
		c0.5,0.6,0.8,1.4,0.8,2.5v6.2h-2.1v-6.1c0-0.6-0.1-1-0.4-1.3c-0.3-0.3-0.7-0.4-1.3-0.4c-0.5,0-0.9,0.1-1.2,0.4
		c-0.3,0.3-0.5,0.6-0.6,1l0,6.5h-2.1v-6.2c0-1.1-0.6-1.7-1.7-1.7c-0.8,0-1.4,0.3-1.8,1v6.8h-2.1v-9.4H172.2z"/>
	<path class="st0" d="M189.9,374.2c-1.3,0-2.4-0.4-3.3-1.3s-1.2-2-1.2-3.4v-0.3c0-0.9,0.2-1.8,0.5-2.5s0.9-1.3,1.5-1.7
		c0.7-0.4,1.4-0.6,2.2-0.6c1.3,0,2.3,0.4,3,1.2s1,2,1,3.5v0.9h-6.1c0.1,0.8,0.3,1.4,0.8,1.8s1,0.7,1.7,0.7c1,0,1.8-0.4,2.4-1.2
		l1.1,1.1c-0.4,0.6-0.9,1-1.5,1.3C191.4,374,190.7,374.2,189.9,374.2z M189.6,366.1c-0.6,0-1,0.2-1.4,0.6s-0.6,1-0.7,1.7h4v-0.2
		c0-0.7-0.2-1.2-0.6-1.6C190.7,366.3,190.2,366.1,189.6,366.1z"/>
	<path class="st0" d="M200.6,371.4c0-0.4-0.2-0.7-0.5-0.9c-0.3-0.2-0.8-0.4-1.5-0.5c-0.7-0.2-1.3-0.3-1.8-0.6
		c-1.1-0.5-1.6-1.2-1.6-2.2c0-0.8,0.3-1.5,1-2s1.6-0.8,2.6-0.8c1.1,0,2,0.3,2.7,0.8c0.7,0.6,1,1.3,1,2.2h-2.1c0-0.4-0.2-0.7-0.5-1
		c-0.3-0.3-0.7-0.4-1.2-0.4c-0.5,0-0.8,0.1-1.1,0.3c-0.3,0.2-0.4,0.5-0.4,0.9c0,0.3,0.1,0.6,0.4,0.8s0.8,0.4,1.7,0.5s1.5,0.4,2,0.7
		c0.5,0.3,0.8,0.6,1.1,0.9c0.2,0.4,0.3,0.8,0.3,1.3c0,0.8-0.4,1.5-1.1,2.1c-0.7,0.5-1.6,0.8-2.8,0.8c-0.8,0-1.5-0.1-2.1-0.4
		s-1.1-0.7-1.4-1.1c-0.3-0.5-0.5-1-0.5-1.6h2.1c0,0.5,0.2,0.9,0.6,1.2s0.8,0.4,1.4,0.4c0.6,0,1-0.1,1.3-0.3
		C200.4,372,200.6,371.8,200.6,371.4z"/>
	<path class="st0" d="M207.1,362.3v2.3h1.7v1.6h-1.7v5.3c0,0.4,0.1,0.6,0.2,0.8c0.1,0.2,0.4,0.2,0.8,0.2c0.2,0,0.5,0,0.7-0.1v1.6
		c-0.5,0.1-0.9,0.2-1.4,0.2c-1.6,0-2.4-0.9-2.4-2.7v-5.3h-1.5v-1.6h1.5v-2.3H207.1z"/>
	<path class="st0" d="M214.5,374.2c-1.3,0-2.4-0.4-3.3-1.3s-1.2-2-1.2-3.4v-0.3c0-0.9,0.2-1.8,0.5-2.5s0.9-1.3,1.5-1.7
		c0.7-0.4,1.4-0.6,2.2-0.6c1.3,0,2.3,0.4,3,1.2s1,2,1,3.5v0.9h-6.1c0.1,0.8,0.3,1.4,0.8,1.8s1,0.7,1.7,0.7c1,0,1.8-0.4,2.4-1.2
		l1.1,1.1c-0.4,0.6-0.9,1-1.5,1.3C216,374,215.3,374.2,214.5,374.2z M214.3,366.1c-0.6,0-1,0.2-1.4,0.6s-0.6,1-0.7,1.7h4v-0.2
		c0-0.7-0.2-1.2-0.6-1.6C215.3,366.3,214.9,366.1,214.3,366.1z"/>
	<path class="st0" d="M224.9,366.5c-0.3,0-0.6-0.1-0.9-0.1c-1,0-1.6,0.4-2,1.1v6.4h-2.1v-9.4h2l0.1,1.1c0.5-0.8,1.2-1.2,2.1-1.2
		c0.3,0,0.6,0,0.7,0.1L224.9,366.5z"/>
	<path class="st0" d="M237.7,369.5h1.6v1.7h-1.6v2.8h-2.1v-2.8h-5.5l-0.1-1.3l5.5-8.6h2.2V369.5z M232.2,369.5h3.3v-5.3l-0.2,0.3
		L232.2,369.5z"/>
</g>
<g>
	<path class="st0" d="M334.7,407.3h-2.2v-12.7h2.2V407.3z"/>
	<path class="st0" d="M344.7,402h-5.1v5.4h-2.2v-12.7h8v1.8h-5.8v3.8h5.1V402z"/>
	<path class="st0" d="M357.3,407.3h-2.2v-5.6h-5.7v5.6h-2.2v-12.7h2.2v5.3h5.7v-5.3h2.2V407.3z"/>
	<path class="st0" d="M367.3,401.7h-5.2v3.9h6.1v1.8h-8.3v-12.7h8.2v1.8h-6v3.5h5.2V401.7z"/>
	<path class="st0" d="M376.7,407.3h-2.2v-12.7h2.2V407.3z"/>
	<path class="st0" d="M381.2,397.9l0.1,1.1c0.7-0.8,1.6-1.3,2.7-1.3c2,0,3,1.1,3,3.4v6.2h-2.1v-6.1c0-0.6-0.1-1-0.4-1.3
		s-0.7-0.4-1.3-0.4c-0.9,0-1.5,0.4-1.9,1.2v6.7h-2.1v-9.4H381.2z"/>
	<path class="st0" d="M391.1,397.9l0.1,1.1c0.7-0.8,1.6-1.3,2.7-1.3c2,0,3,1.1,3,3.4v6.2h-2.1v-6.1c0-0.6-0.1-1-0.4-1.3
		s-0.7-0.4-1.3-0.4c-0.9,0-1.5,0.4-1.9,1.2v6.7h-2.1v-9.4H391.1z"/>
	<path class="st0" d="M398.6,402.6c0-0.9,0.2-1.8,0.5-2.5c0.4-0.7,0.9-1.3,1.5-1.7c0.7-0.4,1.4-0.6,2.3-0.6c1.3,0,2.3,0.4,3.1,1.2
		s1.2,1.9,1.3,3.3l0,0.5c0,0.9-0.2,1.8-0.5,2.5c-0.4,0.7-0.9,1.3-1.5,1.7c-0.7,0.4-1.4,0.6-2.3,0.6c-1.3,0-2.4-0.4-3.2-1.3
		s-1.2-2.1-1.2-3.5V402.6z M400.7,402.7c0,1,0.2,1.7,0.6,2.3c0.4,0.5,1,0.8,1.7,0.8c0.7,0,1.3-0.3,1.7-0.8c0.4-0.6,0.6-1.4,0.6-2.4
		c0-1-0.2-1.7-0.6-2.3c-0.4-0.6-1-0.8-1.7-0.8c-0.7,0-1.2,0.3-1.6,0.8C400.9,400.8,400.7,401.6,400.7,402.7z"/>
	<path class="st0" d="M412.3,404.7l2-6.7h2.2l-3.3,9.4h-1.8l-3.3-9.4h2.2L412.3,404.7z"/>
	<path class="st0" d="M423.3,407.3c-0.1-0.2-0.2-0.5-0.2-0.9c-0.7,0.7-1.5,1.1-2.5,1.1c-0.9,0-1.7-0.3-2.3-0.8
		c-0.6-0.5-0.9-1.2-0.9-2c0-1,0.4-1.8,1.1-2.3c0.7-0.5,1.8-0.8,3.2-0.8h1.3V401c0-0.5-0.1-0.9-0.4-1.2c-0.3-0.3-0.7-0.4-1.2-0.4
		c-0.5,0-0.9,0.1-1.2,0.4s-0.5,0.5-0.5,0.9h-2.1c0-0.5,0.2-1,0.5-1.4s0.8-0.8,1.4-1.1s1.2-0.4,2-0.4c1.1,0,2,0.3,2.6,0.8
		c0.7,0.6,1,1.3,1,2.3v4.2c0,0.8,0.1,1.5,0.4,2v0.1H423.3z M421,405.8c0.4,0,0.8-0.1,1.2-0.3c0.4-0.2,0.6-0.5,0.8-0.8v-1.8h-1.1
		c-0.8,0-1.4,0.1-1.8,0.4c-0.4,0.3-0.6,0.7-0.6,1.2c0,0.4,0.1,0.7,0.4,1S420.5,405.8,421,405.8z"/>
	<path class="st0" d="M430,395.7v2.3h1.7v1.6H430v5.3c0,0.4,0.1,0.6,0.2,0.8c0.1,0.2,0.4,0.2,0.8,0.2c0.2,0,0.5,0,0.7-0.1v1.6
		c-0.5,0.1-0.9,0.2-1.4,0.2c-1.6,0-2.4-0.9-2.4-2.7v-5.3h-1.5v-1.6h1.5v-2.3H430z"/>
	<path class="st0" d="M433.2,395.5c0-0.3,0.1-0.6,0.3-0.8c0.2-0.2,0.5-0.3,0.9-0.3c0.4,0,0.7,0.1,0.9,0.3c0.2,0.2,0.3,0.5,0.3,0.8
		c0,0.3-0.1,0.6-0.3,0.8c-0.2,0.2-0.5,0.3-0.9,0.3c-0.4,0-0.7-0.1-0.9-0.3C433.3,396.1,433.2,395.8,433.2,395.5z M435.5,407.3h-2.1
		v-9.4h2.1V407.3z"/>
	<path class="st0" d="M437.4,402.6c0-0.9,0.2-1.8,0.5-2.5c0.4-0.7,0.9-1.3,1.5-1.7c0.7-0.4,1.4-0.6,2.3-0.6c1.3,0,2.3,0.4,3.1,1.2
		s1.2,1.9,1.3,3.3l0,0.5c0,0.9-0.2,1.8-0.5,2.5c-0.4,0.7-0.9,1.3-1.5,1.7c-0.7,0.4-1.4,0.6-2.3,0.6c-1.3,0-2.4-0.4-3.2-1.3
		s-1.2-2.1-1.2-3.5V402.6z M439.5,402.7c0,1,0.2,1.7,0.6,2.3s1,0.8,1.7,0.8s1.3-0.3,1.7-0.8c0.4-0.6,0.6-1.4,0.6-2.4
		c0-1-0.2-1.7-0.6-2.3c-0.4-0.6-1-0.8-1.7-0.8c-0.7,0-1.2,0.3-1.6,0.8C439.7,400.8,439.5,401.6,439.5,402.7z"/>
	<path class="st0" d="M449.9,397.9l0.1,1.1c0.7-0.8,1.6-1.3,2.7-1.3c2,0,3,1.1,3,3.4v6.2h-2.1v-6.1c0-0.6-0.1-1-0.4-1.3
		s-0.7-0.4-1.3-0.4c-0.9,0-1.5,0.4-1.9,1.2v6.7h-2.1v-9.4H449.9z"/>
	<path class="st0" d="M467.9,407.3c-0.1-0.2-0.2-0.5-0.2-0.9c-0.7,0.7-1.5,1.1-2.5,1.1c-0.9,0-1.7-0.3-2.3-0.8s-0.9-1.2-0.9-2
		c0-1,0.4-1.8,1.1-2.3s1.8-0.8,3.2-0.8h1.3V401c0-0.5-0.1-0.9-0.4-1.2c-0.3-0.3-0.7-0.4-1.2-0.4c-0.5,0-0.9,0.1-1.2,0.4
		c-0.3,0.2-0.5,0.5-0.5,0.9h-2.1c0-0.5,0.2-1,0.5-1.4s0.8-0.8,1.4-1.1c0.6-0.3,1.2-0.4,2-0.4c1.1,0,2,0.3,2.6,0.8
		c0.7,0.6,1,1.3,1,2.3v4.2c0,0.8,0.1,1.5,0.4,2v0.1H467.9z M465.5,405.8c0.4,0,0.8-0.1,1.2-0.3s0.6-0.5,0.8-0.8v-1.8h-1.1
		c-0.8,0-1.4,0.1-1.8,0.4s-0.6,0.7-0.6,1.2c0,0.4,0.1,0.7,0.4,1S465.1,405.8,465.5,405.8z"/>
	<path class="st0" d="M473.8,397.9l0.1,1.1c0.7-0.8,1.6-1.3,2.7-1.3c2,0,3,1.1,3,3.4v6.2h-2.1v-6.1c0-0.6-0.1-1-0.4-1.3
		s-0.7-0.4-1.3-0.4c-0.9,0-1.5,0.4-1.9,1.2v6.7h-2.1v-9.4H473.8z"/>
	<path class="st0" d="M481.4,402.6c0-1.4,0.3-2.6,1-3.5c0.7-0.9,1.6-1.3,2.7-1.3c1,0,1.8,0.3,2.4,1V394h2.1v13.4h-1.9l-0.1-1
		c-0.6,0.8-1.5,1.1-2.5,1.1c-1.1,0-2-0.4-2.7-1.3C481.7,405.3,481.4,404.1,481.4,402.6z M483.5,402.8c0,1,0.2,1.7,0.6,2.2
		s0.9,0.8,1.6,0.8c0.9,0,1.5-0.4,1.9-1.2v-4c-0.4-0.8-1-1.1-1.9-1.1c-0.7,0-1.2,0.3-1.6,0.8C483.7,400.8,483.5,401.7,483.5,402.8z"
		/>
	<path class="st0" d="M351.4,423.1h-5.2v3.9h6.1v1.8H344V416h8.2v1.8h-6v3.5h5.2V423.1z"/>
	<path class="st0" d="M355.8,419.3l0.1,1.1c0.7-0.8,1.6-1.3,2.7-1.3c2,0,3,1.1,3,3.4v6.2h-2.1v-6.1c0-0.6-0.1-1-0.4-1.3
		s-0.7-0.4-1.3-0.4c-0.9,0-1.5,0.4-1.9,1.2v6.7h-2.1v-9.4H355.8z"/>
	<path class="st0" d="M366.4,417v2.3h1.7v1.6h-1.7v5.3c0,0.4,0.1,0.6,0.2,0.8s0.4,0.2,0.8,0.2c0.2,0,0.5,0,0.7-0.1v1.6
		c-0.5,0.1-0.9,0.2-1.4,0.2c-1.6,0-2.4-0.9-2.4-2.7v-5.3h-1.5v-1.6h1.5V417H366.4z"/>
	<path class="st0" d="M374.6,421.2c-0.3,0-0.6-0.1-0.9-0.1c-1,0-1.6,0.4-2,1.1v6.4h-2.1v-9.4h2l0.1,1.1c0.5-0.8,1.2-1.2,2.1-1.2
		c0.3,0,0.5,0,0.7,0.1L374.6,421.2z"/>
	<path class="st0" d="M379.9,428.9c-1.3,0-2.4-0.4-3.3-1.3c-0.8-0.8-1.2-2-1.2-3.4V424c0-0.9,0.2-1.8,0.5-2.5
		c0.4-0.7,0.9-1.3,1.5-1.7c0.7-0.4,1.4-0.6,2.2-0.6c1.3,0,2.3,0.4,3,1.2c0.7,0.8,1,2,1,3.5v0.9h-6.1c0.1,0.8,0.3,1.4,0.8,1.8
		c0.5,0.5,1,0.7,1.7,0.7c1,0,1.8-0.4,2.4-1.2l1.1,1.1c-0.4,0.6-0.9,1-1.5,1.3C381.4,428.7,380.7,428.9,379.9,428.9z M379.7,420.8
		c-0.6,0-1,0.2-1.4,0.6c-0.4,0.4-0.6,1-0.7,1.7h4V423c0-0.7-0.2-1.2-0.6-1.6S380.3,420.8,379.7,420.8z"/>
	<path class="st0" d="M393.6,424.1c0,1.5-0.3,2.6-1,3.5c-0.7,0.9-1.5,1.3-2.7,1.3c-1,0-1.9-0.3-2.5-1v4.5h-2.1v-13h1.9l0.1,1
		c0.6-0.8,1.5-1.1,2.5-1.1c1.1,0,2,0.4,2.7,1.3c0.7,0.9,1,2,1,3.6V424.1z M391.5,423.9c0-0.9-0.2-1.7-0.6-2.2
		c-0.4-0.6-0.9-0.8-1.6-0.8c-0.9,0-1.5,0.4-1.9,1.1v4.2c0.4,0.7,1,1.1,1.9,1.1c0.7,0,1.2-0.3,1.6-0.8
		C391.3,425.8,391.5,425,391.5,423.9z"/>
	<path class="st0" d="M400.3,421.2c-0.3,0-0.6-0.1-0.9-0.1c-1,0-1.6,0.4-2,1.1v6.4h-2.1v-9.4h2l0.1,1.1c0.5-0.8,1.2-1.2,2.1-1.2
		c0.3,0,0.5,0,0.7,0.1L400.3,421.2z"/>
	<path class="st0" d="M405.6,428.9c-1.3,0-2.4-0.4-3.3-1.3c-0.8-0.8-1.2-2-1.2-3.4V424c0-0.9,0.2-1.8,0.5-2.5
		c0.4-0.7,0.9-1.3,1.5-1.7c0.7-0.4,1.4-0.6,2.2-0.6c1.3,0,2.3,0.4,3,1.2c0.7,0.8,1,2,1,3.5v0.9h-6.1c0.1,0.8,0.3,1.4,0.8,1.8
		s1,0.7,1.7,0.7c1,0,1.8-0.4,2.4-1.2l1.1,1.1c-0.4,0.6-0.9,1-1.5,1.3C407.1,428.7,406.4,428.9,405.6,428.9z M405.3,420.8
		c-0.6,0-1,0.2-1.4,0.6c-0.4,0.4-0.6,1-0.7,1.7h4V423c0-0.7-0.2-1.2-0.6-1.6C406.4,421,405.9,420.8,405.3,420.8z"/>
	<path class="st0" d="M413,419.3l0.1,1.1c0.7-0.8,1.6-1.3,2.7-1.3c2,0,3,1.1,3,3.4v6.2h-2.1v-6.1c0-0.6-0.1-1-0.4-1.3
		s-0.7-0.4-1.3-0.4c-0.9,0-1.5,0.4-1.9,1.2v6.7H411v-9.4H413z"/>
	<path class="st0" d="M425,428.9c-1.3,0-2.4-0.4-3.3-1.3c-0.8-0.8-1.2-2-1.2-3.4V424c0-0.9,0.2-1.8,0.5-2.5c0.4-0.7,0.9-1.3,1.5-1.7
		c0.7-0.4,1.4-0.6,2.2-0.6c1.3,0,2.3,0.4,3,1.2c0.7,0.8,1,2,1,3.5v0.9h-6.1c0.1,0.8,0.3,1.4,0.8,1.8s1,0.7,1.7,0.7
		c1,0,1.8-0.4,2.4-1.2l1.1,1.1c-0.4,0.6-0.9,1-1.5,1.3C426.5,428.7,425.8,428.9,425,428.9z M424.8,420.8c-0.6,0-1,0.2-1.4,0.6
		c-0.4,0.4-0.6,1-0.7,1.7h4V423c0-0.7-0.2-1.2-0.6-1.6C425.8,421,425.4,420.8,424.8,420.8z"/>
	<path class="st0" d="M436.1,427.8c-0.6,0.7-1.5,1.1-2.6,1.1c-1,0-1.8-0.3-2.3-0.9s-0.8-1.5-0.8-2.6v-6.1h2.1v6.1
		c0,1.2,0.5,1.8,1.5,1.8c1,0,1.7-0.4,2.1-1.1v-6.8h2.1v9.4h-2L436.1,427.8z"/>
	<path class="st0" d="M445.3,421.2c-0.3,0-0.6-0.1-0.9-0.1c-1,0-1.6,0.4-2,1.1v6.4h-2.1v-9.4h2l0.1,1.1c0.5-0.8,1.2-1.2,2.1-1.2
		c0.3,0,0.5,0,0.7,0.1L445.3,421.2z"/>
	<path class="st0" d="M451.9,426.1c0-0.4-0.2-0.7-0.5-0.9c-0.3-0.2-0.8-0.4-1.5-0.5s-1.3-0.3-1.8-0.6c-1.1-0.5-1.6-1.2-1.6-2.2
		c0-0.8,0.3-1.5,1-2s1.6-0.8,2.6-0.8c1.1,0,2,0.3,2.7,0.8c0.7,0.6,1,1.3,1,2.2h-2.1c0-0.4-0.2-0.7-0.5-1s-0.7-0.4-1.2-0.4
		c-0.5,0-0.8,0.1-1.1,0.3c-0.3,0.2-0.4,0.5-0.4,0.9c0,0.3,0.1,0.6,0.4,0.8c0.3,0.2,0.8,0.4,1.7,0.5s1.5,0.4,2,0.7
		c0.5,0.3,0.8,0.6,1.1,0.9s0.3,0.8,0.3,1.3c0,0.8-0.4,1.5-1.1,2.1c-0.7,0.5-1.6,0.8-2.8,0.8c-0.8,0-1.5-0.1-2.1-0.4
		c-0.6-0.3-1.1-0.7-1.4-1.1c-0.3-0.5-0.5-1-0.5-1.6h2.1c0,0.5,0.2,0.9,0.6,1.2c0.3,0.3,0.8,0.4,1.4,0.4c0.6,0,1-0.1,1.3-0.3
		C451.7,426.8,451.9,426.5,451.9,426.1z"/>
	<path class="st0" d="M457.9,420.3c0.7-0.8,1.6-1.2,2.6-1.2c2,0,3,1.1,3.1,3.4v6.1h-2.1v-6.1c0-0.6-0.1-1.1-0.4-1.4
		c-0.3-0.3-0.7-0.4-1.2-0.4c-0.8,0-1.5,0.4-1.9,1.1v6.7h-2.1v-13.4h2.1V420.3z"/>
	<path class="st0" d="M465.7,416.9c0-0.3,0.1-0.6,0.3-0.8c0.2-0.2,0.5-0.3,0.9-0.3c0.4,0,0.7,0.1,0.9,0.3c0.2,0.2,0.3,0.5,0.3,0.8
		c0,0.3-0.1,0.6-0.3,0.8c-0.2,0.2-0.5,0.3-0.9,0.3c-0.4,0-0.7-0.1-0.9-0.3C465.8,417.4,465.7,417.2,465.7,416.9z M467.9,428.7h-2.1
		v-9.4h2.1V428.7z"/>
	<path class="st0" d="M478.5,424.1c0,1.5-0.3,2.6-1,3.5c-0.7,0.9-1.5,1.3-2.7,1.3c-1,0-1.9-0.3-2.5-1v4.5h-2.1v-13h1.9l0.1,1
		c0.6-0.8,1.5-1.1,2.5-1.1c1.1,0,2,0.4,2.7,1.3c0.7,0.9,1,2,1,3.6V424.1z M476.4,423.9c0-0.9-0.2-1.7-0.6-2.2
		c-0.4-0.6-0.9-0.8-1.6-0.8c-0.9,0-1.5,0.4-1.9,1.1v4.2c0.4,0.7,1,1.1,1.9,1.1c0.7,0,1.2-0.3,1.6-0.8S476.4,425,476.4,423.9z"/>
	<path class="st0" d="M389.7,445.9c-0.1,1.4-0.6,2.4-1.5,3.2c-0.9,0.8-2,1.1-3.5,1.1c-1,0-1.9-0.2-2.7-0.7c-0.8-0.5-1.4-1.2-1.8-2
		c-0.4-0.9-0.6-1.9-0.7-3.1v-1.2c0-1.2,0.2-2.2,0.6-3.2c0.4-0.9,1-1.6,1.8-2.1c0.8-0.5,1.7-0.7,2.7-0.7c1.4,0,2.5,0.4,3.4,1.1
		c0.9,0.8,1.3,1.8,1.5,3.2h-2.2c-0.1-0.9-0.4-1.6-0.8-2c-0.4-0.4-1.1-0.6-1.9-0.6c-1,0-1.7,0.3-2.2,1c-0.5,0.7-0.8,1.7-0.8,3.1v1.1
		c0,1.4,0.2,2.4,0.7,3.1c0.5,0.7,1.2,1.1,2.2,1.1c0.9,0,1.5-0.2,1.9-0.6c0.4-0.4,0.7-1,0.8-1.9H389.7z"/>
	<path class="st0" d="M391,445.3c0-0.9,0.2-1.8,0.5-2.5c0.4-0.7,0.9-1.3,1.5-1.7c0.7-0.4,1.4-0.6,2.3-0.6c1.3,0,2.3,0.4,3.1,1.2
		s1.2,1.9,1.3,3.3l0,0.5c0,0.9-0.2,1.8-0.5,2.5c-0.4,0.7-0.9,1.3-1.5,1.7c-0.7,0.4-1.4,0.6-2.3,0.6c-1.3,0-2.4-0.4-3.2-1.3
		s-1.2-2.1-1.2-3.5V445.3z M393.2,445.5c0,1,0.2,1.7,0.6,2.3s1,0.8,1.7,0.8s1.3-0.3,1.7-0.8c0.4-0.6,0.6-1.4,0.6-2.4
		c0-1-0.2-1.7-0.6-2.3c-0.4-0.6-1-0.8-1.7-0.8c-0.7,0-1.2,0.3-1.6,0.8C393.4,443.6,393.2,444.4,393.2,445.5z"/>
	<path class="st0" d="M407.3,449.1c-0.6,0.7-1.5,1.1-2.6,1.1c-1,0-1.8-0.3-2.3-0.9c-0.5-0.6-0.8-1.5-0.8-2.6v-6.1h2.1v6.1
		c0,1.2,0.5,1.8,1.5,1.8c1,0,1.7-0.4,2.1-1.1v-6.8h2.1v9.4h-2L407.3,449.1z"/>
	<path class="st0" d="M413.4,440.7l0.1,1.1c0.7-0.8,1.6-1.3,2.7-1.3c2,0,3,1.1,3,3.4v6.2h-2.1V444c0-0.6-0.1-1-0.4-1.3
		s-0.7-0.4-1.3-0.4c-0.9,0-1.5,0.4-1.9,1.2v6.7h-2.1v-9.4H413.4z"/>
	<path class="st0" d="M425.2,448.6c0.5,0,1-0.2,1.3-0.5c0.3-0.3,0.5-0.7,0.6-1.1h2c0,0.6-0.2,1.1-0.5,1.6c-0.3,0.5-0.8,0.9-1.4,1.2
		c-0.6,0.3-1.2,0.4-1.9,0.4c-1.3,0-2.4-0.4-3.1-1.3c-0.8-0.9-1.2-2-1.2-3.5v-0.2c0-1.4,0.4-2.6,1.1-3.4c0.8-0.9,1.8-1.3,3.1-1.3
		c1.1,0,2,0.3,2.7,1c0.7,0.7,1.1,1.5,1.1,2.6h-2c0-0.5-0.2-1-0.6-1.3c-0.3-0.3-0.8-0.5-1.3-0.5c-0.7,0-1.2,0.2-1.6,0.7
		c-0.4,0.5-0.6,1.2-0.6,2.3v0.3c0,1,0.2,1.8,0.6,2.3C424,448.3,424.5,448.6,425.2,448.6z"/>
	<path class="st0" d="M430.7,438.2c0-0.3,0.1-0.6,0.3-0.8c0.2-0.2,0.5-0.3,0.9-0.3c0.4,0,0.7,0.1,0.9,0.3c0.2,0.2,0.3,0.5,0.3,0.8
		c0,0.3-0.1,0.6-0.3,0.8c-0.2,0.2-0.5,0.3-0.9,0.3c-0.4,0-0.7-0.1-0.9-0.3C430.8,438.8,430.7,438.5,430.7,438.2z M432.9,450.1h-2.1
		v-9.4h2.1V450.1z"/>
	<path class="st0" d="M437.5,450.1h-2.1v-13.4h2.1V450.1z"/>
</g>
<g>
	<g id="ICON">
		<path class="st10" d="M219.3,79.6h-44.7V73c0-0.5-0.4-0.8-0.8-0.8c-0.5,0-0.8,0.4-0.8,0.8v10.8c0,0.7,0.3,1.3,0.7,1.8
			c0.5,0.5,1.1,0.7,1.8,0.7h3.3c0.5,0,0.8-0.4,0.8-0.8s-0.4-0.8-0.8-0.8h-3.3c-0.2,0-0.4-0.1-0.6-0.2c-0.2-0.2-0.2-0.4-0.2-0.6v-2.5
			h44.7v2.5c0,0.2-0.1,0.4-0.2,0.6c-0.2,0.2-0.4,0.2-0.6,0.2h-36.4c-0.5,0-0.8,0.4-0.8,0.8s0.4,0.8,0.8,0.8h10.4
			c-0.1,2.2-0.7,5.1-2.8,6.6h-1.4c-0.5,0-0.8,0.4-0.8,0.8s0.4,0.8,0.8,0.8h17.4c0.5,0,0.8-0.4,0.8-0.8s-0.4-0.8-0.8-0.8h-1.4
			c-2.1-1.5-2.7-4.4-2.8-6.6h17.1c0.7,0,1.3-0.3,1.8-0.7c0.5-0.5,0.7-1.1,0.7-1.8c0-5,0-19.8,0-24.8c0-0.7-0.3-1.3-0.7-1.8
			c-0.5-0.5-1.1-0.7-1.8-0.7h-8.3c-0.5,0-0.8,0.4-0.8,0.8s0.4,0.8,0.8,0.8h8.3c0.2,0,0.4,0.1,0.6,0.2c0.2,0.2,0.2,0.4,0.2,0.6V79.6z
			 M199.8,86.3h-5.6c-0.1,2.1-0.6,4.7-2.1,6.6h9.9C200.4,91,199.9,88.4,199.8,86.3z M182.9,76.3h-5c-0.5,0-0.8,0.4-0.8,0.8
			s0.4,0.8,0.8,0.8h5c0,0.5,0.4,0.8,0.8,0.8c0.5,0,0.8-0.4,0.8-0.8H216c0.5,0,0.8-0.4,0.8-0.8s-0.4-0.8-0.8-0.8h-31.4
			c0-0.5-0.4-0.8-0.8-0.8C183.3,75.5,182.9,75.9,182.9,76.3L182.9,76.3z M206.1,61.4h-18.2c-1.4,0-2.5,1.1-2.5,2.5
			c0,2.4,0,6.7,0,9.1c0,1.4,1.1,2.5,2.5,2.5h18.2c1.4,0,2.5-1.1,2.5-2.5c0-2.4,0-6.7,0-9.1C208.5,62.5,207.4,61.4,206.1,61.4z
			 M206.1,63.1c0.5,0,0.8,0.4,0.8,0.8V73c0,0.5-0.4,0.8-0.8,0.8h-18.2c-0.5,0-0.8-0.4-0.8-0.8v-9.1c0-0.5,0.4-0.8,0.8-0.8H206.1z
			 M200.6,69.2c0.3-0.1,0.4-0.4,0.4-0.7c0-0.3-0.2-0.6-0.4-0.7l-5.5-2.9c-0.3-0.1-0.6-0.1-0.8,0c-0.2,0.1-0.4,0.4-0.4,0.7v5.8
			c0,0.3,0.2,0.6,0.4,0.7c0.2,0.1,0.6,0.2,0.8,0L200.6,69.2z M183.7,56.5h-8.3c-0.7,0-1.3,0.3-1.8,0.7c-0.5,0.5-0.7,1.1-0.7,1.8
			c0,2.1,0,7.1,0,11.2c0,0.5,0.4,0.8,0.8,0.8c0.5,0,0.8-0.4,0.8-0.8V58.9c0-0.2,0.1-0.4,0.2-0.6c0.2-0.2,0.4-0.2,0.6-0.2h8.3
			c0.5,0,0.8-0.4,0.8-0.8S184.2,56.5,183.7,56.5L183.7,56.5z M198.5,68.5l-2.9,1.5v-3L198.5,68.5z M187.5,51.6c0,0,9.1-5,9.1-5
			c0.2-0.1,0.5-0.1,0.8,0l9.1,5c0.3,0.1,0.4,0.4,0.4,0.7s-0.2,0.6-0.4,0.7l-2.9,1.6v3.5c0,1.4-1.1,2.5-2.5,2.5h-8.3
			c-1.4,0-2.5-1.1-2.5-2.5v-3.5l-1.7-0.9v4.4c0,0.5-0.4,0.8-0.8,0.8c-0.5,0-0.8-0.4-0.8-0.8v-5.8C187,52,187.2,51.7,187.5,51.6
			L187.5,51.6z M201.9,55.5l-4.6,2.5c-0.2,0.1-0.5,0.1-0.8,0l-4.6-2.5v2.6c0,0.5,0.4,0.8,0.8,0.8h8.3c0.5,0,0.8-0.4,0.8-0.8V55.5z
			 M191.1,51.5h3.4c0.5,0,0.8,0.4,0.8,0.8s-0.4,0.8-0.8,0.8h-3.4l5.9,3.2l7.4-4l-7.4-4L191.1,51.5z"/>
	</g>
</g>
<g>
	<g id="ICON_1_">
		<path class="st10" d="M434.5,151.6h-44.7V145c0-0.5-0.4-0.8-0.8-0.8c-0.5,0-0.8,0.4-0.8,0.8v10.8c0,0.7,0.3,1.3,0.7,1.8
			c0.5,0.5,1.1,0.7,1.8,0.7h3.3c0.5,0,0.8-0.4,0.8-0.8c0-0.5-0.4-0.8-0.8-0.8h-3.3c-0.2,0-0.4-0.1-0.6-0.2c-0.2-0.2-0.2-0.4-0.2-0.6
			v-2.5h44.7v2.5c0,0.2-0.1,0.4-0.2,0.6c-0.2,0.2-0.4,0.2-0.6,0.2h-36.4c-0.5,0-0.8,0.4-0.8,0.8c0,0.5,0.4,0.8,0.8,0.8h10.4
			c-0.1,2.2-0.7,5.1-2.8,6.6h-1.4c-0.5,0-0.8,0.4-0.8,0.8c0,0.5,0.4,0.8,0.8,0.8h17.4c0.5,0,0.8-0.4,0.8-0.8c0-0.5-0.4-0.8-0.8-0.8
			h-1.4c-2.1-1.5-2.7-4.4-2.8-6.6h17.1c0.7,0,1.3-0.3,1.8-0.7c0.5-0.5,0.7-1.1,0.7-1.8c0-5,0-19.8,0-24.8c0-0.7-0.3-1.3-0.7-1.8
			c-0.5-0.5-1.1-0.7-1.8-0.7h-8.3c-0.5,0-0.8,0.4-0.8,0.8c0,0.5,0.4,0.8,0.8,0.8h8.3c0.2,0,0.4,0.1,0.6,0.2c0.2,0.2,0.2,0.4,0.2,0.6
			V151.6z M414.9,158.3h-5.6c-0.1,2.1-0.6,4.7-2.1,6.6h9.9C415.6,163,415.1,160.4,414.9,158.3z M398,148.3h-5
			c-0.5,0-0.8,0.4-0.8,0.8c0,0.5,0.4,0.8,0.8,0.8h5c0,0.5,0.4,0.8,0.8,0.8c0.5,0,0.8-0.4,0.8-0.8h31.4c0.5,0,0.8-0.4,0.8-0.8
			c0-0.5-0.4-0.8-0.8-0.8h-31.4c0-0.5-0.4-0.8-0.8-0.8C398.4,147.5,398,147.9,398,148.3L398,148.3z M421.2,133.4H403
			c-1.4,0-2.5,1.1-2.5,2.5c0,2.4,0,6.7,0,9.1c0,1.4,1.1,2.5,2.5,2.5h18.2c1.4,0,2.5-1.1,2.5-2.5c0-2.4,0-6.7,0-9.1
			C423.7,134.5,422.6,133.4,421.2,133.4z M421.2,135.1c0.5,0,0.8,0.4,0.8,0.8v9.1c0,0.5-0.4,0.8-0.8,0.8H403c-0.5,0-0.8-0.4-0.8-0.8
			v-9.1c0-0.5,0.4-0.8,0.8-0.8H421.2z M415.8,141.2c0.3-0.1,0.4-0.4,0.4-0.7c0-0.3-0.2-0.6-0.4-0.7l-5.5-2.9c-0.3-0.1-0.6-0.1-0.8,0
			c-0.2,0.1-0.4,0.4-0.4,0.7v5.8c0,0.3,0.2,0.6,0.4,0.7c0.2,0.1,0.6,0.2,0.8,0L415.8,141.2z M398.9,128.5h-8.3
			c-0.7,0-1.3,0.3-1.8,0.7c-0.5,0.5-0.7,1.1-0.7,1.8c0,2.1,0,7.1,0,11.2c0,0.5,0.4,0.8,0.8,0.8c0.5,0,0.8-0.4,0.8-0.8V131
			c0-0.2,0.1-0.4,0.2-0.6c0.2-0.2,0.4-0.2,0.6-0.2h8.3c0.5,0,0.8-0.4,0.8-0.8C399.7,128.8,399.3,128.5,398.9,128.5L398.9,128.5z
			 M413.7,140.5l-2.9,1.5v-3L413.7,140.5z M402.6,123.6c0,0,9.1-5,9.1-5c0.2-0.1,0.5-0.1,0.8,0l9.1,5c0.3,0.1,0.4,0.4,0.4,0.7
			s-0.2,0.6-0.4,0.7l-2.9,1.6v3.5c0,1.4-1.1,2.5-2.5,2.5H408c-1.4,0-2.5-1.1-2.5-2.5v-3.5l-1.7-0.9v4.4c0,0.5-0.4,0.8-0.8,0.8
			c-0.5,0-0.8-0.4-0.8-0.8v-5.8C402.2,124,402.4,123.7,402.6,123.6L402.6,123.6z M417.1,127.5l-4.6,2.5c-0.2,0.1-0.5,0.1-0.8,0
			l-4.6-2.5v2.6c0,0.5,0.4,0.8,0.8,0.8h8.3c0.5,0,0.8-0.4,0.8-0.8V127.5z M406.3,123.5h3.4c0.5,0,0.8,0.4,0.8,0.8s-0.4,0.8-0.8,0.8
			h-3.4l5.9,3.2l7.4-4l-7.4-4L406.3,123.5z"/>
	</g>
</g>
<g>
	<path class="st11" d="M193.3,308.5h-19.1V298c0-4.7,3.6-10.3,10.4-11.7C187.9,292.1,193.3,308.5,193.3,308.5z"/>
	<ellipse class="st11" cx="194.3" cy="271.5" rx="9.6" ry="11"/>
	<polygon class="st11" points="197.2,296.6 194.3,298.8 191.3,296.6 192.3,288.1 196.3,288.1 	"/>
	<path class="st11" d="M185.3,287.5c0,0,3.2-1.5,4.5-6"/>
	<path class="st11" d="M195.2,308.5h19.1V298c0-4.7-3.6-10.3-10.4-11.7C200.6,292.1,195.2,308.5,195.2,308.5z"/>
	<path class="st11" d="M203.3,287.5c0,0-3.2-1.5-4.5-6"/>
	<polyline class="st11" points="188.8,284.4 194.3,288.1 199.6,284.4 	"/>
</g>
<g>
	<path class="st0" d="M410.9,338.9c-8.8,0-16,7.2-16,16c0,5.9,3.2,11.2,8.3,14v4.1h0v3.3h0v5h4.6c0.1,1.6,1.4,2.9,3.1,2.9
		s3-1.3,3.1-2.9h4.6v-3.3h0v-5h0v-4.1c5.1-2.8,8.3-8.1,8.3-14C426.9,346.1,419.8,338.9,410.9,338.9z M404.9,374.7h12v1.6h-12V374.7z
		 M410.9,382.4c-0.8,0-1.3-0.6-1.4-1.2h2.8C412.2,381.9,411.6,382.4,410.9,382.4z M417,379.5h-12v-1.6h12V379.5z M417.4,367.6
		l-0.5,0.2v5.1h-5.2v-12.5l5-5c0.3-0.3,0.3-0.9,0-1.2c-0.3-0.3-0.9-0.3-1.2,0l-4.7,4.7l-4.7-4.7c-0.3-0.3-0.9-0.3-1.2,0
		c-0.3,0.3-0.3,0.9,0,1.2l5,5v12.5h-5.2v-5.1l-0.5-0.2c-4.8-2.5-7.8-7.3-7.8-12.8c0-7.9,6.4-14.3,14.3-14.3
		c7.9,0,14.3,6.4,14.3,14.3C425.2,360.3,422.2,365.2,417.4,367.6z"/>
	<path class="st0" d="M415.4,344c-0.5,0-0.8,0.4-0.8,0.8c0,0.5,0.4,0.8,0.8,0.8c1.3,0,4.4,1.6,4.4,4.7c0,0.5,0.4,0.8,0.8,0.8
		s0.8-0.4,0.8-0.8C421.5,346.2,417.5,344,415.4,344z"/>
	<path class="st0" d="M392.5,356.5c0-0.5-0.4-0.8-0.8-0.8h-3.8c-0.5,0-0.8,0.4-0.8,0.8c0,0.5,0.4,0.8,0.8,0.8h3.8
		C392.1,357.3,392.5,357,392.5,356.5z"/>
	<path class="st0" d="M392.7,345.4c0.2,0.2,0.4,0.2,0.6,0.2c0.2,0,0.4-0.1,0.6-0.2c0.3-0.3,0.3-0.9,0-1.2l-2.7-2.7
		c-0.3-0.3-0.9-0.3-1.2,0c-0.3,0.3-0.3,0.9,0,1.2L392.7,345.4z"/>
	<path class="st0" d="M392.7,367.5l-2.7,2.7c-0.3,0.3-0.3,0.9,0,1.2c0.2,0.2,0.4,0.2,0.6,0.2c0.2,0,0.4-0.1,0.6-0.2l2.7-2.7
		c0.3-0.3,0.3-0.9,0-1.2C393.6,367.2,393.1,367.2,392.7,367.5z"/>
	<path class="st0" d="M434.1,355.6h-3.8c-0.5,0-0.8,0.4-0.8,0.8c0,0.5,0.4,0.8,0.8,0.8h3.8c0.5,0,0.8-0.4,0.8-0.8
		C434.9,356,434.6,355.6,434.1,355.6z"/>
	<path class="st0" d="M428.5,345.7c0.2,0,0.4-0.1,0.6-0.2l2.7-2.7c0.3-0.3,0.3-0.9,0-1.2c-0.3-0.3-0.9-0.3-1.2,0l-2.7,2.7
		c-0.3,0.3-0.3,0.9,0,1.2C428.1,345.6,428.3,345.7,428.5,345.7z"/>
	<path class="st0" d="M429.1,367.5c-0.3-0.3-0.9-0.3-1.2,0c-0.3,0.3-0.3,0.9,0,1.2l2.7,2.7c0.2,0.2,0.4,0.2,0.6,0.2
		c0.2,0,0.4-0.1,0.6-0.2c0.3-0.3,0.3-0.9,0-1.2L429.1,367.5z"/>
</g>
</svg>
