<?xml version="1.0" encoding="utf-8"?>
<!-- Generator: Adobe Illustrator 16.0.0, SVG Export Plug-In . SVG Version: 6.00 Build 0)  -->
<!DOCTYPE svg PUBLIC "-//W3C//DTD SVG 1.1//EN" "http://www.w3.org/Graphics/SVG/1.1/DTD/svg11.dtd">
<svg version="1.1" id="Layer_1" xmlns="http://www.w3.org/2000/svg" xmlns:xlink="http://www.w3.org/1999/xlink" x="0px" y="0px"
	 width="120px" height="120px" fill="#000" viewBox="0 0 120 120" enable-background="new 0 0 120 120" xml:space="preserve">
<g>
	<path d="M44.841,11.609c0.499-0.144,1.016-0.221,1.553-0.221c0.738,0,1.438,0.144,2.09,0.403c0.671,0.268,1.275,0.661,1.783,1.141
		c0.508,0.489,0.92,1.064,1.198,1.716c0.269,0.623,0.422,1.313,0.422,2.023l0,0v2.463h10.056c2.435-3.518,6.316-7.563,8.981-10.334
		c0.854-0.892,1.592-1.658,2.09-2.205v-0.01c0.01-0.019,0.029-0.038,0.048-0.048c0.997-1.246,2.071-2.061,3.126-2.521
		c1.217-0.537,2.425-0.604,3.479-0.326c0.422,0.115,0.824,0.278,1.188,0.499c0.374,0.221,0.719,0.489,1.025,0.805
		c0.308,0.307,0.575,0.662,0.806,1.055c0.221,0.383,0.402,0.805,0.527,1.246c0.297,1.045,0.316,2.224-0.038,3.451
		c-0.308,1.073-0.901,2.176-1.851,3.23l-0.028,0.029c-0.135,0.153-0.384,0.422-0.71,0.805l-0.46,0.527h0.201
		c0.201,0,0.402,0.009,0.604,0.029c0.182,0.019,0.373,0.038,0.556,0.067h21.032c0.671,0,1.322,0.153,1.917,0.422
		c0.604,0.278,1.16,0.69,1.61,1.208c0.451,0.508,0.824,1.112,1.074,1.783c0.239,0.642,0.373,1.352,0.373,2.08
		c0,0.546-0.076,1.083-0.22,1.601c-0.067,0.249-0.153,0.489-0.25,0.719h0.192c0.681,0,1.322,0.154,1.917,0.422
		c0.604,0.278,1.16,0.7,1.61,1.208c0.45,0.508,0.814,1.112,1.064,1.783c0.239,0.642,0.374,1.352,0.374,2.08s-0.135,1.438-0.374,2.08
		c-0.25,0.671-0.614,1.275-1.064,1.783c-0.46,0.508-1.007,0.92-1.61,1.208c-0.595,0.278-1.236,0.422-1.917,0.422l0,0h-0.173
		c0.105,0.24,0.191,0.489,0.269,0.738c0.153,0.527,0.23,1.074,0.23,1.63v0.009c0,0.729-0.135,1.438-0.374,2.08
		c-0.25,0.671-0.614,1.275-1.064,1.783c-0.46,0.508-1.007,0.93-1.61,1.208c-0.595,0.278-1.236,0.422-1.917,0.422h-0.432
		c0.096,0.22,0.173,0.46,0.23,0.69c0.134,0.489,0.201,1.016,0.201,1.543v0.019c0,0.729-0.135,1.419-0.374,2.061
		c-0.249,0.671-0.613,1.275-1.064,1.783c-0.46,0.508-1.006,0.92-1.61,1.208c-0.595,0.278-1.236,0.421-1.917,0.421h-0.786v16.019
		c3.518,2.607,7.563,6.768,10.344,9.624c0.882,0.911,1.639,1.688,2.204,2.233l0.02,0.01c0.02,0.02,0.028,0.029,0.048,0.048
		c1.236,1.064,2.042,2.205,2.502,3.326c0.527,1.295,0.595,2.569,0.316,3.691c-0.115,0.44-0.278,0.872-0.489,1.265
		c-0.22,0.403-0.488,0.768-0.795,1.094c-0.316,0.335-0.671,0.623-1.055,0.853c-0.384,0.23-0.806,0.422-1.256,0.565
		c-1.045,0.316-2.243,0.336-3.47-0.038c-1.084-0.335-2.195-0.978-3.26-2.004c-0.153-0.144-0.441-0.421-0.806-0.767l-0.518-0.488
		v0.239c0,0.211-0.009,0.422-0.028,0.643c-0.02,0.191-0.038,0.383-0.067,0.594v21.828c0,0.709-0.153,1.399-0.422,2.022
		c-0.277,0.652-0.689,1.228-1.198,1.716c-0.508,0.489-1.111,0.882-1.783,1.141c-0.651,0.259-1.352,0.403-2.09,0.403
		c-0.556,0-1.093-0.087-1.601-0.23c-0.249-0.077-0.488-0.163-0.719-0.269v0.24c0,0.709-0.153,1.399-0.422,2.022
		c-0.278,0.651-0.69,1.227-1.198,1.716s-1.112,0.882-1.783,1.141c-0.651,0.259-1.352,0.402-2.09,0.402s-1.438-0.144-2.09-0.402
		c-0.671-0.269-1.274-0.661-1.783-1.141c-0.508-0.489-0.92-1.064-1.198-1.716c-0.268-0.623-0.421-1.313-0.421-2.022l0,0v-0.211
		c-0.221,0.105-0.461,0.191-0.69,0.268l-0.039,0.02c-0.526,0.163-1.083,0.24-1.639,0.24h-0.01c-0.738,0-1.438-0.145-2.09-0.403
		c-0.671-0.269-1.274-0.661-1.783-1.141c-0.508-0.489-0.92-1.064-1.198-1.716c-0.269-0.623-0.422-1.313-0.422-2.022v-0.489
		c-0.22,0.096-0.45,0.183-0.689,0.249c-0.499,0.145-1.017,0.221-1.554,0.221c-0.737,0-1.438-0.144-2.09-0.402
		c-0.671-0.269-1.274-0.661-1.782-1.141c-0.509-0.489-0.921-1.064-1.198-1.716c-0.269-0.623-0.422-1.313-0.422-2.023l0,0v-2.463
		H56.066c-2.435,3.518-6.317,7.563-8.982,10.334c-0.863,0.891-1.591,1.658-2.09,2.204l-0.058,0.067
		c-0.997,1.236-2.061,2.042-3.115,2.512c-1.218,0.537-2.425,0.604-3.48,0.326c-0.422-0.115-0.824-0.278-1.188-0.499
		c-0.374-0.221-0.719-0.489-1.026-0.805c-0.297-0.298-0.556-0.643-0.776-1.026l-0.02-0.038c-0.22-0.384-0.393-0.806-0.527-1.246
		c-0.297-1.045-0.316-2.225,0.038-3.451c0.307-1.073,0.901-2.176,1.85-3.23l0.029-0.029c0.134-0.153,0.383-0.421,0.709-0.805
		l0.46-0.527H37.69c-0.201,0-0.403-0.01-0.604-0.028c-0.182-0.02-0.374-0.039-0.556-0.067H15.249c-0.671,0-1.323-0.153-1.917-0.422
		c-0.604-0.278-1.16-0.7-1.611-1.208c-0.45-0.508-0.824-1.112-1.064-1.783c-0.24-0.642-0.374-1.352-0.374-2.08
		c0-0.546,0.077-1.083,0.22-1.601c0.067-0.249,0.153-0.489,0.25-0.719h-0.192c-0.681,0-1.323-0.153-1.917-0.422
		c-0.604-0.278-1.16-0.7-1.61-1.208s-0.815-1.112-1.064-1.783c-0.249-0.633-0.383-1.342-0.383-2.07s0.134-1.438,0.374-2.08
		c0.25-0.672,0.614-1.275,1.064-1.783c0.46-0.509,1.006-0.921,1.61-1.208c0.594-0.278,1.236-0.422,1.917-0.422l0,0h0.173
		c-0.105-0.239-0.192-0.489-0.269-0.738c-0.153-0.527-0.23-1.073-0.23-1.63v-0.009c0-0.729,0.134-1.438,0.374-2.081
		c0.25-0.671,0.614-1.274,1.064-1.782c0.46-0.509,1.006-0.931,1.61-1.208c0.594-0.278,1.237-0.422,1.917-0.422h0.432
		c-0.086-0.221-0.163-0.441-0.23-0.671l-0.01-0.02c-0.134-0.489-0.201-1.016-0.201-1.543v-0.02c0-0.729,0.134-1.419,0.374-2.061
		c0.249-0.672,0.613-1.275,1.064-1.783c0.46-0.509,1.006-0.93,1.61-1.208c0.594-0.278,1.237-0.422,1.917-0.422h1.026V54.143
		c-3.518-2.607-7.563-6.768-10.343-9.625c-0.892-0.92-1.649-1.697-2.214-2.243l-0.048-0.048c-1.236-1.064-2.051-2.205-2.511-3.327
		c-0.527-1.294-0.595-2.569-0.316-3.69c0.115-0.441,0.278-0.873,0.489-1.266c0.221-0.402,0.489-0.767,0.796-1.093
		c0.316-0.335,0.671-0.623,1.054-0.853s0.805-0.422,1.256-0.565c1.045-0.316,2.243-0.336,3.47,0.038
		c1.083,0.335,2.195,0.978,3.259,2.003c0.153,0.144,0.441,0.422,0.805,0.767l0.518,0.489v-0.24c0-0.211,0.01-0.421,0.029-0.642
		c0.019-0.192,0.039-0.383,0.067-0.594V11.417c0-0.709,0.153-1.399,0.421-2.023c0.278-0.652,0.69-1.227,1.199-1.716
		c0.508-0.489,1.112-0.882,1.783-1.141c0.652-0.259,1.352-0.403,2.09-0.403c0.556,0,1.093,0.086,1.601,0.23
		c0.249,0.077,0.489,0.163,0.719,0.268V6.384c0-0.709,0.153-1.399,0.422-2.023c0.278-0.652,0.69-1.227,1.198-1.716
		s1.112-0.882,1.783-1.141c0.652-0.259,1.361-0.403,2.099-0.403s1.438,0.144,2.09,0.403c0.671,0.269,1.275,0.662,1.783,1.141
		c0.508,0.489,0.92,1.064,1.198,1.716c0.268,0.624,0.422,1.313,0.422,2.023l0,0v0.211c0.239-0.105,0.479-0.202,0.729-0.278
		c0.527-0.163,1.083-0.249,1.639-0.249h0.009c0.738,0,1.438,0.144,2.09,0.403c0.671,0.268,1.275,0.661,1.783,1.141
		c0.508,0.489,0.92,1.064,1.198,1.716c0.269,0.623,0.422,1.313,0.422,2.022v0.489C44.372,11.762,44.602,11.676,44.841,11.609
		L44.841,11.609z M24.893,55.513v14.648h11.609l0,0h0.009c0.077,0,0.153,0.01,0.23,0.02c0.039,0.009,0.077,0.009,0.105,0.019
		c0.115-0.01,0.24-0.019,0.364-0.028l0,0c0.163-0.01,0.326-0.02,0.47-0.02h6.433V54.315c0-2.473,0.077-2.521,0.814-2.991
		c0.307-0.192,0.786-0.499,1.534-1.476c0.7-0.901,1.246-1.917,1.629-3.01c0.364-1.055,0.556-2.186,0.556-3.355v-9.001l0,0
		c0-0.077,0-0.144-0.01-0.221V16.68c0-0.278-0.058-0.546-0.153-0.786l-0.009-0.019c-0.115-0.259-0.278-0.499-0.489-0.7
		c-0.201-0.192-0.441-0.355-0.709-0.46l-0.019-0.01c-0.259-0.105-0.556-0.163-0.863-0.163c-0.307,0-0.594,0.058-0.863,0.163
		c-0.278,0.105-0.527,0.269-0.729,0.47c-0.211,0.201-0.374,0.431-0.489,0.69c-0.105,0.25-0.163,0.518-0.163,0.806l0,0v9.394v0.048
		c0,0.268-0.22,0.489-0.489,0.489H41.39c-0.269,0-0.489-0.221-0.489-0.489V11.369c0-0.288-0.058-0.556-0.163-0.805
		c-0.115-0.259-0.278-0.499-0.489-0.69l0,0c-0.211-0.201-0.451-0.364-0.729-0.47c-0.259-0.105-0.556-0.163-0.863-0.163
		s-0.594,0.058-0.863,0.163c-0.278,0.105-0.527,0.269-0.729,0.47c-0.211,0.201-0.374,0.432-0.489,0.69
		c-0.105,0.249-0.163,0.518-0.163,0.805v14.744c0,0.268-0.221,0.489-0.489,0.489H33.52c-0.269,0-0.489-0.221-0.489-0.489V6.394
		c0-0.278-0.058-0.546-0.154-0.786l-0.009-0.02c-0.115-0.259-0.278-0.499-0.489-0.69c-0.211-0.201-0.46-0.364-0.729-0.47
		c-0.259-0.105-0.556-0.163-0.862-0.163c-0.297,0-0.585,0.058-0.834,0.153h-0.02c-0.278,0.105-0.527,0.269-0.729,0.47
		c-0.211,0.201-0.374,0.432-0.489,0.69c-0.105,0.249-0.163,0.518-0.163,0.805v19.729c0,0.268-0.22,0.489-0.489,0.489h-2.349
		c-0.269,0-0.489-0.221-0.489-0.489V11.417c0-0.288-0.058-0.556-0.163-0.805c-0.115-0.259-0.288-0.499-0.489-0.69
		c-0.211-0.201-0.451-0.364-0.729-0.47c-0.259-0.105-0.556-0.163-0.863-0.163c-0.307,0-0.595,0.057-0.863,0.163
		c-0.269,0.105-0.508,0.259-0.709,0.451l-0.019,0.019c-0.211,0.202-0.374,0.432-0.489,0.7c-0.105,0.25-0.163,0.518-0.163,0.806
		c0,3.566-0.02,7.563-0.029,11.551c-0.019,3.518-0.029,7.026-0.029,11.513l-0.269,4.333c-0.009,0.173-0.115,0.335-0.278,0.412
		l-0.863,0.403c-0.077,0.039-0.153,0.067-0.25,0.067l0,0c-0.153,0-0.307-0.019-0.46-0.067s-0.297-0.105-0.422-0.192
		c-0.288-0.163-0.652-0.421-1.035-0.729c-0.403-0.326-0.815-0.681-1.217-1.035c-0.854-0.767-1.745-1.62-2.081-1.946l0,0
		c-0.632-0.604-1.255-0.988-1.831-1.198c-0.614-0.211-1.179-0.23-1.649-0.086c-0.163,0.048-0.326,0.125-0.479,0.22l0,0
		c-0.153,0.096-0.288,0.202-0.412,0.336l0,0c-0.125,0.125-0.23,0.278-0.316,0.431c-0.086,0.163-0.153,0.335-0.201,0.518
		c-0.144,0.565-0.086,1.227,0.24,1.937c0.297,0.652,0.805,1.323,1.582,1.994l0.039,0.029l0.086,0.077l0.058,0.058
		c0.316,0.307,0.757,0.748,1.313,1.304c2.569,2.569,7.381,7.372,11.082,10.075c0.038,0.029,0.077,0.058,0.115,0.096
		c0.259,0.297,0.479,0.614,0.681,0.949c0.202,0.335,0.364,0.69,0.499,1.055c0.105,0.316,0.192,0.632,0.24,0.968
		c0.048,0.316,0.067,0.652,0.058,1.007L24.893,55.513L24.893,55.513z M47.813,53.136v17.14c1.342,0.201,2.617,0.623,3.796,1.236
		c1.304,0.681,2.493,1.61,3.518,2.713h11.178c0.23-1.304,0.643-2.56,1.227-3.72c0.681-1.361,1.582-2.588,2.665-3.652v-17.13
		c-1.342-0.201-2.616-0.623-3.796-1.236c-1.313-0.681-2.492-1.61-3.518-2.713H51.695c-0.23,1.304-0.642,2.56-1.227,3.719
		C49.797,50.835,48.887,52.072,47.813,53.136L47.813,53.136z M66.113,85.519v-7.583h-9.913c-2.339,0-2.377-0.077-2.828-0.824
		c-0.182-0.307-0.46-0.776-1.371-1.534c-0.843-0.699-1.783-1.246-2.799-1.62c-0.978-0.364-2.033-0.556-3.116-0.556H37.68l0,0
		c-0.067,0-0.134,0-0.211,0.01H20.167c-0.259,0-0.499,0.058-0.729,0.163c-0.24,0.114-0.451,0.277-0.633,0.479
		c-0.182,0.211-0.335,0.461-0.441,0.729c-0.096,0.269-0.153,0.557-0.153,0.873c0,0.307,0.058,0.604,0.153,0.872
		c0.105,0.278,0.259,0.527,0.441,0.738c0.182,0.201,0.393,0.364,0.633,0.479c0.22,0.105,0.47,0.162,0.729,0.162l0,0h9.653h0.048
		c0.269,0,0.489,0.221,0.489,0.489v2.272c0,0.268-0.22,0.488-0.489,0.488H15.201c-0.259,0-0.499,0.058-0.729,0.163
		c-0.24,0.115-0.46,0.278-0.642,0.479c-0.182,0.211-0.335,0.46-0.441,0.729c-0.096,0.269-0.154,0.556-0.154,0.872
		c0,0.307,0.058,0.604,0.154,0.872c0.105,0.278,0.259,0.527,0.441,0.738c0.182,0.201,0.393,0.364,0.642,0.479
		c0.221,0.105,0.47,0.163,0.729,0.163h14.657c0.269,0,0.489,0.221,0.489,0.489v2.406c0,0.268-0.22,0.488-0.489,0.488H10.551
		c-0.259,0-0.499,0.058-0.729,0.163l0,0c-0.24,0.115-0.46,0.278-0.632,0.479c-0.182,0.211-0.336,0.46-0.441,0.738
		c-0.096,0.269-0.153,0.556-0.153,0.872s0.058,0.604,0.153,0.872c0.096,0.269,0.24,0.509,0.422,0.71l0.02,0.019
		c0.182,0.201,0.402,0.364,0.642,0.479c0.22,0.105,0.47,0.163,0.729,0.163h19.307c0.269,0,0.489,0.221,0.489,0.489v2.349
		c0,0.268-0.22,0.488-0.489,0.488H15.249c-0.259,0-0.499,0.058-0.729,0.163l0,0c-0.23,0.105-0.441,0.259-0.613,0.45l-0.02,0.029
		c-0.182,0.211-0.335,0.46-0.441,0.729c-0.096,0.269-0.153,0.556-0.153,0.872c0,0.307,0.058,0.604,0.153,0.872
		c0.105,0.278,0.25,0.527,0.441,0.738c0.173,0.201,0.384,0.355,0.614,0.47l0.019,0.01c0.221,0.105,0.47,0.163,0.729,0.163
		c3.317,0,7.276,0.02,11.235,0.028c3.489,0.02,6.979,0.029,11.196,0.029l4.045,0.269c0.173,0.01,0.335,0.115,0.412,0.287
		l0.384,0.863c0.038,0.066,0.058,0.144,0.058,0.229l0,0c0,0.153-0.02,0.307-0.058,0.451c-0.039,0.134-0.096,0.269-0.173,0.402
		c-0.153,0.297-0.402,0.661-0.69,1.055c-0.278,0.364-0.614,0.786-0.978,1.217c-0.709,0.844-1.466,1.697-1.783,2.052l-0.029,0.038
		c-0.566,0.633-0.93,1.256-1.112,1.831c-0.201,0.623-0.211,1.188-0.077,1.668l0,0c0.048,0.173,0.115,0.336,0.202,0.479
		c0.086,0.153,0.191,0.288,0.316,0.412c0.115,0.125,0.25,0.221,0.403,0.307c0.144,0.087,0.307,0.153,0.47,0.192
		c0.508,0.134,1.122,0.076,1.764-0.23c0.595-0.287,1.227-0.796,1.841-1.563l0.029-0.048l0.077-0.086l0.067-0.077
		c0.326-0.354,0.719-0.776,1.198-1.294c2.396-2.569,6.883-7.382,9.414-11.082c0.029-0.038,0.058-0.076,0.096-0.115
		c0.278-0.249,0.575-0.488,0.892-0.689c0.316-0.201,0.642-0.374,0.997-0.499c0.297-0.105,0.595-0.191,0.92-0.239
		c0.307-0.048,0.623-0.067,0.949-0.058h8.819V86.813l0,0v-0.01c0-0.077,0.01-0.153,0.02-0.23l0,0c0.01-0.038,0.02-0.086,0.02-0.124
		c-0.01-0.125-0.029-0.259-0.029-0.403C66.113,85.835,66.113,85.672,66.113,85.519L66.113,85.519z M51.896,34.481v7.583h9.912
		c2.339,0,2.378,0.077,2.828,0.824c0.182,0.307,0.46,0.777,1.371,1.534c0.844,0.7,1.783,1.246,2.799,1.62
		c0.978,0.364,2.032,0.556,3.115,0.556h8.407l0,0c0.067,0,0.135,0,0.211-0.009h17.063c0.259,0,0.498-0.058,0.729-0.163
		c0.239-0.115,0.45-0.278,0.643-0.479c0.182-0.211,0.335-0.46,0.44-0.729c0.096-0.269,0.153-0.556,0.153-0.872
		c0-0.307-0.058-0.604-0.153-0.873c-0.105-0.278-0.259-0.527-0.44-0.738c-0.183-0.201-0.394-0.364-0.633-0.479
		c-0.221-0.105-0.47-0.163-0.729-0.163l0,0h-9.414h-0.048c-0.269,0-0.488-0.221-0.488-0.489v-2.272c0-0.269,0.22-0.489,0.488-0.489
		h14.428c0.259,0,0.498-0.058,0.729-0.163c0.229-0.105,0.44-0.259,0.613-0.451l0.02-0.029c0.182-0.211,0.335-0.46,0.44-0.729
		c0.096-0.269,0.153-0.556,0.153-0.872c0-0.307-0.058-0.604-0.153-0.873c-0.105-0.278-0.259-0.527-0.44-0.738
		c-0.183-0.201-0.394-0.364-0.643-0.479c-0.221-0.105-0.47-0.163-0.729-0.163H88.142c-0.268,0-0.488-0.221-0.488-0.489v-2.406
		c0-0.269,0.221-0.489,0.488-0.489h19.077c0.259,0,0.498-0.058,0.729-0.163c0.239-0.115,0.46-0.278,0.642-0.479
		c0.183-0.211,0.336-0.46,0.441-0.729c0.096-0.269,0.153-0.556,0.153-0.872c0-0.307-0.058-0.604-0.153-0.873
		s-0.239-0.508-0.422-0.709l-0.02-0.019c-0.182-0.201-0.402-0.364-0.632-0.479c-0.221-0.105-0.47-0.163-0.729-0.163H88.151
		c-0.269,0-0.488-0.221-0.488-0.489v-2.349c0-0.268,0.22-0.489,0.488-0.489h14.38c0.259,0,0.498-0.058,0.729-0.163
		c0.239-0.115,0.46-0.278,0.642-0.479c0.183-0.211,0.336-0.46,0.441-0.729c0.096-0.269,0.153-0.556,0.153-0.873
		c0-0.307-0.058-0.604-0.153-0.872c-0.105-0.278-0.249-0.527-0.441-0.738c-0.182-0.201-0.402-0.364-0.642-0.479
		c-0.221-0.105-0.47-0.163-0.729-0.163c-3.317,0-7.219-0.019-11.11-0.028c-3.433-0.01-6.864-0.029-11.072-0.029l-4.064-0.24
		c-0.173-0.01-0.336-0.115-0.412-0.288l-0.384-0.863c-0.038-0.067-0.058-0.144-0.058-0.23l0,0c0-0.153,0.02-0.307,0.058-0.451
		c0.038-0.134,0.096-0.269,0.173-0.402c0.153-0.297,0.402-0.662,0.689-1.055c0.278-0.364,0.614-0.786,0.979-1.217
		c0.699-0.834,1.457-1.678,1.782-2.042l0.039-0.048c0.565-0.633,0.93-1.256,1.111-1.831c0.202-0.623,0.211-1.189,0.077-1.668l0,0
		c-0.048-0.173-0.115-0.335-0.201-0.479c-0.087-0.153-0.192-0.288-0.316-0.412c-0.115-0.125-0.249-0.221-0.402-0.307
		c-0.145-0.096-0.308-0.163-0.47-0.211c-0.509-0.134-1.122-0.077-1.765,0.23c-0.594,0.288-1.227,0.796-1.84,1.563l-0.029,0.048
		l-0.076,0.086l-0.087,0.086c-0.325,0.354-0.719,0.776-1.198,1.294c-2.396,2.569-6.883,7.381-9.413,11.082
		c-0.029,0.039-0.058,0.077-0.096,0.115c-0.278,0.249-0.575,0.479-0.892,0.69c-0.316,0.202-0.643,0.374-0.997,0.499
		c-0.297,0.105-0.595,0.192-0.921,0.24c-0.307,0.048-0.623,0.067-0.948,0.058h-8.82v10.372l0,0v0.01c0,0.077-0.009,0.153-0.019,0.23
		l0,0c-0.009,0.039-0.019,0.086-0.019,0.125c0.01,0.125,0.029,0.259,0.029,0.403C51.887,34.165,51.896,34.328,51.896,34.481
		L51.896,34.481z M80.319,49.848h-6.432v15.846c0,2.473-0.077,2.521-0.815,2.99c-0.307,0.192-0.786,0.499-1.533,1.477
		c-0.7,0.901-1.246,1.917-1.63,3.01c-0.364,1.055-0.556,2.186-0.556,3.355v9.001l0,0c0,0.077,0,0.145,0.009,0.221v17.581
		c0,0.278,0.058,0.537,0.153,0.776l0.01,0.02c0.115,0.259,0.278,0.498,0.489,0.7c0.211,0.201,0.46,0.364,0.729,0.47
		c0.259,0.104,0.556,0.162,0.862,0.162s0.595-0.058,0.863-0.162c0.277-0.105,0.527-0.269,0.729-0.47
		c0.211-0.202,0.374-0.432,0.488-0.69c0.105-0.249,0.163-0.518,0.163-0.806l0,0v-9.395v-0.048c0-0.269,0.221-0.488,0.489-0.488
		h2.271c0.269,0,0.489,0.22,0.489,0.488v14.744c0,0.287,0.058,0.556,0.163,0.805s0.269,0.479,0.46,0.671l0.029,0.02
		c0.201,0.191,0.44,0.354,0.709,0.46l0.02,0.01c0.259,0.105,0.556,0.163,0.862,0.163s0.595-0.058,0.863-0.163l0,0
		c0.277-0.105,0.518-0.269,0.729-0.47s0.373-0.432,0.488-0.69c0.105-0.249,0.163-0.518,0.163-0.805V93.887
		c0-0.269,0.221-0.488,0.489-0.488h2.406c0.268,0,0.488,0.22,0.488,0.488v19.729c0,0.288,0.058,0.556,0.163,0.806
		c0.115,0.259,0.278,0.498,0.489,0.689c0.211,0.201,0.46,0.364,0.729,0.47c0.259,0.105,0.556,0.163,0.862,0.163
		c0.298,0,0.585-0.058,0.834-0.153l0.02-0.01c0.278-0.105,0.527-0.269,0.729-0.47c0.211-0.201,0.374-0.431,0.489-0.689
		c0.105-0.25,0.162-0.518,0.162-0.806V93.887c0-0.269,0.221-0.488,0.489-0.488h2.349c0.269,0,0.489,0.22,0.489,0.488v14.695
		c0,0.288,0.058,0.557,0.163,0.806c0.114,0.259,0.277,0.498,0.488,0.7c0.211,0.201,0.451,0.364,0.729,0.47
		c0.259,0.105,0.557,0.163,0.863,0.163s0.594-0.058,0.862-0.163c0.278-0.105,0.518-0.269,0.729-0.47
		c0.211-0.202,0.374-0.432,0.489-0.7c0.105-0.249,0.163-0.518,0.163-0.806c0-3.565,0.019-7.563,0.028-11.551
		c0.02-3.519,0.029-7.026,0.029-11.513l0.268-4.333c0.01-0.173,0.115-0.336,0.278-0.412l0.863-0.403
		c0.076-0.038,0.153-0.066,0.249-0.066l0,0c0.153,0,0.307,0.019,0.46,0.066s0.297,0.105,0.422,0.192
		c0.287,0.162,0.651,0.422,1.035,0.729c0.402,0.325,0.814,0.681,1.218,1.035c0.853,0.767,1.744,1.62,2.08,1.945l0,0
		c0.633,0.604,1.256,0.988,1.831,1.199c0.613,0.22,1.179,0.229,1.648,0.086c0.163-0.048,0.326-0.125,0.479-0.221
		s0.287-0.211,0.412-0.335l0,0c0.125-0.125,0.23-0.278,0.316-0.432c0.086-0.163,0.153-0.336,0.201-0.518
		c0.144-0.565,0.086-1.228-0.239-1.937c-0.298-0.652-0.806-1.323-1.582-1.994l-0.038-0.028l-0.087-0.077l-0.058-0.058
		c-0.315-0.307-0.757-0.748-1.304-1.294c-2.568-2.569-7.381-7.372-11.081-10.085c-0.038-0.028-0.077-0.058-0.115-0.096
		c-0.249-0.297-0.479-0.613-0.681-0.949c-0.201-0.335-0.364-0.689-0.498-1.054c-0.105-0.316-0.192-0.633-0.24-0.969
		c-0.048-0.316-0.066-0.651-0.058-1.007V49.829H81.489l0,0h-0.01c-0.076,0-0.153-0.009-0.229-0.019
		c-0.039-0.01-0.077-0.01-0.105-0.019c-0.115,0.009-0.23,0.019-0.355,0.029H80.78C80.626,49.838,80.473,49.848,80.319,49.848
		L80.319,49.848z"/>
</g>
</svg>
