<?xml version="1.0" encoding="UTF-8"?>
<svg id="Capa_1" xmlns="http://www.w3.org/2000/svg" version="1.1" viewBox="0 0 512 512">
  <!-- Generator: Adobe Illustrator 29.0.1, SVG Export Plug-In . SVG Version: 2.1.0 Build 192)  -->
  <defs>
    <style>
      .st0 {
        fill: #e31e34;
      }
    </style>
  </defs>
  <path class="st0" d="M492,415.4h-13.2v-255.9c0-17-13.8-30.8-30.8-30.8h-36.6V54.4c0-14.8-12.1-26.9-26.9-26.9h-195c-4.1,0-7.5,3.4-7.5,7.5s3.4,7.5,7.5,7.5h195c6.6,0,11.9,5.3,11.9,11.9v21.1H115.7v-21.1c0-6.6,5.3-11.9,11.9-11.9h31.9c4.1,0,7.5-3.4,7.5-7.5s-3.4-7.5-7.5-7.5h-31.9c-14.8,0-26.9,12.1-26.9,26.9v74.2h-36.6c-17,0-30.8,13.8-30.8,30.8v255.9h-13.2C9,415.4,0,424.4,0,435.4v29C0,475.5,9,484.5,20,484.5h96.4c4.1,0,7.5-3.4,7.5-7.5s-3.4-7.5-7.5-7.5H20c-2.8,0-5-2.3-5-5v-29c0-2.8,2.3-5,5-5h181l7.8,21.6c1.8,5.1,6.7,8.5,12,8.5h70.3c5.4,0,10.2-3.4,12-8.5l7.8-21.6h181c2.8,0,5,2.3,5,5v29c0,2.8-2.3,5-5,5H146.4c-4.1,0-7.5,3.4-7.5,7.5s3.4,7.5,7.5,7.5h345.5c11,0,20-9,20-20v-29c0-11-9-20-20-20h0ZM396.3,90.5v239.3c0,6.6-5.3,11.9-11.9,11.9H127.6c-6.6,0-11.9-5.3-11.9-11.9V90.5h280.7ZM289.6,445.4h-67.2l-5.4-15.1h78l-5.4,15.1ZM48.3,415.4v-255.9c0-8.7,7.1-15.8,15.8-15.8h36.6v15h-25.7c-6.4,0-11.7,5.2-11.7,11.7v218.4c0,6.4,5.2,11.7,11.7,11.7h362.1c6.4,0,11.7-5.2,11.7-11.7v-136.1c0-4.1-3.4-7.5-7.5-7.5s-7.5,3.4-7.5,7.5v132.7H78.3v-211.7h22.4v156.2c0,14.8,12.1,26.9,26.9,26.9h256.8c14.8,0,26.9-12.1,26.9-26.9v-156.2h22.4v49c0,4.1,3.4,7.5,7.5,7.5s7.5-3.4,7.5-7.5v-52.4c0-6.4-5.2-11.7-11.7-11.7h-25.7v-15h36.6c8.7,0,15.8,7.1,15.8,15.8v255.9H48.3Z"/>
  <path class="st0" d="M138.4,51.5c-4.1,0-7.5,3.4-7.5,7.5s3.4,7.5,7.5,7.5h4.6c4.1,0,7.5-3.4,7.5-7.5s-3.4-7.5-7.5-7.5h-4.6Z"/>
  <path class="st0" d="M162.4,59c0,4.1,3.4,7.5,7.5,7.5h4.6c4.1,0,7.5-3.4,7.5-7.5s-3.4-7.5-7.5-7.5h-4.6c-4.1,0-7.5,3.4-7.5,7.5Z"/>
  <path class="st0" d="M205.9,66.5c4.1,0,7.5-3.4,7.5-7.5s-3.4-7.5-7.5-7.5h-4.6c-4.1,0-7.5,3.4-7.5,7.5s3.4,7.5,7.5,7.5h4.6Z"/>
  <path class="st0" d="M151.8,168.7l5.6,23.5c1,4,5,6.5,9,5.6,4-1,6.5-5,5.6-9l-4.6-19.3h3.7l32.8,12.3c2.3.9,4.9.5,6.9-.9,2-1.4,3.2-3.7,3.2-6.2v-64.5c0-2.5-1.2-4.8-3.2-6.2s-4.6-1.7-6.9-.9l-32.8,12.3h-13.2c-14.9,0-27,12.1-27,27s8.9,23.5,20.9,26.3h0ZM199.1,163.8l-19.1-7.1v-28.6l19.1-7.1v42.9ZM157.9,130.4h7.1v24h-7.1c-6.6,0-12-5.4-12-12s5.4-12,12-12h0Z"/>
  <path class="st0" d="M233.4,149.9h6.3c4.1,0,7.5-3.4,7.5-7.5s-3.4-7.5-7.5-7.5h-6.3c-4.1,0-7.5,3.4-7.5,7.5s3.4,7.5,7.5,7.5Z"/>
  <path class="st0" d="M233.4,123.6c.6,0,1.1,0,1.7-.2l6.1-1.4c4-.9,6.5-5,5.6-9-.9-4-5-6.5-9-5.6l-6.1,1.4c-4,.9-6.5,5-5.6,9,.8,3.5,3.9,5.8,7.3,5.8Z"/>
  <path class="st0" d="M237.9,177.4c.6.1,1.1.2,1.7.2,3.4,0,6.5-2.3,7.3-5.8.9-4-1.6-8.1-5.6-9l-6.1-1.4c-4-.9-8.1,1.6-9,5.6-.9,4,1.6,8.1,5.6,9l6.1,1.4Z"/>
  <path class="st0" d="M323.7,122.3h46.6c4.1,0,7.5-3.4,7.5-7.5s-3.4-7.5-7.5-7.5h-46.6c-4.1,0-7.5,3.4-7.5,7.5s3.4,7.5,7.5,7.5Z"/>
  <path class="st0" d="M283.7,156.1h86.6c4.1,0,7.5-3.4,7.5-7.5s-3.4-7.5-7.5-7.5h-86.6c-4.1,0-7.5,3.4-7.5,7.5s3.4,7.5,7.5,7.5Z"/>
  <path class="st0" d="M283.7,189.9h86.6c4.1,0,7.5-3.4,7.5-7.5s-3.4-7.5-7.5-7.5h-86.6c-4.1,0-7.5,3.4-7.5,7.5s3.4,7.5,7.5,7.5Z"/>
  <path class="st0" d="M370.3,208.6h-166.6c-4.1,0-7.5,3.4-7.5,7.5s3.4,7.5,7.5,7.5h166.6c4.1,0,7.5-3.4,7.5-7.5s-3.4-7.5-7.5-7.5Z"/>
  <path class="st0" d="M370.3,242.4h-228.6c-4.1,0-7.5,3.4-7.5,7.5s3.4,7.5,7.5,7.5h228.6c4.1,0,7.5-3.4,7.5-7.5s-3.4-7.5-7.5-7.5Z"/>
  <path class="st0" d="M370.3,276.2h-228.6c-4.1,0-7.5,3.4-7.5,7.5s3.4,7.5,7.5,7.5h228.6c4.1,0,7.5-3.4,7.5-7.5s-3.4-7.5-7.5-7.5Z"/>
  <path class="st0" d="M370.3,309.9h-228.6c-4.1,0-7.5,3.4-7.5,7.5s3.4,7.5,7.5,7.5h228.6c4.1,0,7.5-3.4,7.5-7.5s-3.4-7.5-7.5-7.5Z"/>
</svg>