<?xml version="1.0" encoding="UTF-8"?>
<svg id="Capa_1" xmlns="http://www.w3.org/2000/svg" version="1.1" viewBox="0 0 512 512">
  <!-- Generator: Adobe Illustrator 29.0.1, SVG Export Plug-In . SVG Version: 2.1.0 Build 192)  -->
  <defs>
    <style>
      .st0 {
        fill: #e31e34;
      }
    </style>
  </defs>
  <path class="st0" d="M454.8,33.1h-9.1v-9.1C445.7,10.8,434.9,0,421.7,0s-24.1,10.8-24.1,24.1v9.1h-34.7v-9.1C362.9,10.8,352.1,0,338.8,0s-24.1,10.8-24.1,24.1v9.1h-34.7v-9.1C280.1,10.8,269.3,0,256,0s-24.1,10.8-24.1,24.1v9.1h-34.7v-9.1C197.2,10.8,186.4,0,173.2,0s-24.1,10.8-24.1,24.1v9.1h-9.1c-22.4,0-40.6,18.2-40.6,40.6v183.5l-18.3-18.3c-9.4-9.4-24.7-9.4-34,0l-23.4,23.4c-9.4,9.4-9.4,24.7,0,34l75.8,75.8v99.1c0,22.4,18.2,40.6,40.6,40.6h255.1c4.1,0,7.5-3.4,7.5-7.5s-3.4-7.5-7.5-7.5h-255.1c-14.1,0-25.6-11.5-25.6-25.6v-84.1l61.2,61.2c.2.2.4.3.6.5.1.1.3.2.4.3,0,0,.1,0,.2.1.2.1.3.2.5.3,0,0,0,0,.1,0,.2.1.4.2.6.3,0,0,0,0,0,0,.2,0,.4.1.6.2,0,0,0,0,.1,0,.2,0,.4,0,.6.1,0,0,.1,0,.2,0,.2,0,.4,0,.5,0,0,0,.1,0,.2,0,.2,0,.5,0,.7,0h43.8l9.5,9.5c1.5,1.5,3.4,2.2,5.3,2.2s3.8-.7,5.3-2.2c2.9-2.9,2.9-7.7,0-10.6l-9.5-9.5v-43.7c0-.2,0-.5,0-.7,0,0,0-.1,0-.2,0-.2,0-.4,0-.6,0,0,0,0,0-.1,0-.2,0-.4-.1-.6,0,0,0,0,0-.1,0-.2-.1-.4-.2-.6,0,0,0,0,0,0,0-.2-.2-.4-.3-.6,0,0,0,0,0,0-.1-.2-.2-.4-.3-.6,0,0,0-.1-.1-.2-.1-.1-.2-.3-.3-.4-.2-.2-.3-.4-.5-.6l-61.2-61.2h258.1c4.1,0,7.5-3.4,7.5-7.5s-3.4-7.5-7.5-7.5H164.9c-2.2,0-4.2,1-5.6,2.5l-44.9-44.9v-141.3h366v51.2c0,4.1,3.4,7.5,7.5,7.5s7.5-3.4,7.5-7.5v-108.4c0-22.4-18.2-40.6-40.6-40.6h0ZM220.3,435.6h-21.3l21.3-21.3v21.3ZM62.9,314.5l12.8-12.8,118,118-12.8,12.8-118-118ZM204.3,409.1l-118-118,12.8-12.8,118,118-12.8,12.8ZM34.2,273l23.4-23.4c3.5-3.5,9.3-3.5,12.8,0l18.1,18.1-36.3,36.2-18.1-18.1c-3.5-3.5-3.5-9.3,0-12.8ZM421.7,15c5,0,9.1,4.1,9.1,9.1v33.1c0,5-4.1,9.1-9.1,9.1s-9.1-4.1-9.1-9.1v-16.6h0v-16.6c0-5,4.1-9.1,9.1-9.1ZM338.8,15c5,0,9.1,4.1,9.1,9.1v33.1c0,5-4.1,9.1-9.1,9.1s-9.1-4.1-9.1-9.1v-16.6h0v-16.6c0-5,4.1-9.1,9.1-9.1ZM246.9,24.1c0-5,4.1-9.1,9.1-9.1s9.1,4.1,9.1,9.1v16.6h0v16.6c0,5-4.1,9.1-9.1,9.1s-9.1-4.1-9.1-9.1V24.1ZM173.2,15c5,0,9.1,4.1,9.1,9.1v33.1c0,5-4.1,9.1-9.1,9.1s-9.1-4.1-9.1-9.1V24.1c0-5,4.1-9.1,9.1-9.1ZM114.4,116v-42.2c0-14.1,11.5-25.6,25.6-25.6h9.1v9.1c0,13.3,10.8,24.1,24.1,24.1s24.1-10.8,24.1-24.1v-9.1h34.7v9.1c0,13.3,10.8,24.1,24.1,24.1s24.1-10.8,24.1-24.1v-9.1h34.7v9.1c0,13.3,10.8,24.1,24.1,24.1s24.1-10.8,24.1-24.1v-9.1h34.7v9.1c0,13.3,10.8,24.1,24.1,24.1s24.1-10.8,24.1-24.1v-9.1h9.1c14.1,0,25.6,11.5,25.6,25.6v42.2H114.4Z"/>
  <path class="st0" d="M487.9,204.6c-4.1,0-7.5,3.4-7.5,7.5v259.2c0,14.1-11.5,25.6-25.6,25.6h-29.6c-4.1,0-7.5,3.4-7.5,7.5s3.4,7.5,7.5,7.5h29.6c22.4,0,40.6-18.2,40.6-40.6V212.1c0-4.1-3.4-7.5-7.5-7.5h0Z"/>
  <path class="st0" d="M164.9,180.7h265.1c4.1,0,7.5-3.4,7.5-7.5s-3.4-7.5-7.5-7.5H164.9c-4.1,0-7.5,3.4-7.5,7.5s3.4,7.5,7.5,7.5h0Z"/>
  <path class="st0" d="M164.9,230.4h265.1c4.1,0,7.5-3.4,7.5-7.5s-3.4-7.5-7.5-7.5H164.9c-4.1,0-7.5,3.4-7.5,7.5s3.4,7.5,7.5,7.5h0Z"/>
  <path class="st0" d="M164.9,280.1h265.1c4.1,0,7.5-3.4,7.5-7.5s-3.4-7.5-7.5-7.5H164.9c-4.1,0-7.5,3.4-7.5,7.5s3.4,7.5,7.5,7.5h0Z"/>
  <path class="st0" d="M437.5,372c0-4.1-3.4-7.5-7.5-7.5h-174c-4.1,0-7.5,3.4-7.5,7.5s3.4,7.5,7.5,7.5h174c4.1,0,7.5-3.4,7.5-7.5Z"/>
</svg>