<?xml version="1.0" encoding="UTF-8"?>
<svg id="Layer_1" xmlns="http://www.w3.org/2000/svg" version="1.1" viewBox="0 0 256 256">
  <!-- Generator: Adobe Illustrator 29.0.1, SVG Export Plug-In . SVG Version: 2.1.0 Build 192)  -->
  <defs>
    <style>
      .st0 {
        fill: #e31e34;
      }

      .st1 {
        fill: none;
        stroke: #e31e34;
        stroke-linecap: round;
        stroke-miterlimit: 10;
        stroke-width: 8px;
      }
    </style>
  </defs>
  <path class="st0" d="M178.5,146.5l-20.5-11.7c-3.8-2.2-8.4-2.1-12.1.1l-13.8,8.3c-8.4-4.2-15.1-11-19.4-19.4l8.3-13.8c2.2-3.7,2.3-8.4.1-12.1l-11.7-20.5c-1.9-3.4-5.5-5.5-9.5-5.5-17.6,0-31.9,14.3-32,31.9,0,46.4,37.5,84.1,83.9,84.1,0,0,0,0,.1,0h.1c17.6,0,31.9-14.4,31.9-32,0-3.9-2.1-7.5-5.5-9.5ZM152.1,180h-.1c-42,0-76-34-76-76,0,0,0,0,0-.1,0-13.2,10.8-23.9,24-23.9,1,0,2,.6,2.5,1.5l11.7,20.5c.7,1.3.7,2.8,0,4l-9.4,15.6c-.7,1.1-.8,2.5-.2,3.7,5.2,11.6,14.5,20.9,26.1,26.1,1.2.5,2.6.5,3.7-.2l15.6-9.4c1.2-.7,2.8-.8,4,0l20.5,11.7c.9.5,1.5,1.5,1.5,2.5,0,13.2-10.7,23.9-23.9,24Z"/>
  <path class="st1" d="M210.1,78.3c-16.7-27.6-47-46-81.6-46-52.7,0-95.4,42.7-95.4,95.4s22,70.5,54,86"/>
  <path class="st1" d="M223.3,137.2c-4.8,48.2-45.5,85.8-94.9,85.8"/>
  <line class="st1" x1="210.1" y1="38.1" x2="210.1" y2="78.3"/>
  <line class="st1" x1="210" y1="78.3" x2="170.2" y2="78.3"/>
</svg>