<?xml version="1.0" encoding="UTF-8"?>
<svg id="Layer_1" xmlns="http://www.w3.org/2000/svg" version="1.1" viewBox="0 0 512 512">
  <!-- Generator: Adobe Illustrator 29.0.1, SVG Export Plug-In . SVG Version: 2.1.0 Build 192)  -->
  <defs>
    <style>
      .st0 {
        fill: #e31e34;
      }
    </style>
  </defs>
  <path class="st0" d="M291.1,242.8c1.5,3,4.5,4.7,7.6,4.7s2.6-.3,3.9-.9c.5-.3,50.7-25.8,75.5-33.6,4.5-1.4,7-6.2,5.6-10.7-1.4-4.5-6.2-7-10.7-5.6-26.1,8.3-76,33.6-78.1,34.7-4.2,2.1-5.9,7.3-3.7,11.5Z"/>
  <path class="st0" d="M298.7,145.1c1.3,0,2.6-.3,3.9-.9.5-.3,50.7-25.8,75.5-33.6,4.5-1.4,7-6.2,5.6-10.7-1.4-4.5-6.2-7-10.7-5.6-26.1,8.3-76,33.6-78.1,34.7-4.2,2.1-5.9,7.3-3.7,11.5,1.5,3,4.5,4.7,7.6,4.7Z"/>
  <path class="st0" d="M503.5,128c-4.7,0-8.5,3.8-8.5,8.5v332.8c0,14.1-11.5,25.6-25.6,25.6h-204.8v-19.6c12.4-4.4,44.9-14.5,76.8-14.5,74.3,0,124.8,16.5,125.3,16.6,2.6.9,5.4.4,7.7-1.2,2.2-1.6,3.5-4.2,3.5-6.9V93.9c0-4-2.8-7.5-6.7-8.3,0,0-6.7-1.5-18.1-3.6-4.6-.9-9.1,2.2-9.9,6.8-.9,4.6,2.2,9.1,6.8,9.9,4.4.8,8,1.5,10.8,2.1v357.2c-19.3-5.1-62.3-14.3-119.5-14.3s-73.7,12.2-85,16.4c-10-4.4-40.4-16.4-77.1-16.4-58.8,0-107.2,9.7-128,14.6V100.5c17-4.2,67.4-15.1,128-15.1s57.8,9.7,68.3,14.1v335.8c0,3.1,1.7,5.9,4.3,7.4,2.7,1.5,6,1.5,8.6-.1.8-.5,85.4-51,160.4-76,3.5-1.2,5.8-4.4,5.8-8.1V8.5c0-2.8-1.4-5.4-3.7-7-2.3-1.6-5.2-2-7.9-1-68.3,25.6-137.4,68.6-138.1,69-4,2.5-5.2,7.8-2.7,11.8,2.5,4,7.8,5.2,11.8,2.7.6-.4,60.7-37.8,123.5-63v331.3c-58.2,20.2-119.1,53.3-145.1,68.1V93.9c0-3.2-1.8-6.2-4.7-7.6-1.5-.7-36.4-18-80.6-18-77.1,0-136.4,16.7-138.9,17.4-3.7,1-6.2,4.4-6.2,8.2v375.5c0,2.7,1.3,5.2,3.4,6.8,1.5,1.1,3.3,1.7,5.1,1.7s1.6-.1,2.3-.3c.6-.2,59.6-16.7,134.2-16.7s57.9,9.7,68.3,14.1v20.1H42.7c-14.1,0-25.6-11.5-25.6-25.6V136.5c0-4.7-3.8-8.5-8.5-8.5S0,131.8,0,136.5v332.8c0,23.5,19.1,42.7,42.7,42.7h426.7c23.5,0,42.7-19.1,42.7-42.7V136.5c0-4.7-3.8-8.5-8.5-8.5Z"/>
  <path class="st0" d="M291.1,191.6c1.5,3,4.5,4.7,7.6,4.7s2.6-.3,3.9-.9c.5-.3,50.7-25.8,75.5-33.6,4.5-1.4,7-6.2,5.6-10.7-1.4-4.5-6.2-7-10.7-5.6-26.1,8.3-76,33.6-78.1,34.7-4.2,2.1-5.9,7.3-3.7,11.5Z"/>
  <path class="st0" d="M291.1,294c1.5,3,4.5,4.7,7.6,4.7s2.6-.3,3.9-.9c.5-.3,50.7-25.8,75.5-33.6,4.5-1.4,7-6.2,5.6-10.7-1.4-4.5-6.2-7-10.7-5.6-26.1,8.3-76,33.6-78.1,34.7-4.2,2.1-5.9,7.3-3.7,11.5Z"/>
  <path class="st0" d="M206.7,158.4c-52.7-12.4-112.6,3.4-115.1,4.1-4.5,1.2-7.3,5.9-6,10.5,1,3.8,4.5,6.3,8.2,6.3s1.5,0,2.2-.3c.6-.2,58.2-15.3,106.8-3.9,4.6,1.1,9.2-1.8,10.3-6.4,1.1-4.6-1.8-9.2-6.4-10.2Z"/>
  <path class="st0" d="M206.7,209.6c-52.7-12.4-112.6,3.4-115.1,4.1-4.5,1.2-7.3,5.9-6,10.5,1,3.8,4.5,6.3,8.2,6.3s1.5,0,2.2-.3c.6-.2,58.2-15.3,106.8-3.9,4.6,1.1,9.2-1.8,10.3-6.4,1.1-4.6-1.8-9.2-6.4-10.2Z"/>
  <path class="st0" d="M291.1,345.2c1.5,3,4.5,4.7,7.6,4.7s2.6-.3,3.9-.9c.5-.3,50.7-25.8,75.5-33.6,4.5-1.4,7-6.2,5.6-10.7-1.4-4.5-6.2-7-10.7-5.6-26.1,8.3-76,33.6-78.1,34.7-4.2,2.1-5.9,7.3-3.7,11.5Z"/>
  <path class="st0" d="M206.7,260.8c-52.7-12.4-112.6,3.4-115.1,4.1-4.5,1.2-7.3,5.9-6,10.5,1,3.8,4.5,6.3,8.2,6.3s1.5-.1,2.2-.3c.6-.2,58.2-15.3,106.8-3.9,4.6,1.1,9.2-1.8,10.3-6.4,1.1-4.6-1.8-9.2-6.4-10.2Z"/>
  <path class="st0" d="M206.7,363.2c-52.7-12.4-112.6,3.4-115.1,4.1-4.5,1.2-7.3,5.9-6,10.5,1,3.8,4.5,6.3,8.2,6.3s1.5-.1,2.2-.3c.6-.2,58.2-15.3,106.8-3.9,4.6,1.1,9.2-1.8,10.3-6.4,1.1-4.6-1.8-9.2-6.4-10.2Z"/>
  <path class="st0" d="M206.7,312c-52.7-12.4-112.6,3.4-115.1,4.1-4.5,1.2-7.3,5.9-6,10.5,1,3.8,4.5,6.3,8.2,6.3s1.5-.1,2.2-.3c.6-.2,58.2-15.3,106.8-3.9,4.6,1.1,9.2-1.8,10.3-6.4,1.1-4.6-1.8-9.2-6.4-10.2Z"/>
</svg>