<?xml version="1.0" encoding="UTF-8"?>
<svg id="Capa_1" xmlns="http://www.w3.org/2000/svg" version="1.1" viewBox="0 0 480 480">
  <!-- Generator: Adobe Illustrator 29.0.1, SVG Export Plug-In . SVG Version: 2.1.0 Build 192)  -->
  <defs>
    <style>
      .st0 {
        fill: #e31e34;
      }
    </style>
  </defs>
  <path class="st0" d="M400,40H0v400h480V40h-80ZM64,424H16v-48h48v48ZM64,360H16v-48h48v48ZM64,296H16v-48h48v48ZM64,232H16v-48h48v48ZM64,168H16v-48h48v48ZM64,104H16v-48h48v48ZM400,424H80V56h320v368ZM464,424h-48v-48h48v48ZM464,360h-48v-48h48v48ZM464,296h-48v-48h48v48ZM464,232h-48v-48h48v48ZM464,168h-48v-48h48v48ZM464,104h-48v-48h48v48Z"/>
  <path class="st0" d="M303,236c-.7-1.2-1.7-2.3-3-3l-112-64c-3.8-2.2-8.7-.9-10.9,2.9-.7,1.2-1.1,2.6-1.1,4v128c0,2.9,1.5,5.5,4,6.9,2.5,1.4,5.5,1.4,8,0l112-64c3.8-2.2,5.2-7.1,3-10.9ZM192,290.2v-100.4l87.9,50.2-87.9,50.2Z"/>
</svg>