<?xml version="1.0" encoding="utf-8"?>
<!-- Generator: Adobe Illustrator 25.3.1, SVG Export Plug-In . SVG Version: 6.00 Build 0)  -->
<svg version="1.1" id="Layer_1" xmlns="http://www.w3.org/2000/svg" xmlns:xlink="http://www.w3.org/1999/xlink" x="0px" y="0px"
	 viewBox="0 0 120 120" style="enable-background:new 0 0 120 120;" xml:space="preserve">
<style type="text/css">
	.st0{fill:#FFFFFF;}
</style>
<g>
	<path class="st0" d="M111,46L98.4,33.4c-1.1-1.1-3-1.1-4.1,0L83.1,44.6c0,0,0,0,0,0s0,0,0,0L54.3,73.4c-0.4,0.4-0.7,1-0.8,1.6
		L51,90.1c-0.2,0.9,0.2,1.9,0.8,2.5c0.6,0.6,1.3,0.9,2.1,0.9c0.2,0,0.3,0,0.5,0L69.4,91c0.6-0.1,1.2-0.4,1.6-0.8l40-40
		c0.5-0.5,0.9-1.3,0.9-2.1S111.5,46.6,111,46z M67.6,85.4L57.4,87l1.7-10.1l26-26l8.5,8.5L67.6,85.4z M97.7,55.2l-8.5-8.5l7.1-7.1
		l8.5,8.5L97.7,55.2z"/>
	<path class="st0" d="M96.8,75.5c-1.6,0-2.9,1.3-2.9,2.9v34.2H12.5V6.4h81.4v19c0,1.6,1.3,2.9,2.9,2.9s2.9-1.3,2.9-2.9V3.4
		c0-1.6-1.3-2.9-2.9-2.9H9.6C8,0.5,6.7,1.8,6.7,3.4v112.2c0,1.6,1.3,2.9,2.9,2.9h87.2c1.6,0,2.9-1.3,2.9-2.9V78.5
		C99.7,76.9,98.4,75.5,96.8,75.5z"/>
	<path class="st0" d="M44.9,16.9c-1.1-1.1-3-1.1-4.1,0L29.6,28l-4.4-4.4c-1.1-1.1-3-1.1-4.1,0c-1.1,1.1-1.1,3,0,4.1l6.5,6.5
		c0.6,0.6,1.3,0.9,2.1,0.9c0.7,0,1.5-0.3,2.1-0.9L44.9,21C46,19.9,46,18,44.9,16.9z"/>
	<path class="st0" d="M44.9,51.3c-1.1-1.1-3-1.1-4.1,0L29.6,62.4L25.2,58c-1.1-1.1-3-1.1-4.1,0c-1.1,1.1-1.1,3,0,4.1l6.5,6.5
		c0.6,0.6,1.3,0.9,2.1,0.9c0.7,0,1.5-0.3,2.1-0.9l13.2-13.2C46,54.3,46,52.4,44.9,51.3z"/>
	<path class="st0" d="M40.7,85.6L29.6,96.8l-4.4-4.4c-1.1-1.1-3-1.1-4.1,0c-1.1,1.1-1.1,3,0,4.1l6.5,6.5c0.5,0.5,1.3,0.9,2.1,0.9
		c0.8,0,1.5-0.3,2.1-0.9l13.2-13.2c1.1-1.1,1.1-3,0-4.1C43.7,84.5,41.9,84.5,40.7,85.6z"/>
</g>
</svg>
