<?xml version="1.0" encoding="utf-8"?>
<!-- Generator: Adobe Illustrator 25.3.1, SVG Export Plug-In . SVG Version: 6.00 Build 0)  -->
<svg version="1.1" id="Layer_1" xmlns="http://www.w3.org/2000/svg" xmlns:xlink="http://www.w3.org/1999/xlink" x="0px" y="0px"
	 viewBox="0 0 120 120" fill="#ffffff" style="enable-background:new 0 0 120 120;" xml:space="preserve">
<circle cx="81.1" cy="89.3" r="3.3"/>
<circle cx="92.4" cy="89.3" r="3.3"/>
<path d="M106.8,84.6c1.8,0,3.3-1.5,3.3-3.3v-2.1c0-5.4-4.4-9.8-9.8-9.8h-6.5V29.3c0-0.9-0.3-1.7-1-2.3l-3.3-3.3l0,0L70.7,4.8l0,0
	l-3.3-3.3c-0.6-0.6-1.5-1-2.3-1H24.8c-9,0-16.3,7.4-16.3,16.4v85.2c0,9.1,7.3,16.4,16.3,16.4H55h22.3c6.3,0,11.9-3.5,14.6-9h8.3
	c5.4,0,9.8-4.4,9.8-9.8v-7.1c0-1.8-1.5-3.3-3.3-3.3s-3.3,1.5-3.3,3.3v7.1c0,1.8-1.5,3.3-3.3,3.3H89.7H71.5c-0.5,0-1.1,0.1-1.6,0.4
	l-5.2,2.8l3.1-4.7c0.3-0.5,0.5-1.1,0.5-1.8V79.2c0-1.8,1.4-3.2,3.2-3.2h19h9.8c1.8,0,3.3,1.4,3.3,3.2v2.1
	C103.5,83.1,105,84.6,106.8,84.6z M82.5,26H71.6c-1.9,0-3.3-1.5-3.3-3.3v-11L82.5,26z M83.8,109.5c-1.8,1.5-4,2.4-6.5,2.4h-9.4
	l4.5-2.4H83.8z M71.5,69.4c-5.4,0-9.8,4.4-9.8,9.8v19.5L53.2,112H24.8c-5.4,0-9.8-4.4-9.8-9.8V16.9c0-5.4,4.4-9.8,9.8-9.8h37.1
	c-0.1,0.5-0.2,1-0.2,1.5v14.1c0,5.5,4.4,9.9,9.9,9.9h14.1c0.5,0,1-0.1,1.4-0.2v37.1L71.5,69.4L71.5,69.4z"/>
</svg>
