<?xml version="1.0" encoding="utf-8"?>
<!-- Generator: Adobe Illustrator 25.3.1, SVG Export Plug-In . SVG Version: 6.00 Build 0)  -->
<svg version="1.1" id="Layer_1" xmlns="http://www.w3.org/2000/svg" xmlns:xlink="http://www.w3.org/1999/xlink" x="0px" y="0px"
	 viewBox="0 0 120 120" style="enable-background:new 0 0 120 120;" xml:space="preserve">
<style type="text/css">
	.st0{fill:#FFFFFF;}
</style>
<g>
	<g>
		<g>
			<path class="st0" d="M99.2,59.5V28.3L71.5,0.5H0.3v118h99V95.7h19V59.5H99.2z M72.6,7l20.1,20.1H72.6V7z M95.4,114.7H4.1V4.3
				h64.7V31h26.6v28.5h-3.8v3.8h-1.3l-6.7-5.1l-5.3-10.6V34.8H67.5l-4.4,11.1v6.1l1.4,5.7H44.4l-2.3,11.5l2.5,10l-6.3,5.3v-3.9H7.9
				v30.5h30.5V89.4l7.3-6.2l0.4,1.5l4.5,9.1h36.2l1.9-1.9h3v3.8h3.8V114.7z M66.9,51.7v-5.1l3.2-8h4.4v10l6.1,12.2l8.5,6.4h2.5v20.9
				H87L85.1,90H52.8l-3.2-6.4L46,69l1.5-7.6h21.8L66.9,51.7z M18.3,103.3h3.6l12.6-10.7v14.5H11.7V84.3h22.8v3.4l-14,11.9h-0.2
				l-3.2-4.9l-3.2,2.1L18.3,103.3z M114.5,91.9h-19V63.3h19V91.9z"/>
			<path class="st0" d="M38.3,17.1l8.8-7.5l-2.5-2.9l-6.4,5.4V8.1H7.9v30.5h30.5V17.1z M34.5,15.3l-14,11.9h-0.2l-3.2-4.9l-3.2,2.1
				l4.4,6.6h3.6l12.6-10.7v14.5H11.7V11.9h22.8V15.3z"/>
			<path class="st0" d="M38.3,53.2l8.8-7.5l-2.5-2.9l-6.4,5.4v-3.9H7.9v30.5h30.5V53.2z M34.5,51.5l-14,11.9h-0.2l-3.2-4.9l-3.2,2.1
				l4.4,6.6h3.6l12.6-10.7v14.5H11.7V48.1h22.8V51.5z"/>
		</g>
	</g>
</g>
</svg>
