<?xml version="1.0" encoding="UTF-8"?>
<svg id="Capa_1" xmlns="http://www.w3.org/2000/svg" version="1.1" viewBox="0 0 512 512">
  <!-- Generator: Adobe Illustrator 29.0.1, SVG Export Plug-In . SVG Version: 2.1.0 Build 192)  -->
  <defs>
    <style>
      .st0 {
        fill: #e31e34;
      }
    </style>
  </defs>
  <path class="st0" d="M460.8,200.7V51.2c0-14.1-11.5-25.6-25.6-25.6h-8.5c0-14.1-11.5-25.6-25.6-25.6h-145.1c-9.8,0-19.2,4.3-25.6,11.8-6.4-7.5-15.8-11.8-25.6-11.8H59.7c-14.1,0-25.6,11.5-25.6,25.6h-8.5C11.5,25.6,0,37.1,0,51.2v315.7c0,14.1,11.5,25.6,25.6,25.6h281.6v42.7c0,42.4,34.4,76.8,76.8,76.8h51.2c42.4,0,76.8-34.4,76.8-76.8v-162.1c0-32.5-20.6-61.5-51.2-72.3ZM426.7,42.7h8.5c4.7,0,8.5,3.8,8.5,8.5v145.6c-2.8-.3-5.7-.5-8.5-.5h-8.5V42.7ZM85.3,17.1h51.2v112.2l-18.9-23.7c-1.6-2-4.1-3.2-6.7-3.2s-5,1.2-6.7,3.2l-18.9,23.7s0-112.2,0-112.2ZM51.2,25.6c0-4.7,3.8-8.5,8.5-8.5h8.5v136.5c0,3.6,2.3,6.9,5.7,8.1,3.4,1.2,7.2.1,9.5-2.7l27.5-34.3,27.5,34.3c1.6,2,4.1,3.2,6.7,3.2,2.3,0,4.4-.9,6-2.5,1.6-1.6,2.5-3.8,2.5-6V17.1h51.2c9.4,0,17.1,7.6,17.1,17.1v278.3c-5.3-3.4-11.5-5.2-17.9-5.3H51.2V25.6ZM51.2,324.3h152.8c9.4.3,17,7.7,17.7,17.1H51.2v-17.1ZM307.2,375.5H25.6c-4.7,0-8.5-3.8-8.5-8.5V51.2c0-4.7,3.8-8.5,8.5-8.5h8.5v307.2c0,4.7,3.8,8.5,8.5,8.5h264.5v17.1ZM307.2,341.3h-68.1c.7-9.4,8.3-16.7,17.7-17.1h50.3v17.1ZM307.2,307.2h-50.3c-6.4,0-12.6,1.9-17.9,5.3V34.1c0-9.4,7.6-17.1,17.1-17.1h145.1c4.7,0,8.5,3.8,8.5,8.5v170.7h-25.6c-42.4,0-76.8,34.4-76.8,76.8v34.1ZM401.1,213.3v110.9h-76.8v-51.2c0-33,26.8-59.7,59.7-59.7h17.1ZM494.9,435.2c0,33-26.8,59.7-59.7,59.7h-51.2c-33,0-59.7-26.8-59.7-59.7v-93.9h170.7v93.9h0ZM494.9,324.3h-76.8v-110.9h17.1c33,0,59.7,26.8,59.7,59.7v51.2Z"/>
</svg>