<?xml version="1.0" encoding="UTF-8"?>
<svg id="Capa_1" xmlns="http://www.w3.org/2000/svg" version="1.1" viewBox="0 0 512 512">
  <!-- Generator: Adobe Illustrator 29.0.1, SVG Export Plug-In . SVG Version: 2.1.0 Build 192)  -->
  <defs>
    <style>
      .st0 {
        fill: #e31e34;
      }
    </style>
  </defs>
  <path class="st0" d="M27.4,314.1c1.7,4.5,4.3,8.6,7.7,12,6,6,14.2,9.7,23.3,9.7s17.3-3.7,23.3-9.7c6-6,9.7-14.2,9.7-23.3v-18.3c-6.9.6-13-.9-17.8-2.9-.4,2.1-.9,4.1-1.5,6.1-2.4,7.7-6.3,14.6-12.5,19.6-6.3,5.1-14.7,8.1-25.8,7.5-2,0-4.1-.3-6.2-.7h0ZM221.7,265h65.9v-20.7h-50.8c-4.2,0-8,1.7-10.7,4.5-2.8,2.8-4.4,6.5-4.4,10.7v5.6ZM287.6,280h-65.9v22.8c0,9,3.7,17.3,9.7,23.3,6,6,14.2,9.7,23.3,9.7s17.3-3.7,23.3-9.7c6-6,9.7-14.2,9.7-23.3v-22.8h0ZM493.1,330c4,2.1,7.6,5,10.5,8.4,5.2,6.2,8.4,14.1,8.4,22.8v50.6c0,4.1-3.3,7.5-7.5,7.5s-7.5-3.3-7.5-7.5v-50.6c0-5-1.8-9.6-4.8-13.1-2.7-3.1-6.3-5.5-10.4-6.6-7.9,5.8-17.6,9.2-28.1,9.2s-20.9-3.6-29-9.8c-1.5.2-3,.6-4.4,1.2-1.9.9-3.7,2.3-5.1,4.2l-40.3,53.3c-1.4,1.9-3.6,3-6,3h-51.6c-3.8,0-7.3,1.5-9.8,4-2.5,2.5-4.1,6-4.1,9.8s1.6,7.3,4.1,9.8c2.5,2.5,6,4.1,9.8,4.1h61.7c2.5,0,4.4-.3,6.7-1.4,4.4-2.2,8.4-8.8,11.4-12.8l26.7-35.3c2.5-3.3,7.2-4,10.5-1.5,3.3,2.5,3.9,7.2,1.4,10.5l-25.4,33.6v65.4h86.7v-43.1c0-4.1,3.4-7.5,7.5-7.5s7.5,3.3,7.5,7.5v50.6c0,4.1-3.3,7.5-7.5,7.5H7.5C3.4,503.8,0,500.5,0,496.3v-50.6c0-4.1,3.4-7.5,7.5-7.5s7.5,3.3,7.5,7.5v43.1h86.7v-65.4l-25.4-33.6c-2.5-3.3-1.8-8,1.5-10.5,3.3-2.5,8-1.8,10.5,1.5l26.1,34.5c2.4,3.1,4.8,6.3,7.1,9.5,1.4,1.8,3,3.1,4.9,4.1,2.1,1,4,1.4,6.3,1.4h62.1c3.8,0,7.3-1.6,9.8-4.1,2.5-2.5,4-6,4-9.8s-1.5-7.3-4-9.8c-2.5-2.5-6-4-9.8-4h-51.6c-2.3,0-4.5-1-6-3l-40.3-53.3c-2.3-3-5.7-5-9.5-5.4-8.1,6.1-18.1,9.8-28.9,9.8s-20.2-3.4-28.1-9.2c-4,1-7.6,3.3-10.3,6.4-3.1,3.6-4.9,8.2-4.9,13.3v50.6c0,4.1-3.3,7.5-7.5,7.5S0,416,0,411.8v-50.6c0-8.8,3.3-16.8,8.6-23,2.9-3.3,6.4-6.1,10.3-8.2-5.6-8-8.5-17.5-8.5-27.2v-43.4c0-8.3,3.4-15.8,8.8-21.3,5.5-5.4,13-8.8,21.3-8.8h35.6c8.3,0,15.8,3.4,21.3,8.8,5.5,5.5,8.8,13,8.8,21.3v43.4c0,9.6-2.9,18.6-7.8,26.1,4.1,2,7.5,4.8,10.2,8.5l38,50.3h30v-30.4c0-8.6,4.6-16.4,12-23,5.7-5.1,13.3-9.6,21.6-13.1-2.4-5.7-3.7-11.9-3.7-18.4v-43.4c0-8.3,3.4-15.8,8.8-21.3,5.5-5.4,13-8.8,21.3-8.8h58.3c4.1,0,7.5,3.4,7.5,7.5v66c0,6.2-1.2,12-3.3,17.5,9,3.5,17.1,8,23.2,13.3,7.9,6.7,12.7,14.8,12.7,23.7v30.4h30l38-50.3c2.8-3.7,6.3-6.5,10.3-8.4-4.9-7.5-7.8-16.5-7.8-26.1v-43.4c0-8.3,3.4-15.8,8.8-21.3,5.5-5.4,13-8.8,21.3-8.8h35.6c8.3,0,15.8,3.4,21.3,8.8,5.4,5.5,8.8,13,8.8,21.3v43.4c0,9.8-3,19.2-8.5,27.2h0ZM484.6,314.1c-2.2.3-4.3.6-6.2.7-11.1.6-19.5-2.4-25.8-7.5-6.3-5-10.2-12-12.6-19.6-.6-2-1.1-4-1.5-6.1-4.8,2-10.9,3.5-17.8,2.9v18.3c0,9,3.7,17.3,9.7,23.3,6,6,14.2,9.7,23.3,9.7s17.3-3.7,23.3-9.7c3.3-3.3,6-7.4,7.7-12h0ZM420.7,269.4c10,1.4,17.3-4.4,18.6-5.5,1.5-1.2,2.9-2,4.9-2.1,4.1-.2,7.6,3,7.8,7.1.3,4.9.9,9.8,2.3,14.3,1.5,5,3.9,9.4,7.6,12.4,3.6,2.9,8.7,4.5,15.7,4.2,2.7-.1,5.7-.6,9-1.3v-39.1c0-4.2-1.7-7.9-4.5-10.7s-6.5-4.5-10.7-4.5h-35.6c-4.2,0-7.9,1.7-10.7,4.5-2.8,2.8-4.5,6.5-4.5,10.7v10ZM91.3,269.4v-10c0-4.2-1.7-7.9-4.4-10.7-2.7-2.7-6.5-4.5-10.7-4.5h-35.6c-4.1,0-7.9,1.7-10.7,4.5-2.7,2.8-4.5,6.5-4.5,10.7v39.1c3.3.7,6.2,1.2,9,1.3,7.1.3,12.1-1.3,15.7-4.2,3.7-2.9,6.1-7.4,7.6-12.4,1.4-4.5,2.1-9.4,2.3-14.3.2-4.1,3.7-7.3,7.8-7.1,1.9,0,3.4.8,4.8,2,1.1.9,8.5,7,18.7,5.6ZM218.4,334.1c-7.8,3-14.7,6.9-19.7,11.3-4.3,3.8-6.9,7.9-6.9,11.9v30.4h2.9c7.9,0,15.2,3.2,20.4,8.4s8.4,12.4,8.4,20.4-1.3,9.7-3.5,13.8h72c-2.2-4.1-3.5-8.8-3.5-13.8,0-8,3.2-15.2,8.4-20.4,5.2-5.2,12.4-8.4,20.4-8.4h2.9v-30.4c0-4.1-2.8-8.4-7.4-12.3-5.4-4.6-12.9-8.6-21.2-11.6-1,1.2-2,2.3-3,3.3-8.7,8.7-20.7,14.1-33.9,14.1s-25.2-5.4-33.9-14.1c-.8-.8-1.6-1.7-2.4-2.6h0ZM62.5,63.7c-4.1,0-7.5-3.4-7.5-7.5s3.3-7.5,7.5-7.5h138.8c4.1,0,7.5,3.3,7.5,7.5s-3.3,7.5-7.5,7.5H62.5ZM62.5,142.6c-4.1,0-7.5-3.4-7.5-7.5s3.3-7.5,7.5-7.5h69.4c4.1,0,7.5,3.4,7.5,7.5s-3.4,7.5-7.5,7.5H62.5ZM62.5,103.2c-4.1,0-7.5-3.4-7.5-7.5s3.3-7.5,7.5-7.5h138.8c4.1,0,7.5,3.3,7.5,7.5s-3.3,7.5-7.5,7.5H62.5ZM209,183.1c1,2.9,2.7,5.5,4.8,7.7,3.8,3.8,9.1,6.2,14.9,6.2h44.1c4.1,0,7.5,3.3,7.5,7.5s-3.3,7.5-7.5,7.5h-44.1c-10,0-19-4.1-25.5-10.7-4.9-4.9-8.3-11.2-9.8-18.2h-104.6l-34,34c-1.4,1.4-3.2,2.2-5.3,2.2-4.1,0-7.5-3.3-7.5-7.5v-29.3c-9.5-1.6-18.1-6.2-24.6-12.7-8.2-8.2-13.4-19.6-13.4-32.1V53.6c0-12.5,5.1-23.9,13.4-32.1,8.2-8.2,19.6-13.4,32.1-13.4h164.6c12.5,0,23.9,5.1,32.1,13.4,8.2,8.2,13.4,19.6,13.4,32.1v13.9h127.4c9.9,0,19,4.1,25.5,10.6s10.6,15.6,10.6,25.5v72.2c0,9.9-4.1,19-10.6,25.5-4.8,4.8-11.1,8.3-18,9.8v29.5c0,1.9-.7,3.8-2.2,5.3-2.9,2.9-7.7,2.9-10.6,0l-34-34h-41c-4.1,0-7.5-3.3-7.5-7.5s3.4-7.5,7.5-7.5h44.1c2.1,0,4,.9,5.3,2.2l23.3,23.3v-18.1c0-4.2,3.4-7.5,7.5-7.5s11.1-2.4,14.9-6.2c3.8-3.8,6.2-9.1,6.2-14.9v-72.2c0-5.8-2.4-11.1-6.2-14.9s-9.1-6.2-14.9-6.2h-127.4v55.1c0,12.5-5.1,23.9-13.4,32.1-8.2,8.2-19.6,13.4-32.1,13.4h-5.2ZM85.8,168.1h128.5c8.4,0,16-3.4,21.5-9,5.5-5.5,9-13.2,9-21.5V53.6c0-8.4-3.4-16-9-21.5s-13.1-9-21.5-9H49.6c-8.4,0-16,3.4-21.5,9-5.5,5.5-9,13.2-9,21.5v84c0,8.4,3.4,16,9,21.5,5.5,5.5,13.1,9,21.5,9s7.5,3.4,7.5,7.5v18.1l23.4-23.4c1.5-1.5,3.4-2.2,5.3-2.2h0ZM395.4,445.4H116.7v43.5h278.7v-43.5h0Z"/>
</svg>