<?xml version="1.0" encoding="utf-8"?>
<!-- Generator: Adobe Illustrator 25.3.1, SVG Export Plug-In . SVG Version: 6.00 Build 0)  -->
<svg version="1.1" id="Layer_1" xmlns="http://www.w3.org/2000/svg" xmlns:xlink="http://www.w3.org/1999/xlink" x="0px" y="0px"
	 viewBox="0 0 120 120" fill="#ffffff" style="enable-background:new 0 0 120 120;" xml:space="preserve">
<g>
	<path d="M67,68c2.2-2.1,3.6-5,3.6-8.3c0-6.3-5.1-11.4-11.4-11.4s-11.4,5.1-11.4,11.4c0,3.3,1.4,6.2,3.6,8.3
		c-4.4,2.6-7.3,7.4-7.3,12.9v11.4c0,2.5,1.5,4.7,3.7,5.7v15.4c0,2.8,2.3,5.1,5.1,5.1h12.5c2.8,0,5.1-2.3,5.1-5.1V98
		c2.2-1,3.7-3.2,3.7-5.7V80.9C74.3,75.4,71.3,70.6,67,68z M59.3,53.5c3.4,0,6.2,2.8,6.2,6.2s-2.8,6.2-6.2,6.2s-6.2-2.8-6.2-6.2
		S55.8,53.5,59.3,53.5z M69.1,92.3c0,0.6-0.5,1.1-1.1,1.1c-1.4,0-2.6,1.2-2.6,2.6v17.4h-3.6V98.4c0-1.4-1.2-2.6-2.6-2.6
		c-1.4,0-2.6,1.2-2.6,2.6v14.9h-3.6V96c0-1.4-1.2-2.6-2.6-2.6c-0.6,0-1.1-0.5-1.1-1.1V80.9c0-5.4,4.4-9.9,9.9-9.9s9.9,4.4,9.9,9.9
		V92.3z"/>
	<path d="M48.8,23.9h4V37c0,1.4,1.2,2.6,2.6,2.6h7.8c1.4,0,2.6-1.2,2.6-2.6V23.9h4c0.9,0,1.8-0.5,2.2-1.3c0.5-0.8,0.5-1.8,0-2.6
		L61.5,1.8C61,1,60.2,0.5,59.3,0.5S57.5,1,57,1.8L46.5,20c-0.5,0.8-0.5,1.8,0,2.6C47,23.4,47.9,23.9,48.8,23.9z M59.3,8.3l6,10.4
		h-2.1c-1.4,0-2.6,1.2-2.6,2.6v13.1h-2.7V21.3c0-1.4-1.2-2.6-2.6-2.6h-2.1L59.3,8.3z"/>
	<path d="M106,19.9c-0.7-0.7-1.6-0.9-2.5-0.7l-20.3,5.4c-0.9,0.2-1.6,0.9-1.8,1.8c-0.2,0.9,0,1.8,0.7,2.5l2.8,2.8l-9.3,9.3
		c-0.5,0.5-0.8,1.1-0.8,1.8c0,0.7,0.3,1.3,0.8,1.8l5.5,5.5c0.5,0.5,1.2,0.8,1.8,0.8c0.7,0,1.3-0.3,1.8-0.8l9.3-9.3l2.8,2.8
		c0.7,0.7,1.6,0.9,2.5,0.7c0.9-0.2,1.6-0.9,1.8-1.8l5.4-20.3C106.9,21.5,106.7,20.5,106,19.9z M97.4,37l-1.5-1.5c-1-1-2.6-1-3.7,0
		L83,44.8l-1.9-1.9l9.3-9.3c1-1,1-2.6,0-3.7l-1.5-1.5l11.6-3.1L97.4,37z"/>
	<path d="M33.6,31.8l2.8-2.8c0.7-0.7,0.9-1.6,0.7-2.5c-0.2-0.9-0.9-1.6-1.8-1.8L15,19.2c-0.9-0.2-1.8,0-2.5,0.7
		c-0.7,0.7-0.9,1.6-0.7,2.5l5.4,20.3c0.2,0.9,0.9,1.6,1.8,1.8c0.9,0.2,1.8,0,2.5-0.7l2.8-2.8l9.3,9.3c0.5,0.5,1.2,0.8,1.8,0.8
		c0.7,0,1.3-0.3,1.8-0.8l5.5-5.5c0.5-0.5,0.8-1.1,0.8-1.8c0-0.7-0.3-1.3-0.8-1.8L33.6,31.8z M35.5,44.8l-9.3-9.3
		c-0.5-0.5-1.1-0.8-1.8-0.8s-1.3,0.3-1.8,0.8L21.1,37L18,25.4l11.6,3.1L28.1,30c-1,1-1,2.6,0,3.7l9.3,9.3L35.5,44.8z"/>
</g>
</svg>
