<?xml version="1.0" encoding="UTF-8"?>
<svg id="Capa_1" xmlns="http://www.w3.org/2000/svg" version="1.1" viewBox="0 0 512 512">
  <!-- Generator: Adobe Illustrator 29.0.1, SVG Export Plug-In . SVG Version: 2.1.0 Build 192)  -->
  <defs>
    <style>
      .st0 {
        fill: #e31e34;
      }
    </style>
  </defs>
  <path class="st0" d="M486.4,256h-8.5V51.2h8.5c14.1,0,25.6-11.5,25.6-25.6S500.5,0,486.4,0H25.6C11.5,0,0,11.5,0,25.6s11.5,25.6,25.6,25.6h8.5v204.8h-8.5c-14.1,0-25.6,11.5-25.6,25.6s11.5,25.6,25.6,25.6h460.8c14.1,0,25.6-11.5,25.6-25.6s-11.5-25.6-25.6-25.6ZM25.6,34.1c-4.7,0-8.5-3.8-8.5-8.5,0-4.7,3.8-8.5,8.5-8.5h460.8c4.7,0,8.5,3.8,8.5,8.5s-3.8,8.5-8.5,8.5H25.6ZM460.8,51.2v204.8H51.2V51.2h409.6ZM486.4,290.1H25.6c-4.7,0-8.5-3.8-8.5-8.5s3.8-8.5,8.5-8.5h460.8c4.7,0,8.5,3.8,8.5,8.5,0,4.7-3.8,8.5-8.5,8.5Z"/>
  <path class="st0" d="M145.1,195.7c4.7,0,8.5-3.8,8.5-8.5v-41.8l25.6,10.9v50.9h0c0,1.2.2,2.2.6,3.3.6.9,1.2,1.8,1.8,2.7.8.8,1.7,1.4,2.8,1.9l42.4,18c18.7,7.9,39.7,7.8,58.3,0l42.4-18c1-.4,2-1.1,2.8-1.9.6-.9,1.2-1.8,1.8-2.7.4-1,.6-2.1.6-3.2h0v-51l33.8-14.4c5.4-2.5,8.9-7.9,8.9-13.9s-3.5-11.4-8.9-13.9l-105.3-44.7c-3.4-1.4-7.2-1.4-10.6,0l-105.3,44.7c-5.5,2.4-9,7.9-8.9,13.9v59.2c0,4.7,3.8,8.5,8.5,8.5ZM315.7,201.5l-37.2,15.8c-14.4,6.1-30.7,6.1-45.1,0l-37.2-15.8v-38l54.4,23.1c3.4,1.4,7.2,1.4,10.6,0l54.4-23.1v38h0ZM256,85.6l99.7,42.4-34.7,14.7h0s-64.9,27.6-64.9,27.6l-64.9-27.6h0s-34.7-14.8-34.7-14.8l99.7-42.4Z"/>
  <path class="st0" d="M494.9,460.8h-17.1v-11c-.2-21.6-12.6-41.2-32-50.7,13.6-11.6,18.5-30.4,12.3-47.2-6.2-16.8-22.2-27.9-40-27.9s-33.8,11.1-40,27.9-1.3,35.6,12.3,47.2c-19.4,9.5-31.8,29.1-32,50.7v11h-42.7v-11c-.2-21.6-12.6-41.2-32-50.7,13.6-11.6,18.5-30.4,12.3-47.2-6.2-16.8-22.2-27.9-40-27.9s-33.8,11.1-40,27.9-1.3,35.6,12.3,47.2c-19.4,9.5-31.8,29.1-32,50.7v11h-42.7v-11c-.2-21.6-12.6-41.2-32-50.7,13.6-11.6,18.5-30.4,12.3-47.2-6.2-16.8-22.2-27.9-40-27.9s-33.8,11.1-40,27.9c-6.2,16.8-1.3,35.6,12.3,47.2-19.4,9.5-31.8,29.1-32,50.7v11h-17.1c-9.4,0-17.1,7.6-17.1,17.1v17.1c0,9.4,7.6,17.1,17.1,17.1h477.9c9.4,0,17.1-7.6,17.1-17.1v-17.1c0-9.4-7.6-17.1-17.1-17.1ZM418.1,341.3c14.1,0,25.6,11.5,25.6,25.6s-11.5,25.6-25.6,25.6c-14.1,0-25.6-11.5-25.6-25.6,0-14.1,11.5-25.6,25.6-25.6ZM375.5,449.8c1.3-22.6,20-40.2,42.7-40.2s41.3,17.6,42.7,40.2v11h-85.3v-11h0ZM256,341.3c14.1,0,25.6,11.5,25.6,25.6s-11.5,25.6-25.6,25.6c-14.1,0-25.6-11.5-25.6-25.6,0-14.1,11.5-25.6,25.6-25.6ZM213.3,449.8c1.3-22.6,20-40.2,42.7-40.2s41.3,17.6,42.7,40.2v11h-85.3v-11h0ZM93.9,341.3c14.1,0,25.6,11.5,25.6,25.6s-11.5,25.6-25.6,25.6c-14.1,0-25.6-11.5-25.6-25.6,0-14.1,11.5-25.6,25.6-25.6ZM51.2,449.8c.7-22.9,19.8-40.9,42.7-40.2,22.9-.6,41.9,17.4,42.7,40.2v11H51.2v-11ZM17.1,494.9v-17.1h477.9v17.1s-477.9,0-477.9,0Z"/>
</svg>