<?xml version="1.0" encoding="UTF-8"?>
<svg id="Layer_3" xmlns="http://www.w3.org/2000/svg" version="1.1" viewBox="0 0 512 512">
  <!-- Generator: Adobe Illustrator 29.0.1, SVG Export Plug-In . SVG Version: 2.1.0 Build 192)  -->
  <defs>
    <style>
      .st0 {
        fill: #e31e34;
      }
    </style>
  </defs>
  <path class="st0" d="M96,144v16c0,16.9,8.8,31.8,22.1,40.4-3.9,4.7-9.7,7.6-16,7.6h-1.2c-20.4,0-36.9,16.6-36.9,36.9v43.1c0,4.4,3.6,8,8,8h144c4.4,0,8-3.6,8-8v-24h64v24c0,4.4,3.6,8,8,8h144c4.4,0,8-3.6,8-8v-43.1c0-20.4-16.6-36.9-36.9-36.9h-1.2c-6.4,0-12.1-2.9-16-7.6,13.3-8.5,22.1-23.4,22.1-40.4v-16c0-26.5-21.5-48-48-48s-48,21.5-48,48v16c0,16.9,8.8,31.8,22.1,40.4-2.4,2.9-5.5,5-9,6.3-5.6-13.3-18.8-22.7-34.1-22.7h-1.2c-6.4,0-12.1-2.9-16-7.6,13.3-8.5,22.1-23.4,22.1-40.4v-16c0-26.5-21.5-48-48-48s-48,21.5-48,48v16c0,16.9,8.8,31.8,22.1,40.4-3.9,4.7-9.7,7.6-16,7.6h-1.2c-15.3,0-28.5,9.4-34.1,22.7-3.5-1.2-6.6-3.4-9-6.3,13.3-8.6,22.1-23.4,22.1-40.4v-16c0-26.5-21.5-48-48-48s-48,21.5-48,48ZM208,280H80v-35.1c0-11.5,9.4-20.9,20.9-20.9h1.2c2.1,0,4.1-.2,6-.5l2.9,2.9c8.8,8.8,20.5,13.7,33,13.7s23.3-4.6,32-12.8v28.8c0,4.4,3.6,8,8,8h24v16ZM411.1,224c11.6,0,20.9,9.4,20.9,20.9v35.1h-128v-16h24c4.4,0,8-3.6,8-8v-28.8c8.7,8.2,20,12.8,32,12.8s24.2-4.8,33-13.7l2.9-2.9c2,.3,4,.5,6,.5h1.2ZM336,144c0-17.6,14.4-32,32-32s32,14.4,32,32v16c0,17.6-14.4,32-32,32s-32-14.4-32-32v-16ZM368,208c3.7,0,7.3-.5,10.7-1.2,2.4,3.9,5.5,7.2,9,9.8-11.1,9.3-28.4,9.3-39.5,0,3.5-2.7,6.6-6,9-9.8,3.5.8,7,1.2,10.7,1.2h0ZM224,120c0-17.6,14.4-32,32-32s32,14.4,32,32v16c0,17.6-14.4,32-32,32s-32-14.4-32-32v-16ZM256,184c3.7,0,7.3-.5,10.7-1.2,2.4,3.9,5.5,7.2,9,9.8-11.1,9.3-28.4,9.3-39.5,0,3.5-2.7,6.6-6,9-9.8,3.5.8,7,1.2,10.7,1.2h0ZM192,220.9c0-11.5,9.4-20.9,20.9-20.9h1.2c2.1,0,4.1-.2,6-.5l2.9,2.9c8.8,8.8,20.5,13.7,33,13.7s24.2-4.8,33-13.7l2.9-2.9c2,.3,4,.5,6,.5h1.2c11.6,0,20.9,9.4,20.9,20.9v27.1h-128v-27.1ZM163.7,216.6c-11.1,9.3-28.4,9.3-39.5,0,3.5-2.7,6.6-6,9-9.8,3.5.8,7,1.3,10.7,1.3s7.3-.5,10.7-1.2c2.4,3.9,5.5,7.2,9,9.8h0ZM176,144v16c0,17.6-14.4,32-32,32s-32-14.4-32-32v-16c0-17.6,14.4-32,32-32s32,14.4,32,32Z"/>
  <path class="st0" d="M453.6,346.6l-163.9,44.7c-1.1-1.7-2.5-3.4-4-4.9l-56-56c-1.5-1.5-3.5-2.3-5.7-2.3h-88v-8c0-4.4-3.6-8-8-8H16c-4.4,0-8,3.6-8,8v176c0,4.4,3.6,8,8,8h64c4.4,0,8-3.6,8-8v-8h40c4.4,0,8-3.6,8-8v-8h54.7l46.8,15.6c.8.3,1.7.4,2.5.4s1.8-.2,2.6-.4l256-88c3.2-1.1,5.4-4.1,5.4-7.6v-8c0-7.6-2.2-15-6.2-21.5-9-14.1-27.1-20.6-44.2-16h0ZM72,488H24v-160h48v160ZM120,472h-32v-144h32v144ZM488,386.3l-248,85.3-45.4-15.1c-.8-.3-1.7-.4-2.5-.4h-56v-112h84.7l53.7,53.7c5.7,5.7,5.7,15,0,20.7s-15,5.7-20.7,0l-40-40-11.3,11.3,40,40c6,6,13.8,9,21.7,9s15.7-3,21.7-9c6.3-6.3,9.2-14.8,8.8-23.1l163.3-44.5c10.4-2.8,21.3.9,26.5,9.1,2.4,3.8,3.7,8.3,3.7,12.9v2.3Z"/>
  <path class="st0" d="M329.3,19c-5.2-1.6-10.4-3-15.8-4.3l-3.7,15.6c5,1.2,9.9,2.5,14.7,4l4.7-15.3Z"/>
  <path class="st0" d="M488,256c0,3.6,0,7.2-.2,10.8l16,.7c.2-3.8.3-7.6.3-11.5s0-3.2,0-4.8l-16,.3c0,1.5,0,3,0,4.5h0Z"/>
  <path class="st0" d="M297.5,11.5c-5.3-.9-10.7-1.6-16.2-2.2l-1.6,15.9c5.1.5,10.1,1.2,15.1,2l2.7-15.8Z"/>
  <path class="st0" d="M482.6,206l15.6-3.4c-1.2-5.3-2.5-10.6-4-15.8l-15.4,4.5c1.4,4.9,2.7,9.8,3.8,14.8h0Z"/>
  <path class="st0" d="M359.8,30.7c-5-2.3-10-4.4-15.1-6.4l-5.7,14.9c4.8,1.8,9.5,3.8,14.1,5.9l6.7-14.5Z"/>
  <path class="st0" d="M487.2,236.2l15.9-1.4c-.5-5.5-1.1-10.9-1.9-16.2l-15.8,2.4c.8,5,1.4,10.1,1.8,15.2h0Z"/>
  <path class="st0" d="M445.9,122.7l13.1-9.2c-3.1-4.5-6.4-8.8-9.8-13l-12.5,10c3.2,4,6.3,8,9.2,12.2h0Z"/>
  <path class="st0" d="M474.1,176.7l15-5.5c-1.9-5.1-3.9-10.2-6.1-15.1l-14.6,6.5c2,4.6,3.9,9.4,5.7,14.2h0Z"/>
  <path class="st0" d="M438.5,88.1c-3.6-4-7.5-7.9-11.4-11.6l-11,11.6c3.7,3.5,7.3,7.1,10.7,10.9l11.8-10.8Z"/>
  <path class="st0" d="M388.5,46.3c-4.6-2.9-9.3-5.7-14.1-8.3l-7.6,14.1c4.5,2.4,8.9,5,13.2,7.7l8.6-13.5Z"/>
  <path class="st0" d="M477,326.8l15.2,4.9c1.7-5.2,3.2-10.5,4.5-15.7l-15.5-3.8c-1.2,5-2.6,9.9-4.2,14.7h0Z"/>
  <path class="st0" d="M502.5,283.8l-15.9-1.8c-.6,5.1-1.3,10.1-2.2,15.1l15.8,2.8c1-5.3,1.7-10.8,2.3-16.2h0Z"/>
  <path class="st0" d="M414.9,65.6c-4.2-3.5-8.5-6.9-12.9-10.1l-9.4,12.9c4.1,3,8.1,6.2,12,9.4l10.3-12.3Z"/>
  <path class="st0" d="M461.8,148.8l14.2-7.4c-2.5-4.8-5.2-9.6-8-14.2l-13.7,8.3c2.6,4.3,5.2,8.8,7.5,13.3Z"/>
  <path class="st0" d="M33.6,189.6l-15.3-4.6c-1.6,5.2-3,10.5-4.1,15.8l15.6,3.5c1.1-5,2.4-9.9,3.9-14.8Z"/>
  <path class="st0" d="M44.3,160.9l-14.6-6.6c-2.2,4.9-4.3,10-6.2,15.1l15,5.6c1.8-4.8,3.7-9.5,5.8-14.1h0Z"/>
  <path class="st0" d="M58.7,134l-13.6-8.4c-2.9,4.6-5.6,9.4-8.2,14.2l14.1,7.5c2.4-4.5,4.9-8.9,7.6-13.2Z"/>
  <path class="st0" d="M76.4,109.1l-12.4-10.1c-3.4,4.2-6.8,8.5-9.9,13l13,9.3c3-4.1,6.1-8.2,9.3-12.1Z"/>
  <path class="st0" d="M24.2,265c-.1-3-.2-6-.2-9s0-4.2,0-6.2l-16-.4c0,2.2,0,4.4,0,6.7,0,3.2,0,6.4.2,9.6l16-.6Z"/>
  <path class="st0" d="M26.9,219.3l-15.8-2.5c-.8,5.4-1.5,10.8-2,16.2l15.9,1.5c.5-5.1,1.1-10.2,1.9-15.2Z"/>
  <path class="st0" d="M9.3,281.9c.6,5.5,1.3,10.8,2.2,16.2l15.8-2.7c-.9-5-1.6-10-2.1-15.1l-15.9,1.7Z"/>
  <path class="st0" d="M120.9,67.4l-9.3-13c-4.4,3.2-8.7,6.5-12.9,9.9l10.2,12.4c3.9-3.2,8-6.3,12.1-9.3Z"/>
  <path class="st0" d="M174.6,38.7l-5.6-15c-5.1,1.9-10.2,4-15.1,6.2l6.6,14.6c4.6-2.1,9.3-4,14.1-5.8h0Z"/>
  <path class="st0" d="M203.8,29.9l-3.6-15.6c-5.3,1.2-10.6,2.6-15.8,4.2l4.6,15.3c4.8-1.5,9.8-2.8,14.7-3.9Z"/>
  <path class="st0" d="M233.9,25l-1.5-15.9c-5.4.5-10.8,1.2-16.2,2.1l2.6,15.8c5-.8,10-1.5,15.1-1.9h0Z"/>
  <path class="st0" d="M146.8,51.3l-7.5-14.1c-4.8,2.6-9.6,5.3-14.1,8.2l8.5,13.6c4.3-2.7,8.7-5.2,13.2-7.6Z"/>
  <path class="st0" d="M255.3,24c3,0,6.1,0,9.2.2l.6-16c-3-.1-6-.2-9-.2-2.4,0-4.9,0-7.3,0l.5,16c2,0,4,0,6.1,0h0Z"/>
  <path class="st0" d="M97.3,86.8l-10.9-11.7c-3.9,3.7-7.8,7.5-11.5,11.6l11.7,10.9c3.5-3.8,7.1-7.4,10.8-10.8Z"/>
</svg>