<?xml version="1.0" encoding="utf-8"?>
<!-- Generator: Adobe Illustrator 25.3.1, SVG Export Plug-In . SVG Version: 6.00 Build 0)  -->
<svg version="1.1" xmlns="http://www.w3.org/2000/svg" xmlns:xlink="http://www.w3.org/1999/xlink" x="0px" y="0px"
	 viewBox="0 0 800 800" style="enable-background:new 0 0 800 800;" xml:space="preserve">
<style type="text/css">
	.st0{fill:none;stroke:#E31E34;stroke-width:25;stroke-linecap:round;stroke-linejoin:round;stroke-miterlimit:333.3333;}
	
		.st1{display:none;opacity:0.4;fill:none;stroke:#292D32;stroke-width:50;stroke-linecap:round;stroke-linejoin:round;stroke-miterlimit:133.3333;enable-background:new    ;}
	.st2{display:none;}
	.st3{display:inline;}
	.st4{stroke:#FFFFFF;stroke-miterlimit:10;}
	.st5{font-family:'Raleway-Bold';}
	.st6{font-size:72px;}
	.st7{display:inline;stroke:#FFFFFF;stroke-miterlimit:10;}
	.st8{fill:#E31E34;}
</style>
<g id="Layer_1">
	<path class="st0" d="M566.7,614.3H433.3L285,713c-22,14.7-51.7-1-51.7-27.7v-71c-100,0-166.7-66.7-166.7-166.7v-200
		c0-100,66.7-166.7,166.7-166.7h333.3c100,0,166.7,66.7,166.7,166.7v200C733.3,547.7,666.7,614.3,566.7,614.3z"/>
	<path class="st1" d="M400,378.7v-7c0-22.7,14-34.7,28-44.3c13.7-9.3,27.3-21.3,27.3-43.3c0-30.7-24.7-55.3-55.3-55.3
		s-55.3,24.7-55.3,55.3"/>
	<path class="st1" d="M399.8,458.3h0.3"/>
</g>
<g id="Layer_2" class="st2">
	<text transform="matrix(0.8077 0 0 1 162.428 323.7544)" class="st3"><tspan x="0" y="0" class="st4 st5 st6">Enquire</tspan><tspan x="0" y="72" class="st4 st5 st6">      Now</tspan></text>
</g>
<g id="Layer_3" class="st2">
	<rect x="134.1" y="145.7" class="st7" width="519.4" height="402.4"/>
</g>
<g id="Layer_4">
	<g>
		<path class="st8" d="M201.7,279.2h-45.1V313h52.7v15.2h-71.8V218.3h71.3v15.4h-52.2v30.3h45.1V279.2z"/>
		<path class="st8" d="M240.1,246.6l0.5,9.4c6-7.3,14-10.9,23.8-10.9c17,0,25.6,9.7,25.9,29.2v54H272v-52.9c0-5.2-1.1-9-3.4-11.5
			c-2.2-2.5-5.9-3.7-11-3.7c-7.4,0-12.9,3.3-16.5,10v58.1h-18.3v-81.7H240.1z"/>
		<path class="st8" d="M305.5,286.7c0-12.8,2.9-22.9,8.7-30.4c5.8-7.5,13.7-11.2,23.7-11.2c9.1,0,16.3,3.2,21.6,9.6l1.1-8.1H377
			v113.1h-18.3v-38.3c-5.3,5.6-12.3,8.5-20.8,8.5c-9.8,0-17.6-3.8-23.5-11.4C308.5,310.7,305.5,300.1,305.5,286.7z M323.9,288.3
			c0,8.4,1.6,14.9,4.9,19.7c3.3,4.8,7.9,7.1,13.7,7.1c7.2,0,12.6-3.1,16.1-9.3v-37.1c-3.5-5.9-8.8-8.9-16-8.9
			c-5.8,0-10.4,2.3-13.8,7C325.5,271.5,323.9,278.6,323.9,288.3z"/>
		<path class="st8" d="M446.1,320.2c-5.4,6.3-13,9.5-22.9,9.5c-8.8,0-15.5-2.6-20.1-7.8c-4.6-5.2-6.8-12.7-6.8-22.5v-52.9h18.3v52.7
			c0,10.4,4.3,15.6,12.9,15.6c8.9,0,14.9-3.2,18-9.6v-58.7h18.3v81.7h-17.3L446.1,320.2z"/>
		<path class="st8" d="M482.5,225.3c0-2.8,0.9-5.2,2.7-7c1.8-1.9,4.3-2.8,7.7-2.8c3.3,0,5.9,0.9,7.7,2.8c1.8,1.9,2.7,4.2,2.7,7
			c0,2.8-0.9,5.1-2.7,6.9c-1.8,1.8-4.4,2.8-7.7,2.8c-3.3,0-5.9-0.9-7.7-2.8C483.4,230.4,482.5,228.1,482.5,225.3z M502,328.2h-18.3
			v-81.7H502V328.2z"/>
		<path class="st8" d="M564.7,263.3c-2.4-0.4-4.9-0.6-7.5-0.6c-8.4,0-14.1,3.2-17,9.7v55.9h-18.3v-81.7h17.5l0.5,9.1
			c4.4-7.1,10.6-10.6,18.4-10.6c2.6,0,4.8,0.4,6.5,1.1L564.7,263.3z"/>
		<path class="st8" d="M610.7,329.7c-11.6,0-21-3.7-28.2-11c-7.2-7.3-10.8-17.1-10.8-29.3v-2.3c0-8.2,1.6-15.4,4.7-21.9
			c3.1-6.4,7.6-11.4,13.2-15c5.7-3.6,12-5.4,19-5.4c11.1,0,19.7,3.5,25.8,10.6c6.1,7.1,9.1,17.1,9.1,30.1v7.4h-53.3
			c0.6,6.7,2.8,12.1,6.7,16c3.9,3.9,8.9,5.9,14.9,5.9c8.4,0,15.2-3.4,20.5-10.2l9.9,9.4c-3.3,4.9-7.6,8.7-13.1,11.4
			C623.6,328.4,617.5,329.7,610.7,329.7z M608.5,259.8c-5,0-9.1,1.8-12.2,5.3c-3.1,3.5-5.1,8.4-5.9,14.7h34.9v-1.4
			c-0.4-6.1-2-10.8-4.9-13.9C617.6,261.3,613.6,259.8,608.5,259.8z"/>
		<path class="st8" d="M416.9,489.6h-19.1l-48.9-78v78h-19.1V379.7h19.1L398,458v-78.3h18.9V489.6z"/>
		<path class="st8" d="M434.3,448c0-8,1.6-15.2,4.8-21.6c3.2-6.4,7.6-11.3,13.3-14.8c5.7-3.4,12.3-5.2,19.8-5.2
			c11,0,19.9,3.5,26.8,10.6c6.9,7.1,10.6,16.5,11.1,28.2l0.1,4.3c0,8.1-1.5,15.2-4.6,21.6c-3.1,6.3-7.5,11.2-13.3,14.7
			c-5.8,3.5-12.4,5.2-19.9,5.2c-11.5,0-20.7-3.8-27.6-11.5c-6.9-7.7-10.4-17.9-10.4-30.7V448z M452.6,449.6c0,8.4,1.7,15,5.2,19.7
			c3.5,4.8,8.3,7.1,14.5,7.1s11-2.4,14.4-7.2c3.4-4.8,5.2-11.9,5.2-21.2c0-8.3-1.8-14.8-5.3-19.6c-3.5-4.8-8.4-7.2-14.4-7.2
			c-6,0-10.7,2.4-14.3,7.1C454.4,433,452.6,440.2,452.6,449.6z"/>
		<path class="st8" d="M597.3,464.3l13-56.4h17.9l-22.2,81.7h-15.1l-17.5-56.1l-17.2,56.1h-15.1l-22.3-81.7h17.9l13.2,55.8
			l16.7-55.8h13.8L597.3,464.3z"/>
	</g>
</g>
</svg>
