<?xml version="1.0" encoding="utf-8"?>
<!-- Generator: Adobe Illustrator 25.3.1, SVG Export Plug-In . SVG Version: 6.00 Build 0)  -->
<svg version="1.1" id="Layer_1" xmlns="http://www.w3.org/2000/svg" xmlns:xlink="http://www.w3.org/1999/xlink" x="0px" y="0px"
	 viewBox="0 0 120 120" style="enable-background:new 0 0 120 120;" xml:space="preserve">
<style type="text/css">
	.st0{fill:#FFFFFF;}
</style>
<g>
	<g>
		<g>
			<path class="st0" d="M32.3,53.2c-6.7,0-12.1-5.4-12.1-12.1s5.4-12.1,12.1-12.1c6.7,0,12.1,5.4,12.1,12.1
				C44.5,47.7,39,53.2,32.3,53.2z M32.3,33.8c-4,0-7.3,3.3-7.3,7.3s3.3,7.3,7.3,7.3s7.3-3.3,7.3-7.3S36.4,33.8,32.3,33.8z"/>
		</g>
		<path class="st0" d="M115.8,87h-3.2V17.7c0-1.3-1.1-2.4-2.4-2.4H8.3c-1.3,0-2.4,1.1-2.4,2.4V87H2.7c-1.3,0-2.4,1.1-2.4,2.4v6.9
			c0,1.3,1.1,2.4,2.4,2.4h12v2.6c0,1.3,1.1,2.4,2.4,2.4h29.6c1.3,0,2.4-1.1,2.4-2.4v-2.6h66.7c1.3,0,2.4-1.1,2.4-2.4v-6.9
			C118.3,88.1,117.2,87,115.8,87z M14.7,94H5.1v-2.1h9.6C14.7,91.9,14.7,94,14.7,94z M14.7,61.4V87h-4v-67h97.2v67H49.2V74.6
			l9.4,8.3c0.8,0.6,1.5,0.6,1.6,0.6c0.7,0,1.3-0.3,1.7-0.8l19.3-20.8c1.1-1.2,1.7-2.7,1.6-4.3c-0.1-1.3-0.5-2.5-1.4-3.5l14.2-15.2
			c0.9-1,0.9-2.5-0.1-3.4c-1-0.9-2.5-0.9-3.4,0.1L77.9,50.8c-1-0.7-2.2-1.1-3.5-1.1c-1.6,0-3.2,0.7-4.2,1.9L59.6,63
			c0,0-8.1-7.6-8.2-7.7c-1.4-1.1-3.1-1.7-4.8-1.7H22.6C18.2,53.6,14.7,57.1,14.7,61.4z M77.6,57C77.6,57,77.6,57,77.6,57
			c0.4,0.3,0.4,0.6,0.4,0.8c0,0.3-0.1,0.6-0.3,0.8l-1.9,2l-4-3.8l1.9-2c0.3-0.3,0.6-0.4,0.8-0.4c0.1,0,0.4,0,0.7,0.2c0,0,0,0,0.1,0
			L77.6,57z M48.4,67.4c-0.7-0.6-1.7-0.8-2.6-0.4c-0.9,0.4-1.4,1.3-1.4,2.2V99H19.6V61.4c0-1.7,1.3-3,3-3h23.9
			c0.9,0,1.5,0.4,1.9,0.7c0,0,0,0,0,0l9.6,9c0.5,0.4,1.1,0.7,1.7,0.7c0.6,0,1.3-0.3,1.7-0.8l7-7.6l4,3.8L60,77.7L48.4,67.4z
			 M113.4,94H49.2v-2.1h64.2L113.4,94L113.4,94z"/>
	</g>
</g>
</svg>
