<?xml version="1.0" encoding="UTF-8"?>
<svg id="Layer_5" xmlns="http://www.w3.org/2000/svg" version="1.1" viewBox="0 0 512 512">
  <!-- Generator: Adobe Illustrator 29.0.1, SVG Export Plug-In . SVG Version: 2.1.0 Build 192)  -->
  <defs>
    <style>
      .st0 {
        fill: #e31e34;
      }
    </style>
  </defs>
  <path class="st0" d="M504,8H248v55.4l-39.8,31.9c-7.1,5.7-15.9,8.8-25,8.8h0c10.4-10.2,16.9-24.3,16.9-40,0-30.9-25.1-56-56-56s-56,25.1-56,56,6.7,30.2,17.4,40.4c-27.8,3.3-49.4,26.9-49.4,55.6v40H8v192h32v24h16v-32c0-4.4,3.6-8,8-8h80c4.4,0,8,3.6,8,8v32h16v-32c0-10.4-6.7-19.2-16.1-22.5,0-.5,0-1,0-1.5,0-4-.6-7.9-1.5-11.6,4,2.2,8.6,3.6,13.5,3.6,15.4,0,28-12.6,28-28v-108h56v32h94.6l-36.7,42.8,12.2,10.4,45.6-53.2h4.3v48h16v-48h4.3l45.6,53.2,12.2-10.4-36.7-42.8h62.6v128h-17.5c-1.4-3.9-3.7-7.3-6.8-9.9.1-2,.2-4,.2-6,0-26.5-21.5-48-48-48s-48,21.5-48,48c-13.2,0-24,10.8-24,24v32h16v-32c0-4.4,3.6-8,8-8h80c4.4,0,8,3.6,8,8v32h16v-24h32v-144h16V8ZM400,328c17.6,0,32,14.4,32,32h-64c0-17.6,14.4-32,32-32ZM104,64c0-22.1,17.9-40,40-40s40,17.9,40,40-17.9,40-40,40-40-17.9-40-40ZM41.5,376h-17.5v-160h32c0,17.6,14.4,32,32,32h8v64.7c-22.7,3.8-40,23.5-40,47.3s0,1,0,1.5c-6.8,2.4-12.1,7.7-14.6,14.5ZM104,328c17.6,0,32,14.4,32,32h-64c0-17.6,14.4-32,32-32ZM176,191.6v132.4c0,6.6-5.4,12-12,12s-12-5.4-12-12v-92h-16v92c0,.1,0,.2,0,.4-6.6-6-14.9-10.1-24-11.6v-136.7h-16v56h-8c-8.8,0-16-7.2-16-16v-56c0-22.1,17.9-40,40-40h71.2c12.7,0,25.1-4.4,35-12.3l60.9-48.7c2.4-1.9,5.4-3,8.5-3h2.7c7.5,0,13.7,6.1,13.7,13.7s-1.8,8-5,10.6l-114.1,92.7c-5.6,4.6-8.9,11.4-8.9,18.6h0ZM408,120v-32h48v48h-96v-16h48ZM392,104h-96.8l13.9-11.3c7-5.7,11-14.1,11-23s-1.3-9.6-3.5-13.7h75.5v48ZM192,200v-8.4c0-2.4,1.1-4.7,3-6.2l53-43.1v57.7h-56ZM488,232h-224v-102.7l11.5-9.3h68.5v32h128v-80h-64v-32h-120.4c-6.7,0-13.3,2.3-18.5,6.5l-5.1,4v-26.6h224v208Z"/>
  <path class="st0" d="M151.9,441.5c0-.5,0-1,0-1.5,0-26.5-21.5-48-48-48s-48,21.5-48,48,0,1,0,1.5c-9.3,3.3-16.1,12.1-16.1,22.5v40h128v-40c0-10.4-6.7-19.2-16.1-22.5ZM104,408c17.6,0,32,14.4,32,32h-64c0-17.6,14.4-32,32-32ZM152,488H56v-24c0-4.4,3.6-8,8-8h80c4.4,0,8,3.6,8,8v24Z"/>
  <path class="st0" d="M295.9,441.5c0-.5,0-1,0-1.5,0-26.5-21.5-48-48-48s-48,21.5-48,48,0,1,0,1.5c-9.3,3.3-16.1,12.1-16.1,22.5v40h128v-40c0-10.4-6.7-19.2-16.1-22.5ZM248,408c17.6,0,32,14.4,32,32h-64c0-17.6,14.4-32,32-32ZM296,488h-96v-24c0-4.4,3.6-8,8-8h80c4.4,0,8,3.6,8,8v24Z"/>
  <path class="st0" d="M439.9,441.5c0-.5,0-1,0-1.5,0-26.5-21.5-48-48-48s-48,21.5-48,48,0,1,0,1.5c-9.3,3.3-16.1,12.1-16.1,22.5v40h128v-40c0-10.4-6.7-19.2-16.1-22.5ZM392,408c17.6,0,32,14.4,32,32h-64c0-17.6,14.4-32,32-32ZM440,488h-96v-24c0-4.4,3.6-8,8-8h80c4.4,0,8,3.6,8,8v24Z"/>
  <path class="st0" d="M303.8,366.1c.1-2,.2-4,.2-6,0-26.5-21.5-48-48-48s-48,21.5-48,48c-13.2,0-24,10.8-24,24v32h16v-32c0-4.4,3.6-8,8-8h80c4.4,0,8,3.6,8,8v32h16v-32c0-7.2-3.2-13.6-8.2-18ZM256,328c17.6,0,32,14.4,32,32h-64c0-17.6,14.4-32,32-32Z"/>
  <path class="st0" d="M280,168h16v16h-16v-16Z"/>
  <path class="st0" d="M312,168h160v16h-160v-16Z"/>
  <path class="st0" d="M280,200h192v16h-192v-16Z"/>
</svg>