<?xml version="1.0" encoding="utf-8"?>
<!-- Generator: Adobe Illustrator 16.0.0, SVG Export Plug-In . SVG Version: 6.00 Build 0)  -->
<!DOCTYPE svg PUBLIC "-//W3C//DTD SVG 1.1//EN" "http://www.w3.org/Graphics/SVG/1.1/DTD/svg11.dtd">
<svg version="1.1" id="Layer_1" xmlns="http://www.w3.org/2000/svg" xmlns:xlink="http://www.w3.org/1999/xlink" x="0px" y="0px"
	 width="120px" height="120px" fill="#000" viewBox="0 0 120 120" enable-background="new 0 0 120 120" xml:space="preserve">
<path d="M113.992,24.253c-2.111-2.256-5.651-2.374-7.908-0.262c-0.754,0.707-1.299,1.609-1.572,2.606L96.73,54.956
	c-2.805-0.224-5.574,0.735-7.641,2.644L76.586,69.189c-5.077,4.725-7.963,11.346-7.969,18.281v17.365
	c0,0.66,0.535,1.195,1.195,1.195s1.195-0.535,1.195-1.195V87.462c0.009-6.269,2.619-12.251,7.207-16.521l12.506-11.599
	c2.521-2.323,6.272-2.7,9.204-0.926c0.942,0.576,1.238,1.807,0.662,2.749c-0.029,0.049-0.062,0.096-0.095,0.142L87.24,79.301
	c-0.424,0.506-0.357,1.26,0.148,1.684c0.506,0.425,1.26,0.358,1.684-0.147c0.035-0.041,0.066-0.085,0.095-0.13l13.252-17.995
	c1.437-1.952,1.019-4.698-0.933-6.135c-0.103-0.075-0.208-0.146-0.316-0.212c-0.656-0.398-1.355-0.719-2.084-0.958l7.734-28.193
	c0.388-1.385,1.648-2.342,3.087-2.344c1.769,0,3.202,1.433,3.202,3.201c0,0.072-0.003,0.144-0.008,0.216L110.788,62.4
	c-0.251,3.796-1.684,7.418-4.097,10.359L89.5,93.75c-0.175,0.213-0.271,0.48-0.27,0.757v10.313c0,0.66,0.535,1.195,1.195,1.195
	s1.195-0.535,1.195-1.195v-9.876l16.917-20.67c2.73-3.326,4.351-7.424,4.634-11.719l2.313-34.116
	C115.583,26.898,115.043,25.384,113.992,24.253z"/>
<path d="M45.414,69.189L32.91,57.591c-2.066-1.909-4.836-2.868-7.641-2.644l-7.781-28.359c-0.814-2.979-3.889-4.735-6.868-3.921
	c-2.571,0.703-4.289,3.121-4.105,5.78l2.313,34.118c0.283,4.294,1.903,8.393,4.634,11.719l16.917,20.669v9.884
	c0,0.66,0.536,1.195,1.196,1.194c0.659-0.001,1.194-0.534,1.194-1.194V94.523c0.005-0.281-0.091-0.556-0.27-0.773l-17.189-21
	c-2.414-2.941-3.846-6.563-4.097-10.359L8.901,28.287c-0.119-1.764,1.215-3.291,2.979-3.409c1.518-0.102,2.898,0.878,3.302,2.345
	l7.734,28.193c-0.729,0.239-1.428,0.561-2.083,0.958c-2.069,1.262-2.724,3.961-1.462,6.03c0.066,0.109,0.137,0.215,0.212,0.316
	l13.251,17.996c0.424,0.506,1.178,0.571,1.684,0.147c0.458-0.384,0.562-1.048,0.243-1.554L21.513,61.306
	c-0.654-0.89-0.463-2.141,0.426-2.795c0.046-0.033,0.093-0.065,0.141-0.095c2.932-1.774,6.684-1.397,9.204,0.926L43.79,70.94
	c4.588,4.271,7.198,10.253,7.207,16.521v17.374c0,0.66,0.536,1.195,1.196,1.194c0.66-0.001,1.194-0.534,1.195-1.194V87.462
	C53.378,80.529,50.49,73.912,45.414,69.189z"/>
<g>
	<path stroke="#000" stroke-width="1.5" stroke-miterlimit="10" d="M78.409,27.863c0.306,0,0.554,0.248,0.554,0.553
		c0,0.306-0.248,0.553-0.554,0.553s-0.554-0.247-0.554-0.553C77.855,28.111,78.104,27.863,78.409,27.863L78.409,27.863z
		 M81.89,31.104c-0.17,0.127-0.324,0.236-0.48,0.348c-0.946,0.677-1.79,1.281-2.046,2.452c-0.165,0.77,0.175,1.81,0.569,3.009
		c0.472,1.427,1.01,3.063,0.928,4.908c-0.146,3.371-1.338,6.063-3.495,7.907c-2.104,1.799-5.108,2.777-8.937,2.78
		c-1.025,0-2.054-0.046-3.071-0.093c-2.594-0.12-5.139-0.235-7.072,0.46c-1.454,0.526-2.642,1.427-3.689,2.599
		c-1.071,1.194-2,2.675-2.916,4.323c-0.1,0.178-0.293,0.271-0.487,0.243c-1.461-0.135-2.455-0.626-3.043-1.484
		c-0.402-0.584-0.595-1.323-0.614-2.22c-1.048,0.797-2.158,0.936-3.167,0.63c-0.705-0.213-1.35-0.642-1.883-1.218
		c-0.522-0.562-0.94-1.265-1.199-2.035c-0.553-1.651-0.387-3.612,1.017-5.154c-1.172-0.681-2.088-1.532-2.665-2.603
		c-0.673-1.252-0.874-2.789-0.464-4.683c0.058-0.263,0.313-0.429,0.576-0.372c0.12,0.028,0.22,0.093,0.286,0.186
		c2.32,2.901,5.143,4.211,8.345,4.32c2.893,0.101,6.11-0.77,9.556-2.325c-2.954-0.653-5.491-1.798-7.452-3.631
		c-2.273-2.123-3.755-5.144-4.195-9.355c-1.203-2.61-1.88-5.197-1.954-7.757c-0.073-2.591,0.479-5.147,1.737-7.661
		c0.016-0.035,0.039-0.077,0.062-0.128c0.321-0.653,0.963-1.964,1.856-1.93c0.221,0.008,0.425,0.093,0.611,0.255
		c0.147,0.127,0.274,0.306,0.395,0.538c0.016,0.027,0.027,0.058,0.035,0.085c0.349,1.071,0.828,2.108,1.462,3.102
		c0.116-0.109,0.236-0.221,0.356-0.337c0.244-0.24,0.476-0.491,0.668-0.746c0.248-0.329,0.426-0.657,0.6-0.986
		c0.244-0.452,0.483-0.905,0.882-1.357c0.166-0.189,0.352-0.364,0.549-0.483c0.011-0.008,0.019-0.012,0.031-0.019
		c0.286-0.159,0.587-0.209,0.901-0.066c0.217,0.101,0.406,0.282,0.564,0.55c0.128,0.208,0.24,0.479,0.337,0.804
		c1.987,5.186,5.947,7.107,9.304,8.731c1.613,0.781,3.094,1.497,4.211,2.487c0.782,0.692,1.513,1.566,2.162,2.587
		c0.402,0.626,0.773,1.307,1.105,2.034c0.074-0.263,0.155-0.522,0.248-0.777c0.421-1.16,1.137-2.274,2.107-3.009
		c0.847-0.638,1.883-0.986,3.078-0.827c0.328,0.042,0.653,0.127,0.971,0.251c0.311,0.12,0.611,0.278,0.897,0.479
		c0.132,0.089,0.263,0.19,0.391,0.302c0.12,0.104,0.243,0.22,0.363,0.352c0.178,0.189,0.349,0.398,0.503,0.626
		c0.139,0.205,0.274,0.421,0.402,0.657l0.669,0.581l0.417,0.359l0.14,0.112c0.7,0.569,0.975,0.789,0.894,1.187
		c-0.063,0.317-0.26,0.406-0.58,0.554C82.481,30.74,82.207,30.868,81.89,31.104L81.89,31.104z M51.058,17.411
		c0.154,0.205,0.317,0.41,0.487,0.611c0.495,0.58,1.04,1.11,1.624,1.609c0.894,0.762,1.879,1.446,2.905,2.107
		c0.476,0.306,0.955,0.588,1.442,0.847c1.036,0.541,2.068,1.005,3.09,1.465c0.537,0.24,1.07,0.479,1.604,0.731
		c0.91,0.417,1.803,0.855,2.661,1.354c1.06,0.619,2.042,1.357,2.954,2.188c1.289,1.149,2.557,2.599,3.802,4.525l0.178-1.442
		c-0.437-1.145-0.959-2.197-1.551-3.117c-0.603-0.943-1.272-1.748-1.987-2.382c-1.014-0.897-2.437-1.586-3.99-2.34
		c-3.52-1.705-7.669-3.716-9.792-9.266c-0.007-0.019-0.015-0.039-0.019-0.058c-0.078-0.251-0.155-0.449-0.24-0.588
		c-0.059-0.093-0.101-0.151-0.14-0.167c-0.011-0.004,0,0.016-0.027,0.031c-0.004,0.003-0.012,0.007-0.02,0.011
		c-0.096,0.058-0.201,0.163-0.309,0.282c-0.329,0.375-0.542,0.773-0.758,1.176c-0.197,0.368-0.394,0.739-0.68,1.118
		c-0.22,0.29-0.483,0.58-0.762,0.854C51.378,17.113,51.216,17.264,51.058,17.411L51.058,17.411z M80.85,30.659
		c0.159-0.112,0.316-0.228,0.464-0.336c0.329-0.244,0.606-0.387,0.823-0.487c-0.31-0.031-0.738-0.468-0.967-0.666l-0.723-0.63
		c-0.051-0.042-0.097-0.093-0.128-0.155c-0.12-0.232-0.248-0.445-0.379-0.638c-0.136-0.193-0.271-0.364-0.414-0.515
		c-0.089-0.097-0.189-0.189-0.294-0.282c-0.096-0.085-0.197-0.162-0.306-0.236c-0.228-0.155-0.464-0.282-0.703-0.375
		c-0.248-0.097-0.495-0.163-0.746-0.193c-0.917-0.124-1.71,0.146-2.366,0.642c-0.813,0.611-1.42,1.566-1.784,2.563
		c-0.421,1.16-0.591,2.456-0.754,3.732l-0.034,0.271l-0.12,0.971l0,0c-0.02,0.143-0.097,0.274-0.232,0.356
		c-0.181,0.112-0.409,0.085-0.564-0.047c-0.046-0.035-0.085-0.081-0.116-0.131c-0.069-0.116-0.135-0.232-0.204-0.344
		c-0.901-1.454-1.884-2.792-2.975-3.971c-0.208-0.228-0.426-0.449-0.645-0.665c-1.974-1.899-4.003-2.994-6.072-3.957
		c-0.382-0.173-0.765-0.344-1.152-0.514c-1.118-0.495-2.247-0.998-3.353-1.585c-1.536-0.801-3.09-1.771-4.668-3.156
		c-0.587-0.514-1.113-1.052-1.589-1.608c-0.291-0.336-0.565-0.688-0.82-1.056c-0.1-0.143-0.197-0.286-0.293-0.433
		c-0.704-1.083-1.234-2.22-1.613-3.388c-0.054-0.104-0.108-0.178-0.154-0.221c-0.012-0.011-0.004-0.015-0.008-0.015
		c-0.267-0.012-0.724,0.924-0.951,1.388c-0.024,0.046-0.047,0.093-0.066,0.136c-1.183,2.367-1.701,4.768-1.636,7.204
		c0.07,2.444,0.727,4.93,1.899,7.448l0,0c0.023,0.046,0.035,0.1,0.043,0.155c0.402,3.998,1.782,6.848,3.898,8.824
		c2.123,1.984,5.008,3.113,8.403,3.662c0.155,0.019,0.298,0.117,0.375,0.267c0.12,0.24,0.019,0.53-0.221,0.65
		c-4.087,2.015-7.916,3.175-11.35,3.055c-3.179-0.108-6.009-1.3-8.392-3.887c-0.112,1.191,0.085,2.182,0.53,3.009
		c0.565,1.051,1.543,1.863,2.815,2.505c0.062,0.028,0.12,0.07,0.17,0.128c0.173,0.202,0.15,0.506-0.05,0.681
		c-1.508,1.303-1.725,3.101-1.223,4.598c0.213,0.639,0.558,1.218,0.991,1.683c0.417,0.452,0.916,0.789,1.45,0.947
		c0.955,0.29,2.061,0.004,3.07-1.218c0.101-0.128,0.267-0.205,0.441-0.182c0.264,0.035,0.453,0.278,0.418,0.542
		c-0.167,1.257-0.062,2.197,0.375,2.831c0.383,0.557,1.048,0.896,2.042,1.036c0.897-1.59,1.818-3.025,2.885-4.216
		c1.153-1.284,2.464-2.281,4.08-2.866c2.115-0.765,4.753-0.642,7.444-0.518c1.017,0.046,2.046,0.093,3.028,0.093
		c3.588-0.004,6.38-0.902,8.311-2.548c1.948-1.667,3.023-4.123,3.159-7.216c0.072-1.659-0.438-3.209-0.887-4.563
		c-0.437-1.334-0.818-2.49-0.595-3.516C78.75,32.16,79.739,31.456,80.85,30.659L80.85,30.659z M51.188,60.041
		c-0.058-0.008-0.116-0.027-0.17-0.058L51.188,60.041L51.188,60.041z M77.396,40.969c0.019-0.267,0.254-0.464,0.522-0.445
		c0.267,0.019,0.467,0.255,0.443,0.522c-0.154,1.902-0.684,3.508-1.581,4.811c-0.901,1.311-2.165,2.313-3.794,3.005
		c-0.247,0.104-0.529-0.011-0.635-0.255c-0.104-0.248,0.013-0.53,0.256-0.634c1.454-0.622,2.58-1.508,3.376-2.664
		C76.785,44.147,77.257,42.702,77.396,40.969L77.396,40.969z M50.446,27.098c0.065-0.259,0.329-0.418,0.587-0.352
		c0.259,0.066,0.418,0.329,0.353,0.588c-0.306,1.21,0.232,2.433,1.199,3.43c0.665,0.685,1.527,1.265,2.471,1.67
		c0.944,0.406,1.957,0.634,2.916,0.619c1.396-0.02,2.688-0.561,3.489-1.837c0.143-0.228,0.44-0.297,0.665-0.155
		c0.229,0.144,0.297,0.441,0.154,0.666c-0.998,1.593-2.587,2.266-4.296,2.293c-1.001,0.016-2.042-0.197-3.016-0.576
		c-0.004,0.724,0.255,1.443,0.692,2.096c0.553,0.828,1.392,1.547,2.363,2.042c0.967,0.495,2.065,0.766,3.136,0.692
		c1.094-0.073,2.169-0.51,3.063-1.431c0.186-0.193,0.491-0.197,0.685-0.012s0.197,0.491,0.012,0.685
		c-1.075,1.113-2.37,1.639-3.693,1.729c-1.252,0.085-2.525-0.229-3.643-0.796c-1.114-0.569-2.081-1.404-2.727-2.368
		c-0.626-0.936-0.955-1.995-0.835-3.063c-0.804-0.421-1.536-0.959-2.135-1.578C50.702,30.207,50.052,28.671,50.446,27.098
		L50.446,27.098z M47.147,49.639c-0.263-0.035-0.449-0.282-0.414-0.545c0.035-0.262,0.283-0.448,0.545-0.414
		c1.442,0.197,2.885,0.293,4.296,0.236c1.4-0.058,2.769-0.268,4.072-0.673c0.255-0.082,0.526,0.062,0.607,0.317
		c0.069,0.229-0.035,0.472-0.244,0.576c-0.89,0.484-1.782,0.971-2.625,1.494c-0.847,0.525-1.663,1.094-2.409,1.743
		c-0.201,0.175-0.507,0.156-0.681-0.046c-0.174-0.201-0.154-0.507,0.047-0.68c0.789-0.689,1.647-1.289,2.536-1.842l0.039-0.022
		c-0.429,0.046-0.862,0.077-1.299,0.096C50.145,49.94,48.64,49.844,47.147,49.639L47.147,49.639z"/>
</g>
</svg>
