<?xml version="1.0" encoding="UTF-8"?>
<svg id="Capa_1" xmlns="http://www.w3.org/2000/svg" version="1.1" viewBox="0 0 512 512">
  <!-- Generator: Adobe Illustrator 29.0.1, SVG Export Plug-In . SVG Version: 2.1.0 Build 192)  -->
  <defs>
    <style>
      .st0 {
        fill: #e31e34;
      }
    </style>
  </defs>
  <path class="st0" d="M256,0c-51.6,0-93.9,40.4-96.3,91.9-.2,4.1,3,7.6,7.1,7.8,4.2.2,7.6-3,7.8-7.1,2-43.5,37.8-77.6,81.4-77.6s81.5,36.5,81.5,81.5-22.7,66.7-56.5,77.6c-1.7.6-3.2,1.7-4.1,3.3l-20.8,34.4-20.8-34.4c-.9-1.5-2.4-2.7-4.1-3.3-25.6-8.2-45.5-28.6-53.2-54.4-1.2-4-5.4-6.2-9.3-5.1-4,1.2-6.2,5.4-5.1,9.3,8.8,29.6,31.2,53.2,60.2,63.5l25.8,42.7c1.4,2.2,3.8,3.6,6.4,3.6s5.1-1.4,6.4-3.6l25.8-42.7c38.5-13.6,64.2-49.8,64.2-90.9S309.2,0,256,0Z"/>
  <path class="st0" d="M297.8,52.3c-15.5-15.5-40.7-15.5-56.2,0-13.7,13.7-15.3,34.9-4.8,50.4l-32.1,32.1c-2.9,2.9-2.9,7.7,0,10.6,1.5,1.5,3.4,2.2,5.3,2.2s3.8-.7,5.3-2.2l32.1-32.1c6.7,4.5,14.5,6.8,22.3,6.8s20.4-3.9,28.1-11.6c15.5-15.5,15.5-40.7,0-56.2ZM287.2,97.9c-9.6,9.6-25.3,9.6-35,0-9.6-9.6-9.6-25.3,0-35,4.8-4.8,11.2-7.2,17.5-7.2s12.7,2.4,17.5,7.2c9.6,9.6,9.6,25.3,0,35Z"/>
  <path class="st0" d="M218,279.3l-67-20.8c-4-1.2-8.2,1-9.4,4.9-1.2,4,1,8.2,4.9,9.4l67,20.8c.7.2,1.5.3,2.2.3,3.2,0,6.2-2.1,7.2-5.3,1.2-4-1-8.2-4.9-9.4Z"/>
  <path class="st0" d="M218,305.9l-67-20.8c-4-1.2-8.2,1-9.4,4.9-1.2,4,1,8.2,4.9,9.4l67,20.8c.7.2,1.5.3,2.2.3,3.2,0,6.2-2.1,7.2-5.3,1.2-4-1-8.2-4.9-9.4Z"/>
  <path class="st0" d="M218,332.5l-67-20.8c-4-1.2-8.2,1-9.4,4.9-1.2,4,1,8.2,4.9,9.4l67,20.8c.7.2,1.5.3,2.2.3,3.2,0,6.2-2.1,7.2-5.3,1.2-4-1-8.2-4.9-9.4Z"/>
  <g>
    <path class="st0" d="M439.9,213.6c1.9,1.4-1.9-1.4,0,0h0Z"/>
    <path class="st0" d="M439.9,213.6c-1.9-1.4-4.4-1.8-6.7-1.1l-10.7,3.4v-12.4c0-2.4-1.1-4.6-3.1-6.1s-4.4-1.8-6.7-1.1l-156.7,50.1-95.3-30.5c-3.9-1.3-8.2.9-9.4,4.9-1.3,3.9.9,8.2,4.9,9.4l92.3,29.5v152.7l-144-46.1v-152.7l22.1,7.1c3.9,1.3,8.2-.9,9.4-4.9,1.3-3.9-.9-8.2-4.9-9.4l-31.9-10.2c-2.3-.7-4.8-.3-6.7,1.1-1.9,1.4-3.1,3.7-3.1,6.1v12.4l-10.7-3.4c-2.3-.7-4.8-.3-6.7,1.1-1.9,1.4-3.1,3.7-3.1,6.1v227.4c0,3.3,2.1,6.1,5.2,7.1l179.5,57.4c1.5.5,3.1.5,4.6,0l92.2-29.5c3.9-1.3,6.1-5.5,4.9-9.4s-5.5-6.1-9.4-4.9l-82.4,26.4v-21.5l164.5-52.6v21.5l-52.5,16.8c-3.9,1.3-6.1,5.5-4.9,9.4,1,3.2,4,5.2,7.1,5.2s1.5-.1,2.3-.4l57.7-18.5c3.1-1,5.2-3.9,5.2-7.1v-227.4c0-2.4-1.1-4.6-3.1-6.1ZM248.5,494.2l-164.5-52.6v-21.5l164.5,52.6v21.5ZM248.5,457l-164.5-52.6v-174.4l5.5,1.8v140.3c0,3.3,2.1,6.1,5.2,7.1l153.8,49.2v28.6ZM263.5,314.4v-54.4l144-46.1v152.7l-144,46.1v-98.2h0ZM428,257v147.4l-164.5,52.6v-28.6l153.8-49.2c3.1-1,5.2-3.9,5.2-7.1v-140.3l5.5-1.8v27h0Z"/>
  </g>
  <path class="st0" d="M355.3,253c-1.9-1.4-4.4-1.8-6.7-1.1l-39.9,12.8c-3.1,1-5.2,3.9-5.2,7.1v42.2c0,2.4,1.1,4.6,3.1,6.1,1.3.9,2.9,1.4,4.4,1.4s1.5-.1,2.3-.4l39.9-12.8c3.1-1,5.2-3.9,5.2-7.1v-42.2c0-2.4-1.1-4.6-3.1-6.1ZM343.4,295.8l-24.9,8v-26.5l24.9-8v26.5Z"/>
</svg>