<?xml version="1.0" encoding="UTF-8"?>
<svg id="Layer_1" xmlns="http://www.w3.org/2000/svg" version="1.1" xmlns:xlink="http://www.w3.org/1999/xlink" viewBox="0 0 800 800">
  <!-- Generator: Adobe Illustrator 29.0.1, SVG Export Plug-In . SVG Version: 2.1.0 Build 192)  -->
  <defs>
    <style>
      .st0 {
        fill: #e22337;
      }

      .st1 {
        fill: none;
      }

      .st2 {
        display: none;
      }

      .st3 {
        clip-path: url(#clippath);
      }
    </style>
    <clipPath id="clippath">
      <rect class="st1" x="150.9" y="93" width="498.1" height="613.9"/>
    </clipPath>
  </defs>
  <g class="st2">
    <g class="st3">
      <g>
        <path class="st0" d="M646.3,419c.6,58.3,1.5,116.5,1.8,174.8.1,20.6-1.5,41.2-1.6,61.8-.2,29.5-23,47.5-49.9,48.1-55.1,1.2-110.2,2.5-165.2,2.2-63.8-.3-127.6-2-191.4-3.7-15.4-.7-30.8-2.4-46-5-17.5-2.7-34.7-23.7-35.6-42.7-.9-19-1.7-38-1.9-57-1.1-88.4-2.2-176.8-3.1-265.2-.6-51.9-.8-103.9-1.6-155.8-.2-14.7-1.3-29.5,4.7-43.3,3.2-8.1,7.5-15.6,12.9-22.4,6.6-7.8,16.3-10.8,26.7-11.1,21.4-.6,42.8-.7,64.2-2.1,75.3-5,150.6-1.1,225.9-.5,16,.1,28.2,5.4,40,16.6,24.1,22.9,50,44,75,66,9.5,8.4,18.4,17.5,28,25.7,8.9,7.6,12.4,17.1,12.7,28.3.6,19.8,1.5,39.6,1.8,59.4.6,42,.8,84,1.2,126.1h1.6ZM479.4,126.7c-6.8-.6-12.7-1.4-18.5-1.5-49.9-.8-99.9-1.6-149.8-2.3-22.6-.3-45.1-.4-67.7-.6-11.5,0-23-.4-34.4.1-16.4.8-21.2,5.6-24.1,22.1-2.8,14.8-3.4,30-1.7,44.9.8,6.3,1.2,12.6,1.2,19,.3,141.5.5,282.9.7,424.4-.1,3.6,0,7.1.4,10.7,2.8,18.1,12.4,29,32.1,29.8,76.5,3.1,152.9,3.1,229.4,1.8,38.8-.7,77.7-1,116.5-1.4,9.5-.1,19,.3,28.5-.2,15.6-.8,23.8-9.4,23.7-25.1-.2-17.4-1.5-34.8-1.8-52.2-.3-20.2.3-40.4-.2-60.6-1.4-50.3-3.9-100.6-4.8-150.9-.8-41.2,0-82.4,0-123.6,0-3.3-.4-6.6-.5-8.8-13.8,0-26,0-38.3,0-12.7,0-25.4.5-38,.2-7.5,0-15-.9-22.3-2.5-15-3.6-19.6-9.4-21.3-24.6-.5-4.3-.5-8.7-.9-13-2.6-28-5.2-56-7.9-85.7ZM522.1,223.9l68.3-4.2,1-2.3c-27-23-52.5-47.8-81-69.9,3.8,24.9,7.6,49.9,11.6,76.4Z"/>
        <path class="st0" d="M377.4,482.4l68.6-65.3c-2.5-.5-5.1-.8-7.7-.9-52.3,1.9-104.6,3.8-156.9,6-11.9.5-23.7,2.3-35.5,3.1-4.7.2-9.4,0-14.1-.9-1,0-2-.3-2.9-.8-.9-.5-1.7-1.1-2.3-1.9-.6-.8-1.1-1.7-1.4-2.7-.3-1-.4-2-.2-3,.3-3.8,2-7.3,4.7-10,3.7-2.3,7.9-3.7,12.2-3.8,37.1-3.3,74.1-7.1,111.3-9.3,33.2-2,66.6-2.1,99.8-3,7.1-.2,14.2,0,22.9,0,11.2-11.1,23.2-23.2,35.4-35,8-7.8,12.9-8.7,21.2-4.1,2.7,1.7,5,3.9,6.8,6.4,8.2,10.2,16.2,20.5,24.3,30.8,9.7,12.4,8.3,20.8-3.6,31.7-21.9,20-43.4,40.4-67.1,62.6,19.5-.7,35.8-1.4,52.2-1.9,3.2-.2,6.3,0,9.5.3,2.4.2,4.7,1.3,6.3,3,1.7,1.7,2.7,4,2.8,6.4.6,5.3-1.5,10.1-6.4,11.5-6.8,2-13.9,3.1-20.9,3.4-22.2.8-44.3,1-67.9,1.5-14.6,15.5-29.3,31.4-44.6,46.9-4,3.8-8.7,6.7-13.9,8.5-11.9,4.4-24.5,6.9-36,12-18.5,8.2-37.6,7.8-57,8-22.6.2-45.2,1.3-67.8,1.8-4.7.1-9.5-.3-14.1-1.4-2.4-.4-4.6-1.6-6.1-3.6-1.5-1.9-2.2-4.3-2-6.7,0-2.4.9-4.8,2.5-6.6,1.6-1.8,3.8-3,6.2-3.4,3.9-.6,7.9-.9,11.8-.8,33.3-.8,66.6-1.6,99.9-2.5,3.1,0,6.2-.8,9.7-1.2,4-16.2,3.9-32.3,3.8-50.1h-13.2c-32.9,0-65.8.2-98.7,0-5.1-.1-10.2-.9-15.1-2.4-2.2-.5-4-1.9-5.2-3.8-1.2-1.9-1.6-4.1-1.2-6.3.1-2,1-3.9,2.5-5.3,1.4-1.4,3.4-2.2,5.4-2.3,5.4-1,11-1.7,16.5-2.1,32.5-1.1,65-2.1,97.4-3,9.5-.3,19,0,28,0ZM485.8,406c-33.9,32.5-68.9,61.8-101.1,95l35.7,28.5c30.3-31.2,59.8-61.8,89.5-92.4l-24.2-31ZM504.9,392.5l25.8,24.2,15.4-14.4-22.7-32.2c-6,7.2-11.5,13.9-18.6,22.5ZM376.6,516c.3,11.9-2.1,21.7.6,31.5,13.4-2,17.6-3.6,24.2-8.9l-24.8-22.5Z"/>
        <path class="st0" d="M396.6,338.2c-33.7,1.6-67.3,3.5-101,4.8-18.2.7-36.5.5-54.7.6-2,0-4-.2-5.9-.6-2.2-.4-4.2-1.5-5.6-3.2-1.4-1.7-2.2-3.8-2.2-6-.1-2.4.7-4.8,2.2-6.6,1.5-1.9,3.7-3.1,6.1-3.4,2.3-.4,4.7-.6,7.1-.5,46.7-2.8,93.3-5.9,140-8.5,26.1-1.4,52.3-2.1,78.4-3.2,25.7-1.1,51.5-2.5,77.2-3.6,7.5-.5,15-.5,22.5.2,8.4,1,12.4,5.5,12.4,11.9,0,6.5-4,10.4-12.6,11.5-8.3,1-16.6,1.8-24.9,2.1-46.4,1.7-92.7,3.3-139.1,4.8v-.3Z"/>
      </g>
    </g>
  </g>
  <g>
    <g>
      <path class="st0" d="M418.9,582.4h-252.5c-7.8,0-14,6.3-14,14s6.3,14,14,14h252.5c7.8,0,14-6.3,14-14s-6.3-14-14-14Z"/>
      <path class="st0" d="M418.9,357.9h-252.5c-7.8,0-14,6.3-14,14s6.3,14,14,14h252.5c7.8,0,14-6.3,14-14s-6.3-14-14-14Z"/>
      <path class="st0" d="M418.9,470.1h-252.5c-7.8,0-14,6.3-14,14s6.3,14,14,14h252.5c7.8,0,14-6.3,14-14s-6.3-14-14-14Z"/>
    </g>
    <g id="Layer_2">
      <g id="Layer_3">
        <path class="st0" d="M434.1,516.7l-12.6,78.4,78.4-12.6,7.8-8.4h0l238.2-237.6-65.8-65.2-237.6,237.6-8.4,7.8ZM450.2,529.3l36.5,37.1-44.3,7.2,7.8-44.3ZM720.1,336.6l-23.3,23.9-39.5-40.1,23.9-23.3,38.9,39.5ZM644.1,333l40.1,40.1-183.1,182.5-39.5-40.1,182.5-182.5Z"/>
      </g>
    </g>
    <path class="st0" d="M503.1,666.6c0,15.5-12.6,28.1-28.1,28.1H110.3c-15.5,0-28.1-12.6-28.1-28.1V133.4c0-15.5,12.6-28.1,28.1-28.1h252.5v126.3c0,7.7,6.3,14,14,14h126.3v189.8l28.1-28.1v-175.4h0v-.4c0-4.5-2.2-8.3-5.5-10.9l-137.9-137.9c-2.6-3.3-6.4-5.5-10.9-5.5H110.3c-31,0-56.1,25.1-56.1,56.1v533.1c0,31,25.1,56.1,56.1,56.1h364.8c31,0,56.1-25.1,56.1-56.1v-104.9l-28.1,28.1v76.9ZM390.9,124.8l92.9,92.9h-92.9v-92.9Z"/>
  </g>
</svg>