<?xml version="1.0" encoding="utf-8"?>
<!-- Generator: Adobe Illustrator 16.0.0, SVG Export Plug-In . SVG Version: 6.00 Build 0)  -->
<!DOCTYPE svg PUBLIC "-//W3C//DTD SVG 1.1//EN" "http://www.w3.org/Graphics/SVG/1.1/DTD/svg11.dtd">
<svg version="1.1" id="Layer_1" xmlns="http://www.w3.org/2000/svg" xmlns:xlink="http://www.w3.org/1999/xlink" x="0px" y="0px"
	 width="120px" fill="#000" height="120px" viewBox="0 0 120 120" enable-background="new 0 0 120 120" xml:space="preserve">
<path stroke="#000" stroke-miterlimit="10" d="M21.548,99.868v15.864c0,0.002,0,0.003,0,0.004
	c0.001,0.667,0.542,1.207,1.208,1.205c0.668-0.001,1.207-0.542,1.206-1.209V99.47c0.002-0.263-0.08-0.519-0.234-0.731
	c-12.572-16.557-19.06-48.197-8.672-68.906C21.806,16.374,34.691,9.331,52.41,9.488c16.329,0.138,28.418,4.533,35.918,13.06
	c9.809,11.146,9.178,26.479,8.451,32.555c-0.268,2.292,0.154,4.611,1.21,6.663l7.903,15.49c0.053,0.103,0.099,0.209,0.139,0.317
	c0.545,1.489-0.221,3.138-1.709,3.683l-7.182,2.625c-2.547,0.939-4.381,3.188-4.791,5.871l-1.437,9.345
	c-0.706,4.487-4.874,7.584-9.375,6.966l-16.584-2.327c-0.347-0.047-0.695,0.058-0.959,0.286c-0.265,0.228-0.415,0.561-0.415,0.909
	v10.798c0,0.666,0.541,1.207,1.207,1.207c0.667,0,1.207-0.541,1.207-1.207v-9.408l15.209,2.138
	c5.806,0.798,11.182-3.199,12.092-8.988l1.434-9.345c0.275-1.822,1.523-3.35,3.254-3.984l7.181-2.618
	c0.2-0.073,0.396-0.158,0.585-0.255c2.6-1.326,3.633-4.509,2.308-7.109l-7.915-15.497c-0.84-1.625-1.174-3.464-0.961-5.28
	c0.773-6.396,1.413-22.559-9.037-34.435C82.164,11.881,69.484,7.21,52.432,7.065h-0.586c-23.188,0-33.976,11.761-38.949,21.677
	C1.825,50.815,8.756,82.721,21.548,99.868z"/>
<g id="cogwheels">
	<g>
		<path stroke="#000" stroke-miterlimit="10" d="M69.285,57.774c6.193,0,11.227-5.034,11.227-11.227
			c0-6.193-5.033-11.227-11.227-11.227c-6.198,0-11.227,5.033-11.227,11.227C58.059,52.74,63.087,57.774,69.285,57.774z
			 M69.285,36.568c5.507,0,9.979,4.472,9.979,9.979s-4.473,9.979-9.979,9.979c-5.509,0-9.979-4.472-9.979-9.979
			S63.776,36.568,69.285,36.568z"/>
		<path stroke="#000" stroke-miterlimit="10" d="M68.038,66.506c-0.093,0-0.251-0.131-0.27-0.221l-0.755-3.786
			c-0.019-0.087-0.034-0.19-0.057-0.334l-0.132-0.838L66,61.141c-1.665-0.374-3.248-1.032-4.702-1.954l-0.714-0.452l-0.685,0.496
			l-0.067,0.048c-0.074,0.055-0.147,0.108-0.215,0.153l-3.214,2.144c-0.014,0.01-0.063,0.027-0.137,0.027
			c-0.113,0-0.189-0.04-0.21-0.061l-1.764-1.764c-0.067-0.067-0.085-0.271-0.035-0.346l2.147-3.22
			c0.049-0.074,0.114-0.159,0.195-0.271l0.505-0.687l-0.456-0.721c-0.923-1.452-1.581-3.034-1.955-4.7l-0.187-0.826l-0.835-0.132
			l-0.063-0.01l0,0c-0.095-0.015-0.192-0.029-0.268-0.044l-3.789-0.757c-0.095-0.019-0.224-0.177-0.224-0.27V45.3
			c0-0.093,0.129-0.251,0.221-0.269l3.786-0.757c0.079-0.016,0.176-0.03,0.274-0.045l0.061-0.01l0,0l0.838-0.131l0.185-0.826
			c0.375-1.667,1.032-3.248,1.955-4.7l0.439-0.748l-0.507-0.688c-0.062-0.085-0.127-0.17-0.178-0.248l-2.144-3.215
			c-0.053-0.079-0.032-0.282,0.033-0.347l1.766-1.764c0.026-0.027,0.107-0.063,0.21-0.063c0.074,0,0.121,0.019,0.133,0.028
			l3.218,2.147c0.072,0.048,0.155,0.108,0.272,0.195l0.687,0.502l0.718-0.454c1.457-0.922,3.038-1.58,4.703-1.954l0.835-0.227
			l0.129-0.839c0.018-0.102,0.032-0.207,0.048-0.288l0.758-3.79c0.018-0.091,0.177-0.222,0.269-0.222h2.495
			c0.093,0,0.251,0.13,0.27,0.221l0.759,3.798c0.015,0.071,0.025,0.154,0.039,0.236l0.013,0.085l0.131,0.838l0.827,0.187
			c1.661,0.374,3.241,1.032,4.698,1.955l0.717,0.453l0.687-0.498l0.064-0.047c0.074-0.055,0.147-0.11,0.217-0.155l3.215-2.144
			c0.015-0.011,0.063-0.029,0.134-0.029c0.103,0,0.186,0.037,0.212,0.064l1.767,1.764c0.063,0.065,0.084,0.268,0.033,0.345
			l-2.147,3.218c-0.043,0.066-0.098,0.14-0.152,0.214l-0.048,0.064l-0.499,0.687l0.454,0.716c0.923,1.457,1.582,3.037,1.955,4.699
			l0.186,0.827l0.843,0.131l0.085,0.015c0.083,0.012,0.166,0.024,0.244,0.039l3.788,0.758c0.093,0.018,0.223,0.176,0.223,0.269
			v2.495c0,0.093-0.13,0.251-0.221,0.27l-3.798,0.759c-0.07,0.015-0.153,0.025-0.236,0.038l-0.085,0.015l-0.838,0.132l-0.187,0.826
			c-0.374,1.662-1.032,3.243-1.955,4.697l-0.453,0.719l0.498,0.685l0.047,0.066c0.056,0.074,0.11,0.148,0.155,0.217l2.144,3.215
			c0.053,0.079,0.032,0.281-0.032,0.347l-1.767,1.764c-0.025,0.026-0.107,0.061-0.21,0.061c-0.074,0-0.123-0.018-0.134-0.025
			l-3.22-2.148c-0.064-0.042-0.138-0.097-0.213-0.152l-0.065-0.047l-0.685-0.5l-0.722,0.455c-1.454,0.923-3.035,1.582-4.697,1.955
			l-0.826,0.185l-0.131,0.839l-0.015,0.086c-0.013,0.082-0.024,0.167-0.039,0.244l-0.758,3.789c-0.019,0.091-0.177,0.222-0.27,0.222
			h-2.494V66.506z M68.038,67.753h2.494c0.687,0,1.357-0.55,1.492-1.222l0.758-3.791c0.022-0.112,0.042-0.251,0.063-0.384
			c1.836-0.413,3.55-1.141,5.092-2.118c0.112,0.082,0.227,0.168,0.324,0.232l3.216,2.146c0.239,0.159,0.532,0.236,0.826,0.236
			c0.404,0,0.812-0.146,1.094-0.429l1.764-1.764c0.486-0.485,0.57-1.347,0.19-1.92l-2.146-3.216
			c-0.064-0.096-0.149-0.212-0.232-0.324c0.979-1.541,1.705-3.255,2.118-5.092c0.133-0.021,0.271-0.039,0.384-0.063l3.793-0.758
			c0.673-0.135,1.223-0.806,1.223-1.492V45.3c0-0.686-0.55-1.357-1.223-1.492l-3.79-0.758c-0.112-0.023-0.25-0.042-0.384-0.063
			c-0.413-1.835-1.141-3.549-2.119-5.092c0.082-0.112,0.169-0.227,0.233-0.324l2.145-3.216c0.381-0.57,0.295-1.434-0.189-1.919
			L83.4,30.671c-0.283-0.281-0.69-0.429-1.095-0.429c-0.293,0-0.587,0.079-0.825,0.237l-3.217,2.146
			c-0.097,0.065-0.212,0.15-0.323,0.231c-1.543-0.977-3.257-1.704-5.092-2.117c-0.022-0.132-0.041-0.271-0.063-0.383l-0.758-3.791
			c-0.136-0.672-0.807-1.223-1.492-1.223H68.04c-0.686,0-1.356,0.551-1.492,1.223l-0.757,3.791
			c-0.022,0.112-0.042,0.248-0.064,0.381c-1.837,0.413-3.552,1.139-5.094,2.116c-0.109-0.079-0.224-0.164-0.321-0.229l-3.215-2.146
			c-0.239-0.159-0.533-0.237-0.826-0.237c-0.405,0-0.812,0.147-1.093,0.429l-1.764,1.764c-0.487,0.486-0.573,1.35-0.191,1.919
			l2.145,3.216c0.066,0.097,0.149,0.212,0.231,0.321c-0.979,1.543-1.705,3.259-2.118,5.094c-0.13,0.022-0.269,0.042-0.381,0.063
			l-3.791,0.758c-0.672,0.135-1.223,0.806-1.223,1.492v2.495c0,0.686,0.55,1.357,1.223,1.492l3.791,0.757
			c0.112,0.023,0.249,0.042,0.381,0.064c0.413,1.836,1.139,3.551,2.118,5.094c-0.082,0.11-0.166,0.224-0.231,0.322l-2.145,3.216
			c-0.379,0.57-0.293,1.433,0.191,1.92l1.764,1.764c0.28,0.281,0.688,0.426,1.092,0.426c0.294,0,0.588-0.076,0.827-0.235
			l3.215-2.145c0.097-0.066,0.212-0.149,0.321-0.229c1.542,0.977,3.257,1.703,5.094,2.116c0.022,0.133,0.042,0.27,0.064,0.381
			l0.757,3.791C66.681,67.203,67.352,67.753,68.038,67.753L68.038,67.753z"/>
		<path stroke="#000" stroke-miterlimit="10" d="M69.285,51.606c2.753,0,4.989-2.266,4.989-5.059
			c0-2.793-2.236-5.059-4.989-5.059s-4.989,2.266-4.989,5.059C64.296,49.34,66.532,51.606,69.285,51.606z M69.285,42.805
			c2.064,0,3.742,1.677,3.742,3.742c0,2.064-1.678,3.742-3.742,3.742s-3.742-1.678-3.742-3.742
			C65.543,44.482,67.221,42.805,69.285,42.805z"/>
		<path stroke="#000" stroke-miterlimit="10" d="M25.178,76.038l3.864,0.021c0.151,0.001,0.33-0.005,0.512-0.015
			c0.395,0.754,0.86,1.462,1.391,2.108c-0.078,0.162-0.151,0.323-0.209,0.461l-1.491,3.567c-0.263,0.633-0.015,1.465,0.553,1.846
			l2.068,1.396c0.329,0.22,0.758,0.286,1.154,0.211c0.29-0.057,0.562-0.188,0.767-0.391l2.748-2.72
			c0.106-0.104,0.227-0.235,0.347-0.368c0.801,0.251,1.63,0.416,2.477,0.501c0.063,0.172,0.123,0.337,0.182,0.478l1.467,3.579
			c0.261,0.633,1.025,1.045,1.698,0.913l2.448-0.476c0.672-0.131,1.228-0.801,1.23-1.485l0.022-3.866
			c0-0.151-0.007-0.329-0.015-0.51c0.754-0.396,1.462-0.859,2.108-1.394c0.164,0.079,0.323,0.153,0.462,0.21l3.567,1.491
			c0.265,0.111,0.565,0.131,0.856,0.075c0.396-0.078,0.77-0.297,0.991-0.629l1.396-2.067c0.385-0.568,0.303-1.431-0.181-1.921
			l-2.719-2.748c-0.104-0.105-0.234-0.227-0.368-0.346c0.251-0.802,0.415-1.631,0.5-2.478c0.173-0.063,0.337-0.122,0.479-0.181
			l3.576-1.468c0.633-0.261,1.046-1.024,0.916-1.697l-0.477-2.448c-0.131-0.675-0.799-1.228-1.485-1.232l-3.867-0.021
			c-0.151,0-0.329,0.006-0.509,0.016c-0.396-0.756-0.861-1.462-1.394-2.11c0.08-0.163,0.154-0.323,0.212-0.461l1.491-3.568
			c0.263-0.632,0.017-1.463-0.552-1.846l-2.068-1.396c-0.33-0.22-0.756-0.286-1.154-0.21c-0.29,0.056-0.562,0.188-0.768,0.39
			l-2.748,2.72c-0.106,0.104-0.227,0.235-0.346,0.369c-0.802-0.251-1.631-0.417-2.478-0.502c-0.063-0.172-0.122-0.339-0.18-0.478
			l-1.469-3.578c-0.261-0.635-1.025-1.046-1.698-0.915l-2.449,0.477c-0.672,0.13-1.228,0.8-1.23,1.485l-0.021,3.866
			c-0.001,0.151,0.006,0.329,0.013,0.509c-0.754,0.396-1.461,0.861-2.108,1.394c-0.162-0.079-0.323-0.153-0.46-0.212l-3.568-1.489
			c-0.266-0.112-0.565-0.131-0.856-0.075c-0.396,0.078-0.77,0.298-0.99,0.627l-1.396,2.069c-0.383,0.568-0.302,1.432,0.18,1.921
			l2.72,2.748c0.104,0.106,0.235,0.227,0.368,0.346c-0.25,0.802-0.416,1.632-0.5,2.479c-0.172,0.06-0.337,0.12-0.478,0.179
			l-3.578,1.468c-0.634,0.261-1.045,1.024-0.913,1.697l0.475,2.451C23.823,75.479,24.49,76.035,25.178,76.038z M24.438,72.12
			c-0.018-0.092,0.079-0.271,0.167-0.307l3.573-1.469c0.121-0.048,0.266-0.102,0.414-0.153l0.754-0.261l0.078-0.795
			c0.076-0.768,0.229-1.521,0.451-2.227l0.236-0.762l-0.591-0.536c-0.116-0.104-0.228-0.209-0.319-0.301l-2.718-2.748
			c-0.067-0.066-0.085-0.27-0.033-0.346l1.392-2.069c0.022-0.029,0.095-0.081,0.195-0.103c0.076-0.012,0.125-0.005,0.139,0.004
			l3.566,1.49c0.12,0.051,0.258,0.114,0.4,0.183l0.716,0.346l0.616-0.505c0.574-0.472,1.213-0.896,1.898-1.252l0.7-0.369
			l-0.033-0.792c-0.01-0.161-0.015-0.316-0.015-0.447l0.022-3.865c0-0.095,0.13-0.251,0.222-0.268l2.449-0.479
			c0.09-0.017,0.271,0.082,0.307,0.167l1.467,3.573c0.05,0.123,0.104,0.271,0.156,0.423L40.914,59l0.79,0.078
			c0.768,0.075,1.52,0.229,2.227,0.451l0.762,0.236l0.536-0.591c0.105-0.116,0.209-0.228,0.301-0.319l2.749-2.718
			c0.012-0.015,0.055-0.042,0.129-0.054c0.11-0.023,0.192,0.002,0.217,0.021l2.068,1.392c0.078,0.054,0.137,0.249,0.1,0.335
			l-1.489,3.565c-0.051,0.121-0.117,0.261-0.185,0.404l-0.341,0.717l0.501,0.612c0.472,0.574,0.895,1.215,1.252,1.897l0.373,0.706
			l0.796-0.041c0.158-0.008,0.312-0.013,0.44-0.014l3.865,0.023c0.095,0,0.251,0.13,0.269,0.222l0.477,2.448
			c0.017,0.09-0.081,0.271-0.167,0.307l-3.571,1.466c-0.124,0.05-0.27,0.104-0.424,0.157l-0.748,0.264l-0.08,0.791
			c-0.077,0.768-0.228,1.521-0.451,2.227l-0.237,0.762l0.592,0.536c0.116,0.104,0.229,0.209,0.319,0.301l2.719,2.747
			c0.066,0.065,0.084,0.271,0.032,0.347l-1.394,2.067c-0.021,0.03-0.093,0.082-0.195,0.103c-0.074,0.014-0.123,0.006-0.138-0.003
			l-3.565-1.489c-0.121-0.052-0.261-0.117-0.405-0.183l-0.716-0.344l-0.613,0.503c-0.574,0.472-1.212,0.895-1.897,1.252
			l-0.702,0.369l0.034,0.792c0.007,0.161,0.014,0.319,0.014,0.447l-0.021,3.865c0,0.094-0.131,0.251-0.223,0.268l-2.449,0.479
			c-0.091,0.018-0.271-0.081-0.307-0.165l-1.466-3.575c-0.05-0.123-0.104-0.271-0.156-0.423l-0.266-0.748l-0.788-0.077
			c-0.769-0.076-1.52-0.229-2.228-0.451l-0.761-0.236l-0.536,0.591c-0.104,0.115-0.209,0.228-0.301,0.319l-2.748,2.718
			c-0.012,0.015-0.055,0.04-0.128,0.054c-0.11,0.022-0.195-0.003-0.219-0.021l-2.068-1.394c-0.077-0.052-0.135-0.247-0.099-0.333
			l1.49-3.568c0.051-0.118,0.114-0.257,0.183-0.397l0.346-0.719l-0.506-0.615c-0.471-0.573-0.895-1.214-1.252-1.896l-0.372-0.706
			L29.485,74.8c-0.156,0.008-0.31,0.013-0.438,0.014l-3.866-0.023c-0.093,0-0.251-0.13-0.268-0.222L24.438,72.12z"/>
		<path stroke="#000" stroke-miterlimit="10" d="M41.548,75.145c2.707-0.524,4.473-3.144,3.944-5.849
			c-0.525-2.704-3.146-4.473-5.85-3.944c-2.705,0.525-4.471,3.146-3.943,5.85C36.223,73.906,38.843,75.672,41.548,75.145z
			 M39.88,66.575c2.031-0.394,3.993,0.93,4.389,2.957c0.395,2.028-0.928,3.993-2.958,4.391c-2.028,0.393-3.993-0.931-4.391-2.959
			C36.526,68.934,37.852,66.97,39.88,66.575z"/>
		<path stroke="#000" stroke-miterlimit="10" d="M46.77,76.423c3.407-3.41,3.407-8.94,0-12.35c-3.41-3.409-8.94-3.409-12.349,0
			c-3.408,3.409-3.408,8.939,0,12.348C37.83,79.831,43.36,79.831,46.77,76.423z M35.303,64.956c2.921-2.923,7.662-2.923,10.583,0
			c2.922,2.922,2.922,7.663,0,10.583c-2.921,2.923-7.662,2.923-10.583,0C32.381,72.617,32.381,67.878,35.303,64.956z"/>
		<path stroke="#000" stroke-miterlimit="10" d="M24.71,34.428c-0.684,0.066-1.326,0.675-1.428,1.354v0.001
			c-0.095,0.634,0.277,1.346,0.842,1.652c0.041,0.023,0.082,0.042,0.125,0.06l2.446,1.015c0.063,0.026,0.146,0.053,0.214,0.079
			c0.088,1.104,0.361,2.187,0.8,3.2c-0.051,0.058-0.111,0.122-0.156,0.175l-1.682,2.041c-0.437,0.531-0.46,1.417-0.054,1.968l0,0
			c0.128,0.172,0.3,0.314,0.492,0.42c0.426,0.231,0.966,0.288,1.402,0.107l2.45-1.013c0.061-0.026,0.137-0.063,0.202-0.093
			c0.521,0.446,1.097,0.848,1.725,1.187c0.363,0.197,0.733,0.363,1.108,0.512c0.005,0.077,0.006,0.163,0.014,0.23l0.254,2.635
			c0.05,0.516,0.409,1.011,0.877,1.266c0.149,0.082,0.31,0.138,0.477,0.162h0.001c0.677,0.103,1.449-0.333,1.713-0.964l1.016-2.449
			c0.025-0.062,0.051-0.144,0.078-0.212c1.105-0.088,2.186-0.36,3.199-0.8c0.058,0.051,0.122,0.111,0.174,0.155l2.044,1.684
			c0.067,0.056,0.141,0.104,0.22,0.146c0.529,0.288,1.265,0.262,1.746-0.093v-0.002c0.552-0.407,0.79-1.258,0.527-1.893
			l-1.011-2.448c-0.027-0.061-0.063-0.135-0.094-0.202c0.447-0.521,0.848-1.097,1.19-1.725c0.197-0.363,0.363-0.736,0.509-1.108
			c0.076-0.006,0.161-0.007,0.23-0.014l2.635-0.255c0.683-0.065,1.325-0.674,1.428-1.353h-0.001c0.096-0.633-0.275-1.347-0.84-1.653
			c-0.042-0.023-0.082-0.042-0.125-0.061l-2.446-1.014c-0.063-0.026-0.144-0.051-0.212-0.079c-0.088-1.106-0.358-2.188-0.799-3.202
			c0.05-0.056,0.11-0.12,0.155-0.172l1.685-2.044c0.436-0.53,0.458-1.415,0.051-1.966l0,0c-0.128-0.174-0.299-0.314-0.492-0.42
			c-0.426-0.231-0.967-0.288-1.403-0.107l-2.447,1.011c-0.062,0.026-0.135,0.063-0.201,0.093c-0.521-0.446-1.096-0.848-1.724-1.189
			c-0.364-0.197-0.735-0.36-1.11-0.509c-0.005-0.077-0.007-0.163-0.013-0.23l-0.255-2.635c-0.051-0.516-0.412-1.01-0.877-1.264
			c-0.151-0.081-0.312-0.137-0.477-0.162l-0.001-0.001c-0.679-0.102-1.447,0.333-1.71,0.964l-1.016,2.449
			c-0.027,0.061-0.053,0.141-0.08,0.212c-1.106,0.088-2.188,0.361-3.202,0.8c-0.059-0.05-0.12-0.111-0.173-0.155l-2.042-1.684
			c-0.068-0.056-0.141-0.104-0.218-0.146c-0.532-0.288-1.268-0.261-1.747,0.095h-0.001c-0.55,0.407-0.788,1.259-0.527,1.893
			l1.012,2.448c0.027,0.061,0.065,0.135,0.095,0.202c-0.448,0.523-0.848,1.097-1.189,1.724c-0.2,0.363-0.363,0.737-0.512,1.112
			c-0.075,0.002-0.163,0.006-0.231,0.012L24.71,34.428z M27.463,35.416l0.084-0.006l0.095-0.002l0.798-0.044l0.294-0.743
			c0.151-0.382,0.292-0.692,0.446-0.975c0.289-0.531,0.639-1.04,1.041-1.51l0.512-0.598l-0.32-0.718l-0.054-0.114l-0.026-0.057
			l-1.012-2.447c-0.042-0.103,0.019-0.329,0.104-0.406l0.015-0.01c0.068-0.051,0.275-0.072,0.426,0.01l0.002,0.001l2.037,1.679
			l0.059,0.054l0.087,0.079l0.595,0.525l0.727-0.315c0.898-0.389,1.841-0.625,2.805-0.703l0.799-0.063l0.275-0.753l0.025-0.073
			l0.032-0.089l1.015-2.445c0.044-0.107,0.261-0.229,0.378-0.212c0.002,0,0.025,0.005,0.063,0.026
			c0.132,0.072,0.224,0.218,0.23,0.289l0.256,2.631l0.003,0.068l0.007,0.128l0.054,0.786l0.731,0.29
			c0.382,0.151,0.69,0.292,0.975,0.446c0.533,0.289,1.039,0.641,1.508,1.041l0.615,0.526l0.731-0.346l0.055-0.027h0.004l0.084-0.039
			l2.446-1.012c0.058-0.025,0.205-0.021,0.332,0.05c0.059,0.031,0.081,0.061,0.083,0.063l0.013,0.02
			c0.056,0.103,0.047,0.332-0.023,0.414L45.19,32.87l-0.054,0.061l-0.074,0.079l-0.53,0.597l0.316,0.73
			c0.39,0.897,0.625,1.84,0.699,2.804l0.063,0.784l0.733,0.284l0.128,0.046l0.055,0.02l2.454,1.018
			c0.117,0.063,0.219,0.273,0.205,0.373c-0.016,0.112-0.2,0.286-0.312,0.297l-2.634,0.253l-0.068,0.004l-0.128,0.006l-0.786,0.054
			l-0.29,0.733c-0.148,0.375-0.295,0.693-0.446,0.972c-0.29,0.533-0.641,1.039-1.041,1.508l-0.519,0.605l0.332,0.725l0.039,0.087
			l0.034,0.072l1.012,2.449c0.042,0.104-0.023,0.345-0.113,0.413l-0.017,0.011c-0.081,0.044-0.271,0.057-0.414-0.02l-0.002-0.003
			l-2.038-1.676l-0.056-0.051l-0.092-0.084L41.052,45.5l-0.726,0.314c-0.895,0.391-1.838,0.625-2.802,0.7l-0.783,0.061l-0.283,0.736
			l-0.048,0.126l-0.02,0.058l-1.016,2.445c-0.042,0.104-0.263,0.229-0.373,0.212h-0.012c-0.014-0.005-0.032-0.012-0.055-0.024
			c-0.13-0.071-0.224-0.219-0.232-0.288l-0.252-2.631l-0.003-0.077l-0.007-0.112l-0.046-0.793l-0.738-0.294
			c-0.382-0.15-0.69-0.291-0.975-0.444c-0.531-0.29-1.038-0.639-1.508-1.041l-0.605-0.519l-0.724,0.334l-0.084,0.039l-0.077,0.034
			l-2.446,1.011c-0.056,0.024-0.203,0.022-0.33-0.048c-0.046-0.027-0.076-0.051-0.085-0.066c-0.068-0.093-0.061-0.344,0.012-0.434
			l1.681-2.04l0.051-0.057l0.082-0.089l0.52-0.596l-0.313-0.725c-0.391-0.897-0.624-1.839-0.7-2.802l-0.061-0.784l-0.733-0.284
			l-0.125-0.046l-0.06-0.022l-2.454-1.018c-0.117-0.063-0.219-0.273-0.205-0.373c0.017-0.114,0.2-0.286,0.314-0.297L27.463,35.416z"
			/>
		<path stroke="#000" stroke-miterlimit="10" d="M34.769,41.651c2.118,1.152,4.769,0.368,5.921-1.75
			c1.152-2.118,0.368-4.769-1.75-5.921c-2.118-1.151-4.769-0.368-5.921,1.75C31.866,37.848,32.649,40.499,34.769,41.651z
			 M38.341,35.076c1.514,0.822,2.073,2.717,1.25,4.229c-0.822,1.514-2.714,2.073-4.227,1.25c-1.514-0.821-2.073-2.714-1.25-4.227
			C34.936,34.813,36.829,34.255,38.341,35.076z"/>
	</g>
</g>
</svg>
