<?xml version="1.0" encoding="utf-8"?>
<!-- Generator: Adobe Illustrator 25.3.1, SVG Export Plug-In . SVG Version: 6.00 Build 0)  -->
<svg version="1.1" id="Layer_1" xmlns="http://www.w3.org/2000/svg" xmlns:xlink="http://www.w3.org/1999/xlink" x="0px" y="0px"
	 viewBox="0 0 120 120" style="enable-background:new 0 0 120 120;" xml:space="preserve">
<style type="text/css">
	.st0{fill:#FFFFFF;}
</style>
<g>
	<g>
		<g>
			<rect x="0.3" y="114.9" class="st0" width="118" height="3.6"/>
			<polygon class="st0" points="92.4,113 92.4,57.7 26.1,57.7 26.1,113 29.7,113 29.7,61.4 88.8,61.4 88.8,113 			"/>
			<polygon class="st0" points="40.8,66.9 40.8,63.3 33.4,63.3 33.4,66.9 35.3,66.9 35.3,109.3 33.4,109.3 33.4,113 40.8,113 
				40.8,109.3 39,109.3 39,66.9 			"/>
			<polygon class="st0" points="51.9,66.9 51.9,63.3 44.5,63.3 44.5,66.9 46.4,66.9 46.4,109.3 44.5,109.3 44.5,113 51.9,113 
				51.9,109.3 50,109.3 50,66.9 			"/>
			<polygon class="st0" points="62.9,66.9 62.9,63.3 55.6,63.3 55.6,66.9 57.4,66.9 57.4,109.3 55.6,109.3 55.6,113 62.9,113 
				62.9,109.3 61.1,109.3 61.1,66.9 			"/>
			<polygon class="st0" points="74,66.9 74,63.3 66.6,63.3 66.6,66.9 68.5,66.9 68.5,109.3 66.6,109.3 66.6,113 74,113 74,109.3 
				72.1,109.3 72.1,66.9 			"/>
			<polygon class="st0" points="85.1,66.9 85.1,63.3 83.2,63.3 83.2,63.2 79.6,63.2 79.6,63.3 77.7,63.3 77.7,66.9 79.6,66.9 
				79.6,109.3 77.7,109.3 77.7,113 85.1,113 85.1,109.3 83.2,109.3 83.2,66.9 			"/>
			<rect x="22.4" y="52.2" class="st0" width="73.7" height="3.6"/>
			<rect x="0.3" y="72.5" class="st0" width="24" height="3.6"/>
			<path class="st0" d="M101.6,39.8L61.1,26.9V0.5h-3.6v26.3L16.9,39.8v10.5h84.8V39.8z M20.5,46.7v-4.2l38.7-12.3L98,42.4v4.2H20.5
				z"/>
			<polygon class="st0" points="83.2,0.6 62.9,0.6 62.9,4.2 79.6,4.2 79.6,9.8 62.9,9.8 62.9,13.4 83.2,13.4 			"/>
			<polygon class="st0" points="88.8,15.3 72.2,15.3 72.2,18.9 92.4,18.9 92.4,6.1 85.1,6.1 85.1,9.7 88.8,9.7 			"/>
			<rect x="57.4" y="37.4" class="st0" width="3.6" height="3.7"/>
			
				<rect x="10.4" y="69.6" transform="matrix(3.199984e-03 -1 1 3.199984e-03 -67.5738 91.7773)" class="st0" width="3.6" height="20.3"/>
			
				<rect x="10.4" y="88.1" transform="matrix(3.199984e-03 -1 1 3.199984e-03 -86.0756 110.2217)" class="st0" width="3.6" height="20.3"/>
			<rect x="5.8" y="85.3" class="st0" width="3.6" height="7.4"/>
			<rect x="15" y="85.3" class="st0" width="3.6" height="7.4"/>
			<rect x="5.8" y="103.8" class="st0" width="3.6" height="7.4"/>
			<rect x="15" y="103.8" class="st0" width="3.6" height="7.4"/>
			<rect x="94.3" y="72.5" class="st0" width="24" height="3.6"/>
			
				<rect x="104.5" y="69.6" transform="matrix(3.199984e-03 -1 1 3.199984e-03 26.1611 185.8026)" class="st0" width="3.6" height="20.3"/>
			
				<rect x="104.5" y="88.1" transform="matrix(3.199984e-03 -1 1 3.199984e-03 7.6592 204.2492)" class="st0" width="3.6" height="20.3"/>
			<rect x="99.9" y="85.3" class="st0" width="3.6" height="7.4"/>
			<rect x="109.1" y="85.3" class="st0" width="3.6" height="7.4"/>
			<rect x="99.9" y="103.8" class="st0" width="3.6" height="7.4"/>
			<rect x="109.1" y="103.8" class="st0" width="3.6" height="7.4"/>
		</g>
	</g>
</g>
</svg>
