<?xml version="1.0" encoding="utf-8"?>
<!-- Generator: Adobe Illustrator 25.3.1, SVG Export Plug-In . SVG Version: 6.00 Build 0)  -->
<svg version="1.1" id="Layer_1" xmlns="http://www.w3.org/2000/svg" xmlns:xlink="http://www.w3.org/1999/xlink" x="0px" y="0px"
	 viewBox="0 0 120 120" fill="#ffffff" style="enable-background:new 0 0 120 120;" xml:space="preserve">
<path d="M65.4,97.3c1.2,7,7.2,12.3,14.6,12.3h5.9c11.4,0,20.7-9.2,20.7-20.7V21.2c-3.3,0-5.9-2.6-5.9-5.9V9.4c0-3.3,2.6-5.9,5.9-5.9
	h5.9c3.3,0,5.9,2.6,5.9,5.9v5.9c0,3.3-2.6,5.9-5.9,5.9V89c0,14.7-11.9,26.6-26.6,26.6h-5.9c-10.4,0-19-7.7-20.4-17.7
	c-0.1,0-0.1,0-0.2,0c-19.6,0-35.4-15.8-35.4-35.4c0-17.5,12.7-32,29.4-34.9C52,17.3,43.3,9.4,32.7,9.4c-11.4,0-20.6,9.2-20.6,20.7
	v67.9c3.3,0,5.9,2.6,5.9,5.9v5.9c0,3.3-2.6,5.9-5.9,5.9H6.2c-3.3,0-5.9-2.6-5.9-5.9v-5.9c0-3.3,2.6-5.9,5.9-5.9V30
	C6.2,15.4,18,3.5,32.7,3.5c13.7,0,24.9,10.3,26.4,23.6c0.1,0,0.1,0,0.2,0c19.6,0,35.4,15.8,35.4,35.4C94.7,79.9,82,94.5,65.4,97.3
	L65.4,97.3z M82.3,80.9c-0.7-1.9-2-3.5-3.8-4.6l-9-5.4c-2.9,2.1-6.5,3.3-10.3,3.3s-7.4-1.2-10.3-3.3l-9,5.4c-1.7,1-3.1,2.7-3.8,4.6
	C41.6,87.6,49.9,92,59.3,92C68.6,92,76.9,87.6,82.3,80.9L82.3,80.9z M85.9,75.2c1.8-3.8,2.9-8.2,2.9-12.7C88.8,46.2,75.6,33,59.3,33
	S29.8,46.2,29.8,62.5c0,4.5,1,8.9,2.9,12.7c1.1-1.6,2.6-2.9,4.3-3.9l7.8-4.7c-2-2.9-3.1-6.3-3.1-10c0-9.8,7.9-17.7,17.7-17.7
	S77,46.8,77,56.6c0,3.7-1.2,7.2-3.1,10l7.8,4.7C83.3,72.3,84.8,73.6,85.9,75.2L85.9,75.2z M59.3,68.4c6.5,0,11.8-5.3,11.8-11.8
	s-5.3-11.8-11.8-11.8c-6.5,0-11.8,5.3-11.8,11.8S52.7,68.4,59.3,68.4z M6.2,103.8v5.9h5.9v-5.9H6.2z M106.5,9.4v5.9h5.9V9.4H106.5z"
	/>
</svg>
