<?xml version="1.0" encoding="utf-8"?>
<!-- Generator: Adobe Illustrator 25.3.1, SVG Export Plug-In . SVG Version: 6.00 Build 0)  -->
<svg version="1.1" id="Layer_1" xmlns="http://www.w3.org/2000/svg" xmlns:xlink="http://www.w3.org/1999/xlink" x="0px" y="0px"
	 viewBox="0 0 120 120" fill="#ffffff" style="enable-background:new 0 0 120 120;" xml:space="preserve">
<g>
	<g>
		<g>
			<path d="M69.3,0.5H53.6c-10.2,0-19.9,4.1-27.3,11.6c-7.2,7.3-11.3,17.1-11.3,27v14.2l-4.8,23.8c-0.1,0.7,0,1.4,0.5,2
				S12,80,12.7,80H21c2,3.6,1.8,6.9,1.6,9.7c-0.2,2.6-0.4,5.2,1.5,7.2c1.5,1.6,3.9,2.3,7.9,2.3h26.5v19.3h4.8V96.8
				c0-1.3-1.1-2.4-2.4-2.4H32c-3.4,0-4.2-0.6-4.4-0.8c-0.4-0.4-0.3-2-0.2-3.6c0.2-3.5,0.6-8.4-3-13.8c-0.4-0.7-1.2-1.1-2-1.1h-6.7
				L19.9,54c0-0.2,0-0.3,0-0.5V39c0-18.3,15.4-33.7,33.7-33.7h15.7C87.9,5.3,103,20.4,103,39v79.5h4.8V39
				C107.8,17.8,90.5,0.5,69.3,0.5z"/>
			<path d="M95.5,47.6l-6-12c-0.4-0.8-1.2-1.3-2.2-1.3c-0.9,0-1.7,0.5-2.2,1.3l-6,12c-0.2,0.3-0.2,0.7-0.2,1.1h0v48.2v9.6
				c0,1.3,1.1,2.4,2.4,2.4h12c1.3,0,2.4-1.1,2.4-2.4v-9.6V48.7h0C95.8,48.3,95.7,47.9,95.5,47.6z M87.4,42l2.1,4.2h-4.2L87.4,42z
				 M91,104.1h-7.2v-4.8H91V104.1z M91,94.4h-7.2V51.1H91V94.4z"/>
			<path d="M66.9,17.4h-4.8V33H39.2v4.8h12v8.4H33.2c-1.3,0-2.4,1.1-2.4,2.4v15.7h4.8V51.1h15.7v8.4H56V46.3h9.6v26.5h4.8V43.8
				c0-1.3-1.1-2.4-2.4-2.4H56v-3.6h21.7V33H66.9V17.4z"/>
		</g>
	</g>
</g>
</svg>
