<?xml version="1.0" encoding="UTF-8"?>
<svg id="Layer_1" xmlns="http://www.w3.org/2000/svg" version="1.1" viewBox="0 0 512 512">
  <!-- Generator: Adobe Illustrator 29.0.1, SVG Export Plug-In . SVG Version: 2.1.0 Build 192)  -->
  <defs>
    <style>
      .st0 {
        fill: #e31e34;
      }

      .st1 {
        fill: #d6251f;
      }
    </style>
  </defs>
  <path class="st1" d="M248,222.7h16v16h-16v-16Z"/>
  <path class="st0" d="M480,446.7v-232c0-13.3-10.7-24-24-24h-192v-56h-16v56H56c-13.3,0-24,10.7-24,24v232H0v24c0,22.1,17.9,40,40,40h432c22.1,0,40-17.9,40-40v-24h-32ZM48,214.7c0-4.4,3.6-8,8-8h400c4.4,0,8,3.6,8,8v232h-16v-224h-168v16h152v208h-80v-20.9c0-10-6.2-18.9-15.6-22.5l-48.4-18.2v-24.7l8-6.1v-67.7c0-13.3-10.7-24-24-24h-23c-23.1,0-43.2,15.7-48.7,38.1l-2.5,9.9h18.2v43.7l8,6.1v24.7l-48.4,18.2c-9.4,3.5-15.6,12.5-15.6,22.5v20.9h-80v-208h152v-16H64v224h-16v-232ZM176,446.7v-20.9c0-3.3,2.1-6.3,5.2-7.5l45.8-17.2c4.6,7.4,12.4,12.1,21,12.9v24.7h16v-24.7c8.6-.8,16.4-5.6,21-12.9l45.8,17.2c3.1,1.2,5.2,4.2,5.2,7.5v20.9h-48v8c0,4.4-3.6,8-8,8h-48c-4.4,0-8-3.6-8-8v-8h-48ZM264,358.7h-16l-16-12.2v-35.8h32v-16h-44c6.3-10,17.2-16,29-16h23c4.4,0,8,3.6,8,8v59.8l-16,12.2ZM272,372.6v17.8c0,1.4-1.3,8.2-16,8.2s-15.9-6.9-16-8v-18l2.6,2h26.7l2.6-2ZM496,470.7c0,13.3-10.7,24-24,24H40c-13.3,0-24-10.7-24-24v-8h193.4c3.4,9.6,12.5,16,22.6,16h48c10.2,0,19.2-6.4,22.6-16h193.4v8Z"/>
  <path class="st0" d="M134.7,161c-41-41.1-41-107.6,0-148.7l-11.3-11.3c-47.2,47.3-47.2,124,0,171.3l11.3-11.3Z"/>
  <path class="st0" d="M154.6,151l11.3-11.3c-29.2-29.3-29.2-76.7,0-106l-11.3-11.3c-35.5,35.5-35.5,93.1,0,128.6Z"/>
  <path class="st0" d="M197.1,118.3c-17.5-17.5-17.5-45.8,0-63.4l-11.3-11.3c-23.7,23.8-23.7,62.2,0,86l11.3-11.3Z"/>
  <path class="st0" d="M377.3,161l11.3,11.3c47.2-47.3,47.2-124,0-171.3l-11.3,11.3c41,41.1,41,107.6,0,148.7Z"/>
  <path class="st0" d="M357.4,151c35.5-35.5,35.5-93.1,0-128.6l-11.3,11.3c29.2,29.3,29.2,76.7,0,106l11.3,11.3Z"/>
  <path class="st0" d="M326.2,129.6c23.7-23.8,23.7-62.2,0-86l-11.3,11.3c17.5,17.5,17.5,45.8,0,63.4l11.3,11.3Z"/>
  <path class="st0" d="M256,118.7c17.7,0,32-14.3,32-32s-14.3-32-32-32-32,14.3-32,32,14.3,32,32,32ZM256,70.7c8.8,0,16,7.2,16,16s-7.2,16-16,16-16-7.2-16-16,7.2-16,16-16Z"/>
</svg>