<?xml version="1.0" encoding="utf-8"?>
<!-- Generator: Adobe Illustrator 16.0.0, SVG Export Plug-In . SVG Version: 6.00 Build 0)  -->
<!DOCTYPE svg PUBLIC "-//W3C//DTD SVG 1.1//EN" "http://www.w3.org/Graphics/SVG/1.1/DTD/svg11.dtd">
<svg version="1.1" id="Layer_1" xmlns="http://www.w3.org/2000/svg" xmlns:xlink="http://www.w3.org/1999/xlink" x="0px" y="0px"
	 width="120px" height="120px" viewBox="0 0 120 120" enable-background="new 0 0 120 120" xml:space="preserve">
<g>
	<path fill="#037061" d="M25.257,22.831l13.897,6.11c-2.755,4.073-4.193,8.746-4.193,13.658c0,13.418,10.902,24.44,24.44,24.44
		c13.538,0,24.44-10.902,24.44-24.44c0-4.792-1.438-9.584-4.073-13.538l12.22-5.751v23.242l-3.714,7.907
		c-0.239,0.6-0.239,1.198,0.119,1.678c0.36,0.479,0.959,0.838,1.559,0.838h7.067c0.6,0,1.199-0.24,1.438-0.838
		c0.359-0.479,0.359-1.078,0.12-1.678l-3.234-7.907V21.753c0-0.959-0.12-1.678-1.798-2.396C93.186,19.236,60.24,4.621,60.24,4.621
		c-0.479-0.24-0.958-0.24-1.438,0L25.257,19.476c-0.6,0.24-1.079,0.958-1.079,1.677C24.178,21.872,24.538,22.472,25.257,22.831z
		 M80.127,42.598c0,11.501-9.345,20.847-20.846,20.847c-11.501,0-20.846-9.346-20.846-20.847c0-4.433,1.438-8.625,3.954-12.22
		l16.293,7.308c0.24,0.12,0.479,0.12,0.719,0.12c0.239,0,0.479,0,0.719-0.12l16.054-7.189
		C78.809,34.092,80.127,38.285,80.127,42.598z M92.706,53.381l0.839-1.797l0.719,1.797H92.706z M59.521,8.214l29.113,12.938
		L59.521,34.092L30.408,21.153L59.521,8.214z"/>
	<path fill="#037061" d="M60,71.351c-23.362,0-42.411,19.05-42.411,42.411c0,0.959,0.839,1.798,1.797,1.798h81.228
		c0.959,0,1.798-0.839,1.798-1.798C102.411,90.4,83.361,71.351,60,71.351z M21.303,111.965c0.958-20.606,17.971-37.02,38.817-37.02
		s37.739,16.532,38.697,37.02H21.303z"/>
</g>
</svg>
