<?xml version="1.0" encoding="utf-8"?>
<!-- Generator: Adobe Illustrator 25.3.1, SVG Export Plug-In . SVG Version: 6.00 Build 0)  -->
<svg version="1.1" id="Layer_1" xmlns="http://www.w3.org/2000/svg" xmlns:xlink="http://www.w3.org/1999/xlink" x="0px" y="0px"
	 viewBox="0 0 120 120" style="enable-background:new 0 0 120 120;" xml:space="preserve">
<style type="text/css">
	.st0{fill:#FFFFFF;}
</style>
<path class="st0" d="M97.6,39.2v-3.6c4.6-2.7,7.5-7.7,7.5-13v-6.5c0-8.3-6.7-15.1-15.1-15.1S74.9,7.8,74.9,16.1v6.5
	c0,5.2,2.7,10.1,7.3,12.8v3.9c-2,0.5-3.9,1.3-5.8,2.4c-3-6.9-9.8-11.7-17.7-11.7c-7.8,0-14.4,4.6-17.5,11.3c-1.7-0.8-3.5-1.6-5.2-2
	v-3.6c4.6-2.7,7.5-7.7,7.5-13v-6.5c0-8.3-6.7-15.1-15.1-15.1S13.3,7.8,13.3,16.1v6.5c0,5.2,2.7,10.1,7.3,12.8v3.9
	C8.5,42.7,0.3,53.6,0.3,66.2c0,1.1,0.9,2,2,2h39.8c0.1,0,0.3,0,0.4,0c1.6,2.6,3.9,4.7,6.6,6.3v6c-16,4.3-26.9,18.7-26.9,35.3
	c0,1.1,0.9,2,2,2h69.2c1.1,0,2-0.9,2-2c0-16.5-11.4-31.2-27.3-35.3v-5.8c2.8-1.6,5.1-3.8,6.9-6.5h41.3c1.1,0,2-0.9,2-2
	C118.1,53.7,109.5,42.6,97.6,39.2z M4.3,64.4C5.1,53.9,12.6,45.3,23,42.9c0.9-0.3,1.6-1.1,1.6-2v-6.7c0-0.8-0.4-1.5-1.1-1.7
	c-3.8-1.9-6.2-5.6-6.2-9.8v-6.5c0-6,5-11,11-11s11,5,11,11v6.5c0,4.2-2.6,8.1-6.3,9.9c-0.7,0.3-1.2,1.1-1.2,1.9v6.5
	c0,0.9,0.7,1.7,1.6,2c2.3,0.5,4.4,1.3,6.5,2.4c-0.3,1.3-0.4,2.7-0.4,4.2V58c0,2.2,0.4,4.3,1.1,6.3H4.3L4.3,64.4z M65.2,71.8
	C64.5,72,64,72.8,64,73.6v8.6c0,0.9,0.7,1.7,1.6,2c14.2,3.1,24.7,15.5,25.7,29.8h-65c0.8-14.4,11-26.5,25.3-29.7
	c0.9-0.3,1.6-1.1,1.6-2v-8.9c0-0.8-0.4-1.5-1.1-1.7c-5.2-2.6-8.5-7.8-8.5-13.6v-8.6c0-8.5,6.9-15.2,15.2-15.2s15.2,6.9,15.2,15.2V58
	C73.9,63.8,70.6,69.2,65.2,71.8z M76.9,64.4c0.7-2,1.1-4.2,1.1-6.3v-8.6c0-1.2-0.1-2.6-0.4-3.6c2.2-1.3,4.6-2.3,7-2.8
	c0.9-0.3,1.6-1.1,1.6-2v-6.7c0-0.8-0.4-1.5-1.1-1.7c-3.8-1.9-6.2-5.6-6.2-9.8v-6.5c0-6,5-11,11-11s11,5,11,11v6.5
	c0,4.2-2.6,8.1-6.3,9.9c-0.7,0.3-1.2,1.1-1.2,1.9V41c0,0.9,0.7,1.7,1.6,2c10.3,2.3,18,11.2,18.9,21.5L76.9,64.4L76.9,64.4z"/>
</svg>
