<?xml version="1.0" encoding="UTF-8"?>
<svg id="Capa_1" xmlns="http://www.w3.org/2000/svg" version="1.1" viewBox="0 0 490 490">
  <!-- Generator: Adobe Illustrator 29.0.1, SVG Export Plug-In . SVG Version: 2.1.0 Build 192)  -->
  <defs>
    <style>
      .st0 {
        fill: #e31e34;
      }
    </style>
  </defs>
  <path class="st0" d="M465,334.6H25c-13.8,0-25-11.2-25-25V73c0-13.8,11.2-25,25-25h440c13.8,0,25,11.2,25,25v236.6c0,13.8-11.2,25-25,25ZM25,68.2c-2.7,0-4.8,2.2-4.8,4.8v236.6c0,2.7,2.2,4.8,4.8,4.8h440c2.7,0,4.8-2.2,4.8-4.8V73c0-2.7-2.2-4.8-4.8-4.8H25Z"/>
  <path class="st0" d="M192.7,268.1c-3.3-1.8-5.5-5.2-5.5-9V123.5c0-3.8,2.1-7.2,5.5-9,3.4-1.7,7.4-1.4,10.5.7l95.4,67.8c2.7,1.9,4.2,5,4.2,8.2s-1.6,6.3-4.2,8.2c0,0-71.5,50.9-95.4,67.8-1.7,1.2-5.5,3.5-10.5.7ZM207.4,143v96.5l67.8-48.2-67.8-48.2Z"/>
  <path class="st0" d="M479.9,391.9h-193.1c-4.5-17.2-20.1-29.9-38.7-29.9s-34.2,12.7-38.7,29.9H10.1c-5.6,0-10.1,4.5-10.1,10.1s4.5,10.1,10.1,10.1h199.3c4.5,17.2,20.1,29.9,38.7,29.9s34.2-12.7,38.7-29.9h193.1c5.6,0,10.1-4.5,10.1-10.1s-4.5-10.1-10.1-10.1ZM248.1,421.8c-10.9,0-19.8-8.9-19.8-19.8s8.9-19.8,19.8-19.8,19.8,8.9,19.8,19.8c0,10.9-8.9,19.8-19.8,19.8Z"/>
</svg>