<?xml version="1.0" encoding="UTF-8"?>
<svg id="Layer_1" xmlns="http://www.w3.org/2000/svg" version="1.1" viewBox="0 0 512 512">
  <!-- Generator: Adobe Illustrator 29.0.1, SVG Export Plug-In . SVG Version: 2.1.0 Build 192)  -->
  <defs>
    <style>
      .st0 {
        fill: #e31e34;
      }
    </style>
  </defs>
  <g id="outline">
    <path class="st0" d="M136,120h176c4.4,0,8-3.6,8-8s-3.6-8-8-8h-176c-4.4,0-8,3.6-8,8s3.6,8,8,8Z"/>
    <path class="st0" d="M136,168h176c4.4,0,8-3.6,8-8s-3.6-8-8-8h-176c-4.4,0-8,3.6-8,8s3.6,8,8,8Z"/>
    <path class="st0" d="M136,216h176c4.4,0,8-3.6,8-8s-3.6-8-8-8h-176c-4.4,0-8,3.6-8,8s3.6,8,8,8Z"/>
    <path class="st0" d="M136,264h176c4.4,0,8-3.6,8-8s-3.6-8-8-8h-176c-4.4,0-8,3.6-8,8s3.6,8,8,8Z"/>
    <path class="st0" d="M136,312h64c4.4,0,8-3.6,8-8s-3.6-8-8-8h-64c-4.4,0-8,3.6-8,8s3.6,8,8,8Z"/>
    <path class="st0" d="M452.1,205c-11.4-6.7-26.1-2.9-32.8,8.6l-19.3,32.9V48c0-4.4-3.6-8-8-8h-60.7s-24-24.5-25-23.7c-.8-.2-1.5-.3-2.3-.3H72c-4.4,0-8,3.6-8,8v25c-17.1,4.4-27.4,21.9-23,39,2.9,11.3,11.7,20.1,23,23v18c-17.1,4.4-27.4,21.9-23,39,2.9,11.3,11.7,20.1,23,23v18c-17.1,4.4-27.4,21.9-23,39,2.9,11.3,11.7,20.1,23,23v10c-17.1,4.4-27.4,21.9-23,39,2.9,11.3,11.7,20.1,23,23v49c0,4.4,3.6,8,8,8h8v24c0,4.4,3.6,8,8,8h203.3l-5.5,9.4c-.5.8-.8,1.8-1,2.7,0,0,0,0,0,.1h0v.2l-6.4,42.4c-.7,4.4,2.3,8.4,6.7,9.1,2.2.3,4.4-.2,6.1-1.6l34-26.4c2.2-1.7,3.2-2.7,3.1-4.1l18.6-31.8h45.1c4.4,0,8-3.6,8-8v-82.6l60.7-103.6c6.7-11.4,2.9-26.1-8.6-32.8ZM438,218c4.3-1.1,8.6,1.4,9.8,5.7.5,2.1.2,4.2-.8,6.1l-4,6.9-13.8-8.1,4-6.9c1.1-1.8,2.8-3.2,4.9-3.7ZM317.5,450.6l-13.8-8.1,105.2-179.5,13.8,8.1-105.2,179.5ZM312,43.3l28.7,28.7h-28.7v-28.7ZM416.9,249.3l4-6.9,13.8,8.1-4,6.9-13.8-8.1ZM384,56v216c0,.5,0,1,.2,1.5l-16.2,27.6V80c0-2.1-.8-4.2-2.3-5.6h0s-18.3-18.4-18.3-18.4h36.7ZM80,32h216v48c0,4.4,3.6,8,8,8h48v240.4l-32.6,55.6H80v-41c11.3-2.9,20.1-11.7,23-23,1.1-4.3-1.5-8.6-5.8-9.7-4.3-1.1-8.6,1.5-9.7,5.8h0c-1.1,4.2-3.8,7.7-7.5,9.8v-54.9c11.3-2.9,20.1-11.7,23-23,1.1-4.3-1.5-8.6-5.8-9.7s-8.6,1.5-9.7,5.8h0c-1.1,4.2-3.8,7.7-7.5,9.8v-62.9c11.3-2.9,20.1-11.7,23-23,1.1-4.3-1.5-8.6-5.8-9.7s-8.6,1.5-9.7,5.8h0c-1.1,4.2-3.8,7.7-7.5,9.8v-62.9c11.3-2.9,20.1-11.7,23-23,1.1-4.3-1.5-8.6-5.8-9.7-4.3-1.1-8.6,1.5-9.7,5.8-1.1,4.2-3.8,7.7-7.5,9.8v-61.8ZM56,80c0-5.7,3.1-11,8-13.8v27.7c-4.9-2.9-8-8.1-8-13.8ZM56,160c0-5.7,3.1-11,8-13.8v27.7c-4.9-2.9-8-8.1-8-13.8ZM56,240c0-5.7,3.1-11,8-13.8v27.7c-4.9-2.9-8-8.1-8-13.8ZM56,312c0-5.7,3.1-11,8-13.8v27.7c-4.9-2.9-8-8.1-8-13.8ZM96,416v-16h214l-9.4,16H96ZM298.9,458.3l7.2,4.2-8.9,6.9,1.7-11.1ZM384,416h-27.7l27.7-47.3v47.3Z"/>
  </g>
</svg>