<?xml version="1.0" encoding="utf-8"?>
<!-- Generator: Adobe Illustrator 25.3.1, SVG Export Plug-In . SVG Version: 6.00 Build 0)  -->
<svg version="1.1" id="Layer_1" xmlns="http://www.w3.org/2000/svg" xmlns:xlink="http://www.w3.org/1999/xlink" x="0px" y="0px"
	 viewBox="0 0 120 120" fill="#ffffff" style="enable-background:new 0 0 120 120;" xml:space="preserve">
<g>
	<path d="M117.8,53L97,35.4V10.9c0-0.7-0.6-1.3-1.3-1.3c0,0,0,0,0,0H80c-0.7,0-1.3,0.6-1.3,1.3v9.1L60.1,4.3c-0.5-0.4-1.2-0.4-1.7,0
		L0.7,53c-0.5,0.5-0.6,1.3-0.1,1.8c0.2,0.3,0.6,0.5,1,0.5h12.1v58.5c0,0.7,0.6,1.3,1.4,1.2c0.7,0,1.2-0.6,1.2-1.2V54
		c0-0.7-0.6-1.3-1.3-1.3H5.1L59.3,7l19.9,16.8c0.5,0.5,1.4,0.4,1.8-0.2c0.2-0.2,0.3-0.5,0.3-0.8V12.2h13.2v23.9c0,0.4,0.2,0.7,0.5,1
		l18.5,15.7h-9.9c-0.7,0-1.3,0.6-1.3,1.3c0,0,0,0,0,0v13.1c0,0.7,0.6,1.3,1.3,1.3c0.7,0,1.3-0.6,1.3-1.3V55.3H117
		c0.7,0,1.3-0.6,1.3-1.3C118.3,53.6,118.1,53.2,117.8,53L117.8,53z"/>
	<path d="M47.1,90.7c-6,0-10.5,2.5-10.5,5.9s4.5,5.9,10.5,5.9c6,0,10.5-2.5,10.5-5.9C57.6,93.3,53.1,90.7,47.1,90.7z M47.1,100
		c-4.9,0-7.9-1.9-7.9-3.3s3-3.3,7.9-3.3s7.9,1.9,7.9,3.3S52,100,47.1,100z"/>
	<path d="M86.6,74.7c5.6-3.8,7.1-11.4,3.3-17s-11.4-7.1-17-3.3c-5.6,3.8-7.1,11.4-3.3,17c0.9,1.3,2,2.4,3.3,3.3
		c-2.4,0.6-4.7,1.8-6.6,3.5c-0.5-0.2-1-0.3-1.5-0.3H29.2c-2.5,0-4.5,2-4.5,4.5v31.4c0,0.7,0.6,1.3,1.3,1.3c0,0,0,0,0,0h40.1h23.5
		c5.1,0,9.2-4.1,9.2-9.2V90.3C98.7,82.9,93.7,76.5,86.6,74.7z M66.8,112.5H27.3V82.4c0-1,0.8-1.9,1.9-1.9h35.8c0.2,0,0.4,0,0.6,0.1
		c0,0,0.1,0.1,0.1,0.1c0.2,0.2,0.4,0.3,0.6,0.3c0.4,0.4,0.6,0.8,0.6,1.3L66.8,112.5z M70.2,64.5c0-5.3,4.3-9.6,9.6-9.6
		s9.6,4.3,9.6,9.6c0,5.3-4.3,9.6-9.6,9.6c0,0,0,0,0,0C74.5,74.1,70.2,69.8,70.2,64.5L70.2,64.5z M96.1,106c0,3.6-2.9,6.6-6.6,6.6
		h-11c-1.8-0.1-3.3-1.6-3.2-3.4c0.1-1.8,1.5-3.2,3.2-3.2h9.4c0.7,0,1.3-0.6,1.3-1.3V90.4c0-0.7-0.6-1.3-1.3-1.3
		c-0.7,0-1.3,0.6-1.3,1.3c0,0,0,0,0,0v12.9h-8.1c-3.3,0-5.9,2.7-5.9,5.9c0,0,0,0,0,0c0,1.2,0.3,2.3,1,3.3h-4.2V82.4
		c0-1-0.3-1.9-0.9-2.6c2.4-1.9,5.4-3,8.5-3h5.6c7.5,0,13.5,6.1,13.5,13.5L96.1,106z"/>
</g>
</svg>
