<?xml version="1.0" encoding="utf-8"?>
<!-- Generator: Adobe Illustrator 25.3.1, SVG Export Plug-In . SVG Version: 6.00 Build 0)  -->
<svg version="1.1" id="Layer_1" xmlns="http://www.w3.org/2000/svg" xmlns:xlink="http://www.w3.org/1999/xlink" x="0px" y="0px"
	 viewBox="0 0 120 120" fill="#ffffff" style="enable-background:new 0 0 120 120;" xml:space="preserve">
<g>
	<path d="M118.3,89.6V75.2l-7.1-1.8c-0.6-1.8-1.3-3.5-2.1-5.2l3.7-6.3l-10.2-10.2l-6.3,3.7c-1.6-0.9-3.4-1.6-5.2-2.1l-1.8-7.1H74.9
		l-1.8,7.1c-1.8,0.6-3.5,1.3-5.2,2.1l-6.3-3.7l-0.4,0.4v-6h-5.7c-1.6,0-3.1-0.7-4.2-1.9c-1.1-1.2-1.6-2.8-1.5-4.4
		c0.3-2.9,2.9-5.1,6-5.1h5.4V17.7c0-3.1-2.6-5.7-5.7-5.7H40.2v-1.6c0-5-3.8-9.3-8.6-9.8C29,0.3,26.3,1.2,24.3,3
		c-2,1.8-3.1,4.4-3.1,7V12H6c-3.1,0-5.7,2.6-5.7,5.7v17.1h5.4c3.1,0,5.7,2.3,6,5.1c0.2,1.6-0.4,3.2-1.5,4.4
		c-1.1,1.2-2.6,1.9-4.2,1.9H0.3v17.1c0,3.1,2.6,5.7,5.7,5.7h19v-5.4c0-3.1,2.3-5.7,5.1-6c1.6-0.1,3.2,0.4,4.4,1.5
		c1.2,1.1,1.9,2.6,1.9,4.2v5.7h18.3c-0.7,1.4-1.3,2.8-1.7,4.3l-7.1,1.8v14.4l7.1,1.8c0.6,1.8,1.3,3.5,2.1,5.2l-3.7,6.3L61.6,113
		l6.3-3.7c1.6,0.9,3.4,1.6,5.2,2.1l1.8,7.1h14.4l1.8-7.1c1.8-0.6,3.5-1.3,5.2-2.1l6.3,3.7l10.2-10.2l-3.7-6.3
		c0.9-1.6,1.6-3.4,2.1-5.2L118.3,89.6z M37.1,56.3c-2-1.8-4.7-2.7-7.3-2.4c-4.8,0.5-8.6,4.8-8.6,9.8v1.6H6c-1,0-1.9-0.9-1.9-1.9V50
		H6c2.7,0,5.2-1.1,7-3.1c1.8-2,2.7-4.6,2.4-7.3C15,34.8,10.7,31,5.6,31H4.1V17.7c0-1.1,0.9-1.9,1.9-1.9h19v-5.7
		c0-1.6,0.7-3.1,1.9-4.2c1.2-1.1,2.8-1.6,4.4-1.5c2.9,0.3,5.1,2.9,5.1,6v5.4h19c1,0,1.9,0.9,1.9,1.9V31h-1.6c-5,0-9.3,3.8-9.8,8.6
		c-0.3,2.7,0.6,5.3,2.4,7.3c1.8,2,4.4,3.1,7,3.1h1.9v6l-5.9,5.9l2,3.4H40.2v-1.9C40.2,60.7,39.1,58.1,37.1,56.3z M108.1,88.3
		l-0.3,1.1c-0.6,2.2-1.5,4.4-2.6,6.3l-0.6,1l3.3,5.6l-6,6l-5.6-3.3l-1,0.6c-2,1.1-4.1,2-6.3,2.6l-1.1,0.3l-1.6,6.4h-8.5l-1.6-6.4
		l-1.1-0.3c-2.2-0.6-4.4-1.5-6.3-2.6l-1-0.6l-5.6,3.3l-6-6l3.3-5.6l-0.6-1c-1.1-2-2-4.1-2.6-6.3l-0.3-1.1l-6.4-1.6v-8.5l6.4-1.6
		l0.3-1.1c0.6-2.2,1.5-4.4,2.6-6.3l0.6-1l-3.3-5.6l6-6l5.6,3.3l1-0.6c2-1.1,4.1-2,6.3-2.6l1.1-0.3l1.6-6.4h8.5l1.6,6.4l1.1,0.3
		c2.2,0.6,4.4,1.5,6.3,2.6l1,0.6l5.6-3.3l6,6l-3.3,5.6l0.6,1c1.1,2,2,4.1,2.6,6.3l0.3,1.1l6.4,1.6v8.5L108.1,88.3z"/>
	<path d="M82.1,67.2c-8.4,0-15.2,6.8-15.2,15.2s6.8,15.2,15.2,15.2c3.3,0,6.5-1.1,9.1-3.1l-2.3-3c-2,1.5-4.4,2.3-6.8,2.3
		c-6.3,0-11.4-5.1-11.4-11.4c0-6.3,5.1-11.4,11.4-11.4s11.4,5.1,11.4,11.4c0,2.5-0.8,4.8-2.3,6.8l3,2.3c2-2.7,3.1-5.8,3.1-9.1
		C97.3,74,90.5,67.2,82.1,67.2z"/>
	<path d="M82.1,59.6c-12.6,0-22.8,10.2-22.8,22.8s10.2,22.8,22.8,22.8s22.8-10.2,22.8-22.8S94.7,59.6,82.1,59.6z M82.1,101.4
		c-10.5,0-19-8.5-19-19s8.5-19,19-19s19,8.5,19,19S92.6,101.4,82.1,101.4z"/>
	<rect x="97.3" y="12" width="3.8" height="3.8"/>
	<rect x="97.3" y="19.6" width="3.8" height="3.8"/>
	<rect x="101.1" y="15.8" width="3.8" height="3.8"/>
	<rect x="93.5" y="15.8" width="3.8" height="3.8"/>
	<rect x="78.3" y="27.2" width="3.8" height="3.8"/>
	<rect x="78.3" y="34.8" width="3.8" height="3.8"/>
	<rect x="82.1" y="31" width="3.8" height="3.8"/>
	<rect x="74.5" y="31" width="3.8" height="3.8"/>
	<rect x="104.9" y="34.8" width="3.8" height="3.8"/>
	<rect x="104.9" y="42.4" width="3.8" height="3.8"/>
	<rect x="108.7" y="38.6" width="3.8" height="3.8"/>
	<rect x="101.1" y="38.6" width="3.8" height="3.8"/>
	<rect x="68.8" y="4.4" width="3.8" height="3.8"/>
	<rect x="68.8" y="12" width="3.8" height="3.8"/>
	<rect x="72.6" y="8.2" width="3.8" height="3.8"/>
	<rect x="65" y="8.2" width="3.8" height="3.8"/>
	<rect x="32.6" y="88.1" width="3.8" height="3.8"/>
	<rect x="32.6" y="95.7" width="3.8" height="3.8"/>
	<rect x="36.4" y="91.9" width="3.8" height="3.8"/>
	<rect x="28.8" y="91.9" width="3.8" height="3.8"/>
	<rect x="13.6" y="76.7" width="3.8" height="3.8"/>
	<rect x="13.6" y="84.3" width="3.8" height="3.8"/>
	<rect x="17.4" y="80.5" width="3.8" height="3.8"/>
	<rect x="9.8" y="80.5" width="3.8" height="3.8"/>
</g>
</svg>
