<?xml version="1.0" encoding="UTF-8"?>
<svg id="outline" xmlns="http://www.w3.org/2000/svg" version="1.1" viewBox="0 0 512 512">
  <!-- Generator: Adobe Illustrator 29.0.1, SVG Export Plug-In . SVG Version: 2.1.0 Build 192)  -->
  <defs>
    <style>
      .st0 {
        fill: #e31e34;
      }
    </style>
  </defs>
  <path class="st0" d="M472,16H40c-13.2,0-24,10.8-24,24v432c0,13.2,10.8,24,24,24h432c13.2,0,24-10.8,24-24V40c0-13.2-10.8-24-24-24ZM40,32h432c4.4,0,8,3.6,8,8v24H32v-24c0-4.4,3.6-8,8-8ZM472,480H40c-4.4,0-8-3.6-8-8V80h448v392c0,4.4-3.6,8-8,8Z"/>
  <circle class="st0" cx="48" cy="48" r="8"/>
  <circle class="st0" cx="72" cy="48" r="8"/>
  <circle class="st0" cx="96" cy="48" r="8"/>
  <path class="st0" d="M104,128c0-13.3-10.7-24-24-24s-24,10.7-24,24,10.7,24,24,24c13.2,0,24-10.8,24-24ZM72,128c0-4.4,3.6-8,8-8s8,3.6,8,8-3.6,8-8,8c-4.4,0-8-3.6-8-8Z"/>
  <rect class="st0" x="120" y="104" width="16" height="16"/>
  <rect class="st0" x="152" y="104" width="96" height="16"/>
  <rect class="st0" x="120" y="136" width="56" height="16"/>
  <rect class="st0" x="192" y="136" width="16" height="16"/>
  <path class="st0" d="M440,176H72c-4.4,0-8,3.6-8,8v200c0,4.4,3.6,8,8,8h368c4.4,0,8-3.6,8-8v-200c0-4.4-3.6-8-8-8ZM432,192v104.3l-75.3-54.8c-2.8-2-6.6-2-9.4,0l-19.3,14c-.2-4.2-3.7-7.6-8-7.6h-8c0-4.4-3.6-8-8-8h-16c-4.4,0-8,3.6-8,8h-12.7l-13.7-13.7c-1.5-1.5-3.5-2.3-5.7-2.3h-56c-2.7,0-5.2,1.3-6.6,3.5l-12.4-9.8c-2.8-2.3-6.9-2.3-9.8-.1l-83.2,62.4v-96h352ZM312,264v16h-36.4c-10.9-10.7-28.3-10.7-39.1,0h-36.4v-32h44.7l13.7,13.7c1.5,1.5,3.5,2.3,5.7,2.3h48ZM268,300c0,6.6-5.4,12-12,12s-12-5.4-12-12,5.4-12,12-12c6.6,0,12,5.4,12,12ZM200,296h28.3c-2.2,15.3,8.4,29.5,23.7,31.7s29.5-8.4,31.7-23.7c.4-2.7.4-5.4,0-8h28.3v40h-112v-40ZM80,308l87.9-65.9,16.1,12.8v89.1c0,4.4,3.6,8,8,8h114.7l30.3,24H80v-68ZM362.8,376l-35.7-28.3c.6-1.1.9-2.4.9-3.7v-68.7l24-17.5,80,58.2v59.9h-69.2Z"/>
  <path class="st0" d="M108.7,408c-4.7,0-9.2,1.7-12.7,4.7-8-7-20.2-6.2-27.3,1.9-6.7,7.7-6.3,19.2.9,26.3l20.7,20.7c3.1,3.1,8.2,3.1,11.3,0l20.7-20.7c7.5-7.5,7.5-19.8,0-27.3-3.6-3.6-8.5-5.7-13.7-5.7ZM111,429.7l-15,15-15-15c-1.3-1.3-1.3-3.4,0-4.7s3.4-1.3,4.7,0h0l4.7,4.7c3.1,3.1,8.2,3.1,11.3,0l4.7-4.7c1.3-1.3,3.4-1.3,4.7,0s1.3,3.4,0,4.7h0Z"/>
  <path class="st0" d="M164,408c-15.5,0-28,12.5-28,28s12.5,28,28,28,28-12.5,28-28c0-15.5-12.5-28-28-28ZM164,448c-6.6,0-12-5.4-12-12s5.4-12,12-12,12,5.4,12,12c0,6.6-5.4,12-12,12Z"/>
  <path class="st0" d="M259.6,428.8l-40-20c-4-2-8.8-.4-10.7,3.6-.6,1.1-.8,2.3-.8,3.6v40c0,4.4,3.6,8,8,8,1.2,0,2.5-.3,3.6-.8l40-20c4-2,5.6-6.8,3.6-10.7-.8-1.5-2-2.8-3.6-3.6ZM224,443.1v-14.1l14.1,7.1-14.1,7.1Z"/>
</svg>