<?xml version="1.0" encoding="UTF-8"?>
<svg id="Layer_1" xmlns="http://www.w3.org/2000/svg" version="1.1" viewBox="0 0 512 512">
  <!-- Generator: Adobe Illustrator 29.0.1, SVG Export Plug-In . SVG Version: 2.1.0 Build 192)  -->
  <defs>
    <style>
      .st0 {
        fill: #e31e34;
      }
    </style>
  </defs>
  <path class="st0" d="M157,30c-4.1,0-7.5,3.4-7.5,7.5s3.4,7.5,7.5,7.5,7.5-3.4,7.5-7.5-3.4-7.5-7.5-7.5ZM187,30c-4.1,0-7.5,3.4-7.5,7.5s3.4,7.5,7.5,7.5,7.5-3.4,7.5-7.5-3.4-7.5-7.5-7.5ZM127,30c-4.1,0-7.5,3.4-7.5,7.5s3.4,7.5,7.5,7.5,7.5-3.4,7.5-7.5-3.4-7.5-7.5-7.5ZM481.2,30h-58.7v-10.5c0-10.8-8.7-19.5-19.5-19.5H109c-10.8,0-19.5,8.7-19.5,19.5v23.5h-52C16.8,43,0,59.9,0,80.5v282.4C0,383.6,16.8,400.5,37.5,400.5h175.4l-5.7,42.5h-8.4c-6.9,0-13.1,4.7-14.9,11.4l-10.6,38.1c-1.3,4.7-.4,9.6,2.6,13.5s7.5,6.1,12.3,6.1h135.5c4.9,0,9.4-2.2,12.3-6.1s3.9-8.8,2.6-13.5l-10.6-38.1c-1.9-6.7-8-11.4-14.9-11.4h-8.4l-5.7-42.5h175.4c20.7,0,37.5-16.8,37.5-37.5V60.8c0-17-13.8-30.8-30.8-30.8h0ZM104.5,75h121.5c4.1,0,7.5-3.4,7.5-7.5s-3.4-7.5-7.5-7.5h-121.5V19.5c0-2.5,2-4.5,4.5-4.5h294c2.5,0,4.5,2,4.5,4.5v10.5h-49.4c-16.7,0-30.4,13.4-30.8,30h-66.3c-4.1,0-7.5,3.4-7.5,7.5s3.4,7.5,7.5,7.5h66.2v38.9c0,17,13.8,30.8,30.8,30.8h14.9v14.4c0,4.3,2.6,8.2,6.5,9.8,3.9,1.6,8.5.8,11.6-2.3l16.5-16.5v117.1c0,4.1,3.4,7.5,7.5,7.5s7.5-3.4,7.5-7.5v-122.5h44.5v195.7h-44.5v-38.2c0-4.1-3.4-7.5-7.5-7.5s-7.5,3.4-7.5,7.5v38.2h-58.9v-44.4c0-20.3-12.2-38.2-31.1-45.7l-20.3-8c-5.2-2-8.5-6.9-8.5-12.5v-8.5c12.6-9.8,20.7-25.1,20.7-42.2v-56c0-17.4-14.1-31.5-31.5-31.5h-43.8c-17.4,0-31.5,14.1-31.5,31.5v56c0,17.1,8.1,32.4,20.7,42.2v8.5c0,5.6-3.3,10.5-8.5,12.5l-20.3,8c-18.9,7.4-31.1,25.4-31.1,45.7v44.4h-58.9V75ZM296.1,312.2c-4.1,0-7.5,3.4-7.5,7.5v20.7h-65.2v-20.7c0-4.1-3.4-7.5-7.5-7.5s-7.5,3.4-7.5,7.5v20.7h-30v-44.4c0-14.1,8.5-26.6,21.6-31.7l18.4-7.3c10,9.8,23.4,15.3,37.5,15.3s27.6-5.5,37.5-15.3l18.5,7.3c13.1,5.2,21.6,17.6,21.6,31.7v44.4h-30v-20.7c0-4.1-3.4-7.5-7.5-7.5h0ZM223.2,167.9c10.5,0,21-1.8,30.7-5.3,5.6-2,11.1-4.6,16.3-7.7,2.7,3,6.4,6.3,11.5,8.7,4.6,2.2,9,3.2,12.8,3.5v12.3c0,21.2-17.2,38.4-38.4,38.4s-38.4-17.2-38.4-38.4v-11.6c1.9.1,3.7.2,5.6.2h0ZM217.6,152.6v-29.4c0-9.1,7.4-16.5,16.5-16.5h43.8c9.1,0,16.5,7.4,16.5,16.5v28.7c-1.9-.3-4.1-.8-6.2-1.9-4.5-2.2-7.2-5.4-8.8-7.7-1.4-2.1-3.6-3.6-6.1-4.1-2.5-.5-5.1,0-7.2,1.5-5.4,3.7-11.2,6.6-17.2,8.8-9.9,3.5-20.6,4.9-31.3,4.2ZM280.6,248.6c-6.9,5.7-15.5,8.9-24.6,8.9s-17.8-3.2-24.6-8.9c4.4-5,6.9-11.6,6.9-18.6v-.3c5.5,2,11.5,3,17.7,3s12.2-1.1,17.7-3v.3c0,7,2.5,13.6,6.9,18.6h0ZM313.2,457.9c.2,0,.4.1.5.4h0s10.6,38.1,10.6,38.1c0,.2-.2.7-.5.6h-135.5c-.3,0-.6-.4-.5-.6l10.6-38.1c0-.2.3-.4.5-.4h114.4ZM222.3,442.9l5.7-42.5h56l5.7,42.5h-67.4ZM497,363c0,12.4-10.1,22.5-22.5,22.5H37.5c-12.4,0-22.5-10.1-22.5-22.5V80.5c0-12.4,10.1-22.5,22.5-22.5h52v15h-48c-6.3,0-11.5,5.2-11.5,11.5v259.4c0,6.3,5.2,11.5,11.5,11.5h429c6.3,0,11.5-5.2,11.5-11.5v-199.2c5.5-.1,10.6-1.7,15-4.4v222.6ZM89.5,88v252.4h-44.5V88h44.5ZM497,113.9c0,8.7-7.1,15.8-15.8,15.8h-69.1c-3.5,0-6.7,1.3-9.1,3.8l-15,15v-5.8c0-7.1-5.8-12.9-12.9-12.9h-16.9c-8.7,0-15.8-7.1-15.8-15.8v-53.1c0-8.7,7.1-15.8,15.8-15.8h123.1c8.7,0,15.8,7.1,15.8,15.8v53.1ZM470.6,94.9h-101.9c-4.1,0-7.5,3.4-7.5,7.5s3.4,7.5,7.5,7.5h101.9c4.1,0,7.5-3.4,7.5-7.5s-3.4-7.5-7.5-7.5ZM470.6,64.9h-101.9c-4.1,0-7.5,3.4-7.5,7.5s3.4,7.5,7.5,7.5h101.9c4.1,0,7.5-3.4,7.5-7.5s-3.4-7.5-7.5-7.5Z"/>
</svg>