<?xml version="1.0" encoding="UTF-8"?>
<svg id="Capa_1" xmlns="http://www.w3.org/2000/svg" version="1.1" viewBox="0 0 512 512">
  <!-- Generator: Adobe Illustrator 29.0.1, SVG Export Plug-In . SVG Version: 2.1.0 Build 192)  -->
  <defs>
    <style>
      .st0 {
        fill: #e31e34;
      }
    </style>
  </defs>
  <path class="st0" d="M489.5,0h-30c-12.4,0-22.5,10.1-22.5,22.5v393.3c0,3.1.4,6.2,1.1,9.1l19.5,77.6c1.4,5.6,6.4,9.5,12.1,9.5h9.5c5.7,0,10.7-3.9,12.1-9.5l19.5-77.6c.8-3,1.1-6.1,1.1-9.1v-215.8c0-4.1-3.4-7.5-7.5-7.5s-7.5,3.4-7.5,7.5v212h-15V130h15v35c0,4.1,3.4,7.5,7.5,7.5s7.5-3.4,7.5-7.5V22.5C512,10.1,501.9,0,489.5,0h0ZM459.5,15h30c4.1,0,7.5,3.4,7.5,7.5v32.5h-45V22.5c0-4.1,3.4-7.5,7.5-7.5ZM494.9,427l-9.2,36.7h-22.3l-9.2-36.7h40.8ZM477.3,497h-5.6l-4.6-18.3h14.8l-4.6,18.3ZM467,412h-15V130h15v282ZM452,115v-45h45v45h-45Z"/>
  <path class="st0" d="M389.5,0H37.5C16.8,0,0,16.8,0,37.5v437c0,20.7,16.8,37.5,37.5,37.5h174.5c4.1,0,7.5-3.4,7.5-7.5s-3.4-7.5-7.5-7.5H60v-102h247.5v102h-60.5c-4.1,0-7.5,3.4-7.5,7.5s3.4,7.5,7.5,7.5h142.5c15.2,0,27.5-12.3,27.5-27.5V27.5c0-15.2-12.3-27.5-27.5-27.5ZM369,259h33v121h-33v-121ZM402,27.5v216.5h-33V15h20.5c6.9,0,12.5,5.6,12.5,12.5ZM37.5,497c-12.4,0-22.5-10.1-22.5-22.5V37.5c0-12.4,10.1-22.5,22.5-22.5h7.5v482h-7.5ZM315,349.5c-4.1,0-7.5,3.4-7.5,7.5v23H60v-121h66c4.1,0,7.5-3.4,7.5-7.5s-3.4-7.5-7.5-7.5H60V15h247.5v229h-146.5c-4.1,0-7.5,3.4-7.5,7.5s3.4,7.5,7.5,7.5h146.5v63c0,4.1,3.4,7.5,7.5,7.5s7.5-3.4,7.5-7.5V15h31.5v482h-31.5v-140c0-4.1-3.4-7.5-7.5-7.5ZM389.5,497h-20.5v-102h33v89.5c0,6.9-5.6,12.5-12.5,12.5Z"/>
  <path class="st0" d="M166.5,307h84c4.1,0,7.5-3.4,7.5-7.5s-3.4-7.5-7.5-7.5h-84c-4.1,0-7.5,3.4-7.5,7.5s3.4,7.5,7.5,7.5Z"/>
  <path class="st0" d="M280.5,332h-144c-4.1,0-7.5,3.4-7.5,7.5s3.4,7.5,7.5,7.5h144c4.1,0,7.5-3.4,7.5-7.5s-3.4-7.5-7.5-7.5Z"/>
</svg>