<?xml version="1.0" encoding="UTF-8"?>
<svg id="Capa_1" xmlns="http://www.w3.org/2000/svg" version="1.1" viewBox="0 0 512 512">
  <!-- Generator: Adobe Illustrator 29.0.1, SVG Export Plug-In . SVG Version: 2.1.0 Build 192)  -->
  <defs>
    <style>
      .st0 {
        fill: #e31e34;
      }
    </style>
  </defs>
  <path class="st0" d="M462,92h-42v-42c0-27.6-22.4-50-50-50H50C22.4,0,0,22.4,0,50v320c0,27.6,22.4,50,50,50h42v42c0,27.6,22.4,50,50,50h320c27.6,0,50-22.4,50-50V142c0-27.6-22.4-50-50-50ZM50,400c-16.5,0-30-13.5-30-30V50c0-16.5,13.5-30,30-30h320c16.5,0,30,13.5,30,30v320c0,16.5-13.5,30-30,30H50ZM492,462c0,16.5-13.5,30-30,30H142c-16.5,0-30-13.5-30-30v-42h258c27.6,0,50-22.4,50-50V112h42c16.5,0,30,13.5,30,30v320Z"/>
  <path class="st0" d="M142.2,457h-.3c-5.5,0-10,4.5-10,10s4.5,10,10,10h.3c5.5,0,10-4.5,10-10s-4.5-10-10-10Z"/>
  <path class="st0" d="M462,457H171c-5.5,0-10,4.5-10,10s4.5,10,10,10h291c5.5,0,10-4.5,10-10s-4.5-10-10-10Z"/>
  <path class="st0" d="M110,35h-.3c-5.5,0-10,4.5-10,10s4.5,10,10,10h.3c5.5,0,10-4.5,10-10s-4.5-10-10-10Z"/>
  <path class="st0" d="M81,35h-31c-5.5,0-10,4.5-10,10s4.5,10,10,10h31c5.5,0,10-4.5,10-10,0-5.5-4.5-10-10-10Z"/>
  <path class="st0" d="M293.5,201.1c-2.4-8.8-8-16.1-15.9-20.7l-48.9-28.2c-.5-.3-1-.6-1.5-.9l-48.8-28.2c-5.6-3.7-12.1-5.6-18.8-5.6-18.9,0-34.2,15.4-34.2,34.2v116.6c0,.4,0,.8,0,1.2.2,5.6,1.8,11.1,4.6,15.9,6.1,10.5,17.4,17,29.6,17s11.9-1.6,17.1-4.6l50.5-29.2c.3-.2.6-.3.8-.5l49.2-28.4c5.4-3,9.8-7.4,12.9-12.8,4.5-7.9,5.7-17.1,3.4-25.9ZM272.8,217.1c-1.3,2.2-3.1,4.1-5.4,5.3,0,0,0,0-.1,0l-50.1,28.9c-.3.2-.6.3-.8.5l-49.7,28.7c-2.2,1.2-4.6,1.9-7.1,1.9-5.1,0-9.8-2.7-12.3-7.1-1.3-2.2-1.9-4.6-1.9-7.1,0-.3,0-.7,0-1v-115.6h0c0-7.8,6.4-14.2,14.2-14.2s5.6.8,7.9,2.4c.2.1.4.3.6.4l49.1,28.3c.2.1.5.3.7.4.2.1.3.2.5.3l49.2,28.4c3.3,1.9,5.6,4.9,6.6,8.6,1,3.6.5,7.4-1.4,10.7Z"/>
</svg>