<?xml version="1.0" encoding="utf-8"?>
<!-- Generator: Adobe Illustrator 25.3.1, SVG Export Plug-In . SVG Version: 6.00 Build 0)  -->
<svg version="1.1" id="Layer_1" xmlns="http://www.w3.org/2000/svg" xmlns:xlink="http://www.w3.org/1999/xlink" x="0px" y="0px"
	 viewBox="0 0 120 120" fill="#ffffff" style="enable-background:new 0 0 120 120;" xml:space="preserve">
<g>
	<g>
		<path d="M59.3,0.5c-32.6,0-59,26.4-59,59s26.4,59,59,59s59-26.4,59-59S91.8,0.5,59.3,0.5z M59.3,114.8C28.8,114.8,3.9,90,3.9,59.5
			S28.8,4.2,59.3,4.2s55.3,24.8,55.3,55.3S89.8,114.8,59.3,114.8z"/>
	</g>
</g>
<g>
	<g>
		<path d="M59.6,25c-7.5,0-13.7,6.1-13.7,13.7S52,52.3,59.6,52.3s13.7-6.1,13.7-13.7S67.1,25,59.6,25z M59.6,48.7
			c-5.5,0-10-4.5-10-10s4.5-10,10-10s10,4.5,10,10S65.1,48.7,59.6,48.7z"/>
	</g>
</g>
<g>
	<g>
		<path d="M72.7,58.7l-13.1,9.9l-13.1-9.9c-16.1,4.8-15.9,21.1-15.9,21.1h29h29C88.5,79.8,88.7,63.5,72.7,58.7z M59.6,76.1H34.8
			c0.9-4,3.5-10.3,11.1-13.3l11.5,8.7c0.7,0.5,1.4,0.7,2.2,0.7c0.8,0,1.6-0.2,2.2-0.7l11.5-8.7c7.6,3,10.2,9.3,11.1,13.3L59.6,76.1
			L59.6,76.1z"/>
	</g>
</g>
</svg>
