<?xml version="1.0" encoding="UTF-8"?>
<svg id="Layer_1" xmlns="http://www.w3.org/2000/svg" version="1.1" xmlns:xlink="http://www.w3.org/1999/xlink" viewBox="0 0 512 512">
  <!-- Generator: Adobe Illustrator 29.0.1, SVG Export Plug-In . SVG Version: 2.1.0 Build 192)  -->
  <defs>
    <style>
      .st0 {
        fill: url(#linear-gradient2);
      }

      .st1 {
        fill: url(#linear-gradient36);
      }

      .st2 {
        fill: url(#linear-gradient39);
      }

      .st3 {
        fill: url(#linear-gradient34);
      }

      .st4 {
        fill: url(#linear-gradient58);
      }

      .st5 {
        fill: url(#linear-gradient33);
      }

      .st6 {
        fill: url(#linear-gradient10);
      }

      .st7 {
        fill: url(#linear-gradient32);
      }

      .st8 {
        fill: url(#linear-gradient21);
      }

      .st9 {
        fill: url(#linear-gradient37);
      }

      .st10 {
        fill: url(#linear-gradient56);
      }

      .st11 {
        fill: url(#linear-gradient27);
      }

      .st12 {
        fill: url(#linear-gradient53);
      }

      .st13 {
        fill: url(#linear-gradient57);
      }

      .st14 {
        fill: url(#linear-gradient35);
      }

      .st15 {
        fill: url(#linear-gradient26);
      }

      .st16 {
        fill: url(#linear-gradient1);
      }

      .st17 {
        fill: url(#linear-gradient9);
      }

      .st18 {
        fill: url(#linear-gradient18);
      }

      .st19 {
        fill: url(#linear-gradient23);
      }

      .st20 {
        fill: url(#linear-gradient43);
      }

      .st21 {
        fill: url(#linear-gradient8);
      }

      .st22 {
        fill: url(#linear-gradient11);
      }

      .st23 {
        fill: url(#linear-gradient16);
      }

      .st24 {
        fill: url(#linear-gradient24);
      }

      .st25 {
        fill: url(#linear-gradient30);
      }

      .st26 {
        fill: url(#linear-gradient46);
      }

      .st27 {
        fill: url(#linear-gradient22);
      }

      .st28 {
        fill: url(#linear-gradient29);
      }

      .st29 {
        fill: url(#linear-gradient49);
      }

      .st30 {
        fill: url(#linear-gradient19);
      }

      .st31 {
        fill: url(#linear-gradient12);
      }

      .st32 {
        fill: url(#linear-gradient42);
      }

      .st33 {
        fill: url(#linear-gradient28);
      }

      .st34 {
        fill: url(#linear-gradient40);
      }

      .st35 {
        fill: url(#linear-gradient7);
      }

      .st36 {
        fill: url(#linear-gradient59);
      }

      .st37 {
        fill: url(#linear-gradient20);
      }

      .st38 {
        fill: url(#linear-gradient4);
      }

      .st39 {
        fill: url(#linear-gradient31);
      }

      .st40 {
        fill: url(#linear-gradient14);
      }

      .st41 {
        fill: url(#linear-gradient5);
      }

      .st42 {
        fill: url(#linear-gradient3);
      }

      .st43 {
        fill: url(#linear-gradient55);
      }

      .st44 {
        fill: url(#linear-gradient38);
      }

      .st45 {
        fill: url(#linear-gradient25);
      }

      .st46 {
        fill: url(#linear-gradient52);
      }

      .st47 {
        fill: url(#linear-gradient15);
      }

      .st48 {
        fill: url(#linear-gradient17);
      }

      .st49 {
        fill: url(#linear-gradient54);
      }

      .st50 {
        fill: url(#linear-gradient50);
      }

      .st51 {
        fill: url(#linear-gradient51);
      }

      .st52 {
        fill: url(#linear-gradient6);
      }

      .st53 {
        fill: url(#linear-gradient48);
      }

      .st54 {
        fill: url(#linear-gradient13);
      }

      .st55 {
        fill: url(#linear-gradient45);
      }

      .st56 {
        fill: url(#linear-gradient47);
      }

      .st57 {
        fill: url(#linear-gradient60);
      }

      .st58 {
        fill: url(#linear-gradient);
      }

      .st59 {
        fill: url(#linear-gradient44);
      }

      .st60 {
        fill: url(#linear-gradient41);
      }
    </style>
    <linearGradient id="linear-gradient" x1="231.28" y1="118.74" x2="273.04" y2="118.74" gradientUnits="userSpaceOnUse">
      <stop offset="0" stop-color="#b37e10"/>
      <stop offset=".22" stop-color="#e3c15b"/>
      <stop offset=".33" stop-color="#f8dd7b"/>
      <stop offset=".52" stop-color="#fdf1a4"/>
      <stop offset=".73" stop-color="#f8dd7b"/>
      <stop offset="1" stop-color="#b37e10"/>
    </linearGradient>
    <linearGradient id="linear-gradient1" x1="251.1" y1="211.28" x2="304.51" y2="211.28" xlink:href="#linear-gradient"/>
    <linearGradient id="linear-gradient2" x1="207.49" y1="221.18" x2="249.68" y2="221.18" xlink:href="#linear-gradient"/>
    <linearGradient id="linear-gradient3" x1="236.83" y1="106.98" x2="267.49" y2="137.64" xlink:href="#linear-gradient"/>
    <linearGradient id="linear-gradient4" x1="222.2" y1="156.69" x2="331.37" y2="265.87" xlink:href="#linear-gradient"/>
    <linearGradient id="linear-gradient5" x1="155.34" y1="147.94" x2="301.83" y2="294.42" xlink:href="#linear-gradient"/>
    <linearGradient id="linear-gradient6" x1="214.97" y1="350.03" x2="286.45" y2="350.03" xlink:href="#linear-gradient"/>
    <linearGradient id="linear-gradient7" x1="230.26" y1="331.43" x2="270.92" y2="372.09" xlink:href="#linear-gradient"/>
    <linearGradient id="linear-gradient8" x1="369.35" y1="57.47" x2="409.57" y2="57.47" xlink:href="#linear-gradient"/>
    <linearGradient id="linear-gradient9" x1="308.34" y1="426.84" x2="343.15" y2="426.84" xlink:href="#linear-gradient"/>
    <linearGradient id="linear-gradient10" x1="308.22" y1="455.82" x2="369.75" y2="455.82" xlink:href="#linear-gradient"/>
    <linearGradient id="linear-gradient11" x1="348.64" y1="410.19" x2="375.21" y2="410.19" xlink:href="#linear-gradient"/>
    <linearGradient id="linear-gradient12" x1="348.92" y1="435.96" x2="408.67" y2="435.96" xlink:href="#linear-gradient"/>
    <linearGradient id="linear-gradient13" x1="381.97" y1="388.09" x2="403.51" y2="388.09" xlink:href="#linear-gradient"/>
    <linearGradient id="linear-gradient14" x1="384.39" y1="409.82" x2="441.33" y2="409.82" xlink:href="#linear-gradient"/>
    <linearGradient id="linear-gradient15" x1="408.39" y1="361.43" x2="427.57" y2="361.43" xlink:href="#linear-gradient"/>
    <linearGradient id="linear-gradient16" x1="414.4" y1="378.4" x2="467.45" y2="378.4" xlink:href="#linear-gradient"/>
    <linearGradient id="linear-gradient17" x1="428.2" y1="331.1" x2="446.98" y2="331.1" xlink:href="#linear-gradient"/>
    <linearGradient id="linear-gradient18" x1="438.73" y1="342.67" x2="486.8" y2="342.67" xlink:href="#linear-gradient"/>
    <linearGradient id="linear-gradient19" x1="441.14" y1="297.98" x2="461.5" y2="297.98" xlink:href="#linear-gradient"/>
    <linearGradient id="linear-gradient20" x1="457.15" y1="303.92" x2="499.13" y2="303.92" xlink:href="#linear-gradient"/>
    <linearGradient id="linear-gradient21" x1="446.63" y1="262.97" x2="471.11" y2="262.97" xlink:href="#linear-gradient"/>
    <linearGradient id="linear-gradient22" x1="469.42" y1="263.6" x2="504.2" y2="263.6" xlink:href="#linear-gradient"/>
    <linearGradient id="linear-gradient23" x1="445.16" y1="226.96" x2="475.93" y2="226.96" xlink:href="#linear-gradient"/>
    <linearGradient id="linear-gradient24" x1="475.33" y1="222.46" x2="502.37" y2="222.46" xlink:href="#linear-gradient"/>
    <linearGradient id="linear-gradient25" x1="437.75" y1="190.78" x2="475.16" y2="190.78" xlink:href="#linear-gradient"/>
    <linearGradient id="linear-gradient26" x1="474.07" y1="181.36" x2="494.98" y2="181.36" xlink:href="#linear-gradient"/>
    <linearGradient id="linear-gradient27" x1="424.19" y1="154.98" x2="467.63" y2="154.98" xlink:href="#linear-gradient"/>
    <linearGradient id="linear-gradient28" x1="462.81" y1="141.33" x2="481.71" y2="141.33" xlink:href="#linear-gradient"/>
    <linearGradient id="linear-gradient29" x1="404.28" y1="120.78" x2="453.03" y2="120.78" xlink:href="#linear-gradient"/>
    <linearGradient id="linear-gradient30" x1="441.55" y1="103.41" x2="462.06" y2="103.41" xlink:href="#linear-gradient"/>
    <linearGradient id="linear-gradient31" x1="377.8" y1="89.44" x2="431.12" y2="89.44" xlink:href="#linear-gradient"/>
    <linearGradient id="linear-gradient32" x1="410.12" y1="68.64" x2="435.94" y2="68.64" xlink:href="#linear-gradient"/>
    <linearGradient id="linear-gradient33" x1="251.8" y1="260.08" x2="476.17" y2="260.08" xlink:href="#linear-gradient"/>
    <linearGradient id="linear-gradient34" x1="102.43" y1="57.47" x2="142.65" y2="57.47" xlink:href="#linear-gradient"/>
    <linearGradient id="linear-gradient35" x1="168.85" y1="426.84" x2="203.66" y2="426.84" xlink:href="#linear-gradient"/>
    <linearGradient id="linear-gradient36" x1="142.25" y1="455.82" x2="203.78" y2="455.82" xlink:href="#linear-gradient"/>
    <linearGradient id="linear-gradient37" x1="136.79" y1="410.19" x2="163.36" y2="410.19" xlink:href="#linear-gradient"/>
    <linearGradient id="linear-gradient38" x1="103.33" y1="435.96" x2="163.08" y2="435.96" xlink:href="#linear-gradient"/>
    <linearGradient id="linear-gradient39" x1="108.49" y1="388.09" x2="130.03" y2="388.09" xlink:href="#linear-gradient"/>
    <linearGradient id="linear-gradient40" x1="70.67" y1="409.82" x2="127.61" y2="409.82" xlink:href="#linear-gradient"/>
    <linearGradient id="linear-gradient41" x1="84.43" y1="361.43" x2="103.61" y2="361.43" xlink:href="#linear-gradient"/>
    <linearGradient id="linear-gradient42" x1="44.55" y1="378.4" x2="97.6" y2="378.4" xlink:href="#linear-gradient"/>
    <linearGradient id="linear-gradient43" x1="65.02" y1="331.1" x2="83.8" y2="331.1" xlink:href="#linear-gradient"/>
    <linearGradient id="linear-gradient44" x1="25.2" y1="342.67" x2="73.27" y2="342.67" xlink:href="#linear-gradient"/>
    <linearGradient id="linear-gradient45" x1="50.5" y1="297.98" x2="70.86" y2="297.98" xlink:href="#linear-gradient"/>
    <linearGradient id="linear-gradient46" x1="12.87" y1="303.92" x2="54.85" y2="303.92" xlink:href="#linear-gradient"/>
    <linearGradient id="linear-gradient47" x1="40.89" y1="262.97" x2="65.37" y2="262.97" xlink:href="#linear-gradient"/>
    <linearGradient id="linear-gradient48" x1="7.8" y1="263.6" x2="42.58" y2="263.6" xlink:href="#linear-gradient"/>
    <linearGradient id="linear-gradient49" x1="36.07" y1="226.96" x2="66.84" y2="226.96" xlink:href="#linear-gradient"/>
    <linearGradient id="linear-gradient50" x1="9.63" y1="222.46" x2="36.67" y2="222.46" xlink:href="#linear-gradient"/>
    <linearGradient id="linear-gradient51" x1="36.84" y1="190.78" x2="74.25" y2="190.78" xlink:href="#linear-gradient"/>
    <linearGradient id="linear-gradient52" x1="17.02" y1="181.36" x2="37.93" y2="181.36" xlink:href="#linear-gradient"/>
    <linearGradient id="linear-gradient53" x1="44.37" y1="154.98" x2="87.81" y2="154.98" xlink:href="#linear-gradient"/>
    <linearGradient id="linear-gradient54" x1="30.29" y1="141.33" x2="49.19" y2="141.33" xlink:href="#linear-gradient"/>
    <linearGradient id="linear-gradient55" x1="58.97" y1="120.78" x2="107.72" y2="120.78" xlink:href="#linear-gradient"/>
    <linearGradient id="linear-gradient56" x1="49.94" y1="103.41" x2="70.45" y2="103.41" xlink:href="#linear-gradient"/>
    <linearGradient id="linear-gradient57" x1="80.88" y1="89.44" x2="134.2" y2="89.44" xlink:href="#linear-gradient"/>
    <linearGradient id="linear-gradient58" x1="76.06" y1="68.64" x2="101.88" y2="68.64" xlink:href="#linear-gradient"/>
    <linearGradient id="linear-gradient59" x1="35.83" y1="260.08" x2="260.2" y2="260.08" xlink:href="#linear-gradient"/>
    <linearGradient id="linear-gradient60" x1="231.53" y1="455.79" x2="278.62" y2="455.79" xlink:href="#linear-gradient"/>
  </defs>
  <g>
    <g>
      <polygon class="st58" points="252.16 98.95 258.61 111.98 273.04 114.07 262.6 124.21 265.07 138.53 252.16 131.77 239.26 138.53 241.72 124.21 231.28 114.07 245.71 111.98 252.16 98.95"/>
      <g>
        <path class="st16" d="M251.81,343.89l-.71-195.73s37.24-2.74,50.67-69.51c0,0,2.96,79.57,2.73,85.97-.23,6.4-52.69,179.26-52.69,179.26Z"/>
        <path class="st0" d="M247.04,168.94s-23.39-5.01-39.55-71.61c0,0,2.21,81.98,2.35,88.59.14,6.6,39.83,159.11,39.83,159.11l-2.63-176.1Z"/>
      </g>
      <path class="st42" d="M265.07,139.61c-.17,0-.35-.04-.51-.12l-12.4-6.49-12.4,6.49c-.37.19-.81.16-1.15-.08-.34-.24-.5-.65-.43-1.06l2.37-13.76-10.03-9.74c-.3-.29-.4-.72-.28-1.11.13-.39.47-.68.88-.74l13.86-2.01,6.2-12.51c.18-.37.56-.61.98-.61h0c.42,0,.79.23.98.61l6.2,12.51,13.86,2.01c.41.06.75.35.88.74.13.39.02.82-.28,1.11l-10.03,9.74,2.37,13.76c.07.41-.1.82-.43,1.06-.19.14-.42.21-.64.21ZM233.62,114.82l8.86,8.61c.26.25.37.61.31.96l-2.09,12.15,10.95-5.74c.32-.17.7-.17,1.01,0l10.95,5.74-2.09-12.15c-.06-.35.06-.71.31-.96l8.86-8.61-12.24-1.77c-.35-.05-.66-.27-.82-.59l-5.47-11.05-5.48,11.05c-.16.32-.47.54-.82.59l-12.24,1.77Z"/>
      <g>
        <path class="st38" d="M251.81,344.98c-.05,0-.1,0-.16-.01-.53-.08-.93-.53-.93-1.07l-.71-195.73c0-.57.44-1.04,1.01-1.09.36-.03,36.6-3.58,49.68-68.64.11-.54.61-.9,1.16-.87.55.05.98.49,1,1.04.12,3.25,2.96,79.68,2.73,86.05-.23,6.47-50.59,172.48-52.74,179.54-.14.46-.57.77-1.04.77ZM252.19,149.13l.68,187.5c18.55-61.22,50.36-167.27,50.54-172.04.18-5.05-1.67-56.84-2.42-77.48-13.44,53.95-42.84,61.11-48.79,62.02Z"/>
        <path class="st41" d="M249.68,346.12c-.49,0-.93-.33-1.05-.81-1.62-6.23-39.73-152.71-39.87-159.36-.14-6.52-2.33-87.76-2.35-88.58-.02-.56.39-1.03.95-1.11.56-.08,1.07.28,1.2.82,8.24,33.93,18.35,51.39,25.39,60.06,7.58,9.34,13.28,10.73,13.34,10.74.49.11.85.54.85,1.05l2.63,176.1c0,.55-.4,1.02-.94,1.09-.05,0-.1,0-.15,0ZM208.84,106.88c.59,21.85,1.99,73.84,2.09,79.01.1,4.85,23.4,95.71,37.52,150.09l-2.49-166.24c-4.22-1.49-22.76-10.86-37.13-62.86Z"/>
      </g>
    </g>
    <polygon class="st52" points="286.45 355.02 249.51 363.63 214.97 355.02 226.8 336.43 274.15 336.43 286.45 355.02"/>
    <path class="st35" d="M249.51,364.72c-.09,0-.18-.01-.26-.03l-34.54-8.62c-.34-.08-.62-.33-.75-.65-.13-.32-.1-.69.09-.98l11.83-18.59c.2-.31.55-.51.92-.51h47.34c.37,0,.71.18.91.49l12.31,18.59c.2.3.23.67.1,1-.13.33-.42.58-.76.66l-36.94,8.62c-.08.02-.17.03-.25.03ZM216.7,354.33l32.82,8.19,35.16-8.2-11.12-16.8h-46.15l-10.7,16.81Z"/>
  </g>
  <g>
    <g>
      <g>
        <path class="st21" d="M396.47,49.79c11.11,10.13,13.1,26.03,13.1,26.03,0,0-16.01-.53-27.12-10.66-11.11-10.13-13.1-26.03-13.1-26.03,0,0,16.01.53,27.12,10.66Z"/>
        <g>
          <g>
            <path class="st17" d="M318.36,423.1c-9.56,12.27-10.14,26.76-10.01,26.8-.04.18,20.06-5.44,29.09-18.97,9.02-13.36,4.63-27.21,4.76-27.17-.05.13-14.29,7.18-23.84,19.33Z"/>
            <path class="st6" d="M332.44,465.58c-17.64-3-24.23-16.34-24.22-16.22.21.06,19.12-5.39,35.41-3.48,16.45,2,26.12,12.22,26.12,12.33.23.05-19.47,10.43-37.3,7.36Z"/>
          </g>
          <g>
            <path class="st22" d="M353.24,407.77c-6.57,13.45-4.21,27.52-4.09,27.55-.02.19,17.65-8.59,23.6-23.19,5.97-14.44-.82-27.1-.7-27.08-.03.14-12.24,9.38-18.81,22.72Z"/>
            <path class="st31" d="M374.79,446.44c-17.15.05-25.88-11.73-25.87-11.61.19.03,16.77-8.39,32.58-9.28,15.97-.84,27.16,7.4,27.17,7.51.22.02-16.55,13.38-33.88,13.39Z"/>
          </g>
          <g>
            <path class="st54" d="M383.35,387.05c-3.73,14.14,1.24,27.34,1.35,27.34,0,.18,15.14-11.29,18.17-26.47,3.06-15.01-5.78-26.13-5.67-26.13,0,.14-10.1,11.22-13.85,25.25Z"/>
            <path class="st40" d="M411.25,420.79c-16.37,2.97-26.89-6.96-26.86-6.85.18,0,14.33-10.95,29.38-14.53,15.2-3.55,27.53,2.51,27.56,2.61.2-.02-13.53,15.82-30.07,18.77Z"/>
          </g>
          <g>
            <path class="st47" d="M408.49,361.77c-1.04,14.37,6.19,26.3,6.3,26.29.03.18,12.52-13.55,12.78-28.83.31-15.13-10.23-24.41-10.12-24.43.01.14-7.88,12.7-8.95,26.97Z"/>
            <path class="st23" d="M441.59,389.69c-15.3,5.7-27.22-2.11-27.19-2.01.16-.03,11.79-13.08,25.79-19.19,14.13-6.1,27.22-2.37,27.26-2.27.19-.05-10.4,17.74-25.86,23.46Z"/>
          </g>
          <g>
            <path class="st48" d="M428.43,332.8c1.48,14.18,10.64,24.51,10.73,24.48.05.17,9.8-15.36,7.45-30.32-2.29-14.81-14.15-22.02-14.05-22.05.03.14-5.56,13.81-4.13,27.89Z"/>
            <path class="st18" d="M465.56,354.19c-13.92,8.23-26.88,2.71-26.83,2.8.15-.05,9.17-14.78,21.81-23.21,12.76-8.44,26.21-7.12,26.26-7.03.17-.08-7.17,19.16-21.24,27.43Z"/>
          </g>
          <g>
            <path class="st30" d="M442.98,301c3.84,13.61,14.56,22.06,14.64,22.02.07.16,6.98-16.73,2.18-30.97-4.71-14.1-17.53-19.07-17.45-19.12.06.13-3.15,14.55.62,28.06Z"/>
            <path class="st37" d="M482.92,315.32c-12.23,10.51-25.83,7.4-25.77,7.49.13-.08,6.46-16.05,17.43-26.56,11.09-10.54,24.49-11.65,24.55-11.57.16-.1-3.83,20.07-16.21,30.64Z"/>
          </g>
          <g>
            <path class="st8" d="M451.91,267.23c6.03,12.68,17.93,19.05,18.01,18.99.1.15,4.05-17.65-3.02-30.81-6.97-13.04-20.36-15.64-20.28-15.7.08.12-.66,14.92,5.29,27.52Z"/>
            <path class="st27" d="M493.42,274.15c-10.23,12.51-24.08,11.88-24,11.95.11-.09,3.66-16.89,12.65-29.21,9.1-12.37,22.03-15.88,22.11-15.81.14-.12-.39,20.47-10.76,33.06Z"/>
          </g>
          <g>
            <path class="st19" d="M455.03,232.36c8.03,11.44,20.75,15.56,20.82,15.5.12.13,1.02-18.12-8.15-29.88-9.05-11.66-22.61-11.84-22.54-11.92.1.11,1.93,14.93,9.87,26.3Z"/>
            <path class="st24" d="M496.82,231.73c-7.91,14.18-21.58,16.04-21.49,16.1.09-.11.76-17.3,7.46-31.11,6.8-13.88,18.83-19.69,18.92-19.63.12-.14,3.15,20.36-4.89,34.64Z"/>
          </g>
          <g>
            <path class="st45" d="M452.1,197.26c9.85,9.92,23,11.71,23.06,11.63.15.11-2.12-18.14-13.2-28.21-10.94-9.99-24.27-7.77-24.21-7.85.13.09,4.61,14.56,14.35,24.43Z"/>
            <path class="st15" d="M492.88,189.12c-5.27,15.5-18.34,19.78-18.24,19.83.08-.12-2.23-17.28,1.86-32.24,4.17-15.04,14.86-23,14.96-22.95.1-.16,6.8,19.74,1.41,35.36Z"/>
          </g>
          <g>
            <path class="st11" d="M442.92,162.79c11.48,8.16,24.65,7.58,24.7,7.5.17.09-5.36-17.71-18.16-25.84-12.64-8.07-25.32-3.51-25.27-3.6.15.07,7.38,13.82,18.73,21.94Z"/>
            <path class="st33" d="M481.36,147.39c-2.29,16.42-14.34,23.02-14.22,23.05.06-.13-5.3-16.83-4.17-32.55,1.21-15.81,10.11-25.7,10.23-25.67.09-.17,10.55,18.61,8.15,35.17Z"/>
          </g>
          <g>
            <path class="st28" d="M427.28,129.84c12.91,6.19,25.7,3.27,25.74,3.18.2.07-8.71-16.82-23.03-22.81-14.15-5.95-25.76.84-25.72.74.18.05,10.25,12.71,23.01,18.88Z"/>
            <path class="st25" d="M461.99,107.6c1.03,16.91-9.55,25.64-9.42,25.66.04-.14-8.47-15.96-10.62-32.01-2.09-16.15,4.57-27.7,4.7-27.69.07-.18,14.4,16.98,15.34,34.03Z"/>
          </g>
          <g>
            <path class="st39" d="M404.97,99.29c14.14,4.05,26.13-1.13,26.15-1.22.22.04-12.16-15.48-27.8-19.14-15.45-3.65-25.55,5.18-25.52,5.08.2.02,13.2,11.22,27.17,15.28Z"/>
            <path class="st7" d="M434.55,70.82c4.69,16.93-3.97,27.57-3.82,27.57.02-.14-11.73-14.65-17.51-30.58-5.73-16.04-1.79-28.9-1.64-28.91.05-.19,18.36,14.83,22.97,31.92Z"/>
          </g>
        </g>
        <path class="st5" d="M251.8,454.35l.28-3.1c25.71,2.33,51.34-.54,76.17-8.51,24.2-7.77,46.6-20.04,66.59-36.46,41.48-34.08,68.23-82.72,75.32-136.96,5.81-44.41,2.83-83.99-8.86-117.63-12.55-36.13-34.89-64.39-66.42-84.02l1.65-2.64c32.14,20.01,54.92,48.83,67.71,85.64,11.85,34.1,14.87,74.16,9,119.06-7.2,55.02-34.34,104.37-76.44,138.96-20.29,16.68-43.04,29.13-67.62,37.02-25.24,8.1-51.28,11.01-77.41,8.65Z"/>
      </g>
      <g>
        <path class="st3" d="M115.53,49.79c-11.11,10.13-13.1,26.03-13.1,26.03,0,0,16.01-.53,27.12-10.66,11.11-10.13,13.1-26.03,13.1-26.03,0,0-16.01.53-27.12,10.66Z"/>
        <g>
          <g>
            <path class="st14" d="M193.64,423.1c9.56,12.27,10.14,26.76,10.01,26.8.04.18-20.06-5.44-29.09-18.97-9.02-13.36-4.63-27.21-4.76-27.17.05.13,14.29,7.18,23.84,19.33Z"/>
            <path class="st1" d="M179.56,465.58c17.64-3,24.23-16.34,24.22-16.22-.21.06-19.12-5.39-35.41-3.48-16.45,2-26.12,12.22-26.12,12.33-.23.05,19.47,10.43,37.3,7.36Z"/>
          </g>
          <g>
            <path class="st9" d="M158.76,407.77c6.57,13.45,4.21,27.52,4.09,27.55.02.19-17.65-8.59-23.6-23.19-5.97-14.44.82-27.1.7-27.08.03.14,12.24,9.38,18.81,22.72Z"/>
            <path class="st44" d="M137.21,446.44c17.15.05,25.88-11.73,25.87-11.61-.19.03-16.77-8.39-32.58-9.28-15.97-.84-27.16,7.4-27.17,7.51-.22.02,16.55,13.38,33.88,13.39Z"/>
          </g>
          <g>
            <path class="st2" d="M128.65,387.05c3.73,14.14-1.24,27.34-1.35,27.34,0,.18-15.14-11.29-18.17-26.47-3.06-15.01,5.78-26.13,5.67-26.13,0,.14,10.1,11.22,13.85,25.25Z"/>
            <path class="st34" d="M100.75,420.79c16.37,2.97,26.89-6.96,26.86-6.85-.18,0-14.33-10.95-29.38-14.53-15.2-3.55-27.53,2.51-27.56,2.61-.2-.02,13.53,15.82,30.07,18.77Z"/>
          </g>
          <g>
            <path class="st60" d="M103.51,361.77c1.04,14.37-6.19,26.3-6.3,26.29-.03.18-12.52-13.55-12.78-28.83-.31-15.13,10.23-24.41,10.12-24.43-.01.14,7.88,12.7,8.95,26.97Z"/>
            <path class="st32" d="M70.41,389.69c15.3,5.7,27.22-2.11,27.19-2.01-.16-.03-11.79-13.08-25.79-19.19-14.13-6.1-27.22-2.37-27.26-2.27-.19-.05,10.4,17.74,25.86,23.46Z"/>
          </g>
          <g>
            <path class="st20" d="M83.57,332.8c-1.48,14.18-10.64,24.51-10.73,24.48-.05.17-9.8-15.36-7.45-30.32,2.29-14.81,14.15-22.02,14.05-22.05-.03.14,5.56,13.81,4.13,27.89Z"/>
            <path class="st59" d="M46.44,354.19c13.92,8.23,26.88,2.71,26.83,2.8-.15-.05-9.17-14.78-21.81-23.21-12.76-8.44-26.21-7.12-26.26-7.03-.17-.08,7.17,19.16,21.24,27.43Z"/>
          </g>
          <g>
            <path class="st55" d="M69.02,301c-3.84,13.61-14.56,22.06-14.64,22.02-.07.16-6.98-16.73-2.18-30.97,4.71-14.1,17.53-19.07,17.45-19.12-.06.13,3.15,14.55-.62,28.06Z"/>
            <path class="st26" d="M29.08,315.32c12.23,10.51,25.83,7.4,25.77,7.49-.13-.08-6.46-16.05-17.43-26.56-11.09-10.54-24.49-11.65-24.55-11.57-.16-.1,3.83,20.07,16.21,30.64Z"/>
          </g>
          <g>
            <path class="st56" d="M60.09,267.23c-6.03,12.68-17.93,19.05-18.01,18.99-.1.15-4.05-17.65,3.02-30.81,6.97-13.04,20.36-15.64,20.28-15.7-.08.12.66,14.92-5.29,27.52Z"/>
            <path class="st53" d="M18.58,274.15c10.23,12.51,24.07,11.88,24,11.95-.11-.09-3.66-16.89-12.65-29.21-9.1-12.37-22.03-15.88-22.11-15.81-.14-.12.39,20.47,10.76,33.06Z"/>
          </g>
          <g>
            <path class="st29" d="M56.97,232.36c-8.03,11.44-20.75,15.56-20.82,15.5-.12.13-1.02-18.12,8.15-29.88,9.05-11.66,22.61-11.84,22.54-11.92-.1.11-1.93,14.93-9.87,26.3Z"/>
            <path class="st50" d="M15.18,231.73c7.91,14.18,21.58,16.04,21.49,16.1-.09-.11-.76-17.3-7.46-31.11-6.8-13.88-18.83-19.69-18.92-19.63-.12-.14-3.15,20.36,4.89,34.64Z"/>
          </g>
          <g>
            <path class="st51" d="M59.9,197.26c-9.85,9.92-23,11.71-23.06,11.63-.15.11,2.12-18.14,13.2-28.21,10.94-9.99,24.27-7.77,24.21-7.85-.13.09-4.61,14.56-14.35,24.43Z"/>
            <path class="st46" d="M19.12,189.12c5.27,15.5,18.34,19.78,18.24,19.83-.08-.12,2.23-17.28-1.86-32.24-4.17-15.04-14.86-23-14.96-22.95-.1-.16-6.8,19.74-1.41,35.36Z"/>
          </g>
          <g>
            <path class="st12" d="M69.08,162.79c-11.48,8.16-24.65,7.58-24.7,7.5-.17.09,5.36-17.71,18.16-25.84,12.64-8.07,25.32-3.51,25.27-3.6-.15.07-7.38,13.82-18.73,21.94Z"/>
            <path class="st49" d="M30.64,147.39c2.29,16.42,14.34,23.02,14.22,23.05-.06-.13,5.3-16.83,4.17-32.55-1.21-15.81-10.11-25.7-10.23-25.67-.09-.17-10.55,18.61-8.15,35.17Z"/>
          </g>
          <g>
            <path class="st43" d="M84.72,129.84c-12.91,6.19-25.7,3.27-25.74,3.18-.2.07,8.71-16.82,23.03-22.81,14.15-5.95,25.76.84,25.72.74-.18.05-10.25,12.71-23.01,18.88Z"/>
            <path class="st10" d="M50.01,107.6c-1.03,16.91,9.55,25.64,9.42,25.66-.04-.14,8.47-15.96,10.62-32.01,2.09-16.15-4.57-27.7-4.7-27.69-.07-.18-14.4,16.98-15.34,34.03Z"/>
          </g>
          <g>
            <path class="st13" d="M107.03,99.29c-14.14,4.05-26.13-1.13-26.15-1.22-.22.04,12.16-15.48,27.8-19.14,15.45-3.65,25.55,5.18,25.52,5.08-.2.02-13.2,11.22-27.17,15.28Z"/>
            <path class="st4" d="M77.45,70.82c-4.69,16.93,3.97,27.57,3.82,27.57-.02-.14,11.73-14.65,17.51-30.58,5.73-16.04,1.79-28.9,1.64-28.91-.05-.19-18.36,14.83-22.97,31.92Z"/>
          </g>
        </g>
        <path class="st36" d="M260.2,454.35l-.28-3.1c-25.71,2.33-51.34-.54-76.17-8.51-24.2-7.77-46.6-20.04-66.59-36.46-41.48-34.08-68.23-82.72-75.32-136.96-5.81-44.41-2.83-83.99,8.86-117.63,12.55-36.13,34.89-64.39,66.42-84.02l-1.65-2.64c-32.14,20.01-54.92,48.83-67.71,85.64-11.85,34.1-14.87,74.16-9,119.06,7.2,55.02,34.34,104.37,76.44,138.96,20.29,16.68,43.04,29.13,67.62,37.02,25.24,8.1,51.28,11.01,77.41,8.65Z"/>
      </g>
    </g>
    <polygon class="st57" points="255.08 438.48 231.53 455.79 255.08 473.11 278.62 455.79 255.08 438.48"/>
  </g>
</svg>