<?xml version="1.0" encoding="UTF-8"?>
<svg xmlns="http://www.w3.org/2000/svg" version="1.1" viewBox="0 0 342.4 126.8">
  <defs>
    <style>
      .cls-1 {
        fill: #fff;
      }

      .cls-2 {
        fill: #393185;
      }

      .cls-3 {
        fill: #e31e24;
      }
    </style>
  </defs>
  <!-- Generator: Adobe Illustrator 28.7.0, SVG Export Plug-In . SVG Version: 1.2.0 Build 136)  -->
  <g>
    <g id="Layer_1">
      <g>
        <path class="cls-2" d="M2.6,1.9c2.7,0,11.4.4,18.5.4s15.5-.4,19.2-.4c.5.8.7,4.3,0,5.2-3.6.4-6,.7-7.9,1.2-3.2.8-3.8,2.4-4,6.4-.4,5.8-.3,15.4-.3,27.2s.1,25.1.4,29.7c.1,4.2.8,6,5.1,7.1,2,.4,5.1.9,9,1.5.7.5.3,4.8-.4,5.4-2.9,0-12.6-.4-19.7-.4s-17.8.4-20.2.4c-.8-.4-.8-4.8-.1-5.4,3.6-.4,5.5-.7,7.5-1.1,4.3-1.1,4.8-2.9,5.2-5.6.5-3.9.4-11.8.4-33.8s.1-18.9-.3-25.2c-.3-3.6-.7-5.1-3.5-5.9-2.4-.7-5-1.1-9-1.6-.7-.7-.4-4.6.1-5.2Z"/>
        <path class="cls-2" d="M114.2,8.9c-4.2-1.9-10.2-2.7-16.3-2.7-19,0-29.1,14.2-29.1,36s10.3,38.1,34.8,38.1,11.9-2.4,13.9-3.8c3.1-2.3,7-7.6,10.9-13.9,1.1-.1,4,1.6,4.4,2.8-1.1,5.1-7.2,16.2-10.5,18.5-3.8,1.5-13.3,3.8-21.4,3.8-30.7,0-47.3-16.8-47.3-44.2s6.8-29.3,21.6-37.4C82.5,2.2,91.2-.1,102.3-.1s21.8,2.4,28,2.8c-.8,5.4-1.9,15.4-2,21.7-.7.8-5.4,1.3-5.5.4-1.5-10.9-3.1-13.3-8.6-15.9Z"/>
        <path class="cls-2" d="M143.3,1.9c3.1,0,11,.4,18,.4h33.4c4.6,0,11,0,13.9-.4.4,0,.8.8.8,1.1-.8,3.2-1.7,12.1-1.9,19.6-.7.9-5.2,1.3-6,.5-.8-4-1.1-5.8-1.9-8.7-1.3-3.4-2.4-4.7-6.3-4.8-5.2-.3-19-.5-23.3-.1-.8.1-1.6,1.7-1.6,2.4,0,9.6-.3,18.9-.1,28.5,0,.4.4.8.5.8,8.6,0,17.8,0,22.5-.4,2.4-.1,3.2-1.9,4.2-4.7.5-1.5,1.1-3.2,1.5-5.8,1.3-.4,5.2-.3,6.6.5-.4,3.5-.9,9.6-.9,14.1s.1,9.8.4,14.6c-1.1.7-4.6.8-6.2.1-.7-2.9-1.1-4.3-1.6-6-.9-3.2-2.1-4.6-5-4.7-4.8-.3-17.7-.3-21.4-.3s-.5.4-.5.7c0,8.3-.1,17.7.1,23.2.1,4,.9,5.5,5,6.3,3.5.7,6.6,1.1,10.5,1.5.7.7.5,4.7-.4,5.4-4.4,0-10.5-.4-22.5-.4s-13.7.4-18.5.4c-.8-.5-.9-4.6-.1-5.2,3.4-.4,6.2-.9,7.9-1.3,4-1.1,4.7-2,5-6.7.3-5,.1-13.3.1-29.6s0-23.9-.3-28c-.1-4.4-.9-5.5-3.9-6.3-2-.4-4.7-.9-7.9-1.3-.9-.7-.4-4.6.1-5.2Z"/>
        <path class="cls-2" d="M222.5,67.3c5.9-14.1,18.9-47.7,21.8-56.4,1.1-3.1,2.3-6.6,2.7-8.7.7.1,2.4.1,5,.1s4.7,0,5.4-.1c.7,2.7,1.5,5.2,2.4,7.9,2.7,7.5,17.6,46.6,22.8,58.6,4.3,9.5,5.4,10.3,15.5,11.7.8.5.3,4.7-.3,5.4-3.5-.1-9.9-.4-17.6-.4s-16.8.4-19.4.4c-.5-.7-.7-4.7,0-5.4,2.9-.4,5.8-.8,7.8-1.5,1.6-.7,1.9-2.4,1.6-3.4-1.7-5.6-5.2-14.7-7.4-20-.3-.7-1.1-.9-1.3-.9-2.4-.1-8.6-.1-13.5-.1-8.6,0-9.4,0-10.9.1-.7,0-1.6.9-1.6,1.2-2.8,7.6-6.3,16.3-6.3,19s.5,3.5,4.4,4.4c1.7.4,4.7.8,7.1,1.1.5.7.3,4.7-.4,5.4-2.7,0-9.6-.4-18.6-.4s-13.1.4-15.7.4c-.5-.7-.5-4.7,0-5.4,9.9-1.3,11.8-2.1,16.5-13ZM248.5,18.2c-2.3,7.1-7.1,19.4-9.6,27.5,0,.4.1.8.5.9,1.5.1,6.7.1,10.6.1s7.1,0,8.8-.1c.4,0,.8-.7.7-1.3-2.5-7-7.9-21.8-10.2-27.2-.1,0-.5-.1-.8.1Z"/>
        <path class="cls-2" d="M301.7,1.9c2.7,0,11.4.4,18.5.4s15.5-.4,19.2-.4c.5.8.7,4.3,0,5.2-3.6.4-6,.7-7.9,1.2-3.2.8-3.8,2.4-4,6.4-.4,5.8-.3,15.4-.3,27.2s.1,25.1.4,29.7c.1,4.2.8,6,5.1,7.1,2,.4,5.1.9,9,1.5.7.5.3,4.8-.4,5.4-2.9,0-12.6-.4-19.7-.4s-17.8.4-20.2.4c-.8-.4-.8-4.8-.1-5.4,3.6-.4,5.5-.7,7.5-1.1,4.3-1.1,4.8-2.9,5.2-5.6.5-3.9.4-11.8.4-33.8s.1-18.9-.3-25.2c-.3-3.6-.7-5.1-3.5-5.9-2.4-.7-5-1.1-9-1.6-.7-.7-.4-4.6.1-5.2Z"/>
      </g>
      <rect class="cls-3" x="0" y="90.8" width="342.4" height="36"/>
      <g>
        <path class="cls-1" d="M52.8,110.1c0-2.2.3-4,1-5.5.5-1.1,1.2-2.1,2-2.9s1.8-1.5,2.8-1.9c1.3-.6,2.9-.8,4.6-.8,3.2,0,5.7,1,7.6,2.9s2.8,4.7,2.8,8.2-.9,6.2-2.8,8.1-4.4,2.9-7.6,2.9-5.7-1-7.6-2.9c-1.9-1.9-2.8-4.6-2.8-8ZM57.3,109.9c0,2.4.6,4.3,1.7,5.5,1.1,1.3,2.5,1.9,4.3,1.9s3.1-.6,4.3-1.9c1.1-1.2,1.7-3.1,1.7-5.6s-.5-4.3-1.6-5.5-2.5-1.8-4.3-1.8-3.2.6-4.3,1.8c-1.1,1.2-1.6,3.1-1.6,5.5Z"/>
        <path class="cls-1" d="M104.6,120.7v-21.5h4.2l8.8,14.3v-14.3h4v21.5h-4.4l-8.7-14v14h-4Z"/>
        <path class="cls-1" d="M154,120.7v-21.3h4.3v17.7h10.8v3.6h-15.1Z"/>
        <path class="cls-1" d="M199.7,120.7v-21.5h4.3v21.5h-4.3Z"/>
        <path class="cls-1" d="M235.8,120.7v-21.5h4.2l8.8,14.3v-14.3h4v21.5h-4.4l-8.7-14v14h-4Z"/>
        <path class="cls-1" d="M285,120.7v-21.5h15.9v3.6h-11.6v4.8h10.8v3.6h-10.8v5.8h12v3.6h-16.3Z"/>
      </g>
    </g>
  </g>
</svg>