<?xml version="1.0" encoding="UTF-8"?>
<svg id="Layer_1" xmlns="http://www.w3.org/2000/svg" version="1.1" viewBox="0 0 965 171">
  <!-- Generator: Adobe Illustrator 29.0.1, SVG Export Plug-In . SVG Version: 2.1.0 Build 192)  -->
  <defs>
    <style>
      .st0 {
        fill: #2b2a29;
      }

      .st1 {
        fill: #393185;
      }
    </style>
  </defs>
  <g>
    <path class="st1" d="M9.8,10.8c3.7,0,13.6.5,22.6.5s17.2-.5,21.6-.5c.5.7.7,4,.2,4.9-3.8.5-6.8.9-8.9,1.4-4,1-4.7,3.3-5,8.7-.5,7.3-.3,21.9-.3,37.1s0,33.9.3,40c.2,5,.9,8,6.1,9.2,2.4.7,6.1,1.2,10.3,1.7.7.7.3,4.5-.3,5-4.2,0-13.9-.5-22.4-.5s-18.6.5-24.2.5c-.9-.5-.9-4.5-.2-5,3.8-.3,6.4-.7,8.9-1.4,5-1,5.7-3.5,6.1-7.5.7-4.9.7-22.8.7-45.6s0-25.6-.5-33.8c-.3-4.4-.7-7-4.4-8-2.6-.9-5.9-1.2-10.6-1.9-.7-.7-.3-4.3.2-4.9Z"/>
    <path class="st1" d="M148.7,18.3c-5.7-2.8-13.2-3.8-21.6-3.8-25.2,0-39.7,18.6-39.7,48s15.5,51.3,46.5,51.3,14.8-1.9,19.1-5.9c4.3-3.5,8.5-9.4,13-17.1.9,0,3.8,1.6,4.2,2.8-1.7,7.5-9.2,21.1-13.2,23.5-5,1.7-16,4.3-26.6,4.3-38.8,0-60.4-21.2-60.4-57.4s8.5-37.6,27.7-47.8c9.2-5,20.5-8,35.3-8s26.4,3,34.3,3.5c-1,6.1-2.6,19-2.8,26.8-.7.7-5.2,1.2-5.4.3-1.7-13.9-4-17.4-10.4-20.5Z"/>
    <path class="st1" d="M181.5,10.8c3.5,0,12.2.5,21.4.5h41.1c6.8,0,13.2-.3,16.7-.9.5,0,.7.7.9,1-1.2,4.2-2.3,15-2.6,24.5-.5.9-4.9,1.2-5.6.3-.9-5.6-1.6-8.7-2.6-11.8-1.4-3.8-3.5-5.7-7.8-5.9-6.1-.2-25.2-.5-29.4,0-1.2.2-2.1,2.1-2.1,3.1-.2,10.1-.3,27.3-.3,39.3s.7.9.9.9c7.8,0,22.6,0,28.2-.3,4.5-.3,5.9-2.6,7-5.6.9-2.1,1.6-4.7,2.1-7.7,1.2-.3,5-.2,5.9.5-.5,4-1,11.3-1,17.4s.2,11.8.3,16.7c-.9.9-4.4.9-5.6.3-.7-3.7-1.4-5.6-2.1-7.7-1-3.7-3-5.4-6.1-5.6-6.3-.3-24.7-.5-28.7-.3-.5,0-.9.7-.9.9,0,10.6,0,25.1.3,32.4.2,5.7,1,8,6.1,9.2,3.5.7,7,1,11.7,1.6.7.7.5,4.4-.2,5-5.6,0-13.2-.5-25.9-.5s-16.4.5-22.4.5c-.7-.5-.7-4.4,0-5,4-.3,7.1-.9,9.2-1.4,4.9-1.2,5.7-3,6.1-9.2.2-6.3.2-18.8.2-39.7s0-32-.3-37.4c-.2-5.7-.7-7.3-4.5-8.7-2.4-.7-5.4-1.2-9.9-1.7-.7-.5-.3-4.3.2-4.9Z"/>
    <path class="st1" d="M275.7,97.7c8.9-21.1,25.2-65.4,29.1-76.6,1.4-3.7,2.6-7.5,3-9.9.7,0,2.8.2,5.7.2s5.2-.2,5.7-.2c.7,2.6,1.6,5.7,2.8,9,3.5,9.9,22.8,65.1,28.9,79.5,5,11.7,6.3,12.5,18.8,14.1.7.5.2,4.4-.3,5-4.5-.2-13.4-.5-21.2-.5s-19.1.3-22.8.5c-.5-.7-.9-4.4-.2-5,3.8-.5,7-1,9.6-1.9,2.3-1,2.4-2.8,1.9-4.3-2.1-7.5-7.3-22.1-10.4-29.9-.2-.5-1.2-1.2-1.6-1.2-2.4-.2-8.5,0-16.4,0-11.1,0-12.4-.2-14.4,0-.7,0-1.6,1-1.7,1.6-3.5,9.4-9,24-9.4,28.2-.2,3,.2,4.9,5.6,6.3,2.1.5,5,1,8.4,1.4.5.7.2,4.4-.3,5-3.7,0-12.5-.5-22.3-.5s-15.3.5-18.6.5c-.7-.7-.7-4.4,0-5,12.5-1.6,14.6-2.8,20.4-16.2ZM308.9,29.5c-3,8.7-10.1,28.4-13,37.6,0,.7.2,1,.7,1.2,1.7.2,7.3.2,13.9.2s9.9,0,11.7-.2c.3,0,.9-.7.5-1.4-3.5-10.8-10.1-30.1-12.9-37.6-.2,0-.7-.2-.9.2Z"/>
    <path class="st1" d="M372.3,10.8c3.7,0,13.6.5,22.6.5s17.2-.5,21.6-.5c.5.7.7,4,.2,4.9-3.8.5-6.8.9-8.9,1.4-4,1-4.7,3.3-5,8.7-.5,7.3-.3,21.9-.3,37.1s0,33.9.3,40c.2,5,.9,8,6.1,9.2,2.4.7,6.1,1.2,10.3,1.7.7.7.3,4.5-.3,5-4.2,0-13.9-.5-22.4-.5s-18.6.5-24.2.5c-.9-.5-.9-4.5-.2-5,3.8-.3,6.4-.7,8.9-1.4,5-1,5.7-3.5,6.1-7.5.7-4.9.7-22.8.7-45.6s0-25.6-.5-33.8c-.3-4.4-.7-7-4.3-8-2.6-.9-5.9-1.2-10.6-1.9-.7-.7-.3-4.3.2-4.9Z"/>
  </g>
  <g>
    <path class="st1" d="M447.6,14.5v16.1h7.5c1.7,0,3-.4,3.8-1.1.8-.8,1.3-2.3,1.6-4.5h1.1v13.9h-1.1c0-1.6-.2-2.8-.6-3.5-.4-.7-.9-1.3-1.6-1.7-.7-.4-1.7-.6-3.1-.6h-7.5v12.9c0,2.1.1,3.5.4,4.1.2.5.6.9,1.3,1.3.9.5,1.8.7,2.8.7h1.5v1.1h-17.6v-1.1h1.5c1.7,0,2.9-.5,3.7-1.5.5-.6.7-2.2.7-4.7v-26.5c0-2.1-.1-3.5-.4-4.1-.2-.5-.6-.9-1.2-1.3-.9-.5-1.8-.7-2.8-.7h-1.5v-1.1h30.5l.4,9h-1.1c-.5-1.9-1.1-3.3-1.8-4.2-.7-.9-1.6-1.5-2.6-2-1-.4-2.6-.6-4.7-.6h-9.1Z"/>
    <path class="st1" d="M484.9,24.7c4.2,0,7.6,1.6,10.1,4.8,2.2,2.7,3.2,5.9,3.2,9.4s-.6,5-1.8,7.5c-1.2,2.5-2.8,4.5-4.9,5.8-2.1,1.3-4.4,1.9-7,1.9-4.2,0-7.5-1.7-10-5-2.1-2.8-3.1-6-3.1-9.4s.6-5.1,1.9-7.6c1.3-2.5,2.9-4.4,5-5.6,2.1-1.2,4.2-1.8,6.5-1.8ZM483.9,26.7c-1.1,0-2.1.3-3.2,1-1.1.6-2,1.8-2.6,3.3-.7,1.6-1,3.6-1,6.1,0,4,.8,7.5,2.4,10.4,1.6,2.9,3.7,4.4,6.3,4.4s3.6-.8,4.8-2.4c1.3-1.6,1.9-4.4,1.9-8.3s-1.1-8.8-3.2-11.6c-1.4-1.9-3.3-2.9-5.5-2.9Z"/>
    <path class="st1" d="M526.6,25.5v16.8c0,3.2,0,5.2.2,5.9.2.7.4,1.2.7,1.5.3.3.7.4,1.2.4s1.3-.2,2.1-.5l.4,1.1-8.3,3.4h-1.4v-5.9c-2.4,2.6-4.2,4.2-5.4,4.9-1.3.7-2.6,1-4,1s-2.9-.4-4-1.3c-1.1-.9-1.9-2.1-2.4-3.5-.4-1.4-.7-3.4-.7-6v-12.4c0-1.3-.1-2.2-.4-2.7-.3-.5-.7-.9-1.3-1.2-.6-.3-1.6-.4-3-.4v-1.1h9.7v18.6c0,2.6.4,4.3,1.3,5.1.9.8,2,1.2,3.3,1.2s1.9-.3,3-.8c1.1-.5,2.4-1.6,3.9-3.1v-15.7c0-1.6-.3-2.6-.9-3.2-.6-.6-1.8-.9-3.6-.9v-1.1h9.4Z"/>
    <path class="st1" d="M541.4,30.6c3.2-3.9,6.3-5.9,9.3-5.9s2.8.4,3.9,1.1,2,2,2.6,3.7c.4,1.2.7,3.1.7,5.6v11.8c0,1.8.1,2.9.4,3.6.2.5.6.9,1.1,1.2.5.3,1.4.4,2.7.4v1.1h-13.7v-1.1h.6c1.3,0,2.2-.2,2.7-.6.5-.4.9-1,1.1-1.7,0-.3.1-1.3.1-2.8v-11.4c0-2.5-.3-4.4-1-5.5-.7-1.1-1.8-1.7-3.3-1.7-2.4,0-4.8,1.3-7.2,3.9v14.6c0,1.9.1,3,.3,3.5.3.6.7,1,1.2,1.3.5.3,1.5.4,3,.4v1.1h-13.7v-1.1h.6c1.4,0,2.4-.4,2.9-1.1.5-.7.7-2.1.7-4.1v-10.3c0-3.3,0-5.4-.2-6.1-.2-.7-.4-1.2-.7-1.5-.3-.3-.7-.4-1.3-.4s-1.2.2-2,.5l-.5-1.1,8.4-3.4h1.3v5.9Z"/>
    <path class="st1" d="M583.9,50.2c-1.4,1.4-2.7,2.4-4,3-1.3.6-2.7.9-4.2.9-3,0-5.7-1.3-7.9-3.8-2.3-2.5-3.4-5.8-3.4-9.8s1.3-7.6,3.8-10.9c2.5-3.3,5.7-4.9,9.7-4.9s4.5.8,6.1,2.3v-5.1c0-3.2,0-5.1-.2-5.8-.2-.7-.4-1.2-.7-1.5-.3-.3-.7-.4-1.2-.4s-1.2.2-2.1.5l-.4-1.1,8.3-3.4h1.4v32.1c0,3.2,0,5.2.2,5.9.2.7.4,1.2.7,1.5.3.3.7.4,1.2.4s1.3-.2,2.2-.5l.3,1.1-8.2,3.4h-1.4v-4ZM583.9,48v-14.3c-.1-1.4-.5-2.6-1.1-3.8-.6-1.1-1.4-2-2.4-2.6-1-.6-2-.9-2.9-.9-1.8,0-3.4.8-4.8,2.4-1.8,2.1-2.8,5.2-2.8,9.2s.9,7.2,2.7,9.4c1.8,2.2,3.8,3.3,5.9,3.3s3.6-.9,5.3-2.8Z"/>
    <path class="st1" d="M611,49.3c-2.8,2.2-4.6,3.5-5.4,3.8-1.1.5-2.3.8-3.5.8-1.9,0-3.5-.7-4.7-2-1.2-1.3-1.9-3-1.9-5.2s.3-2.5.9-3.5c.8-1.4,2.3-2.7,4.3-3.9,2-1.2,5.5-2.7,10.2-4.4v-1.1c0-2.8-.4-4.7-1.3-5.7-.9-1-2.2-1.5-3.8-1.5s-2.3.3-3,1c-.8.7-1.2,1.5-1.2,2.4v1.8c0,.9-.2,1.6-.7,2.1-.5.5-1.1.8-1.9.8s-1.4-.3-1.8-.8c-.5-.5-.7-1.2-.7-2.1,0-1.7.9-3.3,2.7-4.8,1.8-1.5,4.3-2.2,7.5-2.2s4.5.4,6.1,1.2c1.2.6,2.1,1.6,2.6,2.9.4.9.5,2.6.5,5.3v9.4c0,2.6,0,4.3.2,4.9.1.6.3,1,.5,1.2.2.2.5.3.8.3s.6,0,.8-.2c.4-.3,1.2-1,2.5-2.2v1.7c-2.3,3-4.4,4.5-6.5,4.5s-1.8-.3-2.4-1c-.6-.7-.9-1.9-.9-3.5ZM611,47.3v-10.6c-3,1.2-5,2.1-5.9,2.6-1.6.9-2.7,1.8-3.4,2.8-.7,1-1,2-1,3.2s.4,2.7,1.3,3.6c.9,1,1.9,1.4,3,1.4s3.6-1,6.1-3Z"/>
    <path class="st1" d="M630.9,16.4v9.1h6.5v2.1h-6.5v18c0,1.8.3,3,.8,3.6.5.6,1.2.9,2,.9s1.3-.2,1.9-.6c.6-.4,1.1-1,1.5-1.8h1.2c-.7,2-1.7,3.5-3,4.5-1.3,1-2.6,1.5-4,1.5s-1.8-.3-2.7-.8c-.9-.5-1.5-1.3-2-2.2-.4-1-.6-2.4-.6-4.4v-18.6h-4.4v-1c1.1-.4,2.2-1.2,3.4-2.3,1.2-1.1,2.2-2.3,3.1-3.8.5-.8,1.1-2.2,1.9-4.2h.9Z"/>
    <path class="st1" d="M649.6,24.7v22.3c0,1.7.1,2.9.4,3.5.3.6.6,1,1.1,1.3.5.3,1.4.4,2.7.4v1.1h-13.5v-1.1c1.4,0,2.3-.1,2.7-.4.5-.3.8-.7,1.1-1.3.3-.6.4-1.8.4-3.5v-10.7c0-3,0-5-.3-5.8-.1-.6-.4-1.1-.7-1.3-.3-.3-.7-.4-1.2-.4s-1.3.2-2.1.5l-.4-1.1,8.4-3.4h1.3ZM647.1,10.2c.8,0,1.6.3,2.2.9.6.6.9,1.3.9,2.2s-.3,1.6-.9,2.2c-.6.6-1.3.9-2.2.9s-1.6-.3-2.2-.9-.9-1.3-.9-2.2.3-1.6.9-2.2c.6-.6,1.3-.9,2.2-.9Z"/>
    <path class="st1" d="M670.9,24.7c4.2,0,7.6,1.6,10.1,4.8,2.2,2.7,3.2,5.9,3.2,9.4s-.6,5-1.8,7.5c-1.2,2.5-2.8,4.5-4.9,5.8-2.1,1.3-4.4,1.9-7,1.9-4.2,0-7.5-1.7-10-5-2.1-2.8-3.1-6-3.1-9.4s.6-5.1,1.9-7.6c1.3-2.5,2.9-4.4,5-5.6,2.1-1.2,4.2-1.8,6.5-1.8ZM669.9,26.7c-1.1,0-2.1.3-3.2,1-1.1.6-2,1.8-2.6,3.3-.7,1.6-1,3.6-1,6.1,0,4,.8,7.5,2.4,10.4,1.6,2.9,3.7,4.4,6.3,4.4s3.6-.8,4.8-2.4c1.3-1.6,1.9-4.4,1.9-8.3s-1.1-8.8-3.2-11.6c-1.4-1.9-3.3-2.9-5.5-2.9Z"/>
    <path class="st1" d="M696.4,30.6c3.2-3.9,6.3-5.9,9.3-5.9s2.8.4,3.9,1.1,2,2,2.6,3.7c.4,1.2.7,3.1.7,5.6v11.8c0,1.8.1,2.9.4,3.6.2.5.6.9,1.1,1.2.5.3,1.4.4,2.7.4v1.1h-13.7v-1.1h.6c1.3,0,2.2-.2,2.7-.6.5-.4.9-1,1.1-1.7,0-.3.1-1.3.1-2.8v-11.4c0-2.5-.3-4.4-1-5.5-.7-1.1-1.8-1.7-3.3-1.7-2.4,0-4.8,1.3-7.2,3.9v14.6c0,1.9.1,3,.3,3.5.3.6.7,1,1.2,1.3.5.3,1.5.4,3,.4v1.1h-13.7v-1.1h.6c1.4,0,2.4-.4,2.9-1.1.5-.7.7-2.1.7-4.1v-10.3c0-3.3,0-5.4-.2-6.1-.2-.7-.4-1.2-.7-1.5-.3-.3-.7-.4-1.3-.4s-1.2.2-2,.5l-.5-1.1,8.4-3.4h1.3v5.9Z"/>
    <path class="st1" d="M447.7,91.8v18.2c0,2.6.3,4.2.8,4.9.7.9,1.7,1.3,3,1.3h2.5v1.1h-16.6v-1.1h1.2c.8,0,1.5-.2,2.2-.6.7-.4,1.1-.9,1.4-1.6.3-.7.4-2,.4-4v-18.2h-5.4v-2.2h5.4v-1.8c0-2.8.4-5.1,1.3-7,.9-1.9,2.2-3.5,4.1-4.6,1.8-1.2,3.9-1.8,6.2-1.8s4.1.7,5.8,2.1c1.2.9,1.8,1.9,1.8,3.1s-.3,1.2-.8,1.7c-.5.5-1.1.8-1.7.8s-1-.2-1.5-.5c-.5-.3-1.1-1-1.9-2.1-.7-1.1-1.4-1.8-2.1-2.2-.6-.4-1.3-.6-2.1-.6s-1.7.2-2.4.7c-.6.5-1.1,1.3-1.4,2.3-.3,1-.4,3.7-.4,8v2h7.1v2.2h-7.1Z"/>
    <path class="st1" d="M471,88.8c4.2,0,7.6,1.6,10.1,4.8,2.2,2.7,3.2,5.9,3.2,9.4s-.6,5-1.8,7.5c-1.2,2.5-2.8,4.5-4.9,5.8-2.1,1.3-4.4,1.9-7,1.9-4.2,0-7.5-1.7-10-5-2.1-2.8-3.1-6-3.1-9.4s.6-5.1,1.9-7.6c1.3-2.5,2.9-4.4,5-5.6,2.1-1.2,4.2-1.8,6.5-1.8ZM470.1,90.8c-1.1,0-2.1.3-3.2,1-1.1.6-2,1.8-2.6,3.3-.7,1.6-1,3.6-1,6.1,0,4,.8,7.5,2.4,10.4,1.6,2.9,3.7,4.4,6.3,4.4s3.6-.8,4.8-2.4c1.3-1.6,1.9-4.4,1.9-8.3s-1.1-8.8-3.2-11.6c-1.4-1.9-3.3-2.9-5.5-2.9Z"/>
    <path class="st1" d="M496.6,88.8v6.2c2.3-4.2,4.7-6.2,7.1-6.2s2,.3,2.8,1c.7.7,1.1,1.5,1.1,2.3s-.3,1.5-.8,2c-.5.5-1.2.8-1.9.8s-1.5-.3-2.4-1c-.9-.7-1.5-1-2-1s-.8.2-1.2.6c-.9.8-1.8,2.2-2.8,4.1v13.3c0,1.5.2,2.7.6,3.5.3.5.7,1,1.4,1.4s1.6.5,2.9.5v1.1h-14.2v-1.1c1.4,0,2.5-.2,3.1-.7.5-.3.9-.8,1.1-1.5.1-.3.2-1.3.2-2.9v-10.7c0-3.2,0-5.2-.2-5.8-.1-.6-.4-1.1-.7-1.3-.4-.3-.8-.4-1.3-.4s-1.3.2-2.1.5l-.3-1.1,8.4-3.4h1.3Z"/>
    <path class="st1" d="M535.4,95.3h19.1v-11.7c0-2.1-.1-3.5-.4-4.1-.2-.5-.6-.9-1.3-1.3-.9-.5-1.8-.7-2.8-.7h-1.5v-1.1h17.6v1.1h-1.5c-1,0-1.9.2-2.8.7-.6.3-1.1.8-1.3,1.5-.2.7-.3,2-.3,4v26.5c0,2.1.1,3.5.4,4.1.2.5.6.9,1.2,1.3.9.5,1.8.7,2.8.7h1.5v1.1h-17.6v-1.1h1.5c1.7,0,2.9-.5,3.7-1.5.5-.6.8-2.2.8-4.7v-12.5h-19.1v12.5c0,2.1.1,3.5.4,4.1.2.5.6.9,1.3,1.3.9.5,1.8.7,2.8.7h1.5v1.1h-17.6v-1.1h1.5c1.7,0,2.9-.5,3.7-1.5.5-.6.7-2.2.7-4.7v-26.5c0-2.1-.1-3.5-.4-4.1-.2-.5-.6-.9-1.2-1.3-.9-.5-1.8-.7-2.8-.7h-1.5v-1.1h17.6v1.1h-1.5c-1,0-1.9.2-2.8.7-.6.3-1.1.8-1.3,1.5-.2.7-.4,2-.4,4v11.7Z"/>
    <path class="st1" d="M579,88.8v22.3c0,1.7.1,2.9.4,3.5.3.6.6,1,1.1,1.3.5.3,1.4.4,2.7.4v1.1h-13.5v-1.1c1.4,0,2.3-.1,2.7-.4.5-.3.8-.7,1.1-1.3.3-.6.4-1.8.4-3.5v-10.7c0-3,0-5-.3-5.8-.1-.6-.4-1.1-.7-1.3-.3-.3-.7-.4-1.2-.4s-1.3.2-2.1.5l-.4-1.1,8.4-3.4h1.3ZM576.5,74.3c.8,0,1.6.3,2.2.9.6.6.9,1.3.9,2.2s-.3,1.6-.9,2.2c-.6.6-1.3.9-2.2.9s-1.6-.3-2.2-.9-.9-1.3-.9-2.2.3-1.6.9-2.2c.6-.6,1.3-.9,2.2-.9Z"/>
    <path class="st1" d="M594,107.2c-1.7-.8-3-2-3.9-3.5s-1.4-3.1-1.4-4.9c0-2.7,1-5.1,3.1-7.1,2.1-2,4.7-3,7.9-3s4.9.6,6.9,1.9h5.9c.9,0,1.4,0,1.5,0,.1,0,.2.1.3.3.1.2.2.5.2,1s0,.9-.2,1.1c0,.1-.2.2-.3.2-.2,0-.7,0-1.5,0h-3.6c1.1,1.5,1.7,3.3,1.7,5.6s-1,4.8-3,6.6c-2,1.8-4.6,2.8-8,2.8s-2.8-.2-4.2-.6c-.9.8-1.5,1.4-1.8,2-.3.6-.5,1.1-.5,1.5s.2.7.5,1c.3.3,1,.6,2,.7.6,0,2,.2,4.2.2,4.2.1,6.9.2,8.1.4,1.9.3,3.4,1,4.5,2.1,1.1,1.1,1.7,2.5,1.7,4.2s-1.1,4.4-3.2,6.4c-3.1,2.9-7.3,4.4-12.3,4.4s-7.2-.9-9.9-2.6c-1.5-1-2.3-2.1-2.3-3.1s.1-1,.3-1.5c.3-.7,1-1.8,2.1-3.1.1-.2,1.2-1.3,3.1-3.3-1-.6-1.8-1.2-2.2-1.7-.4-.5-.7-1.1-.7-1.7s.3-1.5.9-2.5c.6-.9,1.9-2.3,4-4ZM593.7,117.3c-.9,1-1.7,2-2.1,2.9-.5.9-.7,1.7-.7,2.5s.6,1.8,1.8,2.5c2,1.3,4.9,1.9,8.7,1.9s6.3-.6,8-1.9c1.7-1.3,2.6-2.6,2.6-4.1s-.5-1.8-1.5-2.2c-1-.4-3.1-.7-6.2-.8-4.5-.1-8-.4-10.5-.7ZM599.3,90.2c-1.5,0-2.7.6-3.8,1.8-1,1.2-1.5,3-1.5,5.5s.7,5.7,2.1,7.4c1,1.3,2.4,2,4,2s2.8-.6,3.8-1.7c1-1.2,1.5-3,1.5-5.4s-.7-5.7-2.1-7.5c-1-1.3-2.4-2-4-2Z"/>
    <path class="st1" d="M625.8,74.3v20.3c2.2-2.5,4-4,5.3-4.7,1.3-.7,2.6-1,3.9-1s2.9.4,4.1,1.3c1.1.9,2,2.2,2.5,4.1.4,1.3.6,3.7.6,7.1v9.8c0,1.8.1,3,.4,3.6.2.5.5.9,1,1.2.5.3,1.4.4,2.7.4v1.1h-13.6v-1.1h.6c1.3,0,2.2-.2,2.7-.6.5-.4.9-1,1.1-1.7,0-.3,0-1.3,0-2.8v-9.8c0-3-.2-5-.5-6-.3-.9-.8-1.7-1.5-2.1-.7-.5-1.5-.7-2.5-.7s-2,.3-3.1.8c-1.1.5-2.4,1.6-3.8,3.2v14.7c0,1.9.1,3.1.3,3.5.2.5.6.9,1.2,1.2.6.3,1.6.5,3,.5v1.1h-13.7v-1.1c1.2,0,2.2-.2,2.9-.6.4-.2.7-.6,1-1.2.2-.6.4-1.7.4-3.5v-25.1c0-3.2,0-5.1-.2-5.8-.2-.7-.4-1.2-.7-1.5-.3-.3-.7-.4-1.3-.4s-1.1.2-2.1.5l-.4-1.1,8.3-3.4h1.4Z"/>
    <path class="st1" d="M653.3,100.1c0,4.1,1,7.3,3,9.7,2,2.3,4.4,3.5,7.1,3.5s3.4-.5,4.7-1.5c1.3-1,2.5-2.7,3.4-5.1l.9.6c-.4,2.8-1.7,5.3-3.7,7.6-2,2.3-4.6,3.4-7.7,3.4s-6.2-1.3-8.6-3.9c-2.4-2.6-3.6-6.1-3.6-10.5s1.2-8.4,3.6-11.1c2.4-2.7,5.5-4,9.2-4s5.7,1,7.7,3.1c2,2,3,4.8,3,8.2h-19.2ZM653.3,98.3h12.8c-.1-1.8-.3-3-.6-3.8-.5-1.1-1.3-2-2.3-2.7-1-.6-2-1-3.1-1-1.7,0-3.2.7-4.5,2-1.3,1.3-2.1,3.1-2.3,5.4Z"/>
    <path class="st1" d="M684.3,88.8v6.2c2.3-4.2,4.7-6.2,7.1-6.2s2,.3,2.8,1c.7.7,1.1,1.5,1.1,2.3s-.3,1.5-.8,2c-.5.5-1.2.8-1.9.8s-1.5-.3-2.4-1c-.9-.7-1.5-1-2-1s-.8.2-1.2.6c-.9.8-1.8,2.2-2.8,4.1v13.3c0,1.5.2,2.7.6,3.5.3.5.7,1,1.4,1.4s1.6.5,2.9.5v1.1h-14.2v-1.1c1.4,0,2.5-.2,3.1-.7.5-.3.9-.8,1.1-1.5.1-.3.2-1.3.2-2.9v-10.7c0-3.2,0-5.2-.2-5.8-.1-.6-.4-1.1-.7-1.3-.4-.3-.8-.4-1.3-.4s-1.3.2-2.1.5l-.3-1.1,8.4-3.4h1.3Z"/>
    <path class="st1" d="M723.3,78.5v16.2h9c2.3,0,3.9-.4,4.7-1.1,1-.9,1.6-2.6,1.8-4.9h1.1v14.3h-1.1c-.3-2-.6-3.3-.8-3.8-.4-.7-1-1.3-1.8-1.7-.8-.4-2.1-.6-3.8-.6h-9v13.5c0,1.8,0,2.9.2,3.3.2.4.4.7.8.9.4.2,1.2.3,2.3.3h7c2.3,0,4-.2,5.1-.5,1-.3,2.1-1,3-1.9,1.3-1.3,2.5-3.1,3.8-5.7h1.2l-3.5,10.3h-31.6v-1.1h1.5c1,0,1.9-.2,2.8-.7.6-.3,1.1-.8,1.3-1.5.2-.6.3-2,.3-4v-26.7c0-2.6-.3-4.2-.8-4.8-.7-.8-1.9-1.2-3.6-1.2h-1.5v-1.1h31.6l.5,9h-1.2c-.4-2.2-.9-3.6-1.4-4.5-.5-.8-1.3-1.4-2.3-1.8-.8-.3-2.2-.5-4.3-.5h-11.3Z"/>
    <path class="st1" d="M769.8,114.2c-1.4,1.4-2.7,2.4-4,3-1.3.6-2.7.9-4.2.9-3,0-5.7-1.3-7.9-3.8-2.3-2.5-3.4-5.8-3.4-9.8s1.3-7.6,3.8-10.9c2.5-3.3,5.7-4.9,9.7-4.9s4.5.8,6.1,2.3v-5.1c0-3.2,0-5.1-.2-5.8-.2-.7-.4-1.2-.7-1.5-.3-.3-.7-.4-1.2-.4s-1.2.2-2.1.5l-.4-1.1,8.3-3.4h1.4v32.1c0,3.2,0,5.2.2,5.9.2.7.4,1.2.7,1.5.3.3.7.4,1.2.4s1.3-.2,2.2-.5l.3,1.1-8.2,3.4h-1.4v-4ZM769.8,112.1v-14.3c-.1-1.4-.5-2.6-1.1-3.8-.6-1.1-1.4-2-2.4-2.6-1-.6-2-.9-2.9-.9-1.8,0-3.4.8-4.8,2.4-1.8,2.1-2.8,5.2-2.8,9.2s.9,7.2,2.7,9.4c1.8,2.2,3.8,3.3,5.9,3.3s3.6-.9,5.3-2.8Z"/>
    <path class="st1" d="M805.5,89.6v16.8c0,3.2,0,5.2.2,5.9.2.7.4,1.2.7,1.5.3.3.7.4,1.2.4s1.3-.2,2.1-.5l.4,1.1-8.3,3.4h-1.4v-5.9c-2.4,2.6-4.2,4.2-5.4,4.9-1.3.7-2.6,1-4,1s-2.9-.4-4-1.3c-1.1-.9-1.9-2.1-2.4-3.5-.4-1.4-.7-3.4-.7-6v-12.4c0-1.3-.1-2.2-.4-2.7-.3-.5-.7-.9-1.3-1.2-.6-.3-1.6-.4-3-.4v-1.1h9.7v18.6c0,2.6.4,4.3,1.3,5.1.9.8,2,1.2,3.3,1.2s1.9-.3,3-.8c1.1-.5,2.4-1.6,3.9-3.1v-15.7c0-1.6-.3-2.6-.9-3.2-.6-.6-1.8-.9-3.6-.9v-1.1h9.4Z"/>
    <path class="st1" d="M835.7,106.8c-.7,3.7-2.2,6.5-4.4,8.4s-4.6,3-7.2,3-5.9-1.3-8.2-4c-2.3-2.6-3.5-6.2-3.5-10.7s1.3-7.9,3.9-10.6c2.6-2.7,5.7-4.1,9.3-4.1s5,.7,6.7,2.2c1.8,1.4,2.6,2.9,2.6,4.5s-.2,1.4-.7,1.9c-.5.5-1.2.7-2.1.7s-2.1-.4-2.7-1.2c-.3-.4-.6-1.2-.7-2.4-.1-1.2-.5-2.1-1.2-2.7-.7-.6-1.7-.9-2.9-.9-2,0-3.6.7-4.9,2.2-1.6,2-2.5,4.6-2.5,7.8s.8,6.2,2.4,8.8c1.6,2.5,3.8,3.8,6.6,3.8s3.8-.7,5.3-2c1.1-.9,2.2-2.6,3.2-5.1l.9.4Z"/>
    <path class="st1" d="M855.4,113.3c-2.8,2.2-4.6,3.5-5.4,3.8-1.1.5-2.3.8-3.5.8-1.9,0-3.5-.7-4.7-2-1.2-1.3-1.9-3-1.9-5.2s.3-2.5.9-3.5c.8-1.4,2.3-2.7,4.3-3.9,2-1.2,5.5-2.7,10.2-4.4v-1.1c0-2.8-.4-4.7-1.3-5.7-.9-1-2.2-1.5-3.8-1.5s-2.3.3-3,1c-.8.7-1.2,1.5-1.2,2.4v1.8c0,.9-.2,1.6-.7,2.1-.5.5-1.1.8-1.9.8s-1.4-.3-1.8-.8c-.5-.5-.7-1.2-.7-2.1,0-1.7.9-3.3,2.7-4.8,1.8-1.5,4.3-2.2,7.5-2.2s4.5.4,6.1,1.2c1.2.6,2.1,1.6,2.6,2.9.4.9.5,2.6.5,5.3v9.4c0,2.6,0,4.3.2,4.9.1.6.3,1,.5,1.2.2.2.5.3.8.3s.6,0,.8-.2c.4-.3,1.2-1,2.5-2.2v1.7c-2.3,3-4.4,4.5-6.5,4.5s-1.8-.3-2.4-1c-.6-.7-.9-1.9-.9-3.5ZM855.4,111.4v-10.6c-3,1.2-5,2.1-5.9,2.6-1.6.9-2.7,1.8-3.4,2.8-.7,1-1,2-1,3.2s.4,2.7,1.3,3.6c.9,1,1.9,1.4,3,1.4s3.6-1,6.1-3Z"/>
    <path class="st1" d="M875.3,80.5v9.1h6.5v2.1h-6.5v18c0,1.8.3,3,.8,3.6.5.6,1.2.9,2,.9s1.3-.2,1.9-.6c.6-.4,1.1-1,1.5-1.8h1.2c-.7,2-1.7,3.5-3,4.5-1.3,1-2.6,1.5-4,1.5s-1.8-.3-2.7-.8c-.9-.5-1.5-1.3-2-2.2-.4-1-.6-2.4-.6-4.4v-18.6h-4.4v-1c1.1-.4,2.2-1.2,3.4-2.3,1.2-1.1,2.2-2.3,3.1-3.8.5-.8,1.1-2.2,1.9-4.2h.9Z"/>
    <path class="st1" d="M894,88.8v22.3c0,1.7.1,2.9.4,3.5.3.6.6,1,1.1,1.3.5.3,1.4.4,2.7.4v1.1h-13.5v-1.1c1.4,0,2.3-.1,2.7-.4.5-.3.8-.7,1.1-1.3.3-.6.4-1.8.4-3.5v-10.7c0-3,0-5-.3-5.8-.1-.6-.4-1.1-.7-1.3-.3-.3-.7-.4-1.2-.4s-1.3.2-2.1.5l-.4-1.1,8.4-3.4h1.3ZM891.5,74.3c.8,0,1.6.3,2.2.9.6.6.9,1.3.9,2.2s-.3,1.6-.9,2.2c-.6.6-1.3.9-2.2.9s-1.6-.3-2.2-.9-.9-1.3-.9-2.2.3-1.6.9-2.2c.6-.6,1.3-.9,2.2-.9Z"/>
    <path class="st1" d="M915.2,88.8c4.2,0,7.6,1.6,10.1,4.8,2.2,2.7,3.2,5.9,3.2,9.4s-.6,5-1.8,7.5c-1.2,2.5-2.8,4.5-4.9,5.8-2.1,1.3-4.4,1.9-7,1.9-4.2,0-7.5-1.7-10-5-2.1-2.8-3.1-6-3.1-9.4s.6-5.1,1.9-7.6c1.3-2.5,2.9-4.4,5-5.6,2.1-1.2,4.2-1.8,6.5-1.8ZM914.3,90.8c-1.1,0-2.1.3-3.2,1-1.1.6-2,1.8-2.6,3.3-.7,1.6-1,3.6-1,6.1,0,4,.8,7.5,2.4,10.4,1.6,2.9,3.7,4.4,6.3,4.4s3.6-.8,4.8-2.4c1.3-1.6,1.9-4.4,1.9-8.3s-1.1-8.8-3.2-11.6c-1.4-1.9-3.3-2.9-5.5-2.9Z"/>
    <path class="st1" d="M940.7,94.7c3.2-3.9,6.3-5.9,9.3-5.9s2.8.4,3.9,1.1,2,2,2.6,3.7c.4,1.2.7,3.1.7,5.6v11.8c0,1.8.1,2.9.4,3.6.2.5.6.9,1.1,1.2.5.3,1.4.4,2.7.4v1.1h-13.7v-1.1h.6c1.3,0,2.2-.2,2.7-.6.5-.4.9-1,1.1-1.7,0-.3.1-1.3.1-2.8v-11.4c0-2.5-.3-4.4-1-5.5-.7-1.1-1.8-1.7-3.3-1.7-2.4,0-4.8,1.3-7.2,3.9v14.6c0,1.9.1,3,.3,3.5.3.6.7,1,1.2,1.3.5.3,1.5.4,3,.4v1.1h-13.7v-1.1h.6c1.4,0,2.4-.4,2.9-1.1.5-.7.7-2.1.7-4.1v-10.3c0-3.3,0-5.4-.2-6.1-.2-.7-.4-1.2-.7-1.5-.3-.3-.7-.4-1.3-.4s-1.2.2-2,.5l-.5-1.1,8.4-3.4h1.3v5.9Z"/>
  </g>
  <g>
    <path class="st0" d="M17.3,168.2v.7c-1.8-.9-3.2-1.9-4.4-3.1-1.7-1.7-3-3.7-3.9-6s-1.4-4.7-1.4-7.2c0-3.6.9-6.9,2.7-9.9s4.1-5.1,7-6.4v.7c-1.4.8-2.6,1.9-3.6,3.3s-1.6,3.1-2.1,5.3-.7,4.3-.7,6.6.2,4.8.6,6.8c.3,1.6.7,2.9,1.1,3.9s1,1.9,1.7,2.8,1.7,1.8,2.9,2.6Z"/>
    <path class="st0" d="M18.8,161.1v-.7h.9c1,0,1.7-.3,2.1-1,.3-.4.4-1.3.4-2.6v-15.4c0-1.5-.2-2.4-.5-2.8-.5-.5-1.1-.8-2-.8h-.9v-.7h9.7c3.6,0,6.3.4,8.1,1.2s3.4,2.2,4.5,4,1.7,4.1,1.7,6.5-1,6.1-3,8.3c-2.3,2.5-5.7,3.7-10.3,3.7h-10.7ZM25.6,159.4c1.5.3,2.7.5,3.7.5,2.7,0,5-1,6.8-2.9s2.7-4.5,2.7-7.8-.9-5.9-2.7-7.8-4.1-2.8-6.9-2.8-2.3.2-3.6.5v20.3Z"/>
    <path class="st0" d="M48,151.1c0,2.4.6,4.3,1.7,5.6s2.5,2,4.1,2,2-.3,2.8-.9,1.4-1.6,2-3l.5.4c-.2,1.6-1,3.1-2.1,4.4s-2.7,2-4.4,2-3.6-.8-5-2.3-2.1-3.5-2.1-6.1.7-4.9,2.1-6.4,3.2-2.3,5.3-2.3,3.3.6,4.4,1.8,1.7,2.8,1.7,4.8h-11.1ZM48,150.1h7.5c0-1-.2-1.8-.4-2.2-.3-.7-.7-1.2-1.3-1.5s-1.2-.6-1.8-.6c-1,0-1.8.4-2.6,1.1s-1.2,1.8-1.3,3.2Z"/>
    <path class="st0" d="M63.9,151.1c0,2.4.6,4.3,1.7,5.6s2.5,2,4.1,2,2-.3,2.8-.9,1.4-1.6,2-3l.5.4c-.2,1.6-1,3.1-2.1,4.4s-2.7,2-4.4,2-3.6-.8-5-2.3-2.1-3.5-2.1-6.1.7-4.9,2.1-6.4,3.2-2.3,5.3-2.3,3.3.6,4.4,1.8,1.7,2.8,1.7,4.8h-11.1ZM63.9,150.1h7.5c0-1-.2-1.8-.4-2.2-.3-.7-.7-1.2-1.3-1.5s-1.2-.6-1.8-.6c-1,0-1.8.4-2.6,1.1s-1.2,1.8-1.3,3.2Z"/>
    <path class="st0" d="M82,148c1.2-1.2,1.9-1.8,2.1-2,.5-.4,1.1-.8,1.7-1s1.2-.4,1.8-.4c1,0,1.9.3,2.6.9s1.2,1.4,1.5,2.5c1.2-1.4,2.2-2.3,3.1-2.8s1.7-.7,2.6-.7,1.6.2,2.3.7,1.2,1.2,1.6,2.2c.3.7.4,1.7.4,3.2v6.9c0,1,0,1.7.2,2.1.1.3.3.5.7.7s.8.3,1.5.3v.6h-7.9v-.6h.3c.7,0,1.2-.1,1.6-.4.3-.2.5-.5.6-.9,0-.2,0-.8,0-1.7v-6.9c0-1.3-.2-2.2-.5-2.8-.5-.8-1.2-1.1-2.2-1.1s-1.2.2-1.9.5-1.4.9-2.3,1.7v.2s0,.8,0,.8v7.7c0,1.1,0,1.8.2,2.1s.4.5.7.7.9.3,1.7.3v.6h-8.1v-.6c.9,0,1.5-.1,1.8-.3s.6-.5.7-.9c0-.2,0-.8,0-1.7v-6.9c0-1.3-.2-2.3-.6-2.8-.5-.8-1.2-1.1-2.2-1.1s-1.3.2-1.9.5c-1,.5-1.7,1.1-2.2,1.7v8.6c0,1.1,0,1.7.2,2.1s.4.6.7.7.9.2,1.7.2v.6h-8v-.6c.7,0,1.3,0,1.5-.2s.5-.4.7-.8.2-1,.2-2v-6.2c0-1.8,0-2.9-.2-3.4,0-.4-.2-.7-.4-.8s-.4-.2-.7-.2-.7,0-1.2.3l-.3-.6,4.9-2h.8v3.4Z"/>
    <path class="st0" d="M107.9,151.1c0,2.4.6,4.3,1.7,5.6s2.5,2,4.1,2,2-.3,2.8-.9,1.4-1.6,2-3l.5.4c-.2,1.6-1,3.1-2.1,4.4s-2.7,2-4.4,2-3.6-.8-5-2.3-2.1-3.5-2.1-6.1.7-4.9,2.1-6.4,3.2-2.3,5.3-2.3,3.3.6,4.4,1.8,1.7,2.8,1.7,4.8h-11.1ZM107.9,150.1h7.5c0-1-.2-1.8-.4-2.2-.3-.7-.7-1.2-1.3-1.5s-1.2-.6-1.8-.6c-1,0-1.8.4-2.6,1.1s-1.2,1.8-1.3,3.2Z"/>
    <path class="st0" d="M132.6,159.3c-.8.8-1.6,1.4-2.3,1.8s-1.6.5-2.4.5c-1.8,0-3.3-.7-4.6-2.2s-2-3.4-2-5.7.7-4.4,2.2-6.3,3.3-2.9,5.6-2.9,2.6.5,3.5,1.4v-3c0-1.8,0-3-.1-3.4s-.2-.7-.4-.9-.4-.2-.7-.2-.7,0-1.2.3l-.2-.6,4.8-2h.8v18.6c0,1.9,0,3,.1,3.5s.2.7.4.9.4.2.7.2.7,0,1.3-.3l.2.6-4.8,2h-.8v-2.3ZM132.6,158.1v-8.3c0-.8-.3-1.5-.6-2.2s-.8-1.2-1.4-1.5-1.1-.5-1.7-.5c-1,0-2,.5-2.8,1.4-1.1,1.2-1.6,3-1.6,5.3s.5,4.2,1.5,5.4,2.2,1.9,3.4,1.9,2.1-.5,3.1-1.6Z"/>
    <path class="st0" d="M139.5,151.7h9.1v2.7h-9.1v-2.7Z"/>
    <path class="st0" d="M155.9,139.7v5.3h3.8v1.2h-3.8v10.4c0,1,.1,1.7.4,2.1s.7.5,1.2.5.8-.1,1.1-.4.6-.6.8-1.1h.7c-.4,1.1-1,2-1.7,2.6s-1.5.9-2.3.9-1.1-.1-1.6-.4-.9-.7-1.1-1.3-.4-1.4-.4-2.6v-10.8h-2.5v-.6c.6-.3,1.3-.7,2-1.3s1.3-1.3,1.8-2.2c.3-.4.6-1.3,1.1-2.4h.5Z"/>
    <path class="st0" d="M169.1,144.5c2.4,0,4.4.9,5.9,2.8,1.3,1.6,1.9,3.4,1.9,5.4s-.3,2.9-1,4.4-1.6,2.6-2.9,3.3-2.6,1.1-4.1,1.1c-2.4,0-4.4-1-5.8-2.9-1.2-1.6-1.8-3.5-1.8-5.5s.4-2.9,1.1-4.4,1.7-2.5,2.9-3.2,2.5-1,3.8-1ZM168.5,145.7c-.6,0-1.2.2-1.9.6s-1.1,1-1.5,1.9-.6,2.1-.6,3.6c0,2.3.5,4.4,1.4,6.1s2.2,2.5,3.7,2.5,2.1-.5,2.8-1.4,1.1-2.5,1.1-4.8-.6-5.1-1.8-6.8c-.8-1.1-1.9-1.7-3.2-1.7Z"/>
    <path class="st0" d="M179.5,151.7h9.1v2.7h-9.1v-2.7Z"/>
    <path class="st0" d="M195.6,147.8c1.6-2.2,3.2-3.3,5-3.3s3.1.7,4.3,2.1,1.8,3.3,1.8,5.8-.9,5.2-2.8,6.9c-1.6,1.5-3.4,2.2-5.4,2.2s-1.9-.2-2.9-.5-2-.8-3-1.5v-16.7c0-1.8,0-3-.1-3.4s-.2-.7-.4-.9-.4-.2-.7-.2-.7,0-1.2.3l-.2-.6,4.8-2h.8v11.7ZM195.6,148.9v9.6c.6.6,1.2,1,1.9,1.3s1.3.4,2,.4c1.1,0,2.1-.6,3-1.8s1.4-2.9,1.4-5.1-.5-3.6-1.4-4.8-2-1.7-3.1-1.7-1.2.2-1.9.5c-.5.2-1.1.7-1.8,1.4Z"/>
    <path class="st0" d="M211.9,151.1c0,2.4.6,4.3,1.7,5.6s2.5,2,4.1,2,2-.3,2.8-.9,1.4-1.6,2-3l.5.4c-.2,1.6-1,3.1-2.1,4.4s-2.7,2-4.4,2-3.6-.8-5-2.3-2.1-3.5-2.1-6.1.7-4.9,2.1-6.4,3.2-2.3,5.3-2.3,3.3.6,4.4,1.8,1.7,2.8,1.7,4.8h-11.1ZM211.9,150.1h7.5c0-1-.2-1.8-.4-2.2-.3-.7-.7-1.2-1.3-1.5s-1.2-.6-1.8-.6c-1,0-1.8.4-2.6,1.1s-1.2,1.8-1.3,3.2Z"/>
    <path class="st0" d="M225.5,151.7h9.1v2.7h-9.1v-2.7Z"/>
    <path class="st0" d="M253.2,137.9v-.7h8.4v.7h-.9c-.9,0-1.7.4-2.2,1.2-.2.4-.4,1.2-.4,2.5v9.7c0,2.4-.2,4.2-.7,5.6s-1.4,2.4-2.8,3.4-3.3,1.4-5.7,1.4-4.6-.5-5.9-1.4-2.3-2.1-2.9-3.6c-.4-1-.6-3-.6-5.9v-9.3c0-1.5-.2-2.4-.6-2.9s-1.1-.7-2-.7h-.9v-.7h10.3v.7h-.9c-1,0-1.7.3-2.1.9-.3.4-.4,1.3-.4,2.6v10.4c0,.9,0,2,.3,3.2s.5,2.1.9,2.8,1.1,1.2,1.9,1.7,1.9.7,3.1.7,3-.3,4.2-1,2.1-1.5,2.5-2.6.7-2.9.7-5.4v-9.7c0-1.5-.2-2.4-.5-2.8-.5-.5-1.1-.8-2-.8h-.9Z"/>
    <path class="st0" d="M267.8,147.9c1.9-2.3,3.7-3.4,5.4-3.4s1.6.2,2.3.7,1.1,1.2,1.5,2.2c.3.7.4,1.8.4,3.2v6.9c0,1,0,1.7.2,2.1.1.3.3.5.6.7s.8.2,1.6.2v.6h-8v-.6h.3c.8,0,1.3-.1,1.6-.3s.5-.6.6-1c0-.2,0-.7,0-1.7v-6.6c0-1.5-.2-2.5-.6-3.2s-1-1-1.9-1c-1.4,0-2.8.8-4.2,2.3v8.5c0,1.1,0,1.8.2,2,.2.3.4.6.7.7s.9.2,1.7.2v.6h-8v-.6h.4c.8,0,1.4-.2,1.7-.6s.4-1.2.4-2.4v-6c0-1.9,0-3.1-.1-3.5s-.2-.7-.4-.9-.4-.2-.7-.2-.7,0-1.2.3l-.3-.6,4.9-2h.8v3.4Z"/>
    <path class="st0" d="M286.7,144.5v12.9c0,1,0,1.7.2,2s.4.6.7.7.8.2,1.6.2v.6h-7.8v-.6c.8,0,1.3,0,1.6-.2s.5-.4.6-.8.2-1,.2-2v-6.2c0-1.7,0-2.9-.2-3.4,0-.4-.2-.6-.4-.8s-.4-.2-.7-.2-.7,0-1.2.3l-.2-.6,4.9-2h.8ZM285.2,136.1c.5,0,.9.2,1.3.5s.5.8.5,1.3-.2.9-.5,1.3-.8.5-1.3.5-.9-.2-1.3-.5-.5-.8-.5-1.3.2-.9.5-1.3.8-.5,1.3-.5Z"/>
    <path class="st0" d="M290.3,145h7.6v.7h-.5c-.5,0-.8.1-1,.3s-.4.5-.4.9.1.9.4,1.5l3.7,8.9,3.8-9.2c.3-.7.4-1.2.4-1.5s0-.3-.1-.4c-.1-.2-.3-.3-.5-.4s-.6,0-1.2,0v-.7h5.3v.7c-.6,0-1,.2-1.3.4-.4.4-.8.9-1.1,1.8l-5.7,13.8h-.7l-5.7-13.6c-.3-.6-.5-1.1-.7-1.4s-.5-.5-.9-.7c-.2-.1-.6-.2-1.2-.3v-.7Z"/>
    <path class="st0" d="M311.9,151.1c0,2.4.6,4.3,1.7,5.6s2.5,2,4.1,2,2-.3,2.8-.9,1.4-1.6,2-3l.5.4c-.2,1.6-1,3.1-2.1,4.4s-2.7,2-4.4,2-3.6-.8-5-2.3-2.1-3.5-2.1-6.1.7-4.9,2.1-6.4,3.2-2.3,5.3-2.3,3.3.6,4.4,1.8,1.7,2.8,1.7,4.8h-11.1ZM311.9,150.1h7.5c0-1-.2-1.8-.4-2.2-.3-.7-.7-1.2-1.3-1.5s-1.2-.6-1.8-.6c-1,0-1.8.4-2.6,1.1s-1.2,1.8-1.3,3.2Z"/>
    <path class="st0" d="M329.8,144.5v3.6c1.3-2.4,2.7-3.6,4.1-3.6s1.2.2,1.6.6.6.8.6,1.4-.2.8-.5,1.2-.7.5-1.1.5-.9-.2-1.4-.6-.9-.6-1.1-.6-.4.1-.7.4c-.5.5-1.1,1.3-1.6,2.4v7.7c0,.9.1,1.6.3,2,.2.3.4.6.8.8s.9.3,1.7.3v.6h-8.2v-.6c.8,0,1.4-.1,1.8-.4.3-.2.5-.5.6-.9,0-.2,0-.8,0-1.7v-6.2c0-1.9,0-3-.1-3.3s-.2-.6-.4-.8-.5-.2-.8-.2-.8,0-1.2.3l-.2-.6,4.9-2h.7Z"/>
    <path class="st0" d="M347.5,144.5v5.5h-.6c-.4-1.7-1-2.9-1.7-3.5s-1.6-.9-2.7-.9-1.5.2-2,.7-.8.9-.8,1.4.2,1.2.6,1.7c.4.5,1.1,1,2.2,1.5l2.6,1.2c2.4,1.2,3.6,2.7,3.6,4.6s-.6,2.6-1.7,3.5-2.3,1.3-3.7,1.3-2.1-.2-3.4-.5c-.4-.1-.7-.2-.9-.2s-.5.2-.6.5h-.6v-5.7h.6c.3,1.6,1,2.9,1.9,3.7s2,1.2,3.1,1.2,1.5-.2,2-.7.8-1,.8-1.7-.3-1.5-.9-2-1.7-1.2-3.4-2.1-2.8-1.6-3.3-2.3c-.5-.7-.8-1.5-.8-2.5s.5-2.4,1.4-3.3,2.1-1.3,3.5-1.3,1.4.1,2.3.4c.6.2,1,.3,1.2.3s.3,0,.4-.1.2-.3.4-.5h.6Z"/>
    <path class="st0" d="M356.7,144.5v12.9c0,1,0,1.7.2,2s.4.6.7.7.8.2,1.6.2v.6h-7.8v-.6c.8,0,1.3,0,1.6-.2s.5-.4.6-.8c.2-.4.2-1,.2-2v-6.2c0-1.7,0-2.9-.2-3.4,0-.4-.2-.6-.4-.8s-.4-.2-.7-.2-.7,0-1.2.3l-.2-.6,4.9-2h.8ZM355.2,136.1c.5,0,.9.2,1.3.5s.5.8.5,1.3-.2.9-.5,1.3-.8.5-1.3.5-.9-.2-1.3-.5-.5-.8-.5-1.3.2-.9.5-1.3.8-.5,1.3-.5Z"/>
    <path class="st0" d="M365.8,139.7v5.3h3.8v1.2h-3.8v10.4c0,1,.1,1.7.4,2.1s.7.5,1.2.5.8-.1,1.1-.4.6-.6.8-1.1h.7c-.4,1.1-1,2-1.7,2.6s-1.5.9-2.3.9-1.1-.1-1.6-.4-.9-.7-1.1-1.3-.4-1.4-.4-2.6v-10.8h-2.5v-.6c.6-.3,1.3-.7,2-1.3s1.3-1.3,1.8-2.2c.3-.4.6-1.3,1.1-2.4h.5Z"/>
    <path class="st0" d="M370.2,145h7.5v.7h-.4c-.5,0-.9.1-1.2.3s-.4.5-.4.9.2,1.1.6,1.9l3.9,8.1,3.6-8.9c.2-.5.3-1,.3-1.4s0-.4-.1-.5c0-.1-.2-.2-.4-.3s-.6-.1-1.1-.1v-.7h5.2v.7c-.4,0-.8.1-1,.3s-.5.4-.8.8c-.1.2-.3.6-.6,1.4l-6.6,16.1c-.6,1.6-1.5,2.7-2.5,3.5s-2,1.2-3,1.2-1.3-.2-1.7-.6-.7-.9-.7-1.4.2-.9.5-1.2.8-.4,1.3-.4.9.1,1.6.4c.5.2.8.3.9.3.4,0,.7-.2,1.2-.5s.8-1.1,1.3-2.1l1.1-2.8-5.8-12.1c-.2-.4-.5-.8-.8-1.4-.3-.4-.5-.7-.7-.8-.3-.2-.7-.4-1.3-.5v-.7Z"/>
    <path class="st0" d="M412.2,145v9.8c0,1.9,0,3,.1,3.4s.2.7.4.9.4.2.7.2.8,0,1.2-.3l.2.6-4.8,2h-.8v-3.4c-1.4,1.5-2.4,2.4-3.2,2.8s-1.5.6-2.3.6-1.7-.3-2.3-.8-1.1-1.2-1.4-2-.4-2-.4-3.5v-7.2c0-.8,0-1.3-.2-1.6s-.4-.5-.7-.7-.9-.2-1.7-.2v-.7h5.6v10.8c0,1.5.3,2.5.8,3s1.2.7,1.9.7,1.1-.2,1.7-.5,1.4-.9,2.3-1.8v-9.1c0-.9-.2-1.5-.5-1.9s-1-.5-2.1-.5v-.7h5.5Z"/>
    <path class="st0" d="M420.8,147.9c1.9-2.3,3.7-3.4,5.4-3.4s1.6.2,2.3.7,1.1,1.2,1.5,2.2c.3.7.4,1.8.4,3.2v6.9c0,1,0,1.7.2,2.1.1.3.3.5.6.7s.8.2,1.6.2v.6h-8v-.6h.3c.8,0,1.3-.1,1.6-.3s.5-.6.6-1c0-.2,0-.7,0-1.7v-6.6c0-1.5-.2-2.5-.6-3.2s-1-1-1.9-1c-1.4,0-2.8.8-4.2,2.3v8.5c0,1.1,0,1.8.2,2,.2.3.4.6.7.7s.9.2,1.7.2v.6h-8v-.6h.4c.8,0,1.4-.2,1.7-.6s.4-1.2.4-2.4v-6c0-1.9,0-3.1-.1-3.5s-.2-.7-.4-.9-.4-.2-.7-.2-.7,0-1.2.3l-.3-.6,4.9-2h.8v3.4Z"/>
    <path class="st0" d="M445.5,159.3c-.8.8-1.6,1.4-2.3,1.8s-1.6.5-2.4.5c-1.8,0-3.3-.7-4.6-2.2s-2-3.4-2-5.7.7-4.4,2.2-6.3,3.3-2.9,5.6-2.9,2.6.5,3.5,1.4v-3c0-1.8,0-3-.1-3.4s-.2-.7-.4-.9-.4-.2-.7-.2-.7,0-1.2.3l-.2-.6,4.8-2h.8v18.6c0,1.9,0,3,.1,3.5s.2.7.4.9.4.2.7.2.7,0,1.3-.3l.2.6-4.8,2h-.8v-2.3ZM445.5,158.1v-8.3c0-.8-.3-1.5-.6-2.2s-.8-1.2-1.4-1.5-1.1-.5-1.7-.5c-1,0-2,.5-2.8,1.4-1.1,1.2-1.6,3-1.6,5.3s.5,4.2,1.5,5.4,2.2,1.9,3.4,1.9,2.1-.5,3.1-1.6Z"/>
    <path class="st0" d="M454.8,151.1c0,2.4.6,4.3,1.7,5.6s2.5,2,4.1,2,2-.3,2.8-.9,1.4-1.6,2-3l.5.4c-.2,1.6-1,3.1-2.1,4.4s-2.7,2-4.4,2-3.6-.8-5-2.3-2.1-3.5-2.1-6.1.7-4.9,2.1-6.4,3.2-2.3,5.3-2.3,3.3.6,4.4,1.8,1.7,2.8,1.7,4.8h-11.1ZM454.8,150.1h7.5c0-1-.2-1.8-.4-2.2-.3-.7-.7-1.2-1.3-1.5s-1.2-.6-1.8-.6c-1,0-1.8.4-2.6,1.1s-1.2,1.8-1.3,3.2Z"/>
    <path class="st0" d="M472.8,144.5v3.6c1.3-2.4,2.7-3.6,4.1-3.6s1.2.2,1.6.6.6.8.6,1.4-.2.8-.5,1.2-.7.5-1.1.5-.9-.2-1.4-.6-.9-.6-1.1-.6-.4.1-.7.4c-.5.5-1.1,1.3-1.6,2.4v7.7c0,.9.1,1.6.3,2,.2.3.4.6.8.8s.9.3,1.7.3v.6h-8.2v-.6c.8,0,1.4-.1,1.8-.4.3-.2.5-.5.6-.9,0-.2,0-.8,0-1.7v-6.2c0-1.9,0-3-.1-3.3s-.2-.6-.4-.8-.5-.2-.8-.2-.8,0-1.2.3l-.2-.6,4.9-2h.7Z"/>
    <path class="st0" d="M504.5,136.7v8.2h-.7c-.2-1.6-.6-2.8-1.1-3.8s-1.3-1.7-2.3-2.2-2.1-.8-3.1-.8-2.2.4-3,1.1-1.2,1.6-1.2,2.5.3,1.4.8,2c.7.9,2.5,2.1,5.2,3.5,2.2,1.2,3.7,2.1,4.6,2.8s1.4,1.4,1.9,2.3.7,1.8.7,2.7c0,1.8-.7,3.4-2.1,4.7s-3.2,2-5.4,2-1.3,0-2-.2c-.4,0-1.1-.3-2.3-.6s-1.9-.6-2.2-.6-.5,0-.7.3-.3.5-.4,1.1h-.7v-8.2h.7c.3,1.7.7,3,1.2,3.8s1.3,1.6,2.4,2.1,2.2.8,3.5.8,2.6-.4,3.5-1.2,1.3-1.7,1.3-2.7-.2-1.2-.5-1.8-.8-1.2-1.5-1.7c-.5-.4-1.7-1.1-3.7-2.2s-3.5-2.1-4.4-2.7-1.5-1.4-2-2.2-.7-1.7-.7-2.7c0-1.7.7-3.2,2-4.4s3-1.9,5-1.9,2.6.3,4,.9c.7.3,1.1.4,1.4.4s.6,0,.7-.3.3-.5.5-1.1h.7Z"/>
    <path class="st0" d="M511.8,151.1c0,2.4.6,4.3,1.7,5.6s2.5,2,4.1,2,2-.3,2.8-.9,1.4-1.6,2-3l.5.4c-.2,1.6-1,3.1-2.1,4.4s-2.7,2-4.4,2-3.6-.8-5-2.3-2.1-3.5-2.1-6.1.7-4.9,2.1-6.4,3.2-2.3,5.3-2.3,3.3.6,4.4,1.8,1.7,2.8,1.7,4.8h-11.1ZM511.8,150.1h7.5c0-1-.2-1.8-.4-2.2-.3-.7-.7-1.2-1.3-1.5s-1.2-.6-1.8-.6c-1,0-1.8.4-2.6,1.1s-1.2,1.8-1.3,3.2Z"/>
    <path class="st0" d="M538.8,155c-.4,2.1-1.3,3.8-2.5,4.9s-2.7,1.7-4.2,1.7-3.4-.8-4.8-2.3-2-3.6-2-6.2.8-4.6,2.3-6.2,3.3-2.4,5.4-2.4,2.9.4,3.9,1.3,1.5,1.7,1.5,2.6-.1.8-.4,1.1-.7.4-1.2.4-1.2-.2-1.6-.7c-.2-.2-.3-.7-.4-1.4s-.3-1.2-.7-1.6c-.4-.4-1-.5-1.7-.5-1.2,0-2.1.4-2.8,1.3-.9,1.1-1.4,2.7-1.4,4.6s.5,3.6,1.4,5.1,2.2,2.2,3.8,2.2,2.2-.4,3.1-1.2c.6-.5,1.3-1.5,1.9-2.9l.5.2Z"/>
    <path class="st0" d="M545.7,139.7v5.3h3.8v1.2h-3.8v10.4c0,1,.1,1.7.4,2.1s.7.5,1.2.5.8-.1,1.1-.4.6-.6.8-1.1h.7c-.4,1.1-1,2-1.7,2.6s-1.5.9-2.3.9-1.1-.1-1.6-.4-.9-.7-1.1-1.3-.4-1.4-.4-2.6v-10.8h-2.5v-.6c.6-.3,1.3-.7,2-1.3s1.3-1.3,1.8-2.2c.3-.4.6-1.3,1.1-2.4h.5Z"/>
    <path class="st0" d="M556.6,144.5v12.9c0,1,0,1.7.2,2s.4.6.7.7.8.2,1.6.2v.6h-7.8v-.6c.8,0,1.3,0,1.6-.2s.5-.4.6-.8.2-1,.2-2v-6.2c0-1.7,0-2.9-.2-3.4,0-.4-.2-.6-.4-.8s-.4-.2-.7-.2-.7,0-1.2.3l-.2-.6,4.9-2h.8ZM555.2,136.1c.5,0,.9.2,1.3.5s.5.8.5,1.3-.2.9-.5,1.3-.8.5-1.3.5-.9-.2-1.3-.5-.5-.8-.5-1.3.2-.9.5-1.3.8-.5,1.3-.5Z"/>
    <path class="st0" d="M568.9,144.5c2.4,0,4.4.9,5.9,2.8,1.3,1.6,1.9,3.4,1.9,5.4s-.3,2.9-1,4.4-1.6,2.6-2.9,3.3-2.6,1.1-4.1,1.1c-2.4,0-4.4-1-5.8-2.9-1.2-1.6-1.8-3.5-1.8-5.5s.4-2.9,1.1-4.4,1.7-2.5,2.9-3.2,2.5-1,3.8-1ZM568.4,145.7c-.6,0-1.2.2-1.9.6s-1.1,1-1.5,1.9-.6,2.1-.6,3.6c0,2.3.5,4.4,1.4,6.1s2.2,2.5,3.7,2.5,2.1-.5,2.8-1.4,1.1-2.5,1.1-4.8-.6-5.1-1.8-6.8c-.8-1.1-1.9-1.7-3.2-1.7Z"/>
    <path class="st0" d="M583.8,147.9c1.9-2.3,3.7-3.4,5.4-3.4s1.6.2,2.3.7,1.1,1.2,1.5,2.2c.3.7.4,1.8.4,3.2v6.9c0,1,0,1.7.2,2.1.1.3.3.5.6.7s.8.2,1.6.2v.6h-8v-.6h.3c.8,0,1.3-.1,1.6-.3s.5-.6.6-1c0-.2,0-.7,0-1.7v-6.6c0-1.5-.2-2.5-.6-3.2s-1-1-1.9-1c-1.4,0-2.8.8-4.2,2.3v8.5c0,1.1,0,1.8.2,2,.2.3.4.6.7.7s.9.2,1.7.2v.6h-8v-.6h.4c.8,0,1.4-.2,1.7-.6s.4-1.2.4-2.4v-6c0-1.9,0-3.1-.1-3.5s-.2-.7-.4-.9-.4-.2-.7-.2-.7,0-1.2.3l-.3-.6,4.9-2h.8v3.4Z"/>
    <path class="st0" d="M606.8,141.8c.7-1.6,1.5-2.8,2.6-3.7s2.3-1.3,3.9-1.3,3.4.6,4.4,1.9c.8.9,1.2,1.9,1.2,3,0,1.7-1.1,3.5-3.3,5.4,1.5.6,2.6,1.4,3.3,2.5s1.1,2.3,1.1,3.8c0,2.1-.7,3.8-2,5.4-1.7,2-4.2,3-7.4,3s-2.7-.2-3.3-.6-.9-.8-.9-1.3.1-.6.4-.9.6-.4,1-.4.6,0,.9.1c.2,0,.7.3,1.4.6s1.2.6,1.5.7c.4.1.9.2,1.4.2,1.2,0,2.2-.5,3.1-1.4s1.3-2,1.3-3.3-.2-1.8-.6-2.7c-.3-.7-.6-1.2-1-1.5-.5-.5-1.2-.9-2.1-1.3s-1.8-.6-2.7-.6h-.6v-.5c.9-.1,1.9-.5,2.8-1s1.6-1.2,2-2,.6-1.6.6-2.5-.4-2.2-1.1-2.9-1.7-1.1-2.8-1.1c-1.8,0-3.3,1-4.6,2.9l-.6-.3Z"/>
    <path class="st0" d="M640.9,144.5c2.4,0,4.4.9,5.9,2.8,1.3,1.6,1.9,3.4,1.9,5.4s-.3,2.9-1,4.4-1.6,2.6-2.9,3.3-2.6,1.1-4.1,1.1c-2.4,0-4.4-1-5.8-2.9-1.2-1.6-1.8-3.5-1.8-5.5s.4-2.9,1.1-4.4,1.7-2.5,2.9-3.2,2.5-1,3.8-1ZM640.4,145.7c-.6,0-1.2.2-1.9.6s-1.1,1-1.5,1.9-.6,2.1-.6,3.6c0,2.3.5,4.4,1.4,6.1s2.2,2.5,3.7,2.5,2.1-.5,2.8-1.4,1.1-2.5,1.1-4.8-.6-5.1-1.8-6.8c-.8-1.1-1.9-1.7-3.2-1.7Z"/>
    <path class="st0" d="M657.4,146.3v10.6c0,1.5.2,2.4.5,2.8.4.5,1,.8,1.7.8h1.5v.6h-9.6v-.6h.7c.5,0,.9-.1,1.3-.4s.7-.6.8-.9.2-1.2.2-2.3v-10.6h-3.1v-1.3h3.1v-1.1c0-1.6.3-3,.8-4.1s1.3-2,2.4-2.7,2.3-1,3.6-1,2.4.4,3.4,1.2c.7.5,1,1.1,1,1.8s-.2.7-.5,1-.6.5-1,.5-.6,0-.9-.3-.7-.6-1.1-1.2-.8-1.1-1.2-1.3-.8-.3-1.2-.3-1,.1-1.4.4-.6.7-.8,1.3-.2,2.2-.2,4.7v1.2h4.1v1.3h-4.1Z"/>
    <path class="st0" d="M676.7,139.7v5.3h3.8v1.2h-3.8v10.4c0,1,.1,1.7.4,2.1s.7.5,1.2.5.8-.1,1.1-.4.6-.6.8-1.1h.7c-.4,1.1-1,2-1.7,2.6s-1.5.9-2.3.9-1.1-.1-1.6-.4-.9-.7-1.1-1.3-.4-1.4-.4-2.6v-10.8h-2.5v-.6c.6-.3,1.3-.7,2-1.3s1.3-1.3,1.8-2.2c.3-.4.6-1.3,1.1-2.4h.5Z"/>
    <path class="st0" d="M686.8,136.1v11.8c1.3-1.4,2.3-2.3,3.1-2.8s1.5-.6,2.3-.6,1.7.3,2.4.8,1.1,1.3,1.5,2.4c.2.8.3,2.1.3,4.1v5.7c0,1,0,1.7.2,2.1.1.3.3.5.6.7s.8.2,1.5.2v.6h-7.9v-.6h.4c.8,0,1.3-.1,1.6-.3s.5-.6.6-1c0-.2,0-.7,0-1.7v-5.7c0-1.8,0-2.9-.3-3.5s-.5-1-.9-1.2-.9-.4-1.4-.4-1.2.2-1.8.5-1.4.9-2.2,1.8v8.5c0,1.1,0,1.8.2,2.1s.4.5.7.7.9.3,1.7.3v.6h-8v-.6c.7,0,1.3-.1,1.7-.3.2-.1.4-.3.6-.7s.2-1,.2-2v-14.6c0-1.8,0-3-.1-3.4s-.2-.7-.4-.9-.4-.2-.7-.2-.6,0-1.2.3l-.2-.6,4.8-2h.8Z"/>
    <path class="st0" d="M702.8,151.1c0,2.4.6,4.3,1.7,5.6s2.5,2,4.1,2,2-.3,2.8-.9,1.4-1.6,2-3l.5.4c-.2,1.6-1,3.1-2.1,4.4s-2.7,2-4.4,2-3.6-.8-5-2.3-2.1-3.5-2.1-6.1.7-4.9,2.1-6.4,3.2-2.3,5.3-2.3,3.3.6,4.4,1.8,1.7,2.8,1.7,4.8h-11.1ZM702.8,150.1h7.5c0-1-.2-1.8-.4-2.2-.3-.7-.7-1.2-1.3-1.5s-1.2-.6-1.8-.6c-1,0-1.8.4-2.6,1.1s-1.2,1.8-1.3,3.2Z"/>
    <path class="st0" d="M741.1,137.9v-.7h8.4v.7h-.9c-.9,0-1.7.4-2.2,1.2-.2.4-.4,1.2-.4,2.5v9.7c0,2.4-.2,4.2-.7,5.6s-1.4,2.4-2.8,3.4-3.3,1.4-5.7,1.4-4.6-.5-5.9-1.4-2.3-2.1-2.9-3.6c-.4-1-.6-3-.6-5.9v-9.3c0-1.5-.2-2.4-.6-2.9s-1.1-.7-2-.7h-.9v-.7h10.3v.7h-.9c-1,0-1.7.3-2.1.9-.3.4-.4,1.3-.4,2.6v10.4c0,.9,0,2,.3,3.2s.5,2.1.9,2.8,1.1,1.2,1.9,1.7,1.9.7,3.1.7,3-.3,4.2-1,2.1-1.5,2.5-2.6.7-2.9.7-5.4v-9.7c0-1.5-.2-2.4-.5-2.8-.5-.5-1.1-.8-2-.8h-.9Z"/>
    <path class="st0" d="M772,136.7l.6,7.5h-.6c-.6-1.9-1.4-3.3-2.4-4.2-1.4-1.4-3.2-2.1-5.5-2.1s-5.3,1.2-6.9,3.6c-1.3,2-2,4.4-2,7.2s.4,4.3,1.3,6.2,2,3.2,3.5,4.1,2.9,1.3,4.4,1.3,1.7-.1,2.5-.3,1.6-.6,2.4-1v-6.9c0-1.2,0-2-.3-2.3s-.5-.7-.8-.8-1.1-.3-2-.3v-.7h9.2v.7h-.4c-.9,0-1.5.3-1.9.9-.2.4-.4,1.3-.4,2.6v7.3c-1.3.7-2.7,1.3-4,1.6s-2.8.5-4.4.5c-4.6,0-8.1-1.5-10.5-4.4s-2.7-4.8-2.7-7.7.5-4.1,1.5-6c1.2-2.3,2.8-4,4.9-5.3,1.7-1,3.8-1.5,6.2-1.5s1.7,0,2.4.2,1.7.5,3,.9c.7.2,1.1.4,1.3.4s.4-.1.6-.3.3-.6.3-1.2h.7Z"/>
    <path class="st0" d="M797.6,136.7l.5,8.1h-.5c-.7-2.4-1.8-4.2-3.1-5.2s-3-1.6-4.9-1.6-3,.4-4.3,1.2-2.3,2.1-3,3.8-1.1,3.9-1.1,6.6.3,4,1,5.6,1.7,2.8,3.1,3.6,3,1.3,4.8,1.3,2.9-.3,4.1-1,2.5-2,3.9-3.9l.5.4c-1.2,2.1-2.6,3.7-4.2,4.7s-3.5,1.5-5.7,1.5c-3.9,0-7-1.5-9.2-4.4-1.6-2.2-2.4-4.7-2.4-7.7s.5-4.6,1.6-6.6,2.5-3.5,4.4-4.6,3.9-1.6,6.1-1.6,3.4.4,5.1,1.3c.5.3.8.4,1.1.4.3,0,.6-.1.8-.3.3-.3.5-.8.7-1.3h.6Z"/>
    <path class="st0" d="M823.4,153.1h-9.2l-1.6,3.8c-.4.9-.6,1.6-.6,2.1s.2.7.5,1,1.1.5,2.2.5v.7h-7.5v-.7c1-.2,1.6-.4,1.9-.7.6-.6,1.3-1.7,2-3.4l8.4-19.6h.6l8.3,19.8c.7,1.6,1.3,2.6,1.8,3.1s1.3.7,2.3.8v.7h-9.4v-.7c.9,0,1.6-.2,1.9-.5s.5-.6.5-1-.2-1.3-.7-2.4l-1.4-3.4ZM822.9,151.8l-4-9.6-4.1,9.6h8.2Z"/>
    <path class="st0" d="M847.7,155c-.4,2.1-1.3,3.8-2.5,4.9s-2.7,1.7-4.2,1.7-3.4-.8-4.8-2.3-2-3.6-2-6.2.8-4.6,2.3-6.2,3.3-2.4,5.4-2.4,2.9.4,3.9,1.3,1.5,1.7,1.5,2.6-.1.8-.4,1.1-.7.4-1.2.4-1.2-.2-1.6-.7c-.2-.2-.3-.7-.4-1.4s-.3-1.2-.7-1.6c-.4-.4-1-.5-1.7-.5-1.2,0-2.1.4-2.8,1.3-.9,1.1-1.4,2.7-1.4,4.6s.5,3.6,1.4,5.1,2.2,2.2,3.8,2.2,2.2-.4,3.1-1.2c.6-.5,1.3-1.5,1.9-2.9l.5.2Z"/>
    <path class="st0" d="M854.7,139.7v5.3h3.8v1.2h-3.8v10.4c0,1,.1,1.7.4,2.1s.7.5,1.2.5.8-.1,1.1-.4.6-.6.8-1.1h.7c-.4,1.1-1,2-1.7,2.6s-1.5.9-2.3.9-1.1-.1-1.6-.4-.9-.7-1.1-1.3-.4-1.4-.4-2.6v-10.8h-2.5v-.6c.6-.3,1.3-.7,2-1.3s1.3-1.3,1.8-2.2c.3-.4.6-1.3,1.1-2.4h.5Z"/>
    <path class="st0" d="M860.9,167.1v-.8c1.2-.4,2.1-1,2.8-1.9s1-1.7,1-2.7,0-.4-.2-.6c0-.1-.2-.2-.2-.2-.1,0-.4.1-.8.4-.2.1-.4.2-.7.2-.6,0-1-.2-1.4-.5s-.5-.8-.5-1.4.2-1.1.7-1.5,1-.6,1.6-.6,1.5.3,2.1,1,.9,1.6.9,2.7-.4,2.3-1.3,3.4-2.2,1.9-4,2.5Z"/>
    <path class="st0" d="M881.1,139.6l5.8-2.8h.6v20.1c0,1.3,0,2.2.2,2.5s.3.6.7.8,1.1.3,2.1.3v.7h-9v-.7c1.1,0,1.9-.1,2.2-.3s.6-.4.7-.7.2-1.1.2-2.6v-12.9c0-1.7,0-2.8-.2-3.3,0-.4-.2-.7-.4-.8s-.5-.3-.8-.3c-.4,0-1,.2-1.8.5l-.3-.5Z"/>
    <path class="st0" d="M896.8,161.6v-.7c1.5,0,2.9-.4,4.3-1.1s2.6-1.9,3.8-3.6,2.1-3.6,2.6-5.6c-1.8,1.2-3.5,1.8-5,1.8s-3.1-.6-4.3-1.9-1.8-3-1.8-5.2.6-3.9,1.8-5.6c1.4-2,3.3-3,5.6-3s3.6.8,5,2.4c1.7,2,2.6,4.5,2.6,7.4s-.7,5.1-2,7.4-3.1,4.2-5.4,5.7c-1.9,1.2-3.9,1.9-6.2,1.9h-1ZM907.7,149.4c.2-1.5.3-2.7.3-3.7s-.2-2.4-.6-3.7-.9-2.3-1.6-3-1.5-1.1-2.4-1.1-2,.5-2.7,1.4-1.2,2.3-1.2,4.2.5,4.4,1.6,5.8c.8,1,1.7,1.5,2.8,1.5s1.2-.1,1.9-.4,1.4-.6,2-1.1Z"/>
    <path class="st0" d="M928.5,137.3l-1.4,3h-7.2l-1.6,3.2c3.1.5,5.6,1.6,7.4,3.5,1.6,1.6,2.3,3.5,2.3,5.6s-.3,2.4-.8,3.5-1.2,2-1.9,2.7-1.6,1.4-2.6,1.8c-1.3.6-2.7,1-4.1,1s-2.5-.2-3.1-.7-1-1-1-1.6.1-.6.4-.9.6-.4,1-.4.6,0,.8.1.6.3,1.2.7c.9.6,1.8.9,2.7.9,1.4,0,2.6-.5,3.6-1.6s1.6-2.3,1.6-3.8-.5-2.8-1.4-4-2.2-2.2-3.8-2.9c-1.3-.5-3-.8-5.2-.9l4.6-9.3h8.5Z"/>
    <path class="st0" d="M947.1,136.8v.7c-1.5.2-2.8.5-3.8.9s-1.9,1.2-2.9,2.1-1.7,2-2.4,3.2-1.2,2.6-1.6,4.2c1.7-1.2,3.4-1.7,5.1-1.7s3,.7,4.2,2,1.8,3,1.8,5.1-.6,3.8-1.8,5.4c-1.5,2-3.4,3-5.8,3s-3-.5-4.1-1.6c-2.2-2.1-3.3-4.8-3.3-8.2s.4-4.2,1.3-6.1,2.1-3.6,3.7-5.1,3.1-2.5,4.6-3,2.8-.8,4.1-.8h1ZM936.1,149.1c-.2,1.6-.3,2.9-.3,3.8s.2,2.3.6,3.7,1,2.4,1.9,3.1c.6.6,1.3.8,2.2.8s1.9-.5,2.7-1.4,1.2-2.3,1.2-4.1-.4-3.7-1.2-5.2-1.9-2.2-3.4-2.2-.9,0-1.4.3-1.3.6-2.3,1.2Z"/>
    <path class="st0" d="M949.7,136.9v-.7c1.8.9,3.3,1.9,4.4,3.1,1.7,1.7,3,3.7,3.9,6s1.4,4.7,1.4,7.2c0,3.6-.9,6.9-2.7,9.9s-4.1,5.1-7,6.4v-.7c1.4-.8,2.6-1.9,3.6-3.3s1.6-3.1,2.1-5.3.7-4.3.7-6.7-.2-4.8-.6-6.8c-.3-1.6-.7-2.9-1.1-3.9s-1-1.9-1.7-2.8-1.7-1.8-2.9-2.6Z"/>
  </g>
</svg>