<?xml version="1.0" encoding="utf-8"?>
<!-- Generator: Adobe Illustrator 13.0.0, SVG Export Plug-In . SVG Version: 6.00 Build 14948)  -->
<!DOCTYPE svg PUBLIC "-//W3C//DTD SVG 1.1//EN" "http://www.w3.org/Graphics/SVG/1.1/DTD/svg11.dtd">
<svg version="1.1" id="Layer_1" xmlns="http://www.w3.org/2000/svg" xmlns:xlink="http://www.w3.org/1999/xlink" x="0px" y="0px"
	 width="35px" height="35px" viewBox="0 0 300 300" enable-background="new 0 0 300 300" xml:space="preserve">
<g>
	<path fill="#FFFFFF" d="M245.988,54.91H58.194c-13.624,0-24.709,11.085-24.709,24.71V183.4v9.885v4.939
		c0,13.625,11.085,24.711,24.709,24.711h69.031c-0.6,10.299-2.907,18.854-4.786,19.768h-4.942c-2.729,0-4.941,2.213-4.941,4.941
		c0,2.729,2.212,4.941,4.941,4.941h4.942h59.303h4.941c2.729,0,4.94-2.213,4.94-4.941s-2.212-4.941-4.94-4.941h-4.863
		c-1.961-0.983-4.266-9.508-4.863-19.768h69.029c13.623,0,24.711-11.086,24.711-24.711v-4.939V183.4V79.62
		C270.698,65.995,259.611,54.91,245.988,54.91z M170.462,242.703h-36.741c2.338-6.055,3.173-13.766,3.436-19.768h29.868
		C167.288,228.938,168.124,236.648,170.462,242.703z M260.814,198.227c0,8.176-6.65,14.824-14.826,14.824H58.194
		c-8.175,0-14.826-6.648-14.826-14.824v-4.94h217.446V198.227z M43.369,183.4V79.62c0-8.176,6.65-14.826,14.826-14.826h187.794
		c8.176,0,14.825,6.65,14.825,14.826V183.4H43.369z"/>
	<path fill="#FFFFFF" d="M142.208,208.109h19.769c2.729,0,4.94-2.213,4.94-4.941s-2.212-4.941-4.94-4.941h-19.769
		c-2.729,0-4.942,2.213-4.942,4.941S139.479,208.109,142.208,208.109z"/>
</g>
<path fill="#FFFFFF" d="M239.393,129.057c-0.396-0.525-1.02-0.835-1.68-0.835h-23.84v-2.987c6.023-0.962,10.706-5.966,11.168-12.142
	c0.675,0.248,1.395,0.404,2.154,0.404h4.207c1.162,0,2.104-0.942,2.104-2.104V98.771c0-12.759-10.381-23.139-23.14-23.139h-8.414
	c-12.759,0-23.14,10.38-23.14,23.139v12.622c0,1.162,0.941,2.104,2.104,2.104h4.207c0.76,0,1.479-0.156,2.153-0.404
	c0.462,6.175,5.144,11.18,11.17,12.142v2.987h-23.842c-0.66,0-1.282,0.31-1.68,0.835c-0.398,0.529-0.525,1.21-0.344,1.845
	l8.334,29.165v3.914c0,3.481,2.83,6.313,6.313,6.313h37.861c3.48,0,6.313-2.83,6.313-6.313v-3.908l8.334-29.169
	C239.918,130.267,239.791,129.586,239.393,129.057z M220.885,97.768l-11.142-4.456c-0.642-0.255-1.38-0.181-1.959,0.211
	c-0.578,0.391-0.925,1.043-0.925,1.742v5.989l-15.426-2.204v-3.785c0-5.027,4.09-9.116,9.117-9.116h11.219
	c5.025,0,9.114,4.089,9.114,9.116L220.885,97.768L220.885,97.768z M225.091,107.186v-4.207c0-1.16,0.943-2.104,2.104-2.104h2.104
	v8.414h-2.104C226.034,109.289,225.091,108.346,225.091,107.186z M201.952,79.839h8.414c9.728,0,17.758,7.377,18.808,16.829h-1.979
	c-0.742,0-1.442,0.151-2.104,0.387v-1.79c0-7.347-5.975-13.323-13.319-13.323h-11.22c-7.348,0-13.323,5.976-13.323,13.323v1.79
	c-0.662-0.236-1.362-0.387-2.104-0.387h-1.979C184.195,87.216,192.227,79.839,201.952,79.839z M185.124,109.289h-2.104v-8.414h2.104
	c1.159,0,2.104,0.943,2.104,2.104v4.207C187.229,108.346,186.283,109.289,185.124,109.289z M191.436,112.095v-4.909V103.3
	l17.229,2.462c0.099,0.014,0.2,0.022,0.298,0.022c0.503,0,0.995-0.182,1.38-0.515c0.459-0.399,0.724-0.979,0.724-1.589v-5.307
	l9.818,3.926v0.679v4.207v4.909c0,5.025-4.089,9.114-9.113,9.114h-11.22C195.523,121.209,191.436,117.12,191.436,112.095z
	 M202.652,125.417h7.014v2.804h-7.014V125.417z M227.195,163.98c0,1.162-0.942,2.104-2.104,2.104h-37.862
	c-1.16,0-2.104-0.941-2.104-2.104v-2.103h42.07V163.98L227.195,163.98z M227.712,157.67h-43.104l-7.213-25.242h23.157h11.22h23.151
	L227.712,157.67z"/>
<g>
	<g>
		<g>
			<g>
				<path fill="#FFFFFF" d="M147.493,167.496c-0.353,0-0.697-0.077-1.022-0.238l-21.45-10.58
					c-5.431,1.928-11.141,2.918-16.987,2.918c-24.968,0-45.286-17.863-45.286-39.783c0-21.937,20.318-39.789,45.286-39.789
					c24.968,0,45.286,17.853,45.286,39.789c0,8.703-3.291,17.219-9.287,24.134l5.693,20.648c0.238,0.876-0.057,1.814-0.757,2.39
					C148.541,167.316,148.023,167.496,147.493,167.496z M125.154,151.857c0.35,0,0.701,0.076,1.023,0.23l17.719,8.744l-4.663-16.9
					c-0.214-0.771-0.01-1.597,0.529-2.171c5.836-6.313,8.926-13.887,8.926-21.948c0-19.394-18.237-35.18-40.658-35.18
					c-22.42,0-40.663,15.773-40.663,35.18c0,19.376,18.242,35.16,40.663,35.16c5.626,0,11.119-0.979,16.308-2.947
					C124.604,151.898,124.88,151.857,125.154,151.857z"/>
			</g>
		</g>
	</g>
	<g>
		<g>
			<g>
				<g>
					<g>
						<g>
							<path fill="#FFFFFF" d="M87.259,129.202c-5.192,0-9.417-4.229-9.417-9.424c0-5.195,4.225-9.427,9.417-9.427
								c5.198,0,9.423,4.232,9.423,9.427C96.682,124.974,92.457,129.202,87.259,129.202z M87.259,114.975
								c-2.642,0-4.792,2.151-4.792,4.803c0,2.645,2.151,4.8,4.792,4.8c2.648,0,4.803-2.155,4.803-4.8
								C92.062,117.126,89.907,114.975,87.259,114.975z"/>
						</g>
					</g>
				</g>
			</g>
		</g>
		<g>
			<g>
				<g>
					<g>
						<g>
							<path fill="#FFFFFF" d="M108.03,129.202c-5.192,0-9.417-4.229-9.417-9.424c0-5.195,4.225-9.427,9.417-9.427
								c5.198,0,9.423,4.232,9.423,9.427C117.454,124.974,113.229,129.202,108.03,129.202z M108.03,114.975
								c-2.642,0-4.792,2.151-4.792,4.803c0,2.645,2.151,4.8,4.792,4.8c2.648,0,4.803-2.155,4.803-4.8
								C112.833,117.126,110.679,114.975,108.03,114.975z"/>
						</g>
					</g>
				</g>
			</g>
		</g>
		<g>
			<g>
				<g>
					<g>
						<g>
							<path fill="#FFFFFF" d="M128.802,129.202c-5.192,0-9.417-4.229-9.417-9.424c0-5.195,4.225-9.427,9.417-9.427
								c5.199,0,9.423,4.232,9.423,9.427C138.225,124.974,134,129.202,128.802,129.202z M128.802,114.975
								c-2.642,0-4.792,2.151-4.792,4.803c0,2.645,2.151,4.8,4.792,4.8c2.648,0,4.803-2.155,4.803-4.8
								C133.605,117.126,131.45,114.975,128.802,114.975z"/>
						</g>
					</g>
				</g>
			</g>
		</g>
	</g>
</g>
</svg>
