<?xml version="1.0" encoding="utf-8"?>
<!-- Generator: Adobe Illustrator 16.0.0, SVG Export Plug-In . SVG Version: 6.00 Build 0)  -->
<!DOCTYPE svg PUBLIC "-//W3C//DTD SVG 1.1//EN" "http://www.w3.org/Graphics/SVG/1.1/DTD/svg11.dtd">
<svg version="1.1" id="Layer_1" xmlns="http://www.w3.org/2000/svg" xmlns:xlink="http://www.w3.org/1999/xlink" x="0px" y="0px"
	 width="120px" height="120px" viewBox="0 0 120 120" enable-background="new 0 0 120 120" xml:space="preserve">
<g>
	<path fill="none" stroke="#000" stroke-width="4" stroke-linecap="round" stroke-linejoin="round" d="M57.723,117.51H12.031
		V92.286c0-11.248,8.647-24.779,24.96-28.018C44.813,78.091,57.723,117.51,57.723,117.51z"/>
	
		<ellipse fill="none" stroke="#000" stroke-width="4" stroke-linecap="round" stroke-linejoin="round" cx="60" cy="28.886" rx="23.01" ry="26.396"/>
	<polygon fill="none" stroke="#000" stroke-width="4" stroke-linecap="round" stroke-linejoin="round" points="67.035,89.051 
		60,94.291 52.965,89.051 55.254,68.545 64.746,68.545 	"/>
	<path fill="none" stroke="#000" stroke-width="4" stroke-linecap="round" stroke-linejoin="round" d="M38.436,67.02
		c0,0,7.556-3.683,10.808-14.393"/>
	<path fill="none" stroke="#000" stroke-width="4" stroke-linecap="round" stroke-linejoin="round" d="M62.277,117.51h45.691
		V92.286c0-11.248-8.647-24.779-24.959-28.018C75.187,78.091,62.277,117.51,62.277,117.51z"/>
	<path fill="none" stroke="#000" stroke-width="4" stroke-linecap="round" stroke-linejoin="round" d="M81.564,67.02
		c0,0-7.557-3.682-10.803-14.392"/>
	<polyline fill="none" stroke="#000" stroke-width="4" stroke-linecap="round" stroke-linejoin="round" points="46.959,59.823 
		60,68.545 72.846,59.823 	"/>
</g>
<!-- Code injected by live-server -->

</svg>
