<?xml version="1.0" encoding="utf-8"?>
<!-- Generator: Adobe Illustrator 16.0.0, SVG Export Plug-In . SVG Version: 6.00 Build 0)  -->
<!DOCTYPE svg PUBLIC "-//W3C//DTD SVG 1.1//EN" "http://www.w3.org/Graphics/SVG/1.1/DTD/svg11.dtd">
<svg version="1.1" id="Layer_1" xmlns="http://www.w3.org/2000/svg" xmlns:xlink="http://www.w3.org/1999/xlink" x="0px" y="0px"
	 width="120px" height="120px" fill="#000" viewBox="0 0 120 120" enable-background="new 0 0 120 120" xml:space="preserve">
<g id="Layer_5">
	<path d="M117.145,54.088h-9.852c-1.191-13.005-12.7-22.582-25.705-21.391c-11.355,1.04-20.352,10.036-21.391,21.391H42.266v-3.941
		h15.764V14.678H10.737v35.469h15.764v3.941H2.855v11.824h9.853v35.469h5.912v7.883h11.823v-7.883h25.617V85.616h35.469v23.647
		h11.823V85.616h3.941V65.912h9.852V54.088z M83.646,36.354c10.158-0.05,18.689,7.628,19.706,17.735H64.04
		C65.052,44.019,73.526,36.354,83.646,36.354z M40.295,46.207H28.472v-7.882h11.823V46.207z M14.678,46.207V18.62h39.41v27.587
		h-9.853V34.384H24.531v11.823H14.678z M30.442,50.147h7.882v3.941h-7.882V50.147z M26.501,105.322H22.56v-3.941h3.941V105.322z
		 M52.118,97.439H16.649V65.912h35.469V97.439z M99.41,105.322h-3.941V85.616h3.941V105.322z M103.352,81.675H56.059V65.912h47.292
		V81.675z M113.203,61.971H6.796v-3.941h106.407V61.971z"/>
	<path d="M83.646,30.442c5.441,0,9.854-4.411,9.854-9.853c0-5.442-4.412-9.853-9.854-9.853s-9.852,4.411-9.852,9.853
		C73.794,26.031,78.204,30.442,83.646,30.442z M83.646,14.678c3.265,0,5.912,2.647,5.912,5.912s-2.647,5.912-5.912,5.912
		s-5.911-2.647-5.911-5.912S80.381,14.678,83.646,14.678z"/>
</g>

</svg>
